<?xml version="1.0" encoding="UTF-8" standalone="no"?>
<!-- Created with Inkscape (http://www.inkscape.org/) -->

<svg
   xmlns:dc="http://purl.org/dc/elements/1.1/"
   xmlns:cc="http://creativecommons.org/ns#"
   xmlns:rdf="http://www.w3.org/1999/02/22-rdf-syntax-ns#"
   xmlns:svg="http://www.w3.org/2000/svg"
   xmlns="http://www.w3.org/2000/svg"
   xmlns:sodipodi="http://sodipodi.sourceforge.net/DTD/sodipodi-0.dtd"
   xmlns:inkscape="http://www.inkscape.org/namespaces/inkscape"
   width="100"
   height="100"
   viewBox="0 0 26.458333 26.458334"
   version="1.1"
   id="svg2194"
   inkscape:version="0.92.4 (unknown)"
   sodipodi:docname="Liver.svg">
  <defs
     id="defs2188" />
  <sodipodi:namedview
     id="base"
     pagecolor="#ffffff"
     bordercolor="#666666"
     borderopacity="1.0"
     inkscape:pageopacity="0.0"
     inkscape:pageshadow="2"
     inkscape:zoom="3.959798"
     inkscape:cx="105.75432"
     inkscape:cy="16.756197"
     inkscape:document-units="mm"
     inkscape:current-layer="layer1"
     showgrid="false"
     units="px"
     inkscape:window-width="1853"
     inkscape:window-height="1016"
     inkscape:window-x="67"
     inkscape:window-y="27"
     inkscape:window-maximized="1" />
  <metadata
     id="metadata2191">
    <rdf:RDF>
      <cc:Work
         rdf:about="">
        <dc:format>image/svg+xml</dc:format>
        <dc:type
           rdf:resource="http://purl.org/dc/dcmitype/StillImage" />
        <dc:title></dc:title>
      </cc:Work>
    </rdf:RDF>
  </metadata>
  <g
     inkscape:label="Layer 1"
     inkscape:groupmode="layer"
     id="layer1"
     transform="translate(0,-270.54165)">
    <g
       id="g2852"
       transform="matrix(1.6201657,0,0,1.6201657,-16.190201,-166.58003)">
      <g
         transform="matrix(0.35277777,0,0,-0.35277777,12.23127,274.24163)"
         id="g988">
        <path
           inkscape:connector-curvature="0"
           id="path990"
           style="fill:#339800;fill-opacity:1;fill-rule:nonzero;stroke:none"
           d="m 0,0 c -2.004,-3.545 -2.313,-5.858 -2.313,-9.253 0,-2.311 -1.079,-4.006 -1.386,-6.167 -0.31,-2.156 -1.697,-4.778 0.924,-6.166 3.238,-2.003 7.709,-0.154 10.638,0.925 2.007,0.769 3.858,1.386 5.553,2.468 2.159,1.233 3.698,2.773 6.321,2.773 3.237,0 4.781,0.311 8.018,1.849 3.238,1.39 11.101,7.558 10.64,7.867 -3.844,2.562 -9.406,4.316 -12.493,3.697 -2.31,-0.461 -2.463,-0.921 -4.16,0.619 -1.85,1.851 -3.7,3.082 -6.013,4.164 C 10.95,5.087 4.471,3.701 0.154,0.463" />
      </g>
      <g
         transform="matrix(0.35277777,0,0,-0.35277777,21.08966,275.06155)"
         id="g992">
        <path
           inkscape:connector-curvature="0"
           id="path994"
           style="fill:#1a171b;fill-opacity:1;fill-rule:nonzero;stroke:none"
           d="m 0,0 c -3.463,0.46 -5.913,3.699 -8.958,5.06 -2.924,1.305 -5.951,1.542 -9.106,1.17 -5.344,-0.627 -8.524,-5.445 -8.983,-10.396 -0.295,-3.179 -0.343,-6.467 -0.561,-9.683 -0.08,-1.189 -1.179,-3.276 -0.088,-4.269 3.341,-3.041 8.662,1.553 11.752,2.576 2.249,0.746 4.871,0.092 6.942,1.512 1.893,1.299 2.909,2.924 3.808,5.007 0.911,2.109 1.928,6.153 2.265,7.219 -0.69,-2.179 -2.175,-4.178 -3.16,-6.234 -0.89,-1.854 -1.569,-5.019 1.453,-5.033 6.659,-0.033 12.915,3.855 16.551,9.256 0.076,0.113 0.103,0.271 -0.032,0.359 C 9.721,-2.047 7.875,-0.651 5.368,0.039 2.91,0.715 0.548,-0.889 -1.917,-0.023 -2.27,0.101 -2.824,-0.406 -2.356,-0.57 c 3.713,-1.305 7.287,0.724 11.09,-1.645 5.909,-3.68 -6.72,-8.999 -9.65,-9.811 -10.103,-2.804 -1.572,7.577 -0.98,11.291 0.068,0.431 -0.631,0.259 -0.765,0.029 -3.253,-5.599 -2.754,-13.061 -10.895,-13.91 -1.77,-0.185 -3.262,-0.579 -4.905,-1.254 -2.593,-1.067 -9.825,-5.254 -8.451,1.2 1.504,7.069 -1.389,14.847 6.07,19.404 8.659,5.29 13.323,-4.364 20.583,-5.328 C 0.142,-0.647 0.52,-0.069 0,0" />
      </g>
    </g>
  </g>
</svg>
