<?xml version="1.0" standalone="no"?>
<!DOCTYPE svg PUBLIC "-//W3C//DTD SVG 1.1//EN" "http://www.w3.org/Graphics/SVG/1.1/DTD/svg11.dtd" >
<svg xmlns="http://www.w3.org/2000/svg" xmlns:xlink="http://www.w3.org/1999/xlink" version="1.1">
<metadata>
Created by FontForge 20170910 at Sat Jan 29 22:59:55 2011
 By Jimmy Wärting
Copyright (c) 2010 by David Kerkhoff. All rights reserved.
</metadata>
<defs>
<font id="RabbitOnTheMoon" horiz-adv-x="444" >
  <font-face 
    font-family="Rabbit On The Moon"
    font-weight="400"
    font-stretch="normal"
    units-per-em="1000"
    panose-1="3 8 7 1 5 6 1 10 0 0"
    ascent="800"
    descent="-200"
    x-height="482"
    cap-height="742"
    bbox="-41 -389 1403 1024"
    underline-thickness="50"
    underline-position="-100"
    unicode-range="U+0020-FB02"
  />
<missing-glyph horiz-adv-x="500" 
 />
    <glyph glyph-name=".notdef" horiz-adv-x="500" 
 />
    <glyph glyph-name="B" unicode="B" horiz-adv-x="477" 
d="M85 1q-1 8 -1 13t2 13l-1 209q-11 76 -12 154.5t-4 153.5q-3 35 -5.5 70t-1.5 70q0 6 -1.5 11.5t1.5 11.5q6 9 17.5 14t25 7.5t26.5 3t22 1.5q24 2 45 -4t39 -17.5t33 -27.5t26 -34q4 -8 6.5 -18.5t6.5 -17.5l7 -66q-1 -2 -2 -11t-1 -12q-2 -16 -8 -32.5t-4 -31.5
q1 -13 12.5 -23.5t19.5 -19.5q3 -3 11 -12t11 -12q-1 -3 4.5 -12t13 -20.5t13 -23t4.5 -17.5q1 -3 4.5 -11t7 -17t6 -16.5l3.5 -10.5q0 -1 1 -12.5t3 -17.5q5 -45 -2.5 -86.5t-21.5 -83.5q1 -2 0 -5t-2 -5q-10 -19 -22.5 -35.5t-35.5 -23.5q-4 0 -12.5 -1t-18.5 -2.5
t-18.5 -2.5t-12.5 -1q-6 0 -16 -1l-20 -2t-17.5 -1.5t-8.5 -0.5t-5 -0.5t-9 -0.5t-10 0.5t-7 0.5q-13 0 -27.5 1.5t-28.5 1.5q-15 -1 -24 -2t-11 15zM181 100q1 -10 13.5 -14t20.5 -3q27 3 43 14t23 27t8 36t-2 40q-4 38 -18 76.5t-49 62.5q-7 4 -12.5 6.5t-13.5 1.5
q-6 0 -9 -5t-4 -11.5t-1 -13.5v-11v-83q1 -2 2 -11.5t1 -11.5q1 -26 -1.5 -50t-0.5 -50zM176 508q1 -3 4.5 -4t5.5 -1q5 1 6 5q9 18 11 34t0 36q-1 5 -2.5 11.5t-5 12t-8.5 9t-12 2.5q-1 0 -3.5 -1t-3.5 -1l-3 -6z" />
    <glyph glyph-name="C" unicode="C" horiz-adv-x="337" 
d="M79 91q1 2 -1.5 9t-6 15.5t-7 16t-4.5 11.5v35v34q0 6 0.5 26.5t1 44t1 44t0.5 26.5v62q1 7 1.5 22.5t1.5 32t1.5 30.5t1.5 19q0 2 1 12.5t3 14.5q3 17 4 36t6 36q6 16 19 38t31.5 41.5t40.5 33.5t46 14q18 0 28 -1t17.5 -4t13.5 -9.5t15 -18.5q0 -2 2 -4l2 -2v-92l-8 -6
q-45 -2 -71.5 -19t-35.5 -53q-1 -8 -2.5 -26.5t-3.5 -39t-4 -39t-2 -25.5v-39q0 -38 0.5 -71t2.5 -73q2 -29 12 -47t24 -28.5t30 -16t30 -9t24 -8t12 -12.5v-27q0 -8 1 -19.5t-0.5 -23t-6.5 -20.5t-18 -12h-27q-60 0 -106.5 21t-69.5 70z" />
    <glyph glyph-name="D" unicode="D" horiz-adv-x="420" 
d="M97 -6q-2 1 -3 8.5t-1 9.5q-6 36 -2 71.5t3 70.5q-2 45 -9.5 89.5t-11.5 89.5q-1 35 0 67.5t1 67.5q1 32 -2 64.5t-5 64.5v6v10.5v10.5v7q-1 5 -2 17t-2 25.5t-2 25.5t-1 17q2 8 4 12t8 7q2 1 11.5 2.5t12.5 1.5q55 7 99 -5t76.5 -39t53 -66.5t28.5 -86.5q5 -38 5 -74
t-3 -75q4 -20 1 -39t-1 -39q1 -32 4 -74.5t-1.5 -85t-21 -79t-53.5 -56.5q-36 -18 -76.5 -24t-80.5 -11q-2 0 -9.5 -1t-9.5 -1q-2 2 -5.5 4.5t-4.5 6.5zM192 126q5 -8 13 -7q11 1 17.5 12t10 24.5t5 27.5t2.5 22q1 7 2 19.5t2 24t1.5 20t0.5 9.5l-1 8q0 55 1 113.5t-8 115.5
q-5 29 -11.5 46t-28.5 38q-3 5 -5.5 8t-9.5 2q-5 -1 -3.5 -8.5t1.5 -8.5q3 -61 4 -122t3 -122q1 -50 -3 -101.5t4 -101.5q0 -2 1.5 -9.5t1.5 -9.5z" />
    <glyph glyph-name="E" unicode="E" horiz-adv-x="442" 
d="M85 3q-4 3 -8 6.5t-4 8.5q-5 48 0.5 97t5.5 97q0 60 -3.5 120.5t-7.5 121t-6.5 120.5t-0.5 119q0 6 3.5 13t10.5 8q10 1 23.5 -1t22.5 -1q4 0 15 0.5t23.5 1t23.5 1t15 0.5q1 0 8 1t15 2t14.5 2t8.5 1q6 0 19.5 1t27 0t24.5 -4t12 -12l7 -84q1 -8 -7 -13.5t-15 -6.5
q-20 -2 -40 1.5t-41 1.5q-5 0 -13 -0.5t-16.5 -2.5t-14.5 -6t-6 -12q3 -40 0 -83t1 -84q0 -5 1 -13t6 -13q4 -3 12.5 -4.5t17.5 -1.5t17 0.5t12 0.5t15 1t23 2.5t23 2.5t15 1q3 0 5 -3.5t2 -5.5l7 -65q1 -9 -4.5 -18t-13.5 -10q-22 -3 -44 0.5t-45 1.5q-14 -2 -20 -7.5
t-8 -13.5t-2 -18v-21q0 -3 -1 -14.5t-2.5 -24.5t-2.5 -24t-2 -14q2 -1 1 -6t1 -8q0 -6 2 -14.5t11 -8.5h23.5h35h35h22.5q16 0 29 -3t18 -22q0 -2 1.5 -9.5t3 -17l3 -19t2.5 -14.5v-6q2 -14 -7 -16t-20 -4q-42 -5 -84 -2.5t-84 3.5q-3 1 -15 -0.5t-14 -1.5q-4 0 -14.5 -0.5
t-22 -1.5t-21.5 -1.5t-14 -0.5z" />
    <glyph glyph-name="A" unicode="A" horiz-adv-x="472" 
d="M344 9q-5 2 -10 6.5t-6 9.5l-24 212q0 4 -3.5 7t-6.5 2l-116 -11l19 -175q2 -16 9 -29.5t9 -28.5q1 -6 -1 -7.5t-9 -2.5q-2 0 -5.5 -0.5t-4.5 -0.5h-12.5t-17.5 -0.5t-16.5 -1t-9.5 -0.5q-18 0 -29 4t-17 12t-8.5 19.5t-4.5 26.5q-5 55 -8 109.5t-5 110.5q0 1 -0.5 11
t-1.5 23t-2 25.5t-2 19.5q-2 38 3.5 70t12.5 70q-6 17 2.5 36t13.5 34q2 8 2.5 15t3.5 16q0 1 1 3.5t2 2.5q11 20 19 40.5t22 40.5q9 12 22 24.5t28 23.5t31.5 18t32.5 9q45 4 70 -12.5t39.5 -42.5t22.5 -57.5t18 -58.5q0 -3 1.5 -11t2.5 -17t2.5 -16.5t1.5 -10.5
q7 -66 8.5 -133t4.5 -133q0 -17 -2.5 -35t-1.5 -35q0 -2 1 -10.5t2 -18.5t2.5 -18.5t1.5 -10.5v-33q0 -2 0.5 -10.5t1 -18.5t1 -18.5t0.5 -11.5q0 -6 -2 -18t-13 -14h-2q-1 0 -6.5 1t-6.5 1q-3 0 -12 -0.5t-18.5 -0.5t-18 -0.5t-11.5 -0.5zM180 369q1 -12 14 -17t30 -6.5
t34 -1t26 1.5q2 0 8 0.5t8 0.5q2 3 3 5.5t2 5.5q0 6 -1 19.5t-1.5 29.5t-1 29.5t-0.5 19.5q1 2 1 9v10l-10 97q-1 7 -5 16t-10 16.5t-14.5 12t-17.5 3.5q-8 -1 -15 -5q-33 -34 -41 -71t-9 -81q0 -24 -1 -47t1 -47z" />
    <glyph glyph-name="braceleft" unicode="{" horiz-adv-x="384" 
d="M84 199q-2 2 -6 5t-4 6l-8 75q-1 8 8 13.5t21 12.5t22 16t12 23q2 28 5 54.5t1 52.5q0 5 -2.5 25.5t-5 44t-4.5 44t-3 26.5q-1 4 -1 15.5t1 13.5q4 37 14 63t28 42.5t44 26t61 14.5q2 0 7 0.5t7 1.5q7 -4 12 -13t6 -14l9 -79q0 -5 -4.5 -10.5t-8.5 -8.5q-3 0 -9 -0.5
t-12.5 -1t-12.5 -1.5t-8 -2q-17 -3 -25 -23t-10 -44.5t-0.5 -48.5t2.5 -34q2 -23 6.5 -45.5t6.5 -45.5q0 -3 1.5 -15.5t1.5 -15.5q-1 -9 -4 -18.5t-6 -19.5t-5.5 -19t-1.5 -17q2 -9 7.5 -17t9.5 -16q3 -8 4.5 -18.5t2.5 -18.5q3 -25 2.5 -51.5t1.5 -52.5q3 -22 13 -36
t25 -21.5t34 -8t39 4.5q3 -1 5 -2t5 -4l8 -78q1 -8 -3 -16.5t-12 -11.5q-2 0 -8.5 -1.5t-8.5 -1.5q-24 -3 -50.5 -0.5t-50.5 11.5t-43.5 24.5t-31.5 38.5q-2 2 -6.5 8.5t-4.5 11.5l-15 138q-1 9 -8.5 12.5t-17.5 5t-19 1.5h-13z" />
    <glyph glyph-name="Y" unicode="Y" horiz-adv-x="497" 
d="M197 -22q0 4 -0.5 15t-1 23t-1 22.5t-0.5 14.5q-3 70 -3.5 139t-5.5 138q-1 18 -5 26.5t-14 26.5v3q-15 20 -28.5 40.5t-28.5 39.5q-5 7 -15.5 25t-22 38t-21.5 37.5t-14 25.5q0 1 -2.5 6.5t-6 12.5l-7 14l-5.5 11q-4 11 -6.5 16.5t-3.5 15.5q0 7 8.5 14.5t20.5 14
t24 11.5t18 8l2 1q6 0 12 -7.5t11.5 -17.5t10 -20t7.5 -15q35 -51 71.5 -99.5t65.5 -103.5q-1 -2 3 -6q2 -2 4 -3h1h1q1 0 3 1l4 2q2 2 8.5 12.5t8.5 13.5q19 34 35 67.5t34 66.5q1 0 2.5 2t1.5 3q1 2 3.5 9t5.5 14.5t5.5 14.5t3.5 9q1 4 4.5 11.5t8 15t10.5 13.5t12 6
q5 0 6.5 -0.5t5.5 -2.5q1 -1 7.5 -5t14 -8.5t14 -8.5t8.5 -5q11 -5 18.5 -9.5t7.5 -16.5q1 -13 -4.5 -20.5t-12.5 -19.5q-15 -30 -28.5 -61t-31.5 -60q-2 -2 -8.5 -11.5t-14 -20.5t-14 -20.5t-7.5 -12.5q-12 -20 -29.5 -43t-23.5 -46q-5 -20 -3 -39t1 -39q-1 -53 -7 -101.5
t-11 -101.5q-1 -9 0 -22t0.5 -26.5t-4 -25.5t-13.5 -19h-20q-8 0 -18.5 -1t-20.5 0t-18.5 5t-11.5 13z" />
    <glyph glyph-name="a" unicode="a" horiz-adv-x="342" 
d="M217 12q-8 0 -14.5 -3t-13.5 -6t-16 -6t-23 -4q-22 -1 -43 4t-37.5 15.5t-27.5 27t-12 39.5q-2 38 7.5 66.5t28.5 48.5t46.5 34t62.5 24l12 12q0 1 -1 10.5t-1 14.5q-2 29 -4.5 61t-18.5 57q-10 12 -23 24.5t-30 16.5q-7 1 -17.5 1t-20 2.5t-17 8t-7.5 16.5l-3 67
q0 2 3 5t7 5l10 6q4 0 14.5 1.5t22 3t22 3t15.5 1.5h5q21 1 39 -8t32.5 -23t26 -31t20.5 -32v-3q6 -22 14.5 -46t10.5 -45q1 -3 1.5 -15t1 -26.5t1 -27t0.5 -16.5l3 -30t3.5 -41t2.5 -38t1 -20q1 -9 4.5 -21.5t7 -26t6.5 -26t3 -22.5q1 -24 -3 -38.5t-26 -25.5
q-3 -2 -7 -3.5t-8 -3.5l-10 -4q-1 0 -5 -0.5t-6 -0.5q-6 0 -11 2.5t-9 6t-8.5 6.5t-10.5 3zM130 107q1 -13 12.5 -15t22.5 -1h15q1 0 4.5 1.5t3.5 2.5l-3 42q0 5 -4.5 7t-9.5 2q-15 -1 -28 -13t-13 -26z" />
    <glyph glyph-name="cent" unicode="&#xa2;" horiz-adv-x="508" 
d="M249 249q-2 6 -8 6q-84 18 -124.5 51t-48.5 92q-4 26 -6.5 57.5t2.5 62.5t20.5 59t46.5 49q4 1 16.5 8t15.5 9q6 3 16 4.5t20.5 3.5t19 5t11.5 9q4 6 2.5 20t-2 28.5t3.5 26t18 12.5q30 2 51.5 -3t26.5 -26q0 -3 2 -10.5t4 -16t3.5 -16.5t2.5 -11q2 -7 12 -7t22 -1.5
t22.5 -9t13.5 -29.5q2 -21 -8.5 -28.5t-42.5 -11.5q-8 -2 -8.5 -9.5t1.5 -11.5q0 -2 1 -10t2.5 -18t3 -18t1.5 -10q4 -38 0.5 -76.5t2.5 -76.5q1 -9 4.5 -13t9.5 -5.5t14.5 -2t19.5 -3.5q7 -2 13.5 -7.5t11 -12.5t7 -13.5t2.5 -10.5q1 -5 -6 -13.5t-13 -8.5l-56 -4l-7 -3
q0 -3 0.5 -9t0.5 -13.5v-13.5v-9q1 -8 -6.5 -14t-19.5 -7q-29 -2 -45.5 0.5t-25.5 10t-13 19.5t-7 30zM159 435q1 -10 6.5 -27.5t15.5 -34.5t26 -28.5t40 -9.5q11 0 15.5 7.5t6 17t1 19t-0.5 14.5q0 6 1 15t1.5 17.5t1 15l0.5 6.5l-18 128q-1 5 -7.5 6t-11.5 1
q-5 -1 -9.5 -1.5t-9.5 -5.5q-40 -28 -52.5 -65t-5.5 -75z" />
    <glyph glyph-name="Q" unicode="Q" horiz-adv-x="532" 
d="M347 43q-13 -3 -23 -10.5t-19.5 -15.5t-20.5 -15t-25 -8q-20 -2 -39 5t-36 17q-31 16 -52 41.5t-34.5 56t-20.5 64t-9 66.5q0 2 -1 4.5t-1 3.5q-1 58 -4.5 117.5t3 116t29 107.5t75.5 92q19 15 47 30t52 17q24 1 42.5 -6t33.5 -19.5t27.5 -29t23.5 -32.5q11 -18 24.5 -35
t17.5 -37q0 -6 1.5 -20.5t2.5 -30.5t2.5 -30t1.5 -19q1 -10 2 -26l2 -32t2 -28.5t1 -13.5q1 -14 1 -32.5t-0.5 -39t-2.5 -40t-5 -34.5q0 -2 -1.5 -8.5t-3 -14t-3 -14t-1.5 -7.5t-0.5 -2.5t-0.5 -2.5q1 -13 13.5 -25t27.5 -25t27.5 -26t13.5 -28q0 -5 -8.5 -22.5t-20 -36
t-23 -33.5t-17.5 -15q-2 0 -3 0.5t-2 0.5l-88 72q-1 2 -4 3t-4 0zM187 323q2 -21 4.5 -48t10 -53t21.5 -47t38 -31q5 3 8 11.5t4 10.5v2q0 2 -1 3q-13 16 -31.5 37.5t-21.5 44.5q0 9 4 17.5t10.5 15t15.5 11t18 5.5t16.5 -3.5t14 -10t11.5 -10t10 -3.5q8 3 11.5 19.5
t4.5 36.5t0 38.5t-2 26.5q0 5 -1.5 21t-4 36.5t-6.5 43t-10 41t-14.5 30.5t-19.5 11q-19 -1 -33 -17t-24.5 -40t-17 -53.5t-10.5 -57.5t-5 -51.5t0 -36.5z" />
    <glyph glyph-name="M" unicode="M" horiz-adv-x="690" 
d="M61 3q-2 28 4 56.5t8 56.5q3 20 4 40t3 40q-1 1 -1 3v4l10 66q-5 16 0.5 32.5t7.5 30.5q1 10 4 38.5t8 65t10.5 77t11.5 75t11.5 58t10.5 26.5q15 9 34.5 10t36.5 2q12 1 19 1t21 -1q12 -7 19 -27q7 -55 21.5 -104.5t28.5 -102.5q1 -2 3 -11.5t4.5 -20.5t5 -20.5
t2.5 -11.5q2 -5 5.5 -17t4.5 -17q0 -1 1 -2t2 -1h1q6 0 9.5 25.5t6 63.5t5 82t6 82t9 63.5t14.5 26.5l105 8q3 0 8 -4.5t6 -8.5l19 -144q2 -8 4.5 -17t4.5 -17q1 -11 4 -34.5t7 -53t8 -61.5t8 -61.5t7.5 -52.5t5.5 -34q1 -10 5 -34t9 -51.5t9.5 -51.5t6.5 -34v-3
q1 -5 -0.5 -13t-6.5 -10l-91 -6l-58 442l-4 17l-56 -458l-60 -5l-120 460l-74 -488q-1 -7 -0.5 -8.5t-4.5 -1.5q-1 0 -1 -0.5t-1 -0.5h-1q-8 1 -22.5 2.5t-29.5 5.5t-26 10.5t-12 18.5z" />
    <glyph glyph-name="hyphen" unicode="-" horiz-adv-x="503" 
d="M404 325q12 0 19 -6t11.5 -14.5t6 -18.5t1.5 -17q0 -8 -0.5 -18.5t-3.5 -20t-9.5 -16.5t-19.5 -7q-23 0 -45.5 3.5t-45.5 3.5q-65 0 -128.5 -8t-129.5 -8v41q0 9 0.5 23t1.5 27q1 15 2 32l55 4h285z" />
    <glyph glyph-name="braceright" unicode="}" horiz-adv-x="386" 
d="M33 -41q-1 14 0.5 31t3.5 29q2 6 8.5 12t14.5 8q3 0 10 0.5t15 1.5t15 1.5t9 0.5q6 1 15 6t17 11t13 12t3 10q2 4 6 15t8.5 22.5t8 22t4.5 14.5q4 10 3 26.5t-1 27.5q-1 13 -4 24.5t-4 25.5q-1 11 6.5 18.5t6.5 18.5q0 9 -8 17.5t-17 18t-17 20.5t-9 25q-2 23 4 46.5
t8 46.5q2 16 1.5 36.5t-1.5 37.5q-2 34 -12.5 53.5t-25 29t-31.5 12t-32 3.5t-26.5 3t-15.5 11q0 2 -0.5 12t-0.5 13q0 5 -1.5 16t-1 21.5t6 19t18.5 8.5q1 0 3 0.5t3 0.5q67 -8 107 -23.5t61.5 -40.5t29.5 -62t11 -89q2 -29 1 -57.5t1 -57.5v-10t1 -10q5 -16 20 -22
t30.5 -10.5t28 -11.5t13.5 -23q1 -14 2 -33t-8 -32q-5 -6 -14.5 -9.5t-18.5 -6.5l-16.5 -5.5t-7.5 -7.5t0.5 -17.5t0.5 -27v-27v-16.5q-1 -31 -10.5 -56t-24.5 -54v-3q-27 -48 -76.5 -69.5t-112.5 -25.5q-11 0 -16 5.5t-5 12.5z" />
    <glyph glyph-name="r" unicode="r" horiz-adv-x="372" 
d="M61 20q-7 139 -7 273t-2 277q20 2 36 3.5t34 1.5h8.5t7.5 -5q4 -18 4 -43t-1 -39q1 -4 4.5 -8t9.5 -4q1 0 3.5 1.5t3.5 2.5q12 12 24 24.5t25 23t28.5 17.5t35.5 7q13 0 28.5 -4t28.5 -12t21.5 -19t8.5 -25q0 -8 -2.5 -24t-8 -31.5t-13 -27.5t-16.5 -12h-6q-13 8 -25 16
t-28 8q-8 0 -17 -5t-17 -12.5t-12.5 -16.5t-1.5 -17q-14 -39 -25 -79t-12 -83q0 -9 -0.5 -31t-0.5 -47.5t0.5 -48t0.5 -31.5q-1 -12 -10.5 -19t-23 -10.5t-27 -4t-22.5 -0.5q-11 0 -17 0.5t-17 3.5z" />
    <glyph glyph-name="b" unicode="b" horiz-adv-x="465" 
d="M220 -13q-5 -2 -7.5 -5.5t-4.5 -7.5t-4.5 -7t-7.5 -4q-2 -2 -6 -2q-3 1 -10.5 2t-15.5 2.5t-15.5 2.5t-10.5 2q-7 2 -17 7t-12 15q-1 3 -1.5 9.5t-0.5 14v13.5v8v23.5v35.5t-0.5 35.5t-0.5 22.5l-18 249q-8 68 -15.5 139.5t-12.5 140.5q0 8 2 9t10 3t26.5 -3t38 -13.5
t35 -18t17.5 -16.5l17 -364q1 -1 2.5 -6t1.5 -7q4 -6 6.5 -7t6.5 0q11 3 22 11.5t22 12.5l2 1q23 6 44.5 -3t39.5 -26.5t30 -39.5t17 -42q6 -29 4 -61t-13 -59.5t-31.5 -48.5t-50.5 -28q-15 -5 -22 -6.5t-21 0.5q-12 2 -23.5 10.5t-22.5 5.5zM250 102q3 -14 17.5 -15.5
t26.5 0.5q28 7 22 38q-3 14 -15.5 24.5t-26.5 6.5q-6 -2 -11 -8t-8 -14.5t-4.5 -17t-0.5 -14.5z" />
    <glyph glyph-name="Z" unicode="Z" horiz-adv-x="512" 
d="M63 21q-2 5 -4 18.5t-4.5 29t-4.5 29t-3 19.5q0 1 -0.5 4.5t-1.5 4.5q0 5 8.5 21t20 34.5t23 35.5t16.5 25q36 53 69 106t66 113q2 2 4.5 5t3.5 5q3 4 9 14.5t13.5 22.5t13.5 23t9 15t11.5 12t6.5 19q-2 6 -6 6l-54 9h-206q-2 0 -5.5 5.5t-3.5 7.5t-2 11.5t-3 12.5
q-1 6 -3 20t-3.5 29t-1 26t5.5 11h3q26 -1 62.5 -2t75.5 -2t78 -2.5t69.5 -2.5t49.5 -1.5l19 -0.5l39 -3l3 -3l1.5 -4.5t2.5 -11l2 -13t1 -9.5q1 -2 2.5 -11t2.5 -14q2 -10 3 -19t-3 -18q-20 -38 -42 -69.5t-44 -63.5q-1 0 -2 -2t-2 -2q-3 -4 -10 -13t-15 -19.5t-15.5 -20
t-10.5 -13.5q-1 -2 -4 -7.5t-6.5 -11.5t-6.5 -11.5t-4 -6.5q-1 -3 -7.5 -13t-14.5 -21.5t-15 -21.5t-9 -12q-2 -5 -7.5 -15t-12 -22t-12 -22.5t-8.5 -14.5q-1 -8 -5 -13.5l-8 -11t-7 -11.5t-1 -14q1 -8 7 -8h1q127 15 256 15q10 0 20.5 -1.5t15.5 -16.5q0 -2 1 -9.5t2 -9.5
q1 -4 1 -11v-8q1 -2 0.5 -14t-0.5 -14q0 -19 1 -32.5t-13 -19.5q-26 -1 -49 -4.5t-48 -4.5q-57 -4 -112.5 -2.5t-112.5 -2.5q-2 0 -10 -1t-18 -2t-18.5 -2t-10.5 -1h-12h-8.5t-8.5 4z" />
    <glyph glyph-name="yen" unicode="&#xa5;" horiz-adv-x="606" 
d="M301 -31q-17 4 -20.5 21.5t-4.5 32.5q-3 22 -5.5 42.5t-4.5 40t-4 40t-3 43.5l-10 10l-62 -4q-6 -1 -9.5 3t-6 10t-4 12.5t-1.5 10.5t0.5 11.5t2 15t3.5 13.5t5 7l74 17l-2 26q-4 0 -12.5 -0.5t-18.5 -0.5h-18.5h-11.5q-6 0 -17.5 0.5t-11.5 1.5l-4 3l-5 60q0 5 6.5 12.5
t11.5 8.5l43 3q5 0 5.5 4t0.5 7q-1 8 -10 23t-19.5 31.5t-18.5 30t-7 18.5l-36 63q1 3 -5.5 14t-14.5 24t-14.5 25t-4.5 17l-26 47l-1 19q0 2 7.5 10t11.5 12q12 11 30 20t32 11q5 0 11 -3q2 -2 6 -7t8.5 -10.5t8.5 -10.5t5 -6q5 -8 16.5 -27t26 -43.5t30.5 -51.5t30.5 -49
t24.5 -36t14 -14q6 0 8.5 3.5t5.5 8.5q1 4 3.5 10l5 12t4 10.5t1.5 5.5v5q1 2 4.5 7.5t7 12.5l6.5 13l4 8t3 7.5t3 7.5v4q1 3 4 9.5t6 14t6 13.5t4 9q5 10 11 29t13.5 37t16.5 31.5t21 14.5q8 1 11 0t11 -6q4 -2 11.5 -5.5t15.5 -8t14.5 -8t8.5 -4.5q9 -6 10.5 -13.5
t2.5 -17.5q0 -2 0.5 -8t0.5 -8q-14 -25 -32.5 -57.5t-25.5 -63.5v-4l-27 -69l1 -3q-1 -3 -3.5 -9.5t-5.5 -13.5t-6 -13.5t-4 -8.5q-2 -4 -4.5 -13t-5.5 -19t-4.5 -19.5t-1.5 -13.5q1 -8 7.5 -9.5t15 -1.5t15 -2t7.5 -12l5 -66q-6 0 -7 3h-17.5t-26 0.5t-26 0.5h-16.5h-3
q-1 0 -1 -0.5t-1 -0.5h-2q-2 -8 -2 -13.5v-13.5q1 -2 1.5 -5t0.5 -4q1 -1 4.5 -1.5t5.5 -0.5q4 -1 13.5 -2.5t20.5 -3t20.5 -3t14.5 -1.5l4 -6q0 -1 1 -8t1 -10q1 -8 1 -17.5t-2.5 -17t-8 -13t-16.5 -6.5l-3 -1q-2 0 -7.5 0.5t-12 0.5h-12.5h-7h-2q-9 -1 -11 -10.5t-2 -16.5
q-1 -5 -1.5 -20t0.5 -19q0 -9 1 -30t2.5 -44.5t2.5 -44t2 -28.5q-5 -19 -25 -21h-7q-3 0 -10.5 0.5t-16 1t-16 1t-10.5 0.5z" />
    <glyph glyph-name="underscore" unicode="_" horiz-adv-x="691" 
d="M71 -155q-3 1 -7 3.5t-4 6.5v72q0 11 7.5 14.5t18.5 3.5q65 1 130 -0.5t130 -2.5h20.5t35 0.5t34.5 0.5h20q9 0 30.5 -1t46 -2t46.5 -2t30 -1q9 -2 13 -7.5t6 -12.5t2 -14v-13v-21q-2 -5 -4.5 -10.5t-9.5 -7.5q-94 0 -184 -2.5t-184 -3.5q-47 -1 -89 -1.5t-88 1.5z" />
    <glyph glyph-name="N" unicode="N" horiz-adv-x="497" 
d="M191 264q2 6 -2.5 14t-12.5 8h-3q0 -8 -0.5 -27.5t-1 -41.5t-1 -42t-0.5 -27v-21q1 -20 4 -39.5t4 -39.5q0 -9 -2.5 -14.5t-13.5 -5.5q-21 -2 -40 -1t-41 -2q-4 2 -7 8l-4 8q0 2 -1.5 11.5t-1.5 12.5q-2 31 -0.5 62t3.5 62q0 51 -1.5 100t6.5 100l-14 281q0 5 0.5 13
t3 15.5t7 13t11.5 5.5h4q24 -2 39.5 -4t21.5 -23q8 -22 17.5 -44t18.5 -42q1 -1 1 -3.5v-3.5q5 -27 16 -55.5t21 -52.5q-2 -10 4 -23t14 -26t14.5 -25t4.5 -20q1 -3 5 -12.5t7.5 -20.5t7 -20.5t5.5 -13.5q1 -3 2.5 -8.5t3.5 -12t3.5 -12.5t1.5 -8q5 -12 7 -25t14 -21
q5 10 5 22q14 111 12.5 218t-3.5 219q1 2 5 8t6 6l80 6q9 0 9 -5t6 -7q-3 -45 0 -88.5t-1 -88.5q-7 -65 -12.5 -127t-0.5 -128l-8 -221q-1 -9 -10 -24.5t-20 -19.5q-2 0 -10.5 -0.5t-10.5 -0.5q-25 -2 -48 -1t-48 5q-13 1 -20 18.5t-10.5 39t-5 41t-2.5 25.5q-1 4 -4 17
t-5 18t-6 18t-8.5 27.5t-8.5 27.5t-6 18z" />
    <glyph glyph-name="S" unicode="S" 
d="M28 162q7 19 25.5 24.5t44 3t57 -9.5t65.5 -13q14 1 24.5 7t19.5 15.5t17 21.5t17 24q1 1 2 4.5t1 4.5l-4 59q-2 1 -12.5 10t-16.5 14q-2 2 -7.5 5.5t-7.5 3.5q-35 15 -65.5 24t-57 21.5t-48 34t-37.5 61.5q0 3 -0.5 9t-1.5 12.5t-1.5 12t-0.5 7.5q-1 14 -2.5 30t3.5 30
q1 4 4 14.5t7 21.5t7.5 21t4.5 14v5l3 4.5t8 9.5t9.5 10.5t7.5 8.5q33 37 65.5 56t79.5 24q13 1 38 -3t50 -12t44 -20.5t20 -27.5q1 -9 -1 -24t-6.5 -30t-12 -26.5t-17.5 -12.5q-26 -2 -52 0.5t-52 0.5q-5 0 -20.5 -2t-20.5 -2q-3 -2 -9.5 -4.5t-13 -6.5t-11 -8t-4.5 -8
l5 -60q0 -5 6.5 -9.5t14 -9t15.5 -8t11 -4.5q40 -19 73 -36t57 -40t38.5 -54.5t18.5 -78.5q4 -41 -5.5 -81t-31 -71.5t-54.5 -52.5t-75 -25q-35 -4 -72 -1t-67.5 15t-51.5 35.5t-24 61.5z" />
    <glyph glyph-name="c" unicode="c" horiz-adv-x="300" 
d="M64 14q0 11 -0.5 33t-1 50t-1 59t-1 59.5t-0.5 50.5v33v11q0 64 19.5 116t68.5 91q2 2 8 5.5t13 7.5t13.5 7t9.5 4h14q9 0 19 -1.5t18.5 -6t14 -12t5.5 -19.5q0 -29 -5 -55t-13 -53q-6 -18 -15.5 -23t-19.5 -6.5t-19 -5t-13 -17.5q-1 -38 -5 -73t-4 -72q0 -32 1 -64.5
t17 -61.5q4 -5 12.5 -9t10.5 -6q14 -6 27 -11t17 -25q0 -2 0.5 -8.5t1 -15t1.5 -17t1 -13.5v-9q0 -29 -14 -43t-38 -14q-50 0 -90.5 28.5t-51.5 85.5z" />
    <glyph glyph-name="Oslash" unicode="&#xd8;" horiz-adv-x="497" 
d="M202 -66q-4 23 1.5 45t2.5 45q-1 6 -6 12q-35 19 -58 42.5t-37 50.5t-22 58t-14 66q-9 63 -8 126.5t7 126.5q-5 11 -0.5 24t6.5 24q6 25 17.5 49t29 43.5t42 33.5t56.5 19q8 1 15 1t15 1q16 3 21 15.5t8 26.5t7.5 26.5t19.5 15.5q7 1 17.5 -0.5t21 -5t18 -9t8.5 -12.5
q3 -20 -4.5 -39.5t-4.5 -39.5q2 -13 8 -25t13 -23.5t13.5 -23.5t8.5 -26l30 -195q5 -33 2.5 -68.5t-6.5 -69.5q-2 -23 -1.5 -47t-2 -48t-9 -47.5t-22.5 -45.5q-8 -11 -19 -23.5t-28 -15.5q-9 -2 -18 -1.5t-19 -1.5q-13 -2 -16.5 -20t-4.5 -39t-3.5 -39t-13.5 -19
q-6 -1 -18 2t-23.5 8.5t-20 11.5t-9.5 11zM293 117q2 -6 3.5 -8.5t7.5 -0.5q19 3 27.5 29t11 58.5t1.5 62t-1 38.5q-3 43 -1 85t-5 87q-1 5 -2 13.5t-9 9.5q-6 -23 -8.5 -50.5t-6.5 -48.5v-3q0 -1 1 -3q-2 -8 -1.5 -16.5t0.5 -19.5q0 -10 -1.5 -23.5t-3 -28t-3 -28.5
t-3.5 -26q-2 -19 -1 -40.5t0 -36.5q0 -2 -1 -9.5t-2 -15.5t-2 -15t-1 -9v-1zM176 219q0 -2 3 -10.5t3 -11.5q2 -4 3 -6.5t6 -1.5t7 9t3 18t1 19.5t1 12.5q0 1 0.5 5.5t1 9.5t1.5 9.5t1 5.5q0 3 1 12t2.5 19t2.5 19t2 12q0 1 -0.5 4t-0.5 4t1 7t2.5 12t2.5 11.5t1 7.5
t0.5 15.5t1.5 19.5q1 14 3 31t-2 29l11 109q-1 1 -1 2v3q-1 8 -12 7q-6 -1 -12 -5.5t-11 -11t-9 -13.5t-5 -13q-1 -3 -3 -10.5t-4 -15.5t-4 -15t-2 -10v-3q0 -1 1 -3q-2 -24 -7 -50.5t-8 -52.5q2 -1 2.5 -5t-0.5 -6q-1 -10 -1.5 -23t-1.5 -23z" />
    <glyph glyph-name="t" unicode="t" horiz-adv-x="404" 
d="M159 297q0 1 -1 5.5t-2.5 9.5t-3 9.5t-4.5 4.5l-68 10q-5 1 -12.5 8t-7.5 13l2 79q0 1 1 3.5t3 3.5q13 17 28 18.5t27.5 2t21 8.5t8.5 37l2 153q0 11 9 18t21 11.5t23.5 6t17.5 1.5q14 -1 22 -15t11.5 -35t4.5 -46.5t2.5 -48.5t5.5 -41t12 -24q22 3 34 -7t17.5 -26.5
t6.5 -37t3 -38.5q0 -1 0.5 -5.5t0.5 -6.5q-1 -23 -9 -29.5t-19 -7t-22.5 -0.5t-18.5 -12q0 -3 -0.5 -9.5t-0.5 -14v-14v-9.5q-2 -56 5.5 -111t6.5 -112v-41q-5 -12 -15.5 -17t-23 -6.5t-25 -0.5t-21.5 1h-15.5t-15.5 1q-6 4 -9 13.5t-3 15.5q0 4 -0.5 12t-1 16.5t-1 16
t-0.5 9.5v44.5t1 69.5t1.5 69.5t1.5 44.5z" />
    <glyph glyph-name="one" unicode="1" horiz-adv-x="340" 
d="M163 11q-5 35 -6.5 70.5t-5.5 70.5q-6 63 -13.5 126t-16.5 126q-2 5 -3.5 16t-1.5 13q-1 4 -3 13.5t-4 20t-4 20t-3 13.5q-4 8 -10.5 13.5t-13 10.5t-11.5 10.5t-6 14.5q-1 5 4.5 21t15.5 37.5t22 45t24 45t22 38t16 23.5q2 0 10 1t10 2q1 0 5.5 1t10 1t10 -0.5t5.5 -3.5
v-5l64 -747l-2 -15h-1q-1 0 -2 -1h-4h-18t-24 -0.5t-22 -0.5h-13q-9 0 -19 4.5t-12 15.5z" />
    <glyph glyph-name="O" unicode="O" horiz-adv-x="486" 
d="M71 172q-1 4 -1.5 11l-1 14t-1 12.5t-0.5 7.5q-1 19 -2 49.5t-2 60.5t-2 53t-1 26q0 30 1.5 65.5t6.5 72t16.5 71t30.5 61.5t48.5 44t71.5 20h20q28 -4 54 -12.5t47 -23t36.5 -34.5t23.5 -48q1 -4 2.5 -19.5t1.5 -20.5q0 -8 0.5 -23.5t0.5 -17.5q0 -10 0.5 -43.5t1.5 -73
t1.5 -77t0.5 -55.5q0 -25 0.5 -57.5t-2 -67.5t-9 -69t-21.5 -61t-39 -44.5t-61 -19.5q-32 -2 -60.5 4t-58.5 16q-30 9 -49 28t-30.5 44t-17 53t-6.5 54zM204 179q2 -21 12.5 -37.5t34.5 -14.5q16 1 24 9.5t11.5 21t4 26.5t1.5 26v8.5t0.5 14t0.5 14v7.5q3 51 3 93.5t-3 93.5
q0 6 -1 19.5t-2 29t-2 29t-1 19.5q-2 6 -7.5 16.5t-12 20t-15 16.5t-16.5 7q-10 -1 -17.5 -9.5t-12 -20.5t-7 -24.5t-3.5 -20.5q-1 -2 -2 -10t-2.5 -18t-3 -19t-1.5 -11v-14v-27t-0.5 -29.5t-0.5 -22.5v-8q0 -2 0.5 -3t0.5 -3v-4l3.5 -35t5.5 -52.5t5 -52.5t3 -35z" />
    <glyph glyph-name="period" unicode="." horiz-adv-x="286" 
d="M60 62q0 13 4.5 27t13.5 25.5t23 19t33 7.5q9 0 18 -1t17 -5q20 -19 38.5 -39t18.5 -45q0 -11 -6.5 -23.5t-17.5 -23t-25 -17t-29 -6.5q-20 0 -36.5 7t-28 18.5t-17.5 26t-6 29.5z" />
    <glyph glyph-name="d" unicode="d" horiz-adv-x="441" 
d="M312 -7q-1 0 -5 -1t-6 -1q-12 -3 -23 -9.5t-22 -13.5t-22 -13t-24 -9q-35 -8 -65.5 3t-54.5 33.5t-40 54.5t-22 68q-6 39 5 80.5t34 77t54.5 61t64.5 32.5q8 2 20 4t14 2q1 1 5 1t8.5 -0.5t8 -1l3.5 -0.5q7 2 10.5 9t4.5 16t0.5 17.5t-1.5 13.5q-8 102 -10.5 201.5
t-2.5 201.5q1 16 -3.5 43t-5 54t7.5 48.5t32 26.5q11 2 25.5 2t28.5 -4t25 -13t14 -25q6 -41 -1.5 -83.5t-9.5 -84.5q-5 -79 -4.5 -157.5t4.5 -157.5q6 -26 7 -51t1 -50.5v-51.5t3 -53q2 -10 5.5 -31.5t7.5 -49t9 -57.5t9 -57.5t7 -49.5t5 -32q-2 -11 -7 -18t-16 -8
q-17 -3 -28 -4t-19.5 2.5t-15.5 11.5t-15 23zM147 128q3 -18 19.5 -21.5t30.5 -1.5q33 7 49.5 24t9.5 58q-2 2 -4 13.5t-2 14.5q-4 11 -14.5 10.5t-19.5 -2.5q-14 -3 -27.5 -12t-23.5 -22t-15 -29t-3 -32z" />
    <glyph glyph-name="Euro" unicode="&#x20ac;" horiz-adv-x="507" 
d="M119 195q-1 8 -9.5 10.5t-18.5 4t-18 4.5t-8 12v75l7 6q10 2 28.5 4t32.5 5v6q0 6 -0.5 10t-2.5 12q-3 0 -10.5 0.5t-15.5 1t-15 1t-10 0.5q-2 0 -9 1t-9 2v32q0 7 -0.5 23t4.5 26q4 8 14.5 9t22 1t20 1.5t8.5 12.5q0 6 1.5 22.5t3 34.5t3 34.5t1.5 22.5q4 31 19 63.5
t39.5 58t56.5 42t69 16.5q3 0 8 -0.5t6 -0.5q11 -2 25 -3.5t27 -5.5t21.5 -12t8.5 -21v-19.5t-2 -30t-7 -28t-14 -12.5q-14 0 -26.5 1.5t-25.5 1.5h-27q-13 -3 -25.5 -14t-22.5 -25.5t-16.5 -30t-6.5 -26.5v-62l3 -6q0 -1 2 -3q1 -1 1 -2h75q7 0 11.5 -7t7.5 -16.5t4 -18.5
t1 -12q0 -7 -1 -16.5t-9 -14.5q-4 0 -14.5 -1t-21.5 -1.5t-21 -1.5t-14 -1q-5 -1 -11.5 -2t-6.5 -2v-34l85 -7v-52q0 -5 -6.5 -15t-13.5 -10h-58q-4 0 -6 -4t-3 -9t-1 -9.5v-5.5q0 -39 23.5 -65.5t69.5 -26.5q14 0 28 3.5t29 3.5q2 0 7 -0.5t7 -0.5q6 -8 12.5 -20.5t11 -26
t7.5 -27t3 -23.5q0 -7 -6.5 -14t-14.5 -9q-27 -3 -55 -6t-55 -3q-51 0 -87 16t-60 43.5t-36 64t-14 76.5z" />
    <glyph glyph-name="u" unicode="u" horiz-adv-x="466" 
d="M288 43q-17 -17 -33 -30t-40 -13q-39 0 -65 18.5t-43.5 48t-27 67t-13.5 75.5t-5 73t-1 61v51q0 4 1.5 16t3 25.5t3 26t2.5 18.5q1 5 2.5 15.5t4.5 22.5t7 22.5t10 14.5q3 0 15 0.5t15 0.5q15 0 28 -0.5t23.5 -4t16.5 -12.5t6 -26q0 -64 -10 -127.5t-10 -128.5v-10.5
t0.5 -16t0.5 -15.5v-10q6 -16 16.5 -25t27.5 -9q27 0 42 17t22 41t8.5 50t1.5 44q0 10 0.5 35.5t0.5 54.5t-0.5 54.5t-0.5 35.5q0 6 3 15t12 9h75q6 0 12.5 -7t6.5 -12v-479q0 -18 -15 -25.5t-30 -7.5q-24 0 -37 12t-22 35h-14z" />
    <glyph glyph-name="comma" unicode="," horiz-adv-x="306" 
d="M87 -163q0 6 12 15.5t26 21.5t26 27t12 33q0 2 0.5 6.5t-3.5 5.5q-16 2 -33.5 5.5t-32.5 11.5t-24.5 21.5t-9.5 34.5q0 17 7.5 35t20 32.5t29.5 23.5t36 9q21 0 38.5 -11.5t29.5 -29t18.5 -38.5t6.5 -39q0 -21 -5.5 -40.5t-12.5 -37.5v-4q-3 -7 -7 -13q-7 -13 -11 -22
q-6 -10 -15.5 -24t-21.5 -27t-26 -22.5t-27 -9.5h-7q-9 8 -17.5 15.5t-8.5 20.5z" />
    <glyph glyph-name="two" unicode="2" horiz-adv-x="461" 
d="M66 3q-2 1 -4 4t-2 4v138q0 25 12.5 49t31 46t39.5 42t38 38q18 19 38 47t37 60t28.5 64.5t11.5 59.5q0 19 -10.5 32.5t-32.5 13.5t-31 -7t-25 -24q-1 0 -2.5 -3t-0.5 -5q-3 -4 -9 -17.5t-7 -18.5q-1 0 -1 -5.5v-8.5q0 -20 6.5 -38t6.5 -37q0 -12 -12 -12h-4
q-33 9 -54 12.5t-33 11.5t-16.5 25t-4.5 53q0 33 2 60t10.5 50t26.5 42.5t50 37.5q21 11 43.5 14.5t46.5 3.5q40 0 69.5 -12t48.5 -34t28.5 -51.5t9.5 -63.5q0 -18 -1 -36t-6 -35q0 -2 -3.5 -14.5t-5.5 -18.5q-4 -11 -13 -27.5t-6 -29.5l-58 -113v-3l-28 -44q1 -3 -3 -10.5
t-9.5 -16t-11 -16t-8.5 -11.5q-1 -2 -5.5 -8.5t-10 -14t-10.5 -14.5t-6 -8q-2 -3 -9.5 -14.5t-9.5 -14.5v-4q0 -11 9 -11h144q9 0 13.5 -9t5.5 -15q1 -4 2 -9l2 -10q1 -6 2 -13q0 -2 0.5 -13t0.5 -16q0 -3 -0.5 -10.5t-0.5 -9.5l-2 -5q-1 0 -14 -0.5t-20 -0.5h-12t-16.5 0.5
t-15.5 0.5h-9q-12 0 -43.5 0.5t-66.5 1t-66.5 1t-43.5 0.5z" />
    <glyph glyph-name="P" unicode="P" horiz-adv-x="460" 
d="M93 19q-9 65 -9.5 128.5t-0.5 127.5q-2 114 -7.5 226.5t-15.5 227.5q2 6 6.5 10.5t12.5 6.5h4q68 -2 125 -9.5t99.5 -29.5t70 -61.5t36.5 -104.5q4 -30 0 -65.5t-19 -67t-42 -54.5t-69 -27q-20 -2 -39 1.5t-38 5.5q-8 -3 -10.5 -7.5t-2.5 -12.5q0 -5 0.5 -18t1 -27t1 -27
t1.5 -18q0 -2 0.5 -11t1.5 -11l2 -182q-2 -6 -3.5 -14.5t-9.5 -11.5q-4 0 -16.5 -1t-15.5 -2q-13 -2 -24 -2.5t-19 2t-13.5 9t-7.5 19.5zM218 488q2 -14 8 -21.5t24 -5.5q14 1 21.5 10t11.5 21t4 24.5t-1 21.5q-1 7 -5.5 25t-12 36t-19 31t-25.5 11q-4 0 -6 -11t-2.5 -27.5
t-0.5 -36t0.5 -36t1.5 -28.5t1 -14z" />
    <glyph glyph-name="tilde" unicode="&#x2dc;" horiz-adv-x="494" 
d="M184 695q-4 -1 -4.5 -2t-2.5 -3q1 -4 2.5 -13t3.5 -19.5t3.5 -19.5t1.5 -13q1 -5 0 -12t-12 -8l-44 -4q-8 -1 -14 2.5t-7 8.5q-2 5 -2 8.5t-2 8.5q-2 6 -5 10l-15 45v8q1 12 4.5 25t12.5 24t24 19t38 10q21 2 36 0.5t25.5 -6.5t18 -13.5t14.5 -19.5q2 -1 4.5 -4.5
t3.5 -4.5l18 -57q2 -5 9 -7t12 -2h2q7 0 7 5q-3 14 -3.5 27t-3.5 26q0 1 -1 6t-2.5 11.5t-3 13.5t-2.5 11q0 4 5 4.5t9 2.5q17 1 31 2t24 -8l3.5 -10.5t3.5 -9.5q2 -4 3.5 -10.5t1.5 -8.5q0 -1 0.5 -6t1 -11t1 -11.5t0.5 -6.5q3 -18 5 -32.5t-12 -31.5q-7 -7 -13.5 -9.5
t-19.5 -4.5q-42 -4 -75.5 7.5t-48.5 36.5q-2 3 -4.5 10.5t-7 15.5t-10.5 14t-14 6z" />
    <glyph glyph-name="e" unicode="e" horiz-adv-x="375" 
d="M62 179q-3 30 -1.5 58t2.5 58q1 53 2 96.5t10 93.5q4 23 10 42.5t16.5 34.5t27.5 24t44 11q19 1 40.5 -5t40.5 -18.5t31.5 -29.5t14.5 -36l11 -145q0 -5 -1.5 -14t-5.5 -18.5t-9.5 -17t-12.5 -7.5l-113 -7q-9 -1 -13 -20.5t-5.5 -42.5t-1.5 -43.5v-22.5q1 -8 3.5 -19.5
t8 -22t14 -18t20.5 -6.5q11 1 14.5 11.5t6.5 23t9 23.5t22 12q10 1 21.5 -1t21 -6.5t16.5 -12.5t8 -19q5 -57 -25 -96.5t-90 -44.5q-41 -2 -67 15.5t-41 45.5t-21 61.5t-8 62.5zM177 418q1 -12 4.5 -20.5t17.5 -7.5q13 1 12 12t-2 21q0 9 -2 21.5t-16 11.5t-14.5 -15
t0.5 -23z" />
    <glyph glyph-name="dollar" unicode="$" horiz-adv-x="559" 
d="M67 122q0 8 9 22t21.5 28t26 24t22.5 10t16 -11.5t14.5 -26t17.5 -26t27 -11.5q5 0 7.5 0.5t6.5 2.5q5 23 7.5 45.5t2.5 45.5q0 10 0.5 24.5t-7.5 24.5q-2 3 -5.5 3.5t-8.5 2.5q-22 5 -38.5 9.5t-31 11t-27 16.5t-25.5 26q-22 26 -32 46.5t-10 52.5q0 27 5 53t17 49.5
t31.5 43.5t47.5 34q2 1 4.5 2t3.5 1q2 1 9 3.5t15 5t14.5 4.5t8.5 3q5 1 11 4.5t8 7.5v18q0 4 1 15t2 23t2 23t1 15q2 10 8 13t16 3q5 0 19 -1t28.5 -3.5t26 -7.5t11.5 -13v-88l9 -9h70q21 0 28.5 -13.5t7.5 -27.5q0 -17 -1 -28.5t-3 -30.5q-6 -13 -17.5 -19.5t-26 -9
t-29.5 -2.5h-29q-3 -1 -6 -3t-3 -5t-1 -13.5t-1 -13.5q0 -6 0.5 -19.5t1.5 -28t2.5 -26.5t3.5 -15q4 -5 8.5 -7.5t9.5 -4.5q1 -1 7 -3t12 -4.5t11.5 -5t7.5 -2.5q30 -12 47 -31t26 -41.5t11.5 -48t2.5 -51.5v-44q-9 -28 -22 -47.5t-30.5 -32t-41.5 -19.5t-55 -10
q-5 -1 -9 -5t-4 -8v-72q0 -5 -6.5 -13t-12.5 -9q-4 0 -15 -0.5t-23 -1t-23.5 -1t-15.5 -0.5h-1h-2l-8 4t-6 6v78q0 6 -6.5 8.5t-10.5 3.5q-23 7 -44 11.5t-41 19.5q-2 1 -7.5 6t-11.5 10t-11.5 10t-7.5 7q-5 5 -11 15.5t-6 18.5zM342 137q4 -3 11 -3q14 0 25.5 7.5t20 18.5
t13 23.5t4.5 22.5q0 9 -3 19.5t-9.5 20t-15.5 15.5t-21 6q-13 0 -18.5 -13t-7 -29.5t-0.5 -33.5t1 -24v-30zM161 459q0 -9 4.5 -19.5t12.5 -20t18.5 -16t21.5 -6.5q6 0 9.5 4t5 10t2 11.5t0.5 8.5v51v50q-4 2 -6.5 2.5t-5.5 0.5q-14 0 -25 -8.5t-19.5 -20.5t-13 -25
t-4.5 -22z" />
    <glyph glyph-name="f" unicode="f" horiz-adv-x="340" 
d="M80 -61q-1 2 -1.5 8.5t-0.5 8.5q-2 14 -1.5 24t5.5 26q-8 51 -14.5 105.5t-7.5 105.5q0 2 1 10.5t3 10.5q2 54 1 105.5t1 105.5q2 26 5.5 57t18.5 59t45 49t86 27q15 2 32 3.5t32 0t25.5 -7t12.5 -17.5q0 -6 -1 -18.5t-5.5 -25t-12.5 -23t-20 -11.5q-14 -1 -28 -0.5
t-29 -1.5q-25 -2 -36.5 -13.5t-15.5 -25.5t-3 -28.5t1 -23.5q-1 -2 -2.5 -9.5t-1.5 -8.5q0 -2 1.5 -12.5t2.5 -15.5q0 -3 1 -14.5t1 -13.5q4 -8 16.5 -7.5t27 3t26 1.5t13.5 -12q1 -4 -0.5 -15t-4.5 -22.5t-6 -21t-6 -9.5l-43 -4q-2 0 -3.5 -15.5t-3 -39.5t-2.5 -52.5
t-1.5 -55t-0.5 -48t1 -29.5q0 -5 1 -18t1.5 -27t1.5 -26.5t1 -17.5q-1 -7 -7.5 -19.5t-23.5 -14.5q-9 -1 -21 -1t-24.5 1.5t-22.5 5t-14 8.5z" />
    <glyph glyph-name="v" unicode="v" horiz-adv-x="348" 
d="M23 359q-5 29 -12 58.5t-7 58.5q0 15 7 24.5t18.5 15t25 7.5t26.5 2q20 0 30.5 -6.5t15 -17t6 -25t4.5 -30.5q0 -4 2 -19t4.5 -32.5t4.5 -32.5t3 -19q1 -5 4 -20.5t7.5 -32.5t10.5 -30.5t14 -13.5l2 1q1 0 2.5 2t2.5 2q2 7 5.5 24.5t7 37t7 36.5t4.5 23q0 2 1 9t1.5 15
t1 15t0.5 9q1 8 2 20.5t3.5 25.5t7.5 23t16 13q4 0 14 1t21 1.5t21.5 1.5t14.5 1h3q8 0 14.5 -6.5t6.5 -12.5q0 -16 -6 -39.5t-8 -36.5q-11 -62 -22 -121.5t-21 -121.5q0 -2 -1 -7.5t-2.5 -12.5t-3.5 -13.5t-3 -10.5q0 -1 -1.5 -6t-3 -10.5l-3 -11t-1.5 -6.5q0 -3 -2 -17.5
t-4.5 -33t-4.5 -37.5t-3 -29q-2 -8 -6.5 -19t-17.5 -11h-71q-4 0 -10.5 5t-8.5 8q-19 26 -31.5 54.5t-20.5 58t-13.5 60t-10.5 61.5q-6 38 -18 81t-25 79v8z" />
    <glyph glyph-name="three" unicode="3" horiz-adv-x="469" 
d="M116 -20q-11 2 -14 9t-5 17q0 2 -1 8t-1 7q0 3 -0.5 13.5t-1.5 22.5t-2 22.5t-1 12.5q-1 7 3.5 9.5t9.5 3.5q8 1 17.5 0t18.5 1q36 5 62.5 13t42.5 24.5t21.5 43.5t0.5 69q-1 7 -4.5 18t-8.5 22t-11.5 20t-12.5 12l-63 24q-3 2 -9.5 9.5t-7.5 12.5l-6 48q-2 14 5 22
t17.5 11.5t22 4.5t18.5 2q7 2 11 9t5.5 16t2 18t-0.5 15q-2 21 -14.5 31t-29 13.5t-35.5 2t-35 -3t-27 -0.5t-12 9l-10 85q-1 6 1.5 11.5t6.5 10.5t9 8.5t10 4.5h12q5 1 18.5 2t28.5 2t28 2t18 1q3 0 11.5 0.5t18 0.5t18 0.5t11.5 0.5q2 -1 7.5 -2t8.5 -3q43 -23 71.5 -55.5
t35.5 -85.5q3 -25 -5 -52t-20 -48q-1 -1 -3.5 -5.5t-5.5 -9l-6 -9t-4 -5.5q-3 -6 -2 -11l1 -2q16 -17 28.5 -32t22.5 -31t16.5 -34.5t9.5 -42.5q5 -39 -1.5 -74.5t-19.5 -70.5q-23 -65 -60 -98t-102 -42q-27 -4 -54 -4.5t-54 -3.5z" />
    <glyph glyph-name="quotesingle" unicode="'" horiz-adv-x="300" 
d="M126 421q0 4 5 12.5t12 18t14 18.5t9 14q9 27 10 55.5t-4 56.5q-1 2 -2 10t-2 11q-3 1 -6 0q-6 -1 -11 -3t-12 -3q-12 -2 -25 1.5t-24 11t-19 17.5t-10 21q-3 15 3 31t17 29t26.5 22.5t32.5 12.5q9 2 17.5 -1t16.5 -5q32 -11 44 -36t17 -54q13 -75 -12 -148v-3
q-1 -7 -6 -24t-12.5 -34.5t-16.5 -32t-18 -15.5q-11 -2 -26.5 2.5t-17.5 14.5z" />
    <glyph glyph-name="q" unicode="q" horiz-adv-x="518" 
d="M371 44q-1 0 -2 -1q-23 -24 -46.5 -36t-63.5 -14q-12 -2 -25.5 2.5t-24.5 8.5q-38 14 -63.5 33.5t-42 43t-25 50.5t-12.5 55q-3 20 -4.5 33.5t-1.5 33.5q0 7 1.5 17t3 20.5t1.5 21t-3 18.5q5 45 14.5 88.5t28.5 85.5q-1 2 0 4l2 4q9 16 20 31t26 27t35 19.5t46 9.5
q12 1 24 -1.5t23 -4.5q74 -16 108.5 -46.5t42.5 -85.5q8 -54 12 -109.5t3 -110.5q0 -10 -3 -21t-6 -22.5t-5 -22.5t0 -20q0 -4 0.5 -6t4.5 -5q23 -17 37.5 -31.5t35.5 -34.5q-2 -5 1.5 -8t3.5 -7q1 -4 -6 -13.5t-17.5 -20t-22 -18.5t-19.5 -9q-14 -2 -24 5t-19 15.5
t-17 15.5t-18 6h-3zM166 216q1 -11 8.5 -29t20 -35t29 -29t35.5 -11q8 1 13.5 3.5t3.5 10.5q-1 10 -8.5 19.5t-16.5 18.5t-17 18t-10 20v4q1 1 5.5 4.5t9 8l8.5 8.5l6 6q5 2 10.5 5t10.5 3q7 1 11 -2t7.5 -7t7.5 -7t11 -3q3 1 4 2t3 6q0 2 1.5 9t1.5 12q2 4 2.5 14.5
t2.5 11.5q0 1 -0.5 7l-1 12t-0.5 11.5v6.5t0.5 6.5t1 11.5t1 11t0.5 7q0 1 -1.5 11t-2.5 15q-5 32 -13 58t-25 57q-3 6 -9 11.5t-17 4.5q-15 -1 -33 -12.5t-32.5 -27t-23 -31t-3.5 -24.5q-18 -48 -13.5 -97t12.5 -99z" />
    <glyph glyph-name="acute" unicode="&#xb4;" horiz-adv-x="377" 
d="M56 620q0 3 8.5 12t19 19.5t21 20t15.5 13.5q2 1 8.5 7t7.5 8q3 3 9 9.5t13 13.5l13.5 13.5l8.5 8.5q3 7 15.5 16.5t20.5 9.5q4 0 10 -4t12.5 -9.5t11.5 -10.5t6 -7v-10v-10t-5 -9q-3 -3 -11 -9.5t-11 -8.5q-33 -23 -66.5 -47.5t-67.5 -47.5q-3 -1 -5 -1.5t-6 -0.5
q-11 0 -19.5 8t-8.5 16z" />
    <glyph glyph-name="g" unicode="g" horiz-adv-x="388" 
d="M13 -277q-1 8 -3 18t1.5 19.5t13.5 17t33.5 9t61.5 -3t97 -19.5q19 3 25.5 21.5t7 42t-2 47t-2.5 35.5q-1 41 -1 80t-5 81q-1 2 -2 13t-2 15q-5 14 -16 13q-9 -2 -17 -5.5t-18 -4.5q-32 -4 -60.5 6t-50.5 30.5t-36.5 49.5t-17.5 64q-5 34 2 61.5t16 59.5q15 57 59 87.5
t99 37.5q10 1 30.5 -0.5t41.5 -6t38 -13t22 -20.5q0 -4 1 -17.5t2 -16.5q4 -31 3 -62t2 -63q0 -6 2.5 -29.5t5 -51t4.5 -51t2 -29.5t1 -29t1.5 -49.5t1.5 -49.5t1 -29q0 -3 1 -13.5t2.5 -22.5t2.5 -23t1 -14t-1 -15t-2 -27.5t-2 -30.5t-2 -24q-3 -44 -28.5 -73t-62.5 -44.5
t-79 -19.5t-79 0.5t-63 17.5t-29 31zM133 280q4 -28 22.5 -37t41.5 -6q16 2 21.5 11t6 21.5t-2.5 27t-5 28.5v10.5t-1.5 10t-4.5 7.5t-10 2q-10 -1 -22.5 -7.5t-23 -17t-17.5 -23.5t-5 -27z" />
    <glyph glyph-name="F" unicode="F" horiz-adv-x="440" 
d="M60 100q0 103 7.5 203.5t7.5 203.5q0 38 -2 75.5t-2 75.5v30q3 8 8.5 11.5t13.5 7.5q7 0 27 0.5t42 1t41.5 1t27.5 0.5h9t17.5 0.5t19.5 0.5h16q32 0 57.5 -0.5t57.5 -3.5q12 -5 15 -16t3 -22v-15.5t-2.5 -26.5t-7.5 -25.5t-15 -11.5q-1 0 -2 0.5t-2 0.5q-2 0 -7 1.5
t-7 1.5h-196l-11 -11v-20q0 -33 1 -65.5t3 -66.5q1 -4 3.5 -7.5t7.5 -3.5h72q7 0 11.5 -5t6.5 -12t3 -14.5t1 -11.5q0 -7 -0.5 -18t-3.5 -21.5t-9 -18t-16 -7.5h-54q-7 0 -13 -5t-9 -10q0 -5 0.5 -19t0.5 -29.5t-0.5 -29.5t-0.5 -20q0 -3 -1.5 -14.5t-2.5 -25t-2 -25
t-1 -14.5q-1 -11 0 -28t0.5 -35t-3.5 -33t-12 -20q-4 0 -13.5 -1t-20.5 -1.5t-21 -1t-14 -0.5h-2q-8 0 -13 9t-8 21t-4.5 23.5t-1.5 15.5v31v0z" />
    <glyph glyph-name="w" unicode="w" horiz-adv-x="628" 
d="M307 41q-1 0 -3 -0.5t-3 -0.5q-14 -12 -34.5 -28t-45.5 -16q-56 0 -88.5 23t-48.5 57.5t-20 74.5t-4 75q0 55 3.5 108.5t1.5 109.5q2 10 5.5 17.5t12.5 13.5h20q29 0 52 -8t23 -35q0 -36 -4.5 -71.5t-4.5 -70.5v-55q1 -7 4.5 -17.5t9 -20t13.5 -16t19 -6.5q9 0 13.5 4.5
t7 11t3.5 13.5t2 12q1 4 2.5 13.5t3 20t2.5 19t1 11.5q0 2 0.5 16.5t0.5 22.5q0 24 -3 48.5t-3 47.5q0 3 1 10.5t3.5 15t7 13.5t11.5 6h64q7 0 11.5 -5.5t6.5 -10.5q8 -50 7 -100.5t2 -101.5q1 -9 2 -22t5 -24.5t13 -20t26 -8.5q15 0 23 9t11.5 21t4.5 24.5t1 20.5
q1 10 1.5 36.5t1.5 56t1.5 55.5t0.5 36q0 6 1.5 15.5t5.5 18.5t11 15.5t18 6.5h54q12 0 17.5 -8.5t7.5 -20t2 -22v-14.5v-36q0 -11 -0.5 -38t-1.5 -57.5t-1.5 -57.5t-0.5 -38q-9 -32 -15.5 -63.5t-16.5 -63.5q3 -8 -5.5 -19.5t-21 -22.5t-26 -19t-19.5 -10q-12 -4 -20 -4
h-21q-26 0 -43.5 8.5t-30 18t-21.5 18t-16 8.5z" />
    <glyph glyph-name="sterling" unicode="&#xa3;" horiz-adv-x="552" 
d="M158 -2v4q-2 15 1 29.5t3 28.5v15.5t-0.5 24t-1 24.5t-1.5 17q0 1 -0.5 10.5t-1.5 14.5q0 3 -1 12.5t-1 12.5q-5 6 -19 6.5t-29.5 2t-28.5 6.5t-15 20q-1 6 -2 19.5t0 27t4.5 24t12.5 10.5l63 6l3 3q5 7 4.5 14.5t-0.5 15.5v9.5t-0.5 12.5t-0.5 11v6q-1 3 -2.5 17
t-3.5 30t-3.5 30t-1.5 18q-1 8 -2 25.5t-2 36t-1.5 34t-0.5 20.5q0 25 5 50.5t18.5 46.5t35 35.5t54.5 17.5q34 3 68 -11.5t50 -41.5v-3q2 -2 5.5 -11.5t5.5 -11.5q0 -4 1 -13t2 -19t2 -19t2 -12q0 -6 1.5 -16.5t2.5 -21t2 -18t1 -8.5t-0.5 -5t-0.5 -8.5v-8.5t1 -5v-3
q-7 -8 -12 -13.5t-16 -7.5h-8q-4 0 -13 -0.5t-18.5 -1t-18.5 -0.5h-12q-16 3 -17 17q-2 12 -0.5 24t-0.5 24q0 3 -1.5 12.5t-1.5 12.5q-2 7 -9.5 13.5t-15.5 5.5t-13 -9t-7 -13q-2 -38 0 -76.5t7 -76.5q0 -5 1 -14.5t1 -10.5l3.5 -17.5t5.5 -26t5 -26t4 -16.5l3 -3
q1 -1 2.5 -1t2.5 -1l2 -2l45 4q8 1 10.5 -7.5t2.5 -11.5q1 -6 2.5 -21.5t0.5 -32t-5 -29.5t-15 -14q-8 -1 -16 1t-16 1q-9 -1 -12.5 -9.5t-4 -19.5t1 -21t2.5 -14q0 -3 1 -14t2 -14q4 -5 12.5 -6t13.5 -1q7 0 25.5 1t39.5 2t39.5 1.5t26.5 0.5q1 0 6.5 0.5t11.5 0.5h11.5
h8.5q4 -1 16 -0.5t15 -6.5q1 -4 2.5 -17t2.5 -17q1 -7 2 -20t1 -14q0 -5 -0.5 -15.5t-2.5 -17.5q-1 -1 -1 -2t-1 -1l-25 -2l-285 9z" />
    <glyph glyph-name="four" unicode="4" horiz-adv-x="505" 
d="M305 290q0 3 -1 11.5t-2.5 18t-2.5 18t-2 11.5q-3 6 -19.5 7.5t-36.5 1t-38 -2t-24 -2.5q-13 -1 -24.5 -4t-23.5 -5q-31 -3 -48 4.5t-22 36.5q0 2 -0.5 4.5t-0.5 4.5v5q3 58 10.5 122.5t15.5 119.5q-2 7 -4 23.5t-2 34t3 31.5t12 16q20 -8 41.5 -13.5t44.5 -7.5
q10 -5 11.5 -10t3.5 -13q4 -24 4.5 -49t-3.5 -49q-2 -28 -9.5 -59t-3.5 -60q1 -3 3.5 -6.5t6.5 -4.5q20 2 44 -0.5t46 -0.5q13 2 13 13q-1 6 -3 21t-4 32.5t-4 33t-3 21.5q0 7 -2 20t-2.5 25.5t2.5 23.5t13 16q4 0 14.5 1.5t14.5 1.5q7 1 17.5 2t21 0t19 -4t13.5 -11
q1 -3 2 -10.5t2.5 -16.5t2.5 -17t1 -11q5 -37 4.5 -70t2.5 -70q1 -5 2.5 -23.5t3.5 -43t4.5 -52t4.5 -52t3.5 -43t2.5 -24.5q4 -49 5 -95.5t6 -95.5q3 -28 3 -43t-7 -22.5t-24 -11t-50 -8.5q-2 0 -10.5 -1.5t-10.5 -1.5q-12 84 -19 167t-18 166z" />
    <glyph glyph-name="R" unicode="R" 
d="M336 -22q-19 27 -30 47.5t-25 44.5q-2 3 -7 8.5t-9.5 11.5t-7.5 11.5t-1 10.5q-12 17 -23.5 35t-22.5 35h-2q-1 0 -2 1q-9 2 -7 -8q1 -10 2 -36t2.5 -55.5t3 -56t2.5 -36.5l1 -3q-2 -3 -6 -7.5t-5 -3.5l-102 -7q-9 -1 -15 7.5t-7 15.5q0 1 0.5 1.5t0.5 2.5v3q0 1 1 5.5
t2 9.5t2 9t1 5q0 3 -1.5 13.5t-2.5 22t-2 21.5t-1 13v24.5t-0.5 41.5t-1 41.5t-0.5 24.5t-1 18t-2 28t-2 28t-1 18q1 2 1 9v9q3 87 1 172t-5 171q0 3 -0.5 11t-1.5 17t-1.5 17.5t-0.5 11.5q2 6 5.5 7t7.5 1q40 3 78 3.5t71.5 -8t60.5 -28.5t45 -57q13 -26 26 -50.5t15 -53.5
q4 -60 -20.5 -111.5t-69.5 -93.5q-4 -5 -4 -11q2 -9 7.5 -17t3.5 -17l41 -82v-3l41 -66q0 -1 8.5 -16.5t19.5 -35t20 -39t10 -29.5q1 -9 -6.5 -20t-18.5 -20t-23 -15.5t-21 -6.5q-14 -2 -21 6zM168 454q4 -5 6.5 -7.5t8.5 -3.5q20 2 32.5 14.5t19 29t8.5 34.5t2 31
q-1 10 -5 24.5t-11 27.5t-17.5 21.5t-25.5 7.5q-10 -1 -15.5 -11t-7.5 -23t-2 -25.5v-17.5q0 -1 0.5 -7t1 -14t1 -16.5t1.5 -13.5q0 -3 0.5 -10t1 -15.5t1 -15.5t0.5 -10z" />
    <glyph glyph-name="grave" unicode="`" horiz-adv-x="339" 
d="M68 704q0 5 7.5 12t19 13.5t24.5 11t25 4.5q6 0 7.5 -0.5t6.5 -4.5q4 -2 4.5 -5.5t1.5 -5.5q3 -5 17 -17t28.5 -24.5t26 -22.5t10.5 -11l22 -24q-1 -2 3 -7t4 -7q0 -7 -14 -13.5t-21 -8.5q-1 0 -2 -0.5t-3 -0.5q-6 0 -15.5 5.5t-19.5 12t-18.5 13t-11.5 8.5q-3 3 -9.5 8
t-13 9.5t-12 8t-6.5 4.5q-2 1 -9 5t-15 9t-15.5 9t-9.5 5q-7 4 -9.5 6.5t-2.5 7.5z" />
    <glyph glyph-name="h" unicode="h" horiz-adv-x="414" 
d="M268 -15q-4 31 -5 62.5t-5 60.5q0 3 -1.5 17t-2.5 17q-1 4 -5 10t-9.5 10.5t-11 7.5t-10.5 2q-13 -2 -17 -21t-3.5 -46t3 -58t3 -58t-3.5 -46t-17 -21q-8 -2 -21 -2t-26 3.5t-23 11.5t-11 23v3q0 1 1 2q1 65 -6 124.5t-12 125.5q-2 14 -4 43t-4 60t-3.5 56.5t-2.5 33.5
q-1 16 -2 55.5t-1.5 83.5t-1.5 83t-2 55q0 3 -1 11t-2 17.5t-2.5 17.5t-1.5 11q0 4 0.5 16.5t1 27.5t1 28.5t0.5 19.5q1 7 2.5 19.5t4 25.5t6.5 24.5t10 17.5q2 1 8 3t8 3q9 2 22 1t25 -5.5t21 -13.5t11 -22v-4q2 -8 1 -21.5t-1 -14.5q0 -11 -2 -38t-4.5 -57t-5 -56.5
t-3.5 -36.5q4 -13 4.5 -21t-0.5 -15.5t-2 -16.5t-1 -24q1 -10 1.5 -33t1.5 -48t1.5 -47.5t0.5 -31.5q0 -4 2 -14.5t4 -22t3.5 -22t1.5 -14.5q19 4 35.5 14t36.5 13q28 6 49 -6.5t35.5 -34.5t22.5 -49.5t11 -52.5q9 -60 8 -119t-7 -121q7 -12 -2 -25.5t-21 -15.5
q-14 -3 -27 -4.5t-24 1.5t-19 11.5t-10 26.5z" />
    <glyph glyph-name="numbersign" unicode="#" horiz-adv-x="693" 
d="M425 26q-3 23 -2.5 46.5t-2.5 46.5q-3 20 -7.5 30.5t-13.5 14t-23 2.5t-35 -4q-3 0 -12.5 -1t-12.5 -2q-11 -5 -14 -19t-2.5 -32.5t2.5 -39t1.5 -37.5t-5 -28.5t-16.5 -11.5q-8 0 -19.5 0.5t-22 3t-18.5 8t-10 16.5q-3 32 0.5 63.5t-1.5 63.5q0 2 -1 6.5t-3 9t-5 7.5
t-8 2l-87 -10q-6 0 -10 4t-7 9t-4.5 10.5t-1.5 8.5q-1 8 -2.5 17.5t-1.5 18.5t3.5 16t12.5 11q2 0 12.5 1t12.5 3q19 2 36.5 -0.5t36.5 0.5q11 1 16 4.5t7 14.5q-1 31 -2 55.5t-5 53.5q-1 5 -2 12.5t-1 8.5l-13 9q-15 -1 -35.5 -4.5t-40.5 -3t-35 8t-18 28.5q0 6 -2 16.5
t-2.5 21t3 19t13.5 9.5q26 2 52.5 0t52.5 0q4 1 13.5 2t11.5 2q7 1 9.5 7t4.5 10q-1 9 -2 33t-2.5 50t-2.5 49.5t-2 32.5q0 8 2 16t15 9l3 1q9 -1 23.5 -2t28.5 -4t24.5 -10t12.5 -20v-3q0 -1 1 -2q-2 -24 -3 -46.5t3 -46.5q0 -3 2 -13.5t2 -14.5q1 -6 9.5 -8.5t18.5 -3
t19.5 0.5t14.5 1q10 1 12.5 13.5t2.5 31.5t-1.5 40.5t-0.5 40t6 31.5t19 15q9 1 20.5 0.5t22 -3.5t18 -10t9.5 -18q2 -17 1.5 -34t-2 -34.5t-2 -34.5t1.5 -34l0.5 -4t1.5 -8.5t3.5 -8.5t6.5 -4l83 3q22 0 24 -20q0 -2 2.5 -16t2.5 -30t-3.5 -29.5t-13.5 -14.5h-2
q-3 1 -11 2.5t-17 3.5t-17 3.5t-11 1.5h-4.5t-5.5 -1q-18 -2 -21.5 -11.5t-4.5 -25.5q1 -25 0.5 -52t2.5 -53q0 -2 1.5 -9t1.5 -9q3 -11 21 -11t38.5 0.5t37.5 -3t19 -20.5q2 -1 2 -4v-9.5t-0.5 -14t-1 -14.5t-0.5 -9q-1 -9 -3 -20t-13 -12q-17 -2 -35.5 -0.5t-36.5 -0.5
q-12 -1 -16.5 -10t-5.5 -20.5t1 -23.5t2 -18q0 -5 1 -15.5t2 -22t2 -22t1 -14.5t-3.5 -9.5t-8.5 -5.5q-8 -1 -15 3t-15 5q-10 0 -20.5 -0.5t-19.5 0.5t-15 6t-7 16zM322 287q5 -12 16.5 -13t23.5 1q2 0 8 1t8 2q7 3 9 21t1.5 40.5t-2.5 44t-3 30.5l-2.5 12.5t-1.5 8.5l-8 2
l-42 -4q-5 -1 -8.5 -9t-6 -18t-3.5 -19.5t-1 -13.5l1 -5.5t2 -12t2 -13.5t1 -11q0 -2 1 -8.5t2 -13.5t2 -13t1 -9z" />
    <glyph glyph-name="G" unicode="G" horiz-adv-x="501" 
d="M347 33q-4 0 -9.5 -3t-11 -6.5t-9.5 -7t-5 -4.5q-14 -7 -31 -8t-32 -1q-35 -1 -65.5 16t-54.5 45t-39.5 62.5t-20.5 67.5q-6 39 -6.5 79.5t-1.5 80.5q-2 51 7 109t30 105q9 20 24 42.5t34.5 42.5t41.5 35.5t44 21.5q4 0 16 1t16 1q43 1 70 -7.5t41.5 -27.5t19.5 -49
t6 -73v-9.5t0.5 -14t0.5 -14.5v-10q-1 -8 -2 -17.5t-3.5 -17.5t-7.5 -14t-14 -6q-20 1 -37 5q-14 3 -26 7.5t-12 12.5l-1 73q0 14 -12.5 24t-25.5 10q-32 -1 -53.5 -28.5t-34.5 -65.5t-18.5 -78t-5.5 -67q1 -24 6.5 -59.5t18 -68.5t33 -56t52.5 -23q18 1 29 13t9 30
q0 1 -0.5 5t-1 8.5t-2 8t-3.5 3.5l-47 -1q-3 0 -6.5 3.5t-6.5 8.5t-5 9.5t-2 7.5l-1 65q0 10 8 16.5t17 6.5h4q5 -1 17.5 -4t15.5 -4l129 4q2 0 5.5 -5.5t5.5 -8.5q1 -1 1.5 -2t1.5 -2q1 -2 2 -3q0 -3 -1 -12t-2 -12l5 -264q0 -8 -5.5 -12.5t-10.5 -4.5q-14 -1 -29.5 3
t-26.5 12q-7 4 -10 15t-12 11z" />
    <glyph glyph-name="i" unicode="i" horiz-adv-x="271" 
d="M94 44q-1 5 -2.5 16t-3 23t-3 22.5t-2.5 14.5q-1 7 -3 19.5t-3.5 24.5t-3 21.5t-1.5 10.5q0 6 -2 24t-4.5 39.5t-4.5 41.5t-3 29q0 5 -1 14.5t-1.5 20t-1.5 19t-1 10.5q-1 7 2.5 16t9.5 14q2 1 12.5 2.5t13.5 1.5q15 2 29 2.5t26 -2.5t20 -11.5t11 -24.5
q11 -73 16.5 -148t16.5 -148v-16t-2.5 -22t-8.5 -20t-16 -10l-60 -7q-5 -1 -10 2t-8.5 6.5t-6.5 8t-4 6.5zM40 565q-4 21 -6 37t-1 38q4 7 10 11.5t15 5.5q13 2 29.5 1t31.5 -5.5t26 -13.5t14 -24q1 -12 4 -32t1.5 -39.5t-11 -34.5t-31.5 -18q-26 -3 -41 0.5t-23.5 13
t-11.5 24.5t-6 36z" />
    <glyph glyph-name="five" unicode="5" horiz-adv-x="509" 
d="M60 83q0 8 7 24t17 32.5t20.5 28.5t16.5 12q1 0 4 -0.5t4 -0.5q27 -27 58.5 -48t70.5 -21q18 0 34 9t28 23.5t19.5 32t9.5 35.5q5 45 -15 72t-52 41t-70.5 18.5t-71.5 5.5q-6 0 -8.5 4.5t-2.5 9.5q0 6 -0.5 22.5t-1 35.5t-1 35.5t-0.5 23.5v5q0 20 2 40.5t5 40.5v168
q0 12 10.5 16.5t19.5 4.5h7q1 0 6 -0.5t10 -1.5t9.5 -1.5t5.5 -0.5q9 0 31.5 -1.5t48 -3.5t47.5 -3.5t31 -1.5q15 -3 27 -8.5t15 -22.5q0 -4 0.5 -13t1 -19.5t1 -19.5t0.5 -13v-6q0 -17 -11.5 -24.5t-25.5 -7.5q-27 0 -54 3.5t-54 3.5h-16q-2 0 -4.5 -1.5t-2.5 -2.5v-134
l13.5 -3t30 -7t32 -8t20.5 -6q3 -2 14 -6.5t13 -6.5t8.5 -7t13 -11t10.5 -11.5t3 -8.5q22 -34 38.5 -74.5t16.5 -81.5q0 -32 -8 -65.5t-23.5 -65t-38 -57.5t-50.5 -41q-20 -11 -43.5 -12.5t-44.5 -1.5h-29q-12 1 -37.5 9t-51 20t-44.5 26.5t-19 27.5z" />
    <glyph glyph-name="s" unicode="s" horiz-adv-x="392" 
d="M32 153q0 8 8 18t19 18.5t23.5 14.5t20.5 6q13 0 19 -14t12 -31t15.5 -31t30.5 -14q11 0 22 2.5t19 8.5q3 2 12 13t12 13q1 0 1.5 2t0.5 4l2 4t1 3v40l-6 6.5t-14.5 15t-18 17.5t-15.5 15q-3 3 -8.5 7.5l-11 9t-9.5 8.5t-5 4q-2 1 -6.5 4t-10 6t-10 5.5t-5.5 2.5
q-34 22 -57 61.5t-23 77.5q0 8 2.5 18.5t4.5 16.5q19 54 58.5 85t105.5 31q32 0 63.5 -12t53.5 -31q2 -3 9.5 -11t9.5 -10q0 -1 1 -2q3 -3 2 -3v-1q0 -6 -6 -13.5t-8 -13.5q-2 -2 -5 -6.5t-6 -10t-5.5 -10.5l-3.5 -7q-4 -5 -11 -5q-12 0 -21 7t-20 10q-15 5 -30.5 9t-31.5 4
q-25 0 -39.5 -12.5t-14.5 -34.5q0 -20 15.5 -36.5t37.5 -31t44 -28t36 -26.5q8 -10 14 -14.5t8 -15.5v-3q17 -24 26 -54.5t9 -57.5q0 -51 -34 -91.5t-89 -54.5q-5 0 -16 -0.5t-15 -0.5q-24 0 -47 4.5t-43.5 14t-36 24t-23.5 35.5q-5 11 -8.5 20.5t-3.5 20.5z" />
    <glyph glyph-name="dieresis" unicode="&#xa8;" horiz-adv-x="432" 
d="M253 663q-4 24 10 43t36 22q6 1 15 -4.5t17 -13.5t14.5 -17t7.5 -15q3 -21 -11.5 -37t-33.5 -19t-36 9t-19 32zM57 645q-3 21 4.5 43t29.5 26q9 1 18 -3t16.5 -11.5t12 -16.5t6.5 -17q2 -20 -5.5 -41t-28.5 -24q-18 -3 -34.5 10.5t-18.5 33.5z" />
    <glyph glyph-name="y" unicode="y" horiz-adv-x="434" 
d="M38 -213q-2 9 -5 28.5t-3 39.5t6.5 36.5t23.5 19.5q9 1 24 2.5t29.5 -0.5t25.5 -8.5t13 -20.5l16 -86q5 -24 25.5 -34.5t43.5 -7.5q30 4 45 24t21 46.5t5.5 54.5t-1.5 48q-4 43 -3.5 86t-8.5 87q0 2 -1 9t-6 6q-16 -8 -33 -16t-36 -10q-43 -6 -74 7.5t-52 38.5t-33 57.5
t-18 64.5q-8 48 -8.5 98.5t-1.5 98.5q0 2 1 5.5t3 4.5q2 0 10.5 1.5t10.5 1.5q24 4 49 3.5t51 1.5q10 -4 12 -18q0 -3 1 -4q0 -1 1 -2q-4 -51 -8 -102.5t4 -103.5q1 -5 1.5 -10.5t3 -11t6.5 -8.5t12 -2q18 2 25.5 18t12.5 28q11 22 9.5 54t-5 64t-2.5 60t18 43q23 5 53 11
t57 9l5 -40l59 -523l-4 -138q0 -1 -2 -7t-4.5 -14t-5.5 -16t-5 -12q-17 -49 -45 -79.5t-83 -48.5q-2 0 -12.5 -2t-15.5 -2q-49 -7 -85 4.5t-60.5 35.5t-39.5 58t-22 72z" />
    <glyph glyph-name="j" unicode="j" horiz-adv-x="383" 
d="M113 -51q3 0 8.5 1t11.5 1.5t11 -1t7 -5.5l21 -86q2 -9 11.5 -15.5t22 -11t26 -6.5t23.5 0q13 3 22 15t15 27.5t9 31t4 24.5q-1 1 -1 3v4q-12 71 -17 139t-11 143q-8 23 -9 41.5t-3 45.5q0 3 -2 15.5t-4 26t-3.5 26t-1.5 15.5q-1 6 -2.5 16.5t-1 21.5t5 19.5t16.5 10.5
h6.5t5.5 1q8 1 20 1.5t25 1.5q14 1 31 2l5 -3l8 -36q-1 0 -2.5 -2t-0.5 -3q0 -2 2 -11t2 -11q10 -56 10.5 -112t8.5 -113q5 -25 12 -65.5t10.5 -87t1 -95t-16.5 -89.5t-42.5 -69.5t-76.5 -36.5q-16 -3 -38 -6t-44 -3t-42 5t-32 20q-3 4 -8.5 11t-10.5 13.5t-9 11.5l-4 5
l-29 119q-5 21 10 34t40 16zM244 627q6 0 17.5 0.5t23.5 -1t24 -4.5t20 -9q2 -2 2.5 -6t1.5 -6q1 -5 3 -17.5t2 -26t-3.5 -24.5t-14.5 -13l-57 -9q-2 -1 -10.5 2.5t-9.5 6.5l-20 83q-2 9 6 16t15 8z" />
    <glyph glyph-name="H" unicode="H" horiz-adv-x="481" 
d="M302 -19q0 3 -1 11.5t-2.5 18t-2.5 18t-1 11.5q-3 29 -3.5 58t0 58.5t0.5 58.5t-3 58q-1 8 -2.5 18.5t-13.5 10.5q-5 0 -16 -1.5t-24 -3t-24.5 -3t-16.5 -1.5q-1 -1 -4 -1.5t-5 -0.5q-11 -2 -14.5 -15.5t-4 -31t1.5 -34t2 -24.5q1 -25 2 -46t3.5 -42t5 -43t6.5 -48
l-9 -38l-106 5q-4 0 -7 7q-2 4 -3 8q5 41 2.5 80.5t-1.5 80.5q2 56 6 111.5t5 110.5q1 39 0.5 77t-1.5 76q0 3 -1 14.5t-1.5 24t-1.5 24t-1 14.5q0 8 -1 27.5t0 40t5.5 37t15.5 18.5h4t3 1q1 0 4.5 -1.5t7.5 -3l8 -3t5 -1.5q8 -2 19.5 -2t22 -2.5t18.5 -8t9 -17.5q1 -1 1 -5
q-3 -48 -6.5 -94.5t3.5 -95.5q0 -3 1 -11t2 -17t2 -17t1 -11q11 -6 25 -3.5t26 4.5q11 2 15 8.5t4 15.5t-1.5 19.5t-1.5 19.5q0 27 2 55t1 55q0 1 -0.5 9.5t-1 20t-1.5 23.5t-1 19q-1 11 5 17t17 8q9 2 29.5 2.5t42.5 -2.5t39 -10t19 -20q6 -49 3 -97t-5 -96q0 -2 0.5 -10.5
t1.5 -10.5l12 -300q-1 -3 -2.5 -10t-2.5 -15.5t-1.5 -16t-0.5 -10.5q-1 -11 1 -32.5t2 -43.5t-4.5 -39.5t-18.5 -20.5q-7 -1 -20.5 -2t-28 -1t-27 2t-16.5 7z" />
    <glyph glyph-name="ampersand" unicode="&#x26;" horiz-adv-x="548" 
d="M345 74q-1 0 -4.5 -2t-5.5 -4q-29 -23 -55.5 -43.5t-64.5 -26.5q-36 -6 -66.5 4.5t-54 33t-38.5 54t-20 66.5q-6 38 2 83t29 76q1 2 4.5 6.5t7 10t6.5 9.5t4 6q5 6 12 10.5t13.5 9.5t10.5 11t3 15q-5 25 -17 48t-17 50q-4 25 0.5 59t17 65.5t34 55.5t50.5 29
q31 5 59.5 -3.5t50.5 -27t37 -45.5t20 -58q2 -14 0.5 -30.5t-5.5 -33t-10 -31.5t-12 -26q-13 -23 -23.5 -40t-6.5 -42q5 -35 28 -64.5t46 -52.5q1 -1 5 -2t5 0q11 3 20 14.5t17 19.5q1 2 6 7t10 10.5t10 10t7 6.5q1 0 4 1t4 1q7 1 15 -6t15.5 -17.5t13 -21t5.5 -15.5
q3 -12 -7 -23q-18 -22 -32 -38t-29 -38q1 -1 1 -3.5v-3.5q2 -14 11 -24t18.5 -19.5t18.5 -20t11 -24.5q1 -11 -3.5 -18.5t-12 -13t-16.5 -9.5t-16 -8q-1 -1 -10.5 -7t-11.5 -8h-3q-10 -2 -22 10.5t-24 28t-24 28t-21 11.5zM134 181q5 -28 20.5 -45t46.5 -12q7 1 18.5 2.5
t22 5.5t17 10t5.5 17q-2 8 -7.5 16t-4.5 14q-3 3 -8 10.5t-10.5 16.5t-10.5 16.5l-7 10.5q-3 4 -5 10t-5.5 11t-8 8.5t-11.5 2.5q-17 -3 -27.5 -12.5t-16.5 -22.5t-8 -28.5t0 -30.5zM198 513q1 -6 2.5 -14t4.5 -15.5t8.5 -12t13.5 -3.5q2 1 4 1.5t4 1.5q14 16 26.5 40
t9.5 47q-3 12 -12.5 20.5t-21.5 6.5q-26 -5 -34.5 -27t-4.5 -45z" />
    <glyph glyph-name="six" unicode="6" horiz-adv-x="438" 
d="M60 237q0 29 4.5 52t10.5 52q6 32 12 67t23 65l97 170q4 7 10.5 16.5t15 18.5t18 15.5t20.5 6.5q8 0 21.5 -9t26 -21.5t22 -27t9.5 -24.5q0 -12 -10.5 -22.5l-18.5 -18.5q-2 -3 -7.5 -9.5t-12 -14t-12 -14t-8.5 -9.5q-3 -4 -13.5 -18.5t-22 -31t-20 -30t-8.5 -15.5
l-31 -63q1 -3 -1.5 -12t-5.5 -20.5t-6 -22.5t-3 -17q0 -2 0.5 -9.5t0.5 -9.5q-1 -7 6 -7h3q1 0 2 1q11 3 17 5.5t11 4t11.5 2.5t18.5 1q25 0 47.5 -8.5t40.5 -22.5t31 -33.5t19 -40.5v-29q0 -24 -7.5 -51.5t-22.5 -50t-38.5 -37.5t-56.5 -15q-23 0 -40.5 6t-38.5 17
q-32 15 -53.5 39.5t-35 53.5t-19.5 60.5t-6 60.5zM195 143q0 -18 14.5 -36t36.5 -18q25 0 34.5 18t9.5 38q0 19 -19 30.5t-39 11.5q-19 0 -28 -15t-9 -29z" />
    <glyph glyph-name="T" unicode="T" horiz-adv-x="416" 
d="M153 5q1 4 -0.5 16.5t-1.5 16.5q-2 31 0.5 59.5t6.5 60.5q1 2 0 5.5t-1 4.5q0 25 3.5 49t4.5 49q2 47 -1 92t-2 91q0 4 0.5 12l1 16t1 14.5t0.5 8.5t1 9t2 14.5t2 14t1 8.5v3q0 7 -5 10.5t-10 4.5q-30 -2 -57.5 -0.5t-57.5 -0.5q-8 2 -15 7q0 5 -1 18.5t-2 17.5
q-1 9 -3.5 28t-3 38.5t3.5 35t17 17.5h4l333 -3q7 0 11 -4.5t6.5 -10.5t3.5 -12.5t1 -10.5q0 -1 0.5 -7.5t1.5 -15l2 -17t1 -14.5q0 -3 0.5 -10t1 -15.5t1 -16t0.5 -10.5q0 -5 -3 -10t-8 -6q-25 -4 -50 -4t-50 -3q-5 -1 -9 -0.5t-9 -4.5q-6 -7 -7.5 -17t-1.5 -20.5t1 -21
t1 -18.5q-5 -112 -5 -224.5t14 -222.5q0 -8 -2.5 -20t-13.5 -13h-1q-2 0 -8 0.5t-13.5 1.5t-13.5 1h-7q-6 1 -15.5 0t-19 -1t-18 2t-12.5 8z" />
    <glyph glyph-name="z" unicode="z" horiz-adv-x="420" 
d="M41 86q0 21 1 46.5t17 41.5q54 55 102.5 108t95.5 115v8v5t-3 5q-45 2 -90.5 3t-90.5 1q-2 0 -8 7.5t-6 11.5v78q0 11 5 16t13 5q15 0 29 -4t30 -4h221q6 0 11 -7.5t7 -13.5q2 -22 3 -46t1 -47q0 -17 -7.5 -32t-16.5 -26l-143 -166q-5 -7 -5 -13t3.5 -7.5t8.5 -1.5
q26 0 52.5 9t52.5 9q8 0 19.5 -4t11.5 -17v-84q0 -8 -7 -13.5t-12 -7.5q-10 -1 -30.5 -2t-46.5 -3t-54.5 -3.5t-54.5 -3t-46.5 -3t-30.5 -1.5q-1 0 -5.5 -0.5t-6.5 -0.5q-16 0 -20 17v25z" />
    <glyph glyph-name="k" unicode="k" horiz-adv-x="421" 
d="M110 14q0 1 -0.5 2t-0.5 3v3q0 7 -1 19t-2.5 23.5t-2.5 20.5t-2 11q0 13 -1 45.5t-2.5 69t-2.5 69t-1 45.5l-3 18l-29 334q0 3 -1 10t0.5 14.5t5 13.5t12.5 7h2h48q15 0 31 1l5 -28l12 -286l3 -18q21 43 46.5 84.5t49.5 80.5h4q7 1 20 -3.5t25.5 -12t22 -16t10.5 -15.5
q1 -9 -8.5 -28t-22.5 -39.5t-26.5 -39.5t-19.5 -28q-1 -2 -4 -7t-7 -10.5t-7.5 -10.5t-4.5 -6q2 -5 0 -13.5t-1 -13.5q2 -15 12.5 -36t21.5 -41.5t20 -37.5t9 -24l39 -67q0 -1 0.5 -6t0.5 -7q1 -7 -5 -21.5t-15 -29.5t-18 -26.5t-13 -12.5h-2l-116 192q0 -2 0.5 -8.5l1 -13
t1 -12.5t0.5 -8q0 -9 2 -31.5t4.5 -47.5t4.5 -47t3 -31l-3 -4l-66 -8q-11 -1 -19.5 10.5t-9.5 18.5z" />
    <glyph glyph-name="I" unicode="I" horiz-adv-x="355" 
d="M60 46q0 2 1 4.5t0 3.5q1 13 3 31.5t7 30.5q3 7 10 10.5t14.5 6t14.5 5t11 8.5q1 0 1.5 3t0.5 5t0.5 8t1 13.5t0.5 14.5v10q-3 81 -1.5 161t-3.5 160q0 2 -1 8t-1.5 13t-1 13t-0.5 9q-2 9 -9.5 11t-16.5 4t-16 6.5t-8 16.5q0 1 -0.5 2t-0.5 2v20.5t0.5 31t0.5 31v19.5
l5 20t11 14l2 -1h2q15 -3 42 -2.5t55 -1t52.5 -7t34.5 -19.5q5 -6 5 -19t1 -20q3 -43 -2.5 -60t-13 -23t-15.5 -8t-10 -16q-7 -42 -8 -84t0.5 -84t4.5 -83.5t5 -83.5v-10.5v-18.5t0.5 -18.5t0.5 -10.5v-8q1 -12 9 -16t18 -7.5t18.5 -9t10.5 -20.5q0 -7 0.5 -20.5t-1.5 -27
t-7.5 -24.5t-17.5 -12q-20 -4 -45.5 -2t-45.5 0q-3 0 -14.5 -1.5t-24 -3t-24 -2.5t-14.5 -1q-14 -1 -26 5.5t-14 23.5z" />
    <glyph glyph-name="circumflex" unicode="&#x2c6;" horiz-adv-x="584" 
d="M271 686q-1 0 -1.5 -0.5t-1.5 -0.5l-90 -92q-1 -3 -7 -3q-3 -1 -11 0t-15.5 3t-14 5t-6.5 6q-1 1 1 4.5t5 6.5t6 5.5t4 2.5q28 30 55.5 59.5t54.5 58.5q2 0 3.5 2t2.5 2l46 5q4 1 7 -1q2 -3 11 -10.5t12 -9.5l3 -2q1 -2 10.5 -10t11.5 -9l2 -3q2 -1 10 -7t10 -8t10 -8.5
t16 -14t14.5 -13.5t6.5 -7l14 -16l1 -1q0 -5 -6 -8q-4 -3 -7.5 -2.5t-8.5 -1.5q-11 -3 -19.5 -12.5t-19.5 -10.5h-4.5t-3.5 1q-3 3 -11.5 10.5t-10.5 9.5q-4 3 -14.5 14.5t-23 24t-24 22t-17.5 9.5z" />
    <glyph glyph-name="seven" unicode="7" horiz-adv-x="519" 
d="M188 -26q1 2 7.5 9.5t7.5 9.5q0 2 5 12t7 17q1 3 6 20t9.5 36.5t8 35l3.5 15.5q10 41 17 81.5t18 81.5q0 1 -0.5 2t-0.5 2q1 2 3 12.5t3 12.5q1 3 3 11t3.5 17.5t3 18t1.5 11.5v3q0 1 1.5 6l3 10l3 10t1.5 6q0 2 2 13.5t2 16.5q2 4 2.5 12.5t0.5 10.5v3q4 23 11.5 48.5
t3.5 50.5q-2 8 -2 11l-5 2q-5 -1 -17.5 -2.5t-26.5 -3t-26.5 -2.5t-17.5 -2q-2 0 -13.5 -0.5t-13.5 0.5q-3 -1 -15.5 -3t-26 -3.5t-25.5 -3t-15 -1.5q-3 -1 -10 -1.5t-14.5 0.5t-13.5 4.5t-7 10.5l-14 80q-2 13 5 23.5t21 12.5q57 10 112 7.5t111 1.5q2 0 10.5 1t19 2
t19.5 2t11 1h6.5h11.5t11.5 -0.5t6.5 -0.5q5 0 13 2t16.5 2t14.5 -2.5t8 -9.5q0 -2 0.5 -4t0.5 -3q-3 -32 -9 -65.5t-14 -64.5l1 -3q-1 -2 -2 -8.5t-3 -8.5q-2 -7 -7 -23t-10.5 -34.5t-11 -35t-7.5 -23.5v-2l-18 -73v-3l-20 -69q4 -9 0.5 -20t-8.5 -22t-9 -21.5t0 -19.5
q-1 -3 -3 -12.5t-4.5 -20t-5 -20t-3.5 -12.5q-1 -2 -1 -6t-1 -5v-1q0 -2 1 -2l-19 -77l1 -3q-1 -3 -3.5 -12t-5 -19.5t-5 -20t-3.5 -13.5q-2 -10 -3 -21t-17 -13q-7 -1 -20 0.5t-26 5.5t-23.5 10.5t-11.5 15.5v6z" />
    <glyph glyph-name="J" unicode="J" horiz-adv-x="456" 
d="M21 62q-1 7 7.5 17.5t21 21t26 19.5t22.5 14q2 0 5 1t5 1q12 1 19.5 -5t17.5 -13.5t24 -13.5t40 -4q9 1 18 5t15.5 10t9.5 11.5t-1 9.5q1 3 3 10.5t4 16t3.5 15.5t1.5 10q4 17 7.5 41t-3.5 41l-24 335l-6 36l-35 -3l-5 4q-2 6 -4 11t-3.5 9.5t-1.5 7.5q-1 2 -3 11t-4 12
q3 0 10 0.5t9 0.5q12 0 43 0.5t66 1.5t65.5 1.5t42.5 0.5q0 -1 1 -4t2 -4v-12t-0.5 -16t-2 -14t-3.5 -6l-42 -2q0 -2 2.5 -7.5t2.5 -7.5q0 -5 -0.5 -18t-0.5 -27v-26.5v-17.5q0 -13 -2 -26.5t-3.5 -27.5t-1 -27.5t5.5 -26.5l9 -243q-6 -16 -2 -33.5t2 -32.5
q-7 -46 -50 -81.5t-128 -41.5q-50 -3 -91.5 15t-75.5 36q-11 5 -14 7t-4 8z" />
    <glyph glyph-name="question" unicode="?" horiz-adv-x="508" 
d="M195 20q-2 13 0 27.5t8.5 26.5t19 20t32.5 10q13 1 26.5 -4t24.5 -13t18 -18.5t9 -20.5q1 -12 -3 -24.5t-13 -22.5t-21.5 -17t-27.5 -8q-26 -2 -48 10t-25 34zM198 208q-3 24 -3 55t4 64t12 64t22 54q16 25 39 48.5t45 44.5q15 23 12 48q-2 21 -15 32.5t-39 9.5
q-42 -5 -66.5 -29.5t-19.5 -59.5q2 -18 6 -37t6 -39q1 -7 -4.5 -17.5t-13.5 -21t-17.5 -18t-16.5 -7.5h-5q-4 -1 -16.5 -0.5t-16.5 0.5q-28 23 -38 56.5t-15 65.5q-2 17 0 32.5t7 32.5q18 76 70 117.5t150 49.5q38 3 68.5 -7.5t52 -29.5t35 -45t16.5 -54q3 -20 1.5 -41
t-8 -41t-20 -37.5t-35.5 -30.5q-14 -9 -32 -19.5t-28 -24.5q-13 -20 -19 -47t-7.5 -55.5t-0.5 -56t2 -49.5q1 -19 2 -32t-4 -21t-18.5 -13t-39.5 -7q-17 -2 -27 4.5t-15 16.5t-7 22t-3 23z" />
    <glyph glyph-name="plus" unicode="+" horiz-adv-x="464" 
d="M203 44q1 23 4 46t-1 48q-2 16 -9.5 21.5t-24.5 4.5q-5 0 -17 -0.5t-25.5 -0.5t-25.5 -0.5t-17 -0.5q-8 0 -14 6q-5 20 -7.5 32.5t-4.5 30.5q-2 17 4.5 24.5t26.5 9.5q18 3 36.5 3.5t38.5 3.5q3 1 14 2.5t14 1.5q5 4 7 11.5t2 15t-1.5 14.5t-1.5 11q0 3 -1.5 16t-3.5 28
t-3.5 28t-1.5 17t-0.5 13t-1 19.5t-1 19.5t-0.5 12q2 14 13 15q11 2 27 2.5t32 -2t28 -9.5t14 -21v-5q0 -3 -1 -14.5t-2 -13.5v-28t0.5 -42.5t1 -42.5t0.5 -28v-3q1 -4 4 -8t8 -3l71 11q6 1 10 -4.5t5 -10.5q3 -19 3 -40.5t2 -39.5q-3 -11 -9.5 -13t-17.5 -4
q-14 -2 -27 -1.5t-27 -1.5q-11 -2 -14.5 -14.5t-3 -30.5t3 -39t3 -39t-3.5 -30.5t-15 -13.5q-10 -2 -24.5 -3t-28.5 1.5t-24.5 9t-12.5 20.5v9z" />
    <glyph glyph-name="U" unicode="U" horiz-adv-x="531" 
d="M377 -7q-9 2 -13.5 11t-7 19t-4 17.5t-5.5 7.5q-6 -1 -15.5 -9t-21.5 -18t-27 -19t-31 -10q-20 -2 -39.5 2t-35.5 14q-36 21 -56.5 52t-32 67.5t-16 76t-8.5 76.5q-7 70 -2.5 139t9.5 140v8.5t1 16t1 16v9.5q1 16 1 28t4 20.5t13.5 14.5t29.5 9q5 1 14.5 -0.5t20 -4.5
t20 -7t12.5 -8q0 -2 1 -7t1 -7q2 -22 1 -46t-4 -48.5t-5.5 -48.5t-3.5 -46q-3 -45 1 -88t9 -88q3 -31 8.5 -60.5t30.5 -51.5q2 -2 11 -9t11 -9q1 0 3.5 -1t3.5 -1h2h1l8 4t8 8q20 41 28.5 81t11 79.5t1.5 80.5t0 85v6.5t0.5 12t1 12.5t0.5 9q0 1 1 8t2 15.5t2 15t1 8.5
q1 26 -1.5 46t0.5 34t16 22.5t46 11.5q6 1 16 2t19.5 0.5t18 -4t12.5 -12.5q0 -5 2 -17.5t3 -16.5q5 -48 1.5 -94t-5.5 -94q-1 -14 1 -31t-1 -33q7 -46 9.5 -91.5t3.5 -91.5l2 -92t4 -92q-2 -8 -5 -16t-12 -9q-21 -2 -37.5 -1t-39.5 -3z" />
    <glyph glyph-name="l" unicode="l" horiz-adv-x="226" 
d="M101 49q-1 18 -4 36.5t-5.5 36.5t-3.5 36.5t4 37.5q-1 10 -3 34.5t-4.5 52t-5 52t-3.5 34.5q-8 85 -8.5 167t-7.5 166q1 8 5 17.5t16 10.5l2 1h1h17t26 -0.5t26 -0.5h17q7 -1 14 -5q1 -2 1.5 -8t0.5 -9q4 -20 2 -40t-1 -39q4 -49 4 -98t-2 -98.5l-4 -99t-1 -98.5
q0 -6 1 -30t2 -51.5t1.5 -51t0.5 -29.5v-18.5t-4 -15.5t-12.5 -11.5t-25.5 -5.5q-15 -1 -29.5 3t-16.5 17v7z" />
    <glyph glyph-name="caron" unicode="&#x2c7;" horiz-adv-x="448" 
d="M85 730q-1 5 3 6l36 19h3q8 1 13 -6t9 -12q14 -14 29 -27.5t28 -28.5q4 -5 8.5 -14t11.5 -9h2q10 8 16 18.5t14 20.5q1 1 4.5 5.5t7 9.5t7 9.5t4.5 5.5q3 3 8 9.5t10.5 13t11 11.5t8.5 5t9 -2.5t12 -6.5t11 -8t5 -7q1 -5 -2.5 -11t-6.5 -11q-4 -3 -12 -12.5t-10 -12.5
q-2 -8 -11.5 -16t-11.5 -13q-2 -2 -7 -8t-11 -12.5t-11 -13.5t-7 -10q-1 -1 -7 -9t-7 -9q-5 -7 -14.5 -9.5t-19.5 -2.5q-1 -1 -3 -0.5t-4 0.5q-14 10 -25 22.5t-21.5 26l-21 27t-22.5 25.5q-1 1 -5 5.5l-8 9t-8 8.5t-5 4q-2 1 -5 4t-5 4v2z" />
    <glyph glyph-name="exclam" unicode="!" horiz-adv-x="264" 
d="M62 42q-2 9 0 20.5t8 22t16 18t24 9.5h1q30 -5 52 -13.5t28 -35.5q4 -20 -7.5 -41t-41.5 -25q-27 -3 -51.5 9.5t-28.5 35.5zM88 175q0 3 -2 12.5t-3 12.5q-8 44 -6 90t7 90q-5 15 -4.5 30.5t2 31t3.5 31t2 31.5q-1 1 -2 10.5t-2 22.5t-2.5 26.5l-2.5 22.5q-1 0 -1 1v3v4
q-1 7 -3.5 25.5t-5 39.5t-4.5 39t-3 26q-2 7 3.5 21.5t16.5 16.5q6 1 15.5 -2t16.5 -3q9 -1 23 -0.5t28 -0.5t25 -5.5t13 -15.5q2 -10 1 -19.5t1 -18.5q-5 -53 -10 -104.5t-10 -104.5q-2 -41 -3 -79.5t-8 -79.5q0 -1 1 -4.5t2 -4.5q-2 -24 -4 -48.5t-4 -47.5q-1 -4 -1 -17.5
v-18.5q0 -8 -5 -17.5t-17 -11.5q-13 -2 -31.5 1.5t-25.5 14.5z" />
    <glyph glyph-name="eight" unicode="8" horiz-adv-x="522" 
d="M63 125q-5 35 1 71t24 68q1 3 4 7.5t6 9.5t5 8.5t3 4.5t6.5 7.5t12 13.5t12 13.5t7.5 8.5q6 5 6.5 7.5t-1.5 8.5q-2 12 -8 23t-11 23q-6 19 -9.5 37.5t-7.5 38.5q-5 33 0 61.5t19 59.5q-1 1 -1 2.5t1 1.5q4 15 14 32.5t24 32.5t32.5 26t40.5 13q34 4 60 -9.5t44 -35.5
t29 -49t14 -50q5 -31 0 -58.5t-11 -57.5v-4l-24 -64l2 -15l4.5 -4.5t11.5 -10.5t13.5 -12t11.5 -10q28 -24 41 -45t18 -56q6 -34 3.5 -63.5t-14.5 -56t-35.5 -49t-60.5 -41.5q-15 -8 -22.5 -9.5t-25.5 -3.5q-21 -2 -44.5 -3.5t-46.5 3.5q-25 5 -49.5 17t-45.5 29t-35 37
t-18 42zM179 169q2 -12 7.5 -24t15 -21t22.5 -14t30 -3q19 2 35.5 11t28.5 21.5t18 28t3 31.5t-7.5 30.5t-14 24t-25.5 14.5t-40 2q-20 -2 -34.5 -12.5t-24 -25t-13 -31.5t-1.5 -32zM235 453q1 -5 2 -11t4 -11.5t7.5 -9t12.5 -2.5q13 1 19.5 12t8.5 24.5t1 27.5t-3 22
q0 3 -2 12.5t-5 20t-8.5 18.5t-13.5 7q-12 -2 -17.5 -16.5t-7 -33t-0.5 -36t2 -24.5z" />
    <glyph glyph-name="K" unicode="K" horiz-adv-x="472" 
d="M268 61q-19 21 -34.5 41t-38.5 37q-9 -7 -8 -30t2.5 -48t-1.5 -45.5t-20 -22.5q-1 0 -2 -1q-7 0 -17 -0.5t-19.5 -0.5t-16.5 -0.5l-7 -0.5q-11 1 -25 5.5t-16 18.5q-7 64 -4 128.5t6 130.5v14v20.5v20v12.5q-3 62 2 123t5 124q0 2 -1 9t-2 14.5t-2 14t-1 8.5q0 8 -0.5 22
t2 27.5t9.5 24t21 11.5q1 0 3.5 1t3.5 1h12.5t16.5 0.5t14.5 1t8.5 0.5q19 0 21.5 -6t4.5 -22q5 -38 1 -78.5t-6 -78.5q0 -2 -1 -10.5t-2 -18t-1.5 -18t-0.5 -10.5v-7q0 -3 0.5 -6t5.5 -5q14 13 21 33t17 36q0 1 3 5.5t6 9.5t6 9.5t4 5.5q11 19 17.5 39t15.5 40q0 2 4 10.5
t8.5 18.5t8.5 19t5 11q3 6 8.5 14.5t14.5 9.5h1q2 0 4.5 -0.5t3.5 -1.5l70 -54q1 0 1 -3v-4q2 -12 -3.5 -23t-10.5 -22q-2 -3 -10 -17t-17 -29.5t-17 -29.5t-9 -18l-24 -42t-31.5 -58.5t-27 -58t-10.5 -40.5q2 -18 11.5 -35t21.5 -33t26 -31t25 -28l87 -134q3 -6 -7 -16.5
t-24 -21.5t-28 -19.5t-19 -9.5q-8 -1 -11 0.5t-11 10.5q-5 5 -12 13.5t-14 16.5t-11.5 14.5t-4.5 7.5l-1 4v0z" />
    <glyph glyph-name="plusminus" unicode="&#xb1;" horiz-adv-x="487" 
d="M99 -9q-5 1 -11 4.5t-7 8.5l-11 82q-1 8 6 12t14 5q12 2 22.5 0.5t22.5 -1.5h28.5h37t33 0.5t17.5 0.5q8 0 28.5 1.5t43 3.5t42.5 4t28 4q6 -1 14 -6t9 -11l10 -68q1 -5 -6 -8t-9 -4q-78 -4 -156 -10.5t-156 -17.5zM183 171q-3 21 -2 42.5t-2 42.5q-1 5 -3.5 9.5
t-9.5 3.5l-79 -9q-9 -1 -14 7t-6 14q0 1 -0.5 1.5t-0.5 2.5q-1 1 -1 3q0 4 -0.5 13t-1.5 19t-2 19t-1 13q2 5 7 10.5t12 6.5l91 10v3q0 2 0.5 3t0.5 3q2 26 0.5 52.5t-4.5 51.5q2 7 4.5 11.5t10.5 5.5h2q1 0 1 1q12 -2 26 -2t28 -0.5t27 -4t23 -13.5q0 -2 1 -7t2 -7
q3 -20 -1.5 -40.5t-1.5 -42.5q2 -12 15 -14q13 1 26.5 3t25 0.5t20 -7t10.5 -19.5q1 -8 2.5 -23t0.5 -30t-6 -27t-17 -13q-13 -2 -24.5 0t-25.5 0q-2 0 -8 -0.5t-8 -0.5q-12 -8 -11.5 -27t2 -39.5t-1.5 -36.5t-21 -18q-10 -1 -24 -1t-27 2.5t-23 9.5t-11 19z" />
    <glyph glyph-name="V" unicode="V" horiz-adv-x="577" 
d="M245 -35q-14 2 -22 7.5t-13 19.5q-5 16 -6 33t-5 34q-11 51 -20.5 102.5t-18.5 102.5q-7 34 -18.5 66.5t-18.5 64.5q-5 21 -7 39t-8 39q-13 44 -29 93.5t-18 96.5q0 1 -0.5 6t0.5 9.5t3 8.5t7 4q2 -1 10 -4.5t9 -3.5q22 -4 48 -5t47 -1l13 -8q10 -90 31.5 -171.5
t40.5 -167.5v-14.5t1 -16t4 -14.5t10 -10q6 3 8.5 12.5t-0.5 15.5l25 116q-2 4 -1 5.5t2.5 3t2 3.5t-0.5 6l24 111l-1 8q1 4 4 13.5t6 21t5.5 21t3.5 13.5q3 13 4.5 25.5t6 23t13.5 17.5t26 8q4 1 9.5 1h6.5q2 0 7.5 -1t11.5 -2t11 -1.5t7 -0.5q19 -2 34 -5t16 -25
q2 -26 -8.5 -52.5t-16.5 -49.5q-20 -82 -36.5 -165t-46.5 -164v-3q-1 -5 -4.5 -17.5t-7.5 -26.5t-7.5 -26.5t-5.5 -17.5q-4 -11 -2 -22l-3.5 -10.5t-5 -16t-5 -16.5t-2.5 -11q-1 -3 -2.5 -11t-3.5 -18t-3.5 -19t-2.5 -13q-2 -12 -4.5 -26t-17.5 -15q-3 0 -7 -0.5t-5 -0.5
h-14.5h-22.5t-22.5 0.5t-14.5 0.5z" />
    <glyph glyph-name="parenleft" unicode="(" horiz-adv-x="340" 
d="M152 93q0 2 -3 7t-7.5 10.5t-8.5 10.5t-4 6q-12 20 -20 43.5t-16 43.5q-2 7 -6 19.5t-8 24.5t-7 21.5t-3 11.5q0 1 -1 6.5t-2 12.5l-2 14t-1 12q0 3 -0.5 9t-1 13t-1 13.5t-0.5 8.5q1 23 6 44.5t10 44.5q2 4 3 9t0 9q8 32 20.5 70.5t30.5 75.5t43.5 68.5t60.5 49.5h2
q1 0 1.5 0.5t1.5 0.5q6 0 14 -6t15.5 -14.5t13.5 -17.5t6 -14q1 -5 0.5 -8.5t-4.5 -9.5l-72 -97q-1 -1 -3.5 -6.5t-4.5 -7.5q-2 -3 -5.5 -11t-7 -17t-7 -16.5t-4.5 -10.5q0 -1 -1.5 -4.5t-1.5 -5.5v-3q-10 -38 -14 -73t0 -74q5 -39 17 -70.5t28 -69.5v-3l3 -5t7.5 -11
t9 -12.5t7.5 -10.5q10 -13 20.5 -23t27.5 -19q4 -3 12 -5t16 -5t14 -8t7 -12q0 -1 -7.5 -16.5t-17.5 -34t-20 -33.5t-15 -16q-13 -1 -31 10t-35.5 26.5t-32.5 31t-21 23.5z" />
    <glyph glyph-name="nine" unicode="9" horiz-adv-x="438" 
d="M127 -45v5q0 7 9 16.5t21 19t24 18t18 14.5q9 9 15 15.5t10 12.5t7.5 13.5t9.5 19.5q4 7 9.5 19.5t5.5 13.5v4q12 47 18.5 93t4.5 95q0 4 -0.5 14.5t-2 22t-4.5 20t-7 8.5q-15 -1 -28.5 -7t-28.5 -7q-30 -2 -56 7t-45.5 26t-31.5 41.5t-14 55.5q-2 37 8 71t31 60.5
t52 42.5t70 18t64 -12t40.5 -38t23.5 -55t12 -64q0 -3 1.5 -13.5t3.5 -22.5t3.5 -22.5t1.5 -13.5q0 -1 1 -15t2 -22q2 -39 2 -71t-2 -62.5t-7.5 -62t-14.5 -68.5l1 -4l-27 -70v-2q0 -1 1 -1q-16 -48 -48.5 -86t-70.5 -69q-8 -5 -17 -12.5t-20 -8.5q-9 0 -18.5 11.5
t-7.5 16.5zM222 582q-5 0 -11.5 -5t-12.5 -12t-10.5 -13.5t-4.5 -10.5l2 -36q1 -11 15 -20t25 -8q20 2 24.5 16.5t3.5 29.5q0 6 -1.5 16t-5 19.5t-9.5 16.5t-15 7z" />
    <glyph glyph-name="L" unicode="L" horiz-adv-x="343" 
d="M79 59q-7 56 -4 115t1 116q-2 54 -6 105.5t-3 105.5q0 58 0.5 108t-7.5 106q2 16 16.5 24.5t28.5 10.5q16 2 35.5 0t32.5 -15q0 -2 0.5 -8t0.5 -8q4 -35 -1 -76t-3 -75q0 -4 1.5 -30.5t3.5 -60.5t4 -68.5t3 -54.5q3 -48 3.5 -93.5t5.5 -92.5q3 -19 16.5 -22t29.5 -2.5
t29.5 -0.5t15.5 -17v-16t-1.5 -35.5t-4.5 -35.5t-10 -16q-1 -1 -3.5 -1h-3.5q-38 2 -78 3.5t-80 5.5q-13 1 -16.5 7.5t-5.5 20.5z" />
    <glyph glyph-name="breve" unicode="&#x2d8;" horiz-adv-x="460" 
d="M122 644q-11 19 -19.5 35.5t-11.5 37.5q0 2 -1.5 10t-1.5 10q2 8 4.5 12.5t11.5 6.5q11 1 21.5 1h22.5q8 -1 10.5 -8.5t3.5 -14.5q1 -2 3 -8.5t3.5 -13.5t3 -13.5t2.5 -9.5q3 -8 12.5 -17.5t21.5 -7.5l34 4q3 1 9.5 4.5t6.5 5.5q10 9 17 20t13 23q3 5 2.5 12t-0.5 13.5
t3 11.5t12 7q6 0 14.5 0.5t16.5 -1t14 -5t7 -10.5q3 -14 -1 -27.5t-8 -27.5q-11 -40 -41.5 -61.5t-75.5 -27.5q-2 0 -4.5 -0.5t-5.5 -0.5q-4 -1 -7 -1q-6 0 -21.5 4t-32 10.5t-28.5 13.5t-10 13z" />
    <glyph glyph-name="n" unicode="n" horiz-adv-x="432" 
d="M257 57q-4 34 -2.5 68.5t3.5 68.5t3.5 67.5t-2.5 66.5q-1 4 -2.5 18t-1.5 18q-9 27 -40 21q-21 -3 -32 -30t-16.5 -60.5t-6.5 -64.5t-1 -41q0 -11 5 -34.5t6 -48t-5 -44.5t-28 -23q-12 -1 -24.5 -1t-23.5 3t-18.5 9.5t-8.5 18.5q-2 23 -2 44.5t2 44.5v6q-2 66 1 127.5
t6 125.5v8.5v13.5t-0.5 13.5t-1.5 8.5q1 5 0 17t-0.5 24.5t4 22.5t13.5 11q33 5 66 -2t52 -27q0 -1 2 -3q1 -1 2 -1l72 11q28 3 47 -14.5t31.5 -43t19 -52t8.5 -40.5q3 -27 1.5 -53.5t-4.5 -53.5t-6 -53.5t-4 -52.5q0 -20 3 -39t0.5 -35t-15 -27t-44.5 -15q-26 -4 -41 -1
t-17 23z" />
    <glyph glyph-name="divide" unicode="&#xf7;" horiz-adv-x="530" 
d="M214 148q0 31 12 49.5t36 18.5q34 0 56.5 -21t22.5 -67q0 -14 -4.5 -27.5t-12 -24t-17.5 -17.5t-22 -7q-14 0 -27 8.5t-22.5 22.5t-15.5 31t-6 34zM76 228q-6 6 -9 16t-4.5 22t-1.5 24v21q0 20 15 23q10 1 37 1.5t56.5 1t56 1t36.5 0.5h13h11q9 0 32 -1t49.5 -2.5
t49.5 -2.5t32 -1q9 -3 13.5 -14t6 -24t1 -26t0.5 -20q-2 -11 -10 -17t-16 -6q-94 0 -182 2.5t-186 1.5zM218 432q0 29 16 50.5t39 21.5q11 0 21.5 -6.5t19 -17t13.5 -24t5 -28.5q0 -14 -5 -28t-13 -25t-19 -18t-23 -7t-22 7.5t-17 19.5t-11 26.5t-4 28.5z" />
    <glyph glyph-name="W" unicode="W" horiz-adv-x="755" 
d="M434 10q-11 80 -33 165t-48 163q0 3 -3 3l-2 1q-3 0 -5 -7.5t-3.5 -16.5t-2.5 -17t0 -9q-7 -36 -10.5 -72.5t-6.5 -73t-7.5 -72.5t-13.5 -71q-1 -2 -4.5 -4.5t-5.5 -2.5h-117q-5 0 -9.5 2.5t-5.5 8.5q-8 60 -18.5 119t-18.5 119q-1 11 -4 34t-6 51.5t-7 60.5t-7 60.5
t-6 51.5t-4 34q-6 39 -13.5 78t-11.5 78q-1 7 0.5 10t8.5 5h41h41q5 0 11.5 -1.5t6.5 -2.5l56 -484l74 460q2 6 3.5 10t9.5 4l57 -4l120 -480l4 3l90 481q1 4 2 11t6 7h4q4 -1 13.5 -3.5t20 -5.5t19.5 -5.5t13 -3.5q13 -4 21.5 -10.5t10.5 -21.5q1 -7 -2.5 -22.5t-1.5 -20.5
q0 -4 -2 -13.5t-3.5 -20t-3.5 -20.5t-2 -14q-1 -5 -2 -14.5t-2.5 -19.5t-3 -18.5t-1.5 -11.5q1 -2 1.5 -7t0.5 -7l-18 -107q4 -8 1.5 -6.5t-4.5 -3.5q-7 -30 -11 -60l-8 -60t-9 -59.5t-14 -59.5v-3q-1 -5 -3.5 -16t-5.5 -23.5t-5.5 -24t-3.5 -15.5q-2 -13 -2 -22t-2.5 -14.5
t-9.5 -8.5t-23 -4q-18 -2 -30 -3t-28 -1h-18t-19 2.5t-16.5 8.5t-8.5 17z" />
    <glyph glyph-name="parenright" unicode=")" horiz-adv-x="312" 
d="M42 56q-1 1 -1 5q0 2 -2.5 10t-2.5 10q0 4 6 10q2 3 11 13.5t12 12.5v4q4 4 12.5 17.5t11.5 17.5q17 30 29 63.5t20 65.5v3l22 93l-11 119q-1 13 -8 32.5t-18 39.5t-23.5 37.5t-23.5 28.5q-12 11 -27.5 19.5t-28.5 19.5v4q0 1 4.5 10t10 19.5t11 19.5t8.5 10q5 2 13 3
t13 2q13 1 29.5 -8.5t24.5 -17.5q24 -25 40.5 -49t33.5 -55v-2l3.5 -7l5.5 -11t5.5 -11.5t2.5 -6.5q0 -3 3 -11.5t5 -10.5q3 -32 9 -61.5t9 -59.5v-18q0 -2 -0.5 -10.5t-2 -18.5t-3 -18.5t-1.5 -10.5q-7 -55 -16.5 -110t-37.5 -104l-3.5 -7t-6 -10.5t-6.5 -10t-4 -5.5
q-2 -2 -8 -10.5t-13 -17.5t-12.5 -17t-6.5 -10q-1 -1 -4.5 -6.5t-7.5 -11.5t-7.5 -11.5t-4.5 -6.5q-2 -4 -8 -12t-14 -9t-14 5t-9 11q-2 2 -4.5 8t-5.5 12.5t-5.5 12.5t-3.5 8z" />
    <glyph glyph-name="zero" unicode="0" horiz-adv-x="473" 
d="M84 566q9 18 20 37t25.5 35t32 28t40.5 16q1 0 2 0.5t2 0.5t2 1q7 0 23 0.5t20 0.5q27 -1 47 -21t34.5 -48t25.5 -57.5t21 -50.5q1 -3 2.5 -10.5t3 -16t3 -16t1.5 -10.5q15 -87 22 -175t-6 -176q2 -4 1.5 -10.5t-2 -14t-3 -13.5t-1.5 -8q-1 -3 -2.5 -9.5t-4 -13.5
t-4 -13.5t-2.5 -8.5q2 -2 0 -4q-3 -17 -10.5 -35t-18 -34t-25.5 -27.5t-33 -14.5q-40 -8 -73.5 12t-59 53t-42 72.5t-22.5 71.5l-39 214q-3 18 -3.5 43t1.5 51t5 51.5t6 43.5q2 14 7 28t4 28zM202 163q2 -10 8 -29.5t15.5 -38.5t22.5 -32t29 -10q10 2 14.5 16.5t6.5 32
t2 33.5v22q0 2 0.5 10t1.5 17t2 17.5t1 10.5q-1 1 -1 3v4v77q0 3 -1 11.5t-1.5 19t-1.5 21t-2 15.5q-1 1 -1 3v4q-4 26 -12 53t-17 51q-2 6 -5 14.5t-7.5 16.5t-11 12.5t-15.5 3.5q-15 -3 -22.5 -21t-10.5 -40.5t-3.5 -45t-1.5 -32.5v-117q0 -4 1 -13.5t2 -21t2 -21.5t1 -14
q0 -1 1 -5t1.5 -9t1.5 -10t1 -8z" />
    <glyph glyph-name="o" unicode="o" horiz-adv-x="352" 
d="M37 80q-3 30 -7 71t-4.5 85.5t5.5 88.5t22.5 80t46 60t76.5 29q24 3 44.5 -6.5t37 -25.5t29 -36.5t20.5 -39.5q0 -2 0.5 -8t1 -13t1.5 -12.5t1 -7.5q6 -51 10 -104t2.5 -105.5t-11.5 -103.5t-32 -99q-6 -11 -16 -18t-21 -11.5t-22.5 -7.5t-21.5 -4q-49 -4 -79 9t-47 39
t-24.5 62t-11.5 78zM155 28q2 -2 8.5 -3.5t8.5 -1.5q9 -1 14 7t7.5 18.5t3 21t0.5 14.5q0 10 0.5 28t1 35.5t0.5 31v15.5q0 7 -2 23.5t-5 35.5t-5.5 36.5t-4.5 25.5q-2 2 -6 2h-6q-8 -1 -13 -9.5t-7.5 -20t-4 -22.5t-1.5 -17v-17.5v-24v-23v-13.5q0 -7 0.5 -26t1 -40.5
t1.5 -40.5t2 -27q6 -2 6 -8z" />
    <glyph glyph-name="bracketleft" unicode="[" horiz-adv-x="328" 
d="M70 24q-2 1 -2.5 4.5t-0.5 5.5q-2 20 0.5 40.5t2.5 41.5q-2 45 -4 89t0 89q-2 30 2 61.5t-2 61.5l-6 248q1 3 4 14t4 14t2.5 11t5.5 16t9.5 15t13.5 9q14 2 30 -1t30 -3q10 0 24 0.5t29.5 0.5t30.5 -0.5t27 -1.5q16 -2 16 -10l10 -81q2 -5 -5 -11t-13 -8h-1
q-3 0 -14 -0.5t-23 -0.5h-22.5h-13.5q-1 -1 -3.5 -1.5t-4.5 -0.5q-7 -1 -11 -1.5t-8 -4.5q-3 -3 -5 -12.5t-2.5 -20.5t-0.5 -21.5v-16.5q1 -8 2.5 -21.5t2.5 -27t1.5 -23.5t0.5 -11q0 -2 -0.5 -8.5t-2.5 -8.5q3 -71 3 -146t8 -147q1 -2 1 -5.5t1 -6.5q0 -4 1 -8l10 -5
q12 0 28 1t31 -0.5t25.5 -6.5t11.5 -17q1 -6 1.5 -20t-2.5 -30t-11 -28.5t-23 -15.5q-14 -2 -28.5 -2h-28.5q-4 0 -19 1t-32.5 1.5t-32.5 1.5t-19 1h-15.5t-12.5 7z" />
    <glyph glyph-name="less" unicode="&#x3c;" horiz-adv-x="441" 
d="M291 563q1 0 3.5 0.5t3.5 0.5q6 0 15 -9.5t17.5 -21.5t15 -24t6.5 -17q0 -8 -8 -15t-13 -12q-2 -2 -11.5 -10.5t-20 -18.5t-20 -18.5t-11.5 -10.5l-16 -16t-23.5 -23t-23.5 -23.5t-15 -15.5q-1 -1 -3 -4t-3 -5q-3 -3 -3 -6q0 -1 1 -2q3 -3 2 -3q1 -2 3 -5.5t3 -3.5
q2 -1 11.5 -5.5t11.5 -6.5q3 -2 9.5 -6t14.5 -9t15 -9.5t10 -6.5q1 -1 4.5 -4t8 -6t8 -6.5t5.5 -4.5q1 0 4.5 -3.5t8 -7.5t9 -8.5t7.5 -6.5q6 -5 16.5 -13t21 -17.5t18.5 -19t8 -16.5q0 -11 -12 -23q-2 -3 -8.5 -9t-13 -13t-13 -13t-8.5 -9q-4 -3 -12 -3q-6 0 -7.5 0.5
t-6.5 5.5l-9 9t-15.5 14.5t-16 14.5t-9.5 9t-9 7.5t-15.5 12t-16 12t-11.5 8.5q-2 2 -12 8.5t-22 15t-23.5 16.5t-17.5 12q-5 3 -15 8.5t-21 12t-19 13.5t-8 12v75q0 7 8.5 15.5t11.5 10.5q35 30 69.5 60t69.5 62q19 17 36 37t36 38z" />
    <glyph glyph-name="p" unicode="p" 
d="M98 -389q-11 2 -13 7.5t-4 13.5q0 2 -0.5 7.5t-0.5 6.5q-2 77 -0.5 152.5t1.5 150.5q2 62 -5 122.5t-7 122.5v8t0.5 15t1.5 14.5t2 8.5q0 4 -0.5 19.5t-2.5 21.5q0 3 -0.5 13.5t-1.5 23.5t-1.5 23.5t-1.5 13.5q0 1 0.5 6.5t0.5 11.5v11.5t-1 7.5q1 2 -0.5 24t-2 48
t2 47.5t10.5 22.5q2 0 14 -1.5t15 -1.5q4 0 13.5 1t20 2t20.5 2t14 1q4 -1 7 -5.5l6 -9t6 -8t8 -2.5l2 1q1 0 2 1q20 10 37.5 19.5t40.5 12.5q38 4 65.5 -8.5t46.5 -35t29.5 -51.5t13.5 -57q5 -36 1.5 -78.5t-19.5 -81t-47 -66t-81 -33.5q-23 -2 -42.5 3t-39.5 13l-4 1
q-8 -1 -12 -9t-6 -18t-2.5 -20t-0.5 -14q0 -6 1 -21.5t2 -33.5t2 -33.5t1 -21.5q0 -2 1 -8t1.5 -12.5t1.5 -12t1 -7.5l5 -289q0 -17 -14 -28t-34 -13h-1h-11.5h-15.5h-15h-10zM223 284q8 -16 33 -14q21 3 34.5 12.5t20.5 24t8.5 31.5t-0.5 34q0 4 -2.5 15t-3.5 15
q-9 15 -30 12q-20 -2 -35.5 -20.5t-26.5 -32.5q3 -3 2.5 -10t-1.5 -15l-2 -16t-1 -14q1 -2 2.5 -10.5t1.5 -11.5z" />
    <glyph glyph-name="bracketright" unicode="]" horiz-adv-x="329" 
d="M68 31q-2 15 -2 25t2 27q3 7 11.5 10.5t18.5 5.5q3 0 11.5 1t18 2t18.5 1.5t13 0.5q3 2 6 5t3 8q5 60 1.5 121t1.5 122q-2 8 -4.5 29.5t-5 45.5t-4.5 45.5t-2 30.5v12t0.5 19t0.5 19v11t-0.5 11.5t-2.5 15.5q0 2 -1 12t-1 14l-5 5t-8 3l-102 -5q-4 0 -8.5 4t-4.5 7
l-10 80q-1 12 9 16t23 5q21 1 43.5 -1t45.5 -5t45.5 -5.5t43.5 -3.5q13 -3 19 -9t8.5 -14.5t2.5 -17.5t2 -18q0 -1 1 -8t2 -11q0 -9 0.5 -16.5t-1.5 -17.5q4 -37 8 -73.5t3 -72.5q-1 -33 -4.5 -65.5l-7 -65t-6 -64.5t-1.5 -64q3 -48 7.5 -87.5t2.5 -83.5q2 -10 -1 -20.5
t-16 -14.5q-3 0 -15 -0.5t-15 -0.5q-6 0 -18 -0.5t-13 -0.5h-59q-16 0 -25.5 -0.5t-15.5 2.5t-9 9.5t-4 19.5z" />
    <glyph glyph-name="greater" unicode="&#x3e;" horiz-adv-x="434" 
d="M78 133q0 11 13.5 18t20.5 11q39 26 73.5 58.5t69.5 65.5q3 3 4.5 5t1.5 7q0 6 -3 9l-33 35l-150 116q-5 5 -10 12t-5 15q0 12 13 18t21 13q4 3 11.5 9.5l15 13t14 11.5t7.5 6q2 2 6.5 4.5t5.5 2.5q6 1 12 -3.5t11 -10.5t9.5 -12t7.5 -9q10 -11 27 -27t37 -35t40.5 -39
t37.5 -40t27.5 -37.5t10.5 -30.5q0 -21 -2.5 -39t-19.5 -32q-55 -48 -107.5 -95t-102.5 -101q-7 -6 -17 -6q-3 0 -11 12t-16 27t-14 29t-6 19z" />
    <glyph glyph-name="asterisk" unicode="*" horiz-adv-x="421" 
d="M185 404q-1 14 -0.5 27.5t-0.5 27.5q0 3 -0.5 12t-0.5 11t-3 5h-1h-1l-64 -68h-5q-12 -1 -19 8.5t-15 18.5q-6 6 -6 12q0 7 5 14.5t12 14t14 12t11 10.5l1 2q0 5 -6 5l-33 -2q-1 0 -5 5t-5 8q0 1 -0.5 6t-0.5 6q0 4 -0.5 10t0 11.5t3 9.5t8.5 4q14 1 27 1t27 1q2 1 5.5 1
h4.5q3 0 3 1.5v3.5q-1 9 -10 17.5t-20 17.5t-20 18.5t-9 19.5q0 4 4.5 11.5t10.5 14.5t13 12t11 5q8 1 12.5 -5t8.5 -11q2 -3 7.5 -9.5t11.5 -14.5t11.5 -15t7.5 -10l2 1h1q2 0 5 0.5t2 4.5t-1 17v18q0 1 -0.5 8t-1 14.5t-1 14.5t-0.5 9q0 11 2.5 16t14.5 6h11.5t15 -1.5
t13 -4.5t5.5 -9q1 -19 -3 -37.5t-3 -38.5q0 -2 0.5 -6t0.5 -6q0 -1 1 -1t1 -0.5t1 -0.5h1q3 1 9.5 9t7.5 9q11 14 18 23t21 22q2 2 7 2h2l13 -9q-1 -1 1.5 -4t5.5 -6.5t5.5 -7t2.5 -6.5q0 -8 -6 -14l-10 -10l-15 -15t-14.5 -15.5t-9.5 -10.5q-2 -2 -9 -9.5t-7 -13.5
q0 -5 6 -6h73q8 0 10 -7t3 -12v-7.5t-0.5 -12t-2 -11.5t-4.5 -5l-65 -4q1 -11 10 -22t17 -19q-2 -3 4 -8.5t6 -10.5q0 -3 -4.5 -8.5t-11 -10t-12.5 -8.5t-9 -4q-5 0 -10.5 6t-11 13.5t-11 13t-10.5 5.5q-3 0 -4 -3q0 -2 0.5 -8t0.5 -8q1 -11 2 -21t2 -21q2 -16 -11 -17
h-14.5t-16 1.5t-13.5 5.5t-6 12z" />
    <glyph glyph-name="bar" unicode="|" horiz-adv-x="276" 
d="M107 30q-3 23 -3.5 46.5t3.5 45.5q0 5 -1.5 18t-2.5 28t-2 28t-1 18q-14 127 -20.5 252.5t-19.5 253.5q4 11 15 12t23 1h6q6 -1 16 -2t19.5 -2t16 -2l6.5 -1l1 -9l43 -716q-2 0 -8 -0.5t-8 -0.5h-24.5t-26 2.5t-21.5 9t-11 18.5z" />
    <glyph glyph-name="backslash" unicode="\" horiz-adv-x="504" 
d="M191 378q-2 10 -13.5 37t-25 56t-23.5 51.5t-9 24.5q-2 4 -10.5 17t-10.5 17q0 2 -2 6.5t-2 5.5v4q-11 17 -19 34t-16 35q0 1 0.5 3t0.5 3q2 9 11 21t20.5 23.5t23.5 19.5t20 8q4 0 7.5 -0.5t5.5 -4.5l291 -670q1 -2 2.5 -8t1.5 -7q0 -2 -9.5 -12.5t-21.5 -23
t-23.5 -23.5t-15.5 -14q-14 23 -25.5 49.5t-20.5 53.5z" />
    <glyph glyph-name="slash" unicode="/" horiz-adv-x="539" 
d="M60 65q0 1 1 2l9 18t9 19q55 105 111 207.5t113 207.5q0 1 2 5.5t4.5 9.5t4.5 9.5t2 5.5q3 4 10 18t17 32.5t21 39.5t21 39t17 32t10 18q1 1 2 4.5t2 3.5l1 1q1 0 2 -1q4 0 7 -3l53 -56v-22l-3 -7.5t-7.5 -17.5t-9.5 -20.5t-8 -17.5q-3 -6 -13 -24t-24 -42t-29 -51
t-27.5 -50.5t-20 -40t-6.5 -19.5q-18 -31 -33 -57.5t-31 -60.5q1 -3 -4 -14t-11.5 -24t-12.5 -24.5t-8 -14.5t-6 -10t-8.5 -14.5t-8.5 -14t-5 -9.5v-3q-1 -2 -3.5 -6t-5.5 -8.5t-5.5 -9t-3.5 -5.5q-2 -5 -7.5 -15t-6.5 -12q-1 0 -1 -1.5t1 -1.5l-22 -44q-3 -7 -8 -13t-13 -6
t-20 8t-22.5 19t-18 22t-7.5 17v2z" />
    <glyph glyph-name="Ccedilla" unicode="&#xc7;" horiz-adv-x="463" 
d="M267 -81q5 1 8.5 3.5t2.5 7.5l-14 91q0 3 -3 6q-5 3 -22 4.5t-28 4.5q-39 15 -63 32t-37.5 40.5t-20.5 53.5t-13 71q-13 86 -16 171.5t6 171.5l-1 4l21 60l-1 4q0 1 5 13t9 17q11 22 30.5 39.5t41.5 26.5l24 6q19 2 34.5 -1.5t33.5 -3.5q6 0 16.5 1t21 0t18 -5.5
t9.5 -15.5v-3q0 -1 1 -2v-11t-0.5 -16.5t-0.5 -16v-10.5q-2 -8 -4 -10t-8 -3q-17 -3 -34.5 -1.5t-34.5 -1.5q-34 -5 -51 -27t-23.5 -51.5t-6 -62t1.5 -57.5q0 -42 2 -81.5t8 -79.5q1 -3 2 -11.5t2.5 -17.5t3 -17.5t2.5 -11.5q6 -27 22.5 -44.5t38.5 -27.5t47.5 -12t49.5 1
q8 2 14.5 4.5t14.5 4.5q20 3 23 -20q1 -1 1 -3v-4q0 -3 0.5 -12t1 -19.5t1 -19.5t0.5 -12q-2 -11 -7 -16t-10.5 -7.5t-10 -5t-4.5 -8.5q4 -24 7 -54.5t1 -60.5t-13 -56t-36 -41q-3 -2 -10 -5.5t-8 -4.5l-61 -9q-8 -1 -20 5t-24 15.5t-21.5 20.5t-10.5 20l-14 94q-1 4 3 12.5
t10 10.5l45 7q14 2 20.5 -8t10 -22.5t6.5 -23t11 -9.5z" />
    <glyph glyph-name="ccedilla" unicode="&#xe7;" horiz-adv-x="357" 
d="M96 -51q0 8 5.5 14.5t13.5 11t16.5 6.5t14.5 2q12 0 18.5 -7t11 -15t9 -15t13.5 -7q3 0 5.5 1t2.5 6l-4 45q-1 5 -11 8.5t-23 6.5t-25 5.5t-16 4.5q-22 11 -34 30t-18 41.5t-8 46t-3 43.5q-5 47 -3.5 88t4.5 88q0 1 -0.5 5t-0.5 8.5t-0.5 8.5t-0.5 5q-1 24 9.5 53
t20.5 49q15 22 41.5 43.5t57.5 22.5q6 0 20 -3t28 -8t25 -12t12 -15q0 -6 -0.5 -19.5t-3 -27.5t-8.5 -25t-16 -12q-11 0 -20.5 1t-19.5 1q-21 -1 -29 -15t-9 -32q-3 -45 -4 -87t3 -87v-5q0 -2 1 -4q1 -3 2 -9.5t2 -14t2 -14.5t2 -10q5 -15 22.5 -21t37 -9.5t35 -6.5
t16.5 -11q0 -3 1 -13t1 -12q3 -29 4 -60t-1 -60t-5 -55t-13.5 -46t-30 -32t-54.5 -13q-23 -2 -45.5 10.5t-35.5 31.5q-2 3 -2.5 9t-4.5 7z" />
    <glyph glyph-name="ordfeminine" unicode="&#xaa;" horiz-adv-x="358" 
d="M258 467q-8 4 -15.5 15t-12.5 10t-11 -5.5t-13.5 -10.5t-17 -11.5t-21.5 -7.5q-19 -4 -36 3.5t-30 21t-22 31.5t-12 36q-6 34 -1.5 67t20 60t41.5 46.5t62 25.5q7 1 20 3.5t26.5 2t24 -5t12.5 -15.5q5 -29 7.5 -58.5t8.5 -58.5q5 -29 14.5 -55.5t14.5 -54.5
q2 -10 -1.5 -21t-14.5 -13q-12 -2 -21 -2t-22 -3zM149 593l4 -14t11 -5q7 1 9.5 7.5t4 14t2 14t2.5 7.5l-5 25q0 3 -3 3h-1q-8 -2 -12.5 -8t-7.5 -14t-4 -16.5t0 -13.5z" />
    <glyph glyph-name="ordmasculine" unicode="&#xba;" horiz-adv-x="365" 
d="M60 611q0 28 10.5 54t29 46t43 32.5t52.5 12.5q42 0 68.5 -18t35.5 -60q0 -2 2.5 -12t2.5 -12v-3q0 -2 0.5 -2.5t0.5 -1.5q0 -12 -3 -24t-6 -22q-2 -7 -3 -13.5t-3 -13.5q-11 -22 -20.5 -36.5t-21.5 -23t-28.5 -12t-40.5 -3.5t-45.5 8t-38 23t-26 35.5t-9.5 45.5z
M149 625q0 -16 12.5 -24.5t26.5 -8.5q20 0 34 12.5t14 32.5q0 6 -1 12.5t-8 10.5q-10 2 -19.5 4.5t-19.5 2.5q-15 0 -27 -14t-12 -28z" />
    <glyph glyph-name="germandbls" unicode="&#xdf;" horiz-adv-x="540" 
d="M229 -16q-1 5 3 16t10 22t13 19.5t12 8.5q10 0 18.5 -6t17.5 -13.5t19 -13.5t21 -6q19 0 30 9.5t16 24t6 30t0 27.5q-2 19 -11.5 38.5t-24.5 36t-34.5 29.5t-40.5 21q-2 1 -10 3.5t-17 5.5t-17 5t-10 3q-12 5 -26 11t-16 21l-10 101q1 1 1 2q0 2 1 3l19.5 19.5t6.5 25.5
q-2 13 -10.5 28.5t-26.5 15.5q-2 0 -7 -1.5t-6 -4.5l-4 -74l3.5 -31.5t5 -48t5 -48l3.5 -31.5q2 -37 1 -74t1 -75q0 -4 1 -20t2 -34t2.5 -33.5t1.5 -19.5q1 -20 -7 -27t-30 -7q-11 0 -20.5 1t-19.5 1q-5 0 -8.5 -1t-8.5 -1q-7 0 -12 10q0 2 -0.5 8t-1.5 8q-3 26 -2 50.5
t-5 50.5q-1 55 1.5 112.5t-0.5 114.5q-6 85 -3 173q1 16 -0.5 28t3.5 26q4 13 14.5 22.5t25 15t30.5 8t30 2.5q27 0 51 -10t43.5 -26t31.5 -36.5t15 -42.5q2 -21 0.5 -39.5t-8.5 -38.5q-3 -5 -7 -13t-4 -15q0 -5 4.5 -9t10.5 -7.5t12 -6t10 -5.5q41 -31 76.5 -62.5
t61.5 -72.5q9 -15 11 -34t4 -36q1 -4 2 -13.5t1 -10.5q1 -7 -1.5 -13t-0.5 -13l-3.5 -10.5t-4.5 -15.5t-4 -15t-3 -9q-13 -44 -52 -64.5t-90 -20.5q-11 0 -26 4t-29 11t-24.5 16.5t-11.5 20.5z" />
    <glyph glyph-name="ring" unicode="&#x2da;" horiz-adv-x="453" 
d="M106 651q1 2 -5 10.5t-8 12.5q-5 10 -7 17.5t-2 18.5q0 45 28 76.5t75 48.5q9 3 21.5 6t23.5 3q8 0 16 -2.5t16 -4.5t15.5 -4.5t12.5 -6.5t17.5 -15.5t17.5 -15.5q17 -16 21.5 -37.5t4.5 -41.5t-9 -37t-22 -33q-20 -26 -53 -37.5t-68 -11.5q-29 0 -55 17t-40 37zM150 705
q10 -18 25.5 -31.5t41.5 -13.5q7 0 15 3t13 7q11 9 18 16t10.5 14.5t4.5 16.5t1 22v21q0 1 -1.5 4t-2.5 3q-10 12 -19.5 19.5t-26.5 7.5q-24 0 -42 -12t-32 -27q-2 -2 -2 -5q-3 -7 -3 -12.5v-13.5v-19z" />
    <glyph glyph-name="eth" unicode="&#xf0;" horiz-adv-x="485" 
d="M61 118q-4 40 7.5 75t35 61.5t56.5 43.5t73 21q17 2 27 -3t24 -3q2 0 5.5 0.5t2.5 3.5l-5 52l-3 7t-6 15t-6 15.5t-3 8.5q-2 3 -7 12t-11 18.5t-11 18.5t-7 12q-2 5 -5 6t-8 1q-1 0 -3 -0.5t-2 -1.5l-50 -60h-4q-8 -1 -19 6t-22 16.5t-19 19.5t-9 16q-1 8 3.5 14.5
t9.5 11.5q1 3 5.5 9.5t9.5 13.5t9.5 13t6.5 8q0 2 -0.5 5t-0.5 4q-2 18 -16 28t-28 21v5.5t-1 5.5q-1 8 2.5 19.5t10 22t15.5 18.5t19 9q7 1 18.5 -5.5t24.5 -14.5t25.5 -14.5t21.5 -5.5q1 0 3.5 0.5t3.5 0.5q5 6 11 15t12.5 18t14.5 16t17 8q2 0 5 0.5t4 0.5
q17 -13 30 -26.5t26 -27.5q2 -2 2 -6q1 -6 0 -9t-6 -9q-2 -3 -8 -9.5t-12 -14.5t-12 -14.5t-8 -9.5q-3 -4 -3 -6.5v-6.5q1 -8 6 -15t11.5 -13.5t13 -13.5t9.5 -13q31 -57 51 -111t26 -118q2 -28 -1 -50.5t-11 -48.5q-22 -85 -70.5 -132.5t-139.5 -55.5q-27 -3 -51.5 6.5
t-43.5 26.5t-31.5 40.5t-14.5 48.5zM170 139q2 -19 11 -25.5t27 -4.5q20 2 33 9.5t27 21.5q2 3 3.5 8t5.5 7l-4 41q0 3 -5 4t-11 0.5t-11 -1l-5 -0.5q-14 -2 -27 -5.5t-23.5 -10.5t-16.5 -17.5t-4 -26.5z" />
    <glyph glyph-name="at" unicode="@" horiz-adv-x="726" 
d="M62 232q-4 26 -1.5 51t3.5 49q2 55 28 112.5t67 106.5t91.5 84t101.5 44q43 7 87 -10.5t83 -49t70 -71.5t48 -78l1 -3q1 -3 4 -14.5t6 -25t6 -24.5t4 -14v-5q8 -48 1 -95t-19 -92q4 -6 0 -19t-12.5 -28.5t-20 -32t-24 -30t-23.5 -23.5t-18 -11q-8 -1 -14.5 2.5t-12.5 7.5
t-12 7t-13 2q-9 -2 -18.5 -10.5t-14.5 -13.5q-19 -14 -40 -19.5t-42 -7.5q7 -2 18.5 -4.5t22.5 -7t19.5 -12t10.5 -18.5q3 -15 -9 -27q-3 -2 -10.5 -4t-16.5 -4t-16.5 -4t-10.5 -3q-1 -1 -3 -1h-5q-21 -4 -48.5 4t-49.5 15q-89 33 -146.5 106t-71.5 171zM181 236
q8 -55 30.5 -94.5t59.5 -74.5q8 -8 21 -16t24 -6q-2 11 -8 16.5t-12 13.5q-26 40 -35 93q-5 30 3.5 64.5t26.5 64.5t44 51.5t56 26.5q26 4 44 -4t31 -22t22 -32t15 -34t10.5 -26.5t9.5 -9.5q6 2 10.5 14.5t6.5 28t3 29.5t0 19l-0.5 5.5t-1.5 13l-2 15t-2 12.5
q-5 36 -20.5 70.5t-39.5 60.5t-56.5 39.5t-72.5 7.5q-45 -8 -79 -44t-55.5 -85t-30 -102t-2.5 -95zM380 148q2 -5 6 -4t7 2q15 2 16.5 17t-0.5 28q-2 2 -3 9.5t-2 9.5q-1 0 -4.5 3.5t-5.5 3.5h-2q-8 -2 -11.5 -8t-4.5 -13.5t-0.5 -15.5t0.5 -12q1 -3 2.5 -10.5t1.5 -9.5z
" />
    <glyph glyph-name="Eth" unicode="&#xd0;" horiz-adv-x="488" 
d="M124 20q0 3 -1 13.5t-1 13.5q-3 48 -1 95.5t-1 96.5q0 4 -0.5 14t-0.5 21t-0.5 21.5t-0.5 14.5q-1 2 -5 6.5t-7 4.5l-48 -2q-6 0 -12 5.5t-9 10.5q-1 19 -6.5 36t-6.5 34q0 6 3.5 14.5t12.5 8.5l69 2q11 1 13 11.5t3 15.5q1 6 1.5 17t0.5 13l-11 255q0 7 8 11.5t18.5 7
t21 3.5t15.5 1q29 1 53 -6t49 -18q47 -23 75 -57t43 -74t20 -84t7 -86q0 -3 0.5 -10t0.5 -15t0.5 -15t0.5 -10q-1 -2 -2 -8t-1 -8q0 -3 -1 -15.5t-2.5 -26.5t-2 -26.5t-0.5 -15.5q-7 -66 -14.5 -118.5t-32 -90.5t-73.5 -59t-137 -24q-2 -1 -10 -1h-10q-8 0 -12.5 9t-5.5 14z
M295 405q-1 -6 -0.5 -16t0.5 -19.5t-1.5 -18.5t-4.5 -14q-6 -7 -16 -9t-20.5 -3.5t-17.5 -5.5t-7 -14l7 -162q0 -5 2 -5.5t6 -0.5q18 1 30 14t20.5 31t12.5 36.5t6 29.5q1 5 2.5 13t3 15.5t2.5 13t1 6.5t-0.5 7t-0.5 12.5v12v7.5q0 1 0.5 6t0.5 10t0.5 10t0.5 6q0 2 -0.5 17
t-1.5 23q-1 34 -3 63t-10 55t-25 49t-47 45q-3 3 -7 3q-5 0 -7.5 -4t-2.5 -8q0 -5 0.5 -17.5t1.5 -26t1.5 -26t1.5 -17.5q0 -2 -1 -7t-2 -11t-2 -11.5t-1 -6.5q0 -2 0.5 -7.5t1 -12t2 -12.5t2.5 -7q0 -7 7 -9.5t16 -2.5h18t14 -3q8 -6 12.5 -11t4.5 -15v-2z" />
    <glyph glyph-name="thorn" unicode="&#xfe;" horiz-adv-x="401" 
d="M99 -55q-6 66 -9 133.5t-5 134.5v20v35t-0.5 35t-0.5 20q0 5 -1.5 21t-4 37t-5 45t-5 45.5t-4 37t-1.5 20.5q0 8 -0.5 28t-1 42t-1 41.5t-0.5 27.5q2 8 6.5 19t15.5 12h6q2 0 10 -1t17.5 -2t18 -2t13.5 -2q12 -2 23 -7t13 -19q2 -21 1 -42.5t-3 -43t-3 -42.5t1 -42
q2 -14 13.5 -14t23.5 -2q28 -3 50 -15t37.5 -30.5t24.5 -42t11 -49.5q3 -22 -1 -47.5t-14.5 -48t-28.5 -39.5t-43 -23q-4 -2 -16 -4t-17 -2q-1 0 -5 -0.5t-8.5 -1t-8.5 -1t-5 -0.5q-8 -2 -9.5 -11t-1.5 -14q-4 -52 0 -101.5t11 -103.5q0 -10 -7.5 -17.5t-16.5 -8.5
q-8 0 -19 -0.5t-22 2t-19 7.5t-9 16zM193 321q0 -5 2 -12.5t11 -5.5q7 1 14 10t8 11q-1 7 0.5 15t0.5 16q-2 10 -7.5 18t-18.5 6q-8 -1 -11 -8t-3 -16.5t1.5 -19t2.5 -14.5z" />
    <glyph glyph-name="Thorn" unicode="&#xde;" horiz-adv-x="472" 
d="M102 -15q-11 2 -16.5 9t-8 16.5t-2.5 19.5v17q-2 20 -2 40.5t-3 40.5l-3 226q-5 37 -1.5 73.5t1.5 74.5q0 4 -1.5 19t-2.5 32t-2 32t-1 19v62q1 10 2.5 24t6 27t13.5 22.5t25 10.5q8 1 21.5 0t27 -4t23.5 -9.5t12 -16.5q0 -3 0.5 -10t0.5 -15v-15v-10v-25v-1q0 -1 1 -2
q0 -3 1 -5t2 -3q17 -11 43.5 -14t46.5 -11q31 -12 53 -31.5t36.5 -44t22.5 -52t11 -54.5q3 -36 1 -83t-15 -93t-40 -83.5t-73 -54.5q-2 0 -11.5 -3t-21 -6.5t-21 -6.5t-11.5 -3q-8 -3 -10 -8.5t-2 -14.5v-11.5t0.5 -18t1 -17.5t0.5 -11q1 -11 -9 -19.5t-21 -9.5
q-1 0 -3.5 0.5t-3.5 0.5h-13.5h-20.5h-20.5h-13.5zM195 240q1 -5 2.5 -7t7.5 -2q6 2 11 4.5t11 7.5q35 25 46.5 63.5t6.5 76.5q-2 18 -6.5 37t-12.5 37t-21 33.5t-32 25.5h-1q-8 0 -9 -9.5t-1 -11.5t0.5 -8.5t1.5 -14t1.5 -14t0.5 -7.5q0 -7 0.5 -25t1 -38.5t0.5 -38.5v-25
q-4 -20 -5 -40.5t-3 -40.5v-3z" />
    <glyph glyph-name="m" unicode="m" horiz-adv-x="616" 
d="M314 457q1 0 3.5 0.5t3.5 0.5q7 6 15.5 14.5t18 15.5t20.5 12t23 5q55 0 86.5 -24.5t47.5 -61.5t20 -79.5t4 -79.5q0 -59 -3.5 -116t-1.5 -117q-2 -10 -5 -18t-12 -14h-20q-29 0 -51.5 8.5t-22.5 37.5q0 38 5 75.5t5 75.5v58q-2 7 -5 18t-8 21.5t-13 17.5t-19 7
q-8 0 -13 -5t-7.5 -12t-3.5 -14.5t-2 -12.5t-2.5 -14.5t-3 -20.5t-2.5 -20.5t-1 -12.5v-5t-0.5 -11.5t-0.5 -13.5v-11q0 -26 3 -51.5t3 -51.5q0 -3 -1 -11t-3.5 -16t-7 -14t-10.5 -6h-63q-6 0 -11 5.5t-7 10.5q-7 54 -6 108t-2 108q-1 10 -2 23.5t-5 26t-13 21.5t-25 9
q-15 0 -22.5 -9.5t-11 -22.5t-4.5 -26.5t-1 -21.5q-1 -11 -2 -39t-1.5 -59.5t-1 -59t-0.5 -38.5q0 -6 -1.5 -16t-5 -19.5t-10.5 -17t-18 -7.5h-53q-11 0 -16.5 9t-7.5 21t-2 23.5v16.5v38q0 12 0.5 41t1 61t1 61t0.5 40q10 35 16 68t16 68q-3 9 5 21t20.5 23t25.5 20t19 11
q12 4 19.5 4h20.5q25 0 42.5 -9t29.5 -19.5t20.5 -19t15.5 -8.5z" />
    <glyph glyph-name="space" unicode=" " horiz-adv-x="428" 
 />
    <glyph glyph-name="oslash" unicode="&#xf8;" horiz-adv-x="481" 
d="M196 -109q-4 20 1.5 38.5t2.5 36.5q-1 5 -6 11q-34 16 -55.5 35t-35.5 41.5t-21.5 48t-13.5 54.5q-8 52 -7 105t7 106q-5 8 -1 19t6 20q6 21 17 40.5t28 36t40 28t54 15.5q8 1 14.5 1h14.5q15 3 20 13.5t7.5 22.5t7 22.5t19.5 12.5q7 0 17 -1t19.5 -4t17 -7.5t8.5 -10.5
q3 -16 -4.5 -32t-4.5 -33q2 -11 8 -21t12.5 -19.5t13 -19.5t8.5 -21l28 -162q5 -28 2.5 -57t-6.5 -58q-1 -19 -0.5 -38.5t-2 -39.5t-9 -40t-21.5 -38q-8 -9 -18.5 -19.5t-26.5 -12.5q-9 -2 -17.5 -1.5t-18.5 -0.5q-12 -2 -15.5 -17t-4.5 -32.5t-3.5 -32.5t-12.5 -16
q-6 -1 -17 2t-22 7t-19.5 9t-9.5 9zM283 44q2 -6 3.5 -8t7.5 0q18 2 26 24t10.5 49t1.5 51t-1 32q-3 35 -1 70.5t-5 72.5q-1 4 -1.5 11t-8.5 8q-6 -19 -8.5 -42t-6.5 -40v-3q0 -1 1 -2q-2 -8 -1.5 -14.5t0.5 -15.5q-1 -17 -3.5 -43t-6.5 -45q-2 -16 -1 -33.5t0 -30.5
q0 -2 -1 -8t-2 -13t-2 -12.5t-1 -6.5v-1zM171 128q0 -1 3 -8.5t3 -9.5q3 -7 8 -6q5 0 7 6.5t3 15t1 16t1 10.5q0 1 0.5 4.5t1 7.5t1.5 8t1 5q0 3 1 10.5t2 16t2 15.5t2 10q-1 2 -1 3v3q0 1 1 6t2.5 10t2.5 10t1 6t0.5 12.5t1.5 16.5q1 12 3 25.5t-2 24.5l11 90q-1 1 -1 2v2
q-2 8 -12 5q-11 -1 -22 -13.5t-13 -21.5l-3 -9t-4 -12.5t-4 -12.5t-2 -8v-3q0 -1 1 -3q-2 -20 -6.5 -41.5t-7.5 -43.5q2 -1 2.5 -4t-0.5 -5q-1 -8 -1.5 -19t-1.5 -19z" />
    <glyph glyph-name="fi" unicode="&#xfb01;" horiz-adv-x="409" 
d="M75 16q2 30 0 60t-5.5 60t-6.5 60.5t-3 60.5v48q0 14 1 48.5t1.5 73.5t1.5 73.5t1 48.5q4 45 19 76.5t40 51t59.5 28t76.5 8.5h32t27 -15v-20q0 -28 -7 -42t-19 -19.5t-27 -6.5t-30.5 -2.5t-30.5 -7t-26 -21.5q-1 -2 -3 -7.5t-2 -7.5v-120h140q14 0 20 -20.5t8.5 -46.5
t2 -50t-0.5 -32q0 -7 0.5 -33t1.5 -56.5t2 -56.5t1 -33v-11q0 -3 -0.5 -17t-2.5 -29.5t-7.5 -28.5t-14.5 -14l-55 -5q-4 0 -11 10t-9 15q-1 17 -3 59.5t-4.5 90t-4.5 90t-3 59.5q0 2 0.5 10t0.5 10h-36q-1 0 -2.5 -7.5l-2.5 -12.5q0 -5 -1 -17.5t-2 -26t-1.5 -25.5t-0.5 -16
v-229q-5 -18 -24 -25h-28q-17 0 -34.5 1.5t-27.5 18.5z" />
    <glyph glyph-name="ae" unicode="&#xe6;" horiz-adv-x="484" 
d="M224 17q-20 0 -38 -8t-40 -8q-51 0 -84.5 25t-33.5 77q0 39 11.5 63.5t31 42t46.5 30t58 26.5q5 0 5 4v107q0 36 -21 52.5t-46.5 24.5t-46.5 13.5t-21 19.5v77q0 6 14.5 10t32.5 6.5t34.5 3.5t21.5 1q22 0 38 -7.5t36 -19.5q18 21 38.5 31t47.5 10q20 0 40.5 -6.5
t38.5 -17.5t31 -26.5t18 -34.5q1 -15 3 -33.5t4 -38.5t3 -40.5t1 -38.5q0 -17 -6 -36.5t-26 -25.5q-23 -2 -53.5 -4t-56.5 -6v-2q0 -18 1 -41.5t4 -48t8 -48.5t13 -43q12 5 14.5 15.5t4.5 20.5t8 17.5t26 7.5q29 0 48.5 -13t19.5 -42q0 -27 -9.5 -50t-27 -40.5t-41.5 -27
t-52 -9.5q-15 0 -26 2t-21.5 5.5t-21 9.5t-25.5 14h-4zM139 118q0 -11 11.5 -13.5t19.5 -2.5h12.5t7.5 7v4q0 4 -1.5 17.5t-2.5 17.5q-2 0 -5.5 0.5t-5.5 0.5q-13 0 -24.5 -8.5t-11.5 -22.5zM309 446q0 -2 -0.5 -11t0.5 -19t5 -18t13 -8q8 0 9 4.5t1 11.5v9.5t-1 13.5t-2 12
t-3 5h-22z" />
    <glyph glyph-name="AE" unicode="&#xc6;" horiz-adv-x="703" 
d="M60 382q0 30 4 70.5t13.5 84t25.5 85.5t39.5 75t55 53.5t73.5 20.5q22 0 36.5 -6.5t25.5 -14.5t20 -14.5t20 -6.5q43 0 83.5 6t82.5 6q24 0 35.5 -9t16 -24t5 -34.5t1.5 -39.5q-2 -8 -12 -14t-18 -6h-105q-2 0 -5.5 -2t-5.5 -3q-1 -1 -1.5 -1t-1.5 -1l-2 -2v-188
q0 -5 5.5 -9.5t10.5 -4.5q2 0 14 -0.5t16 -0.5q22 0 44 3t45 3q9 0 12.5 -8t4.5 -19t0 -22.5t-1 -17.5q0 -4 0.5 -10.5t-0.5 -13t-4.5 -11t-10.5 -4.5h-96q-5 0 -11.5 -6t-8.5 -10q0 -6 -1.5 -22.5t-3 -35t-3 -35t-2.5 -22.5v-8v-7q1 -5 2.5 -13.5t3.5 -8.5h145
q13 0 20.5 -12t10.5 -27.5t3.5 -31t0.5 -21.5q0 -17 -11.5 -22t-28.5 -5h-261q-3 0 -9 8t-6 12l-25 211l-4 5q-1 0 -8.5 0.5t-12.5 0.5q-9 0 -23 0.5t-28 0t-26 -2.5t-19 -8q1 -8 3.5 -28.5t5 -43t5 -42.5t3.5 -27q2 -22 10.5 -45t8.5 -44q0 -6 -8.5 -9t-10.5 -3h-82
q-13 0 -20.5 9t-11.5 21t-5.5 25t-2.5 21q-1 17 -3 55t-4.5 79t-4.5 75.5t-2 45.5v7.5t-0.5 15t-0.5 16v12.5zM180 414q0 -20 5 -30.5t14.5 -15t23 -5.5t30.5 -1h39q8 3 8.5 6.5t0.5 10.5v8q0 12 -1 33t-1.5 42t-1 37.5t-0.5 19.5q-1 11 -2.5 29.5t-6 36.5t-14 31.5
t-26.5 13.5q-15 0 -26.5 -11.5t-19 -28t-11.5 -33.5t-5 -29q0 -3 -1 -15.5t-2 -28.5l-2 -32t-1 -24v-14z" />
    <glyph glyph-name="trademark" unicode="&#x2122;" horiz-adv-x="625" 
d="M169 794q16 0 23.5 -15.5t10 -36t2.5 -40t3 -28.5q2 -7 8 -10t12.5 -6t13.5 -7.5t10 -14.5q17 14 31.5 21t37.5 7q13 0 21.5 -1t16 -4t15.5 -8t19 -12q1 -1 3.5 -1h3.5q7 0 14 3.5t14 8t15 8t18 3.5q44 0 71.5 -25t32.5 -64v-54v-54q0 -7 -0.5 -18.5t-1.5 -22t-1.5 -18.5
l-0.5 -8l-10 -9q-1 0 -5.5 -0.5t-6.5 -0.5q-23 0 -38 6t-15 29q0 19 1.5 37t1.5 37v31q-2 9 -8 18t-17 9q-8 0 -12.5 -5t-7 -11.5t-3 -14.5t-0.5 -14v-96q0 -2 -3 -9t-7 -7h-55q-1 0 -2 1.5t-2 2.5q-5 7 -5.5 15t-0.5 16q0 5 -1 18.5t-1.5 29t-1 29t-0.5 18.5q-2 13 -7.5 23
t-19.5 10q-11 0 -17.5 -7t-7.5 -16l-6 -130q0 -5 -4.5 -13.5t-12.5 -8.5h-49q-7 0 -10.5 9t-3.5 13v147q-2 0 -6.5 2t-6.5 -3v-43q0 -29 2 -57t2 -57q0 -5 -0.5 -21.5t-0.5 -21.5q-1 -5 -8 -9t-12 -4h-58q-3 0 -5 5q-1 2 -2 5t-2.5 10t-1.5 9v175q0 10 -10 12.5t-22.5 3.5
t-22.5 3.5t-10 12.5v47q0 11 9 15.5t20 6.5t20 3.5t9 6.5l7 123q0 4 6 7.5t13 5t14.5 2.5t10.5 1z" />
    <glyph glyph-name="oe" unicode="&#x153;" horiz-adv-x="508" 
d="M36 307q0 41 7 86t25.5 82.5t52 62t86.5 24.5h23q2 -1 13 -5.5t13 -4.5q4 0 12.5 4t19 9t22 9t21.5 4q20 0 41 -6.5t38.5 -17.5t31 -27t18.5 -35q1 -14 3.5 -32t4 -38t3 -40.5t1.5 -38.5q0 -5 -2 -16t-5.5 -21.5t-10 -18.5t-15.5 -8h-73l-11 -8q0 -6 -0.5 -20.5
t-1.5 -31.5t-1.5 -32t-1.5 -21q0 -3 -1.5 -14t-3 -23.5t-3.5 -23.5t-2 -14v-2q2 0 7.5 -2t7.5 -1q10 5 12.5 15.5t5 21.5t9.5 19.5t26 8.5q27 0 47.5 -11.5t20.5 -40.5q0 -27 -9.5 -51t-26.5 -41t-40.5 -27t-52.5 -10q-15 0 -27.5 3t-26.5 3q-24 0 -47 -10t-47 -10
q-56 0 -86 24.5t-44.5 61.5t-19 81t-8.5 83q-2 17 -2.5 29.5t-1.5 23.5t-1 22v26zM166 156q1 -5 0.5 -15t1 -20t5.5 -18t14 -8q22 0 22 24v12q-1 25 -2 63.5t-2 74.5t-1.5 62l-0.5 26l-4 25q0 1 -4 1q-9 0 -14 -6.5t-8 -14.5t-4.5 -17t-2.5 -13v-88v-88zM339 427
q0 -12 2.5 -28.5t4.5 -27.5h4q8 0 10 4.5t2 11.5q0 3 -0.5 9.5t-1 13.5t-2 12t-3.5 5h-16z" />
    <glyph glyph-name="OE" unicode="&#x152;" horiz-adv-x="668" 
d="M60 413q0 48 5.5 104.5t25 104.5t56.5 80t99 32q23 0 41 -4t38 -12q4 -1 11 -5.5l14 -9t13.5 -8t8.5 -3.5q43 0 83.5 5.5t82.5 5.5q24 0 35.5 -9t16 -23.5t4.5 -33.5t1 -39q-1 -9 -11.5 -14.5t-18.5 -5.5h-104q-2 0 -5.5 -1.5t-5.5 -3.5q-1 -1 -3 -2.5t-2 -2.5v-184
q0 -7 5 -10.5t11 -5.5h29q22 0 44 2.5t44 2.5q10 0 14 -8t5 -18.5t0 -21.5t-1 -18q0 -3 0.5 -9.5t-1 -13t-5 -11.5t-10.5 -5h-95q-5 0 -11.5 -5.5t-8.5 -8.5q0 -7 -1.5 -23.5t-3 -34.5t-3 -34.5t-1.5 -22.5v-9v-7q0 -5 1.5 -13.5t3.5 -8.5h144q14 0 21.5 -11.5t10.5 -27
t3.5 -30.5t0.5 -22q0 -17 -12 -22t-29 -4h-179q-38 -1 -72 -8t-71 -7q-104 0 -152.5 48t-54.5 152q-1 12 -2.5 42t-3 62.5t-3 61t-1.5 38.5q0 2 -0.5 17.5t-0.5 22.5zM211 163q2 -10 6.5 -19t13.5 -15q2 -1 9 -1h9q16 0 24.5 7t12 18t4.5 24.5t1 25.5v125v101t-6 100
q0 7 -4.5 17t-11 19.5t-15 16t-16.5 6.5t-13.5 -5t-9.5 -12t-6 -14.5t-3 -13.5q-1 -3 -2.5 -11.5t-3 -18t-3 -18.5t-2.5 -12v-17t-0.5 -25.5t-0.5 -25.5v-17v-21.5t0.5 -27t0.5 -24v-12.5q1 -8 3 -29.5t4.5 -45.5t4.5 -45t4 -30z" />
    <glyph glyph-name="lslash" unicode="&#x142;" horiz-adv-x="300" 
d="M124 35q-5 39 -9 89.5t-2 94.5q-6 -6 -12.5 -18l-13 -24t-13.5 -20.5t-16 -8.5q-6 0 -13.5 3t-15 8t-12.5 12.5t-5 15.5v3q0 2 1 3q5 7 16.5 25.5t25 39.5t25 39t16.5 25q2 2 4.5 7.5t3.5 7.5q-1 12 -1.5 37t-2 56t-2.5 66t-2 66t-2 56t-1 37q0 2 -0.5 12t-0.5 14l-0.5 6
t0 13t2 13t6.5 6h97l7 -229q5 5 11 15t12.5 20t13.5 17.5t13 7.5q11 0 24.5 -12t13.5 -25q0 -17 -14 -39t-31.5 -44.5t-31.5 -42t-14 -30.5v-313q0 -9 -5 -14t-12 -7t-14.5 -2.5t-11.5 -0.5q-7 0 -19 0.5t-15 14.5z" />
    <glyph glyph-name="copyright" unicode="&#xa9;" horiz-adv-x="593" 
d="M60 542q0 45 18 84t50 68.5t75.5 46.5t93.5 17q49 0 92 -17.5t75 -47t50.5 -68.5t18.5 -83t-18.5 -83t-50.5 -68t-75 -46.5t-92 -17.5q-50 0 -93.5 17t-75.5 46t-50 68.5t-18 83.5zM112 542q0 -33 14 -62.5t38 -51t57 -34.5t71 -13q39 0 72 12.5t57 35t37.5 52.5t13.5 65
q0 33 -13.5 62.5t-36.5 52t-55.5 36t-69.5 13.5q-38 0 -71.5 -13.5t-59 -36.5t-40 -53.5t-14.5 -64.5zM224 601q6 28 17.5 51t38.5 37q4 3 11.5 6.5t8.5 3.5h31q2 0 9.5 -4t7.5 -8v-30q-3 -7 -4.5 -17t-7.5 -16q-5 -7 -12.5 -9t-15.5 -5q-9 -1 -9 -12q-1 -3 -2 -10.5
t-1.5 -15t-1 -13.5t-0.5 -8v-23q0 -11 0.5 -25t8.5 -25q2 -3 6.5 -5.5t6.5 -3.5q8 -4 17.5 -7t10.5 -12q0 -2 1.5 -11t1.5 -14v-4q0 -16 -10 -23t-25 -7q-29 0 -52 13q-18 9 -25.5 23.5t-10 30.5t-1.5 33.5t1 32.5v39v38z" />
    <glyph glyph-name="Lslash" unicode="&#x141;" horiz-adv-x="360" 
d="M86 144q-4 -4 -8 -4.5t-9 -0.5q-14 0 -27.5 11.5t-21.5 24.5q2 8 7.5 16t8.5 15q4 6 15.5 21.5t24.5 33t24 33.5t16 22v20q0 90 -4.5 179.5t-4.5 178.5q0 12 10.5 24t20.5 12h53q5 0 10.5 -6.5t7.5 -8.5q-1 -11 -1.5 -38.5t-0.5 -58t0.5 -58t1.5 -38.5q0 -4 0.5 -14
t1 -21t1.5 -21t1 -14q8 8 18 23.5t20.5 30.5t20 26t15.5 11t13 -4t13.5 -9.5t11.5 -10.5l7 -7v-7q0 -16 -14 -38.5t-32.5 -46t-36.5 -46t-27 -38.5v-11t-0.5 -17.5t-0.5 -18v-11.5v-35.5t0.5 -31t1 -31.5t2.5 -36q5 -11 14 -19q3 0 10.5 -0.5t16 -1.5t15.5 -1.5t10 -1.5
q13 -3 14 -15t1 -23q0 -9 0.5 -21t0 -24t-4 -22.5t-11.5 -16.5h-49h-50t-49 5q-9 2 -13.5 10.5t-7 19t-2.5 20.5v15v127z" />
    <glyph glyph-name="DZ" unicode="&#x1f1;" horiz-adv-x="696" 
d="M86 0q0 9 0.5 31.5t0.5 48t-0.5 48.5t-0.5 32q0 6 -3 32t-6 55t-5.5 55t-2.5 32v32.5v55v55.5v33q0 6 -1.5 27.5t-3 47t-2.5 47.5t-1 28q0 1 -0.5 10.5t-0.5 14.5q0 3 0.5 13t0.5 12q11 17 29 18.5t35 1.5q32 0 63.5 -12.5t54.5 -38.5q12 -11 20.5 -24.5t19.5 -24.5v3
q0 15 -2.5 31t-2.5 31v10.5t5 8.5q3 0 10 0.5t15 0.5t15.5 0.5t10.5 0.5q4 0 12 -0.5t16.5 -0.5t15 -0.5t8.5 -0.5q13 0 45.5 -1t69 -2.5t69 -3t45.5 -2.5q9 -2 13.5 -12.5t7 -25t2.5 -28.5v-22q0 -19 -7 -33t-16 -30q-38 -68 -80.5 -133t-77.5 -137q-5 -11 -13 -28
t-15.5 -33.5t-13 -29t-5.5 -13.5v-14q51 0 100.5 5t98.5 5q4 0 16.5 -1t16.5 -1q12 -3 17.5 -13.5t7 -24.5t1 -29t-0.5 -26v-32l-14 -14q0 -1 -11.5 -2.5t-27 -3t-32 -3t-27.5 -1.5q-7 -1 -33.5 -2t-57.5 -1.5t-58 -1t-34 -0.5q-2 0 -9.5 -0.5t-16 -1.5t-16 -2t-9.5 -2h-5
q-8 0 -10 5.5t-2.5 12.5t-1.5 14t-6 9q-11 -27 -33.5 -43.5t-49 -26t-54 -13t-48.5 -3.5q-24 0 -25 31zM172 145v-11t1 -12t4 -10t8 -4q8 0 12.5 9.5t7.5 21.5t4 24t1 17q1 4 1.5 12l1 16t1 14.5t0.5 7.5v14.5t0.5 31.5t0.5 36.5v29.5v22t-0.5 34t-0.5 34.5v22.5
q-2 24 -5.5 54t-15.5 51q-4 7 -12 18t-9 11h-5q0 -112 3 -222t2 -222zM321 199q50 82 98 174t89 177q6 5 10 11t4 14v5l-22 5.5t-21 3.5h-180q0 -15 5.5 -34t10.5 -36v-285z" />
    <glyph glyph-name="registered" unicode="&#xae;" horiz-adv-x="593" 
d="M60 529q0 47 18 89t49.5 73.5t75 49.5t93.5 18q49 0 92.5 -18.5t75.5 -50t50.5 -73.5t18.5 -88q0 -47 -18.5 -89t-50.5 -73.5t-75.5 -50t-92.5 -18.5q-50 0 -93.5 18t-75 49.5t-49.5 73.5t-18 90zM112 529q0 -36 14 -67.5t38.5 -55t57 -37t69.5 -13.5q39 0 72.5 13.5
t57.5 37t37.5 55.5t13.5 70q0 36 -13.5 67.5t-37 55.5t-55.5 38t-70 14t-71.5 -14.5t-58.5 -38.5t-39.5 -56.5t-14.5 -68.5zM232 410q0 11 -1 39t-1.5 59.5t-1 59.5t-0.5 39q0 2 -0.5 14.5t-0.5 18.5q0 4 0.5 16t0.5 16l1 1l1 1q8 2 15.5 2.5t15.5 0.5q2 0 8.5 -0.5
t8.5 -0.5l3 -5q1 -2 1 -4q0 -4 1 -17.5t1 -17.5t4 -4h3q14 14 30.5 25.5t37.5 11.5q17 0 32.5 -7t20.5 -24q-1 -5 -2 -13t-4 -16t-8 -13.5t-12 -5.5q-10 0 -17 5t-16 5q-14 0 -23 -11q-5 -8 -9 -22t-7 -23q-2 -8 -5 -18l-4 -12v-102q0 -5 -7 -8.5t-15.5 -5t-16.5 -2
t-11 -0.5q-13 0 -17.5 2t-5.5 16z" />
    <glyph glyph-name="X" unicode="X" horiz-adv-x="476" 
d="M38 79q9 19 29.5 52.5t41.5 70.5t37 71t16 55q0 11 -4.5 20t-9.5 17q-2 2 -7.5 10.5t-12.5 18.5t-12.5 18.5t-6.5 11.5q-2 4 -10 19.5t-17 33.5t-16.5 33.5t-10.5 19.5q-2 4 -7.5 11t-11.5 16t-11 19t-5 19q0 22 9.5 34.5t20.5 27.5q3 3 11 12t16.5 19t16 19t10.5 13h3
q5 0 10.5 -5.5t8.5 -9.5q14 -23 27.5 -47t28 -47.5t30 -45.5t34.5 -41q4 10 16 36t25.5 54.5t25.5 54.5t17 36q2 2 5 8t5 7l1 1l3 -1q1 0 6 -4.5t7 -6.5q4 -3 14 -12t21.5 -19t21.5 -19t14 -12q3 -4 3.5 -5t0.5 -6q0 -7 -0.5 -8.5t-3.5 -7.5q-27 -57 -52.5 -114t-45.5 -120
v-5v-6q1 -3 4.5 -15t5.5 -16q3 -7 12.5 -23.5t20 -35t20.5 -35t14 -23.5q0 -1 3.5 -8.5t7.5 -16.5t8 -18.5t6 -14.5q2 -6 6 -15l8 -18q4 -11 9 -21v-11q-11 -14 -21 -26q-8 -11 -17.5 -22.5t-15.5 -19.5q-3 -3 -10 -11.5t-14.5 -18t-14.5 -18t-9 -11.5l-5 6
q-22 54 -44 101.5t-48 100.5q-5 8 -9 14.5t-10 11.5q-4 -10 -15.5 -35t-24 -53t-24 -53t-15.5 -34q-3 -5 -8 -16.5t-10.5 -23.5t-11.5 -21t-12 -9h-2q-1 0 -1 1q-4 4 -14 14.5t-21.5 22l-22 22t-14.5 15.5q-2 1 -3.5 4t-3.5 6q-3 4 -5 7z" />
    <glyph glyph-name="dz" unicode="&#x1f3;" horiz-adv-x="740" 
d="M60 153q0 49 18 87t46.5 64t64.5 40.5t72 17.5l5 6v26q0 115 -7 229.5t-7 229.5v38q2 11 10 21t17 12q3 1 14 1h14q8 0 18.5 -1t20 -5t16.5 -12t7 -21q0 -4 1 -17.5t1 -17.5q0 -64 -5 -126.5t-5 -129.5v-129q3 -21 4 -46t1.5 -49.5t1 -47.5t1.5 -41q1 -3 3 -18.5t5 -35.5
l6 -40t5 -31q1 -2 2.5 -8t2.5 -8q6 7 19.5 24t28.5 35.5t28.5 35.5t18.5 24q2 3 11.5 16t21 29l23 32t17.5 25q8 12 11 16t3 15v7q-5 2 -19 4t-18 2q-7 0 -25 1t-38 1.5t-38.5 1.5t-25.5 2l-9 10v108q0 6 8.5 9t12.5 3q8 0 14 -2t15 -7h223q7 0 11 -15t5.5 -33.5t2 -36
t0.5 -22.5q0 -25 -5 -45.5t-19 -38.5l-127 -179q-1 -1 -3 -5t-2 -5t1 -2q0 -1 1 -1q29 0 51 6.5t47 6.5q6 0 19 -3t13 -13v-108q0 -5 -7.5 -10t-10.5 -6q-12 -1 -41.5 -3.5t-63 -4.5t-63 -4.5t-41.5 -3.5q-21 -2 -41.5 -10t-40.5 -8q-9 0 -15.5 4.5t-12.5 10t-12 10t-14 4.5
h-5t-5 -1q-26 -15 -46.5 -26.5t-48.5 -11.5q-29 0 -55 14.5t-45.5 38.5t-30.5 55.5t-11 65.5zM173 159q0 -20 7.5 -24.5t23.5 -4.5q23 0 42.5 12t19.5 43q0 12 -1.5 20.5t-8.5 22.5q-2 1 -8 1h-8q-25 0 -46 -19.5t-21 -50.5z" />
    <glyph glyph-name="Dz" unicode="&#x1f2;" horiz-adv-x="604" 
d="M86 27q1 9 1 31v47v47t-1 31q0 6 -3 31t-6 53.5t-5.5 54t-3.5 32.5q0 6 0.5 31t0.5 53.5v53.5t-1 31q0 6 -1 27.5t-2.5 46.5t-2.5 46.5t-1 26.5q0 2 -0.5 11t-0.5 14q0 2 0.5 12t0.5 12q11 17 29 18.5t35 1.5q46 0 78.5 -19.5t54 -52t34.5 -75t20 -88.5l4 5h14h19
q12 0 40.5 -0.5t60 -1.5t60 -1.5t39.5 -1.5q10 -5 14 -18q0 -5 0.5 -17.5t1.5 -26.5t1.5 -27t0.5 -18v-3q0 -12 -6 -26t-12 -24q-6 -9 -21 -31t-32.5 -47t-33 -47t-21.5 -31q-2 -2 -4.5 -7.5t-3.5 -7.5q0 -1 1 -3.5t1 -3.5q22 0 42.5 6.5t41.5 6.5q5 0 16 -3t11 -11v-95
q0 -6 -10 -12.5t-15 -6.5q-11 -1 -38.5 -3t-58 -4t-58 -4t-37.5 -3h-10q-17 0 -21.5 13.5t-7.5 29.5q-11 -26 -32.5 -42t-47 -25t-52.5 -12.5t-48 -3.5q-24 0 -24 30zM169 169v-10t1 -12t4 -10t8 -4q8 0 13 9t7.5 21t3.5 23.5t2 15.5q0 4 0.5 12l1 16t1 14t0.5 7v14.5
t0.5 31t0.5 35.5v29v21.5t-0.5 33t-0.5 33.5v22q-1 11 -1.5 24.5t-2.5 27.5t-6 27t-10 23q-5 7 -13 18.5t-9 11.5h-5q0 -110 3 -217.5t2 -216.5zM312 169q41 42 79.5 98t71.5 105v8q0 14 -7 12.5t-18 0.5q-14 0 -33.5 0.5t-38.5 1.5q-22 1 -46 2l-8 11v-239z" />
    <glyph glyph-name="fl" unicode="&#xfb02;" horiz-adv-x="423" 
d="M73 8q2 28 0 55.5t-5 55.5t-5.5 55.5t-2.5 56.5v45q0 12 0.5 44.5t1 68.5t1.5 68t1 45q3 30 13.5 58t28 49t42 33.5t54.5 12.5h152l5 -5l0.5 -13.5t1 -32t1.5 -38t1 -32.5v-12q0 -59 -2 -117t-2 -115q0 -61 2 -122t2 -122q0 -25 -10 -34t-34 -9q-4 0 -9 -0.5t-10.5 0.5
t-9.5 4t-5 10q-8 42 -10 85.5t-3 85.5l-5 9l-0.5 9.5t-1 22t-1.5 25.5t-1 22q0 3 0.5 11.5t0 17.5t-2.5 16.5t-7 9.5q1 0 3 2t2 3v1v4q0 12 -1.5 42.5t-3 65t-3 65.5t-1.5 43h-15q-9 0 -22 -1t-24.5 -5t-20 -12t-8.5 -23v-110h55l5 -5q1 -1 2.5 -15t1.5 -22q0 -1 0.5 -7.5
t0.5 -8.5t-0.5 -8.5t-0.5 -8.5q-10 -3 -21 -5.5t-21 -3.5q-1 -2 -3 -9t-2 -9q-1 -5 -1.5 -16.5t-1 -24t-1 -23.5t-0.5 -15q0 -12 -0.5 -42.5t-0.5 -64t0.5 -63.5t0.5 -42q-5 -17 -22 -24h-24q-14 0 -29.5 1t-24.5 18z" />
    <glyph glyph-name="x" unicode="x" horiz-adv-x="411" 
d="M13 43l1 3q2 3 9.5 14t9.5 15q5 7 17.5 23.5t26.5 35.5t27 35.5t18 22.5q2 2 5 9.5t4 10.5v2v3q0 1 -2 5t-3 5q-2 2 -9.5 11.5t-16 20t-16.5 20t-9 11.5q-4 5 -13 18t-19.5 27.5t-20 28t-13.5 18.5q-1 2 -4 9.5t-5 11.5v2q0 4 3.5 9.5t8 11.5t8 10t4.5 5t7 8.5t14.5 17
t16.5 19t13 14.5q1 0 1 1t1 2l2 2h3q11 0 21.5 -8t18.5 -17q5 -7 17.5 -24t26.5 -36.5t26.5 -37l17.5 -24.5q1 3 6 11t10 16.5t10 16l7 10.5q1 3 4.5 8t7.5 10.5t7 10t4 5.5t6.5 7.5t13 15t14.5 17.5t12 14l3 3l2 2q2 0 5.5 -2t4.5 -3q4 -4 14.5 -13t22.5 -19t22.5 -19
t14.5 -13q2 -1 5 -4.5t5 -5.5q-3 -5 -9.5 -16t-14 -23t-14 -23t-9.5 -15l-5.5 -11t-10.5 -20t-12 -21.5t-9 -16.5q-7 -12 -13 -24.5t-6 -26.5q0 -18 14 -39.5t30.5 -42.5t30.5 -40t14 -32q0 -8 -4 -12t-11 -12q-4 -5 -13.5 -16t-21 -23.5t-21.5 -24t-14 -15.5
q-15 12 -25.5 29t-20.5 35t-20.5 34.5t-26.5 28.5l-5 -4q-5 -7 -18 -25t-27.5 -38.5t-28 -38.5t-18.5 -25q-5 -6 -7 -8.5t-8 -2.5q-8 0 -14 7t-14 14q-3 3 -12.5 12t-20 19.5l-19.5 19.5t-13 12z" />
    <glyph glyph-name="ntilde" unicode="&#xf1;" horiz-adv-x="477" 
d="M257 4q-4 38 -2.5 76t3.5 75.5t3.5 75t-2.5 73.5q0 2 -1 8t-1.5 12.5t-1 12t-0.5 7.5q-9 30 -40 24q-14 -2 -23.5 -17t-15.5 -36.5t-9.5 -47t-5 -49t-2 -42.5t-0.5 -26q0 -12 5 -38t6 -53.5t-5 -49.5t-28 -25q-12 -2 -24.5 -1.5t-23.5 4t-18.5 10.5t-8.5 20q-2 25 -2 49
t2 50v7q-2 72 1 140.5t6 139.5v9.5v15.5t-0.5 15t-1.5 9q1 6 0 19.5t-0.5 27t4 24.5t13.5 12q33 5 66 -2t52 -30q0 -1 2 -3q1 -1 2 -1l72 12q28 4 47 -16t31.5 -48.5t19 -58t8.5 -44.5q3 -29 1.5 -59t-4.5 -59.5l-6 -59t-4 -58.5q0 -22 3 -43t0.5 -38.5t-15 -30t-44.5 -17.5
q-26 -4 -41 -0.5t-17 25.5zM148 671q-4 -1 -4.5 -2t-2.5 -3q1 -4 2.5 -13t3.5 -19.5t3.5 -19.5t1.5 -13q1 -5 0 -12t-12 -8l-44 -4q-8 -1 -14 2.5t-7 8.5q-2 5 -2 8.5t-2 8.5q-2 6 -5 10l-15 45v8q1 12 4.5 25t12.5 24t24 19t38 10q21 2 36 0.5t25.5 -6.5t18 -13.5
t14.5 -19.5q2 -1 4.5 -4.5t3.5 -4.5l18 -57q2 -5 9 -7t12 -2h2q7 0 7 5q-3 14 -3.5 27t-3.5 26q0 1 -1 6t-2.5 11.5t-3 13.5t-2.5 11q0 4 5 4.5t9 2.5q17 1 31 2t24 -8l3.5 -10.5t3.5 -9.5q2 -4 3.5 -10.5t1.5 -8.5q0 -1 0.5 -6t1 -11t1 -11.5t0.5 -6.5q3 -18 5 -32.5
t-12 -31.5q-7 -7 -13.5 -9.5t-19.5 -4.5q-42 -4 -75.5 7.5t-48.5 36.5q-2 3 -4.5 10.5t-7 15.5t-10.5 14t-14 6z" />
    <glyph glyph-name="Ntilde" unicode="&#xd1;" horiz-adv-x="497" 
d="M191 264q2 6 -2.5 14t-12.5 8h-3q0 -8 -0.5 -27.5t-1 -41.5t-1 -42t-0.5 -27v-21q1 -20 4 -39.5t4 -39.5q0 -9 -2.5 -14.5t-13.5 -5.5q-21 -2 -40 -1t-41 -2q-4 2 -7 8l-4 8q0 2 -1.5 11.5t-1.5 12.5q-2 31 -0.5 62t3.5 62q0 51 -1.5 100t6.5 100l-14 281q0 5 0.5 13
t3 15.5t7 13t11.5 5.5h4q24 -2 39.5 -4t21.5 -23q8 -22 17.5 -44t18.5 -42q1 -1 1 -3.5v-3.5q5 -27 16 -55.5t21 -52.5q-2 -10 4 -23t14 -26t14.5 -25t4.5 -20q1 -3 5 -12.5t7.5 -20.5t7 -20.5t5.5 -13.5q1 -3 2.5 -8.5t3.5 -12t3.5 -12.5t1.5 -8q5 -12 7 -25t14 -21
q5 10 5 22q14 111 12.5 218t-3.5 219q1 2 5 8t6 6l80 6q9 0 9 -5t6 -7q-3 -45 0 -88.5t-1 -88.5q-7 -65 -12.5 -127t-0.5 -128l-8 -221q-1 -9 -10 -24.5t-20 -19.5q-2 0 -10.5 -0.5t-10.5 -0.5q-25 -2 -48 -1t-48 5q-13 1 -20 18.5t-10.5 39t-5 41t-2.5 25.5q-1 4 -4 17
t-5 18t-6 18t-8.5 27.5t-8.5 27.5t-6 18zM196 847q-4 -1 -4.5 -2t-2.5 -3q1 -4 2.5 -13t3.5 -19.5t3.5 -19.5t1.5 -13q1 -5 0 -12t-12 -8l-44 -4q-8 -1 -14 2.5t-7 8.5q-2 5 -2 8.5t-2 8.5q-2 6 -5 10l-15 45v8q1 12 4.5 25t12.5 24t24 19t38 10q21 2 36 0.5t25.5 -6.5
t18 -13.5t14.5 -19.5q2 -1 4.5 -4.5t3.5 -4.5l18 -57q2 -5 9 -7t12 -2h2q7 0 7 5q-3 14 -3.5 27t-3.5 26q0 1 -1 6t-2.5 11.5t-3 13.5t-2.5 11q0 4 5 4.5t9 2.5q17 1 31 2t24 -8l3.5 -10.5t3.5 -9.5q2 -4 3.5 -10.5t1.5 -8.5q0 -1 0.5 -6t1 -11t1 -11.5t0.5 -6.5
q3 -18 5 -32.5t-12 -31.5q-7 -7 -13.5 -9.5t-19.5 -4.5q-42 -4 -75.5 7.5t-48.5 36.5q-2 3 -4.5 10.5t-7 15.5t-10.5 14t-14 6z" />
    <glyph glyph-name="Aring" unicode="&#xc5;" horiz-adv-x="494" 
d="M344 9q-5 2 -10 6.5t-6 9.5l-24 212q0 4 -3.5 7t-6.5 2l-116 -11l19 -175q2 -16 9 -29.5t9 -28.5q1 -6 -1 -7.5t-9 -2.5q-2 0 -5.5 -0.5t-4.5 -0.5h-12.5t-17.5 -0.5t-16.5 -1t-9.5 -0.5q-18 0 -29 4t-17 12t-8.5 19.5t-4.5 26.5q-5 55 -8 109.5t-5 110.5q0 1 -0.5 11
t-1.5 23t-2 25.5t-2 19.5q-2 38 3.5 70t12.5 70q-6 17 2.5 36t13.5 34q2 8 2.5 15t3.5 16q0 1 1 3.5t2 2.5q11 20 19 40.5t22 40.5q9 12 22 24.5t28 23.5t31.5 18t32.5 9q45 4 70 -12.5t39.5 -42.5t22.5 -57.5t18 -58.5q0 -3 1.5 -11t2.5 -17t2.5 -16.5t1.5 -10.5
q7 -66 8.5 -133t4.5 -133q0 -17 -2.5 -35t-1.5 -35q0 -2 1 -10.5t2 -18.5t2.5 -18.5t1.5 -10.5v-33q0 -2 0.5 -10.5t1 -18.5t1 -18.5t0.5 -11.5q0 -6 -2 -18t-13 -14h-2q-1 0 -6.5 1t-6.5 1q-3 0 -12 -0.5t-18.5 -0.5t-18 -0.5t-11.5 -0.5zM180 369q1 -12 14 -17t30 -6.5
t34 -1t26 1.5q2 0 8 0.5t8 0.5q2 3 3 5.5t2 5.5q0 6 -1 19.5t-1.5 29.5t-1 29.5t-0.5 19.5q1 2 1 9v10l-10 97q-1 7 -5 16t-10 16.5t-14.5 12t-17.5 3.5q-8 -1 -15 -5q-33 -34 -41 -71t-9 -81q0 -24 -1 -47t1 -47zM142 831q1 2 -5 10.5t-8 12.5q-5 10 -7 17.5t-2 18.5
q0 45 28 76.5t75 48.5q9 3 21.5 6t23.5 3q8 0 16 -2.5t16 -4.5t15.5 -4.5t12.5 -6.5t17.5 -15.5t17.5 -15.5q17 -16 21.5 -37.5t4.5 -41.5t-9 -37t-22 -33q-20 -26 -53 -37.5t-68 -11.5q-29 0 -55 17t-40 37zM186 885q10 -18 25.5 -31.5t41.5 -13.5q7 0 15 3t13 7
q11 9 18 16t10.5 14.5t4.5 16.5t1 22v21q0 1 -1.5 4t-2.5 3q-10 12 -19.5 19.5t-26.5 7.5q-24 0 -42 -12t-32 -27q-2 -2 -2 -5q-3 -7 -3 -12.5v-13.5v-19z" />
    <glyph glyph-name="Agrave" unicode="&#xc0;" horiz-adv-x="494" 
d="M344 9q-5 2 -10 6.5t-6 9.5l-24 212q0 4 -3.5 7t-6.5 2l-116 -11l19 -175q2 -16 9 -29.5t9 -28.5q1 -6 -1 -7.5t-9 -2.5q-2 0 -5.5 -0.5t-4.5 -0.5h-12.5t-17.5 -0.5t-16.5 -1t-9.5 -0.5q-18 0 -29 4t-17 12t-8.5 19.5t-4.5 26.5q-5 55 -8 109.5t-5 110.5q0 1 -0.5 11
t-1.5 23t-2 25.5t-2 19.5q-2 38 3.5 70t12.5 70q-6 17 2.5 36t13.5 34q2 8 2.5 15t3.5 16q0 1 1 3.5t2 2.5q11 20 19 40.5t22 40.5q9 12 22 24.5t28 23.5t31.5 18t32.5 9q45 4 70 -12.5t39.5 -42.5t22.5 -57.5t18 -58.5q0 -3 1.5 -11t2.5 -17t2.5 -16.5t1.5 -10.5
q7 -66 8.5 -133t4.5 -133q0 -17 -2.5 -35t-1.5 -35q0 -2 1 -10.5t2 -18.5t2.5 -18.5t1.5 -10.5v-33q0 -2 0.5 -10.5t1 -18.5t1 -18.5t0.5 -11.5q0 -6 -2 -18t-13 -14h-2q-1 0 -6.5 1t-6.5 1q-3 0 -12 -0.5t-18.5 -0.5t-18 -0.5t-11.5 -0.5zM180 369q1 -12 14 -17t30 -6.5
t34 -1t26 1.5q2 0 8 0.5t8 0.5q2 3 3 5.5t2 5.5q0 6 -1 19.5t-1.5 29.5t-1 29.5t-0.5 19.5q1 2 1 9v10l-10 97q-1 7 -5 16t-10 16.5t-14.5 12t-17.5 3.5q-8 -1 -15 -5q-33 -34 -41 -71t-9 -81q0 -24 -1 -47t1 -47zM152 888q0 5 7.5 12t19 13.5t24.5 11t25 4.5q6 0 7.5 -0.5
t6.5 -4.5q4 -2 4.5 -5.5t1.5 -5.5q3 -5 17 -17t28.5 -24.5t26 -22.5t10.5 -11l22 -24q-1 -2 3 -7t4 -7q0 -7 -14 -13.5t-21 -8.5q-1 0 -2 -0.5t-3 -0.5q-6 0 -15.5 5.5t-19.5 12t-18.5 13t-11.5 8.5q-3 3 -9.5 8t-13 9.5t-12 8t-6.5 4.5q-2 1 -9 5t-15 9t-15.5 9t-9.5 5
q-7 4 -9.5 6.5t-2.5 7.5z" />
    <glyph glyph-name="Aacute" unicode="&#xc1;" horiz-adv-x="494" 
d="M344 9q-5 2 -10 6.5t-6 9.5l-24 212q0 4 -3.5 7t-6.5 2l-116 -11l19 -175q2 -16 9 -29.5t9 -28.5q1 -6 -1 -7.5t-9 -2.5q-2 0 -5.5 -0.5t-4.5 -0.5h-12.5t-17.5 -0.5t-16.5 -1t-9.5 -0.5q-18 0 -29 4t-17 12t-8.5 19.5t-4.5 26.5q-5 55 -8 109.5t-5 110.5q0 1 -0.5 11
t-1.5 23t-2 25.5t-2 19.5q-2 38 3.5 70t12.5 70q-6 17 2.5 36t13.5 34q2 8 2.5 15t3.5 16q0 1 1 3.5t2 2.5q11 20 19 40.5t22 40.5q9 12 22 24.5t28 23.5t31.5 18t32.5 9q45 4 70 -12.5t39.5 -42.5t22.5 -57.5t18 -58.5q0 -3 1.5 -11t2.5 -17t2.5 -16.5t1.5 -10.5
q7 -66 8.5 -133t4.5 -133q0 -17 -2.5 -35t-1.5 -35q0 -2 1 -10.5t2 -18.5t2.5 -18.5t1.5 -10.5v-33q0 -2 0.5 -10.5t1 -18.5t1 -18.5t0.5 -11.5q0 -6 -2 -18t-13 -14h-2q-1 0 -6.5 1t-6.5 1q-3 0 -12 -0.5t-18.5 -0.5t-18 -0.5t-11.5 -0.5zM180 369q1 -12 14 -17t30 -6.5
t34 -1t26 1.5q2 0 8 0.5t8 0.5q2 3 3 5.5t2 5.5q0 6 -1 19.5t-1.5 29.5t-1 29.5t-0.5 19.5q1 2 1 9v10l-10 97q-1 7 -5 16t-10 16.5t-14.5 12t-17.5 3.5q-8 -1 -15 -5q-33 -34 -41 -71t-9 -81q0 -24 -1 -47t1 -47zM112 784q0 3 8.5 12t19 19.5t21 20t15.5 13.5q2 1 8.5 7
t7.5 8q3 3 9 9.5t13 13.5l13.5 13.5l8.5 8.5q3 7 15.5 16.5t20.5 9.5q4 0 10 -4t12.5 -9.5t11.5 -10.5t6 -7v-10v-10t-5 -9q-3 -3 -11 -9.5t-11 -8.5q-33 -23 -66.5 -47.5t-67.5 -47.5q-3 -1 -5 -1.5t-6 -0.5q-11 0 -19.5 8t-8.5 16z" />
    <glyph glyph-name="Acircumflex" unicode="&#xc2;" horiz-adv-x="494" 
d="M344 9q-5 2 -10 6.5t-6 9.5l-24 212q0 4 -3.5 7t-6.5 2l-116 -11l19 -175q2 -16 9 -29.5t9 -28.5q1 -6 -1 -7.5t-9 -2.5q-2 0 -5.5 -0.5t-4.5 -0.5h-12.5t-17.5 -0.5t-16.5 -1t-9.5 -0.5q-18 0 -29 4t-17 12t-8.5 19.5t-4.5 26.5q-5 55 -8 109.5t-5 110.5q0 1 -0.5 11
t-1.5 23t-2 25.5t-2 19.5q-2 38 3.5 70t12.5 70q-6 17 2.5 36t13.5 34q2 8 2.5 15t3.5 16q0 1 1 3.5t2 2.5q11 20 19 40.5t22 40.5q9 12 22 24.5t28 23.5t31.5 18t32.5 9q45 4 70 -12.5t39.5 -42.5t22.5 -57.5t18 -58.5q0 -3 1.5 -11t2.5 -17t2.5 -16.5t1.5 -10.5
q7 -66 8.5 -133t4.5 -133q0 -17 -2.5 -35t-1.5 -35q0 -2 1 -10.5t2 -18.5t2.5 -18.5t1.5 -10.5v-33q0 -2 0.5 -10.5t1 -18.5t1 -18.5t0.5 -11.5q0 -6 -2 -18t-13 -14h-2q-1 0 -6.5 1t-6.5 1q-3 0 -12 -0.5t-18.5 -0.5t-18 -0.5t-11.5 -0.5zM180 369q1 -12 14 -17t30 -6.5
t34 -1t26 1.5q2 0 8 0.5t8 0.5q2 3 3 5.5t2 5.5q0 6 -1 19.5t-1.5 29.5t-1 29.5t-0.5 19.5q1 2 1 9v10l-10 97q-1 7 -5 16t-10 16.5t-14.5 12t-17.5 3.5q-8 -1 -15 -5q-33 -34 -41 -71t-9 -81q0 -24 -1 -47t1 -47zM235 862q-1 0 -1.5 -0.5t-1.5 -0.5l-90 -92q-1 -3 -7 -3
q-3 -1 -11 0t-15.5 3t-14 5t-6.5 6q-1 1 1 4.5t5 6.5t6 5.5t4 2.5q28 30 55.5 59.5t54.5 58.5q2 0 3.5 2t2.5 2l46 5q4 1 7 -1q2 -3 11 -10.5t12 -9.5l3 -2q1 -2 10.5 -10t11.5 -9l2 -3q2 -1 10 -7t10 -8t10 -8.5t16 -14t14.5 -13.5t6.5 -7l14 -16l1 -1q0 -5 -6 -8
q-4 -3 -7.5 -2.5t-8.5 -1.5q-11 -3 -19.5 -12.5t-19.5 -10.5h-4.5t-3.5 1q-3 3 -11.5 10.5t-10.5 9.5q-4 3 -14.5 14.5t-23 24t-24 22t-17.5 9.5z" />
    <glyph glyph-name="Atilde" unicode="&#xc3;" horiz-adv-x="494" 
d="M344 9q-5 2 -10 6.5t-6 9.5l-24 212q0 4 -3.5 7t-6.5 2l-116 -11l19 -175q2 -16 9 -29.5t9 -28.5q1 -6 -1 -7.5t-9 -2.5q-2 0 -5.5 -0.5t-4.5 -0.5h-12.5t-17.5 -0.5t-16.5 -1t-9.5 -0.5q-18 0 -29 4t-17 12t-8.5 19.5t-4.5 26.5q-5 55 -8 109.5t-5 110.5q0 1 -0.5 11
t-1.5 23t-2 25.5t-2 19.5q-2 38 3.5 70t12.5 70q-6 17 2.5 36t13.5 34q2 8 2.5 15t3.5 16q0 1 1 3.5t2 2.5q11 20 19 40.5t22 40.5q9 12 22 24.5t28 23.5t31.5 18t32.5 9q45 4 70 -12.5t39.5 -42.5t22.5 -57.5t18 -58.5q0 -3 1.5 -11t2.5 -17t2.5 -16.5t1.5 -10.5
q7 -66 8.5 -133t4.5 -133q0 -17 -2.5 -35t-1.5 -35q0 -2 1 -10.5t2 -18.5t2.5 -18.5t1.5 -10.5v-33q0 -2 0.5 -10.5t1 -18.5t1 -18.5t0.5 -11.5q0 -6 -2 -18t-13 -14h-2q-1 0 -6.5 1t-6.5 1q-3 0 -12 -0.5t-18.5 -0.5t-18 -0.5t-11.5 -0.5zM180 369q1 -12 14 -17t30 -6.5
t34 -1t26 1.5q2 0 8 0.5t8 0.5q2 3 3 5.5t2 5.5q0 6 -1 19.5t-1.5 29.5t-1 29.5t-0.5 19.5q1 2 1 9v10l-10 97q-1 7 -5 16t-10 16.5t-14.5 12t-17.5 3.5q-8 -1 -15 -5q-33 -34 -41 -71t-9 -81q0 -24 -1 -47t1 -47zM176 867q-4 -1 -4.5 -2t-2.5 -3q1 -4 2.5 -13t3.5 -19.5
t3.5 -19.5t1.5 -13q1 -5 0 -12t-12 -8l-44 -4q-8 -1 -14 2.5t-7 8.5q-2 5 -2 8.5t-2 8.5q-2 6 -5 10l-15 45v8q1 12 4.5 25t12.5 24t24 19t38 10q21 2 36 0.5t25.5 -6.5t18 -13.5t14.5 -19.5q2 -1 4.5 -4.5t3.5 -4.5l18 -57q2 -5 9 -7t12 -2h2q7 0 7 5q-3 14 -3.5 27
t-3.5 26q0 1 -1 6t-2.5 11.5t-3 13.5t-2.5 11q0 4 5 4.5t9 2.5q17 1 31 2t24 -8l3.5 -10.5t3.5 -9.5q2 -4 3.5 -10.5t1.5 -8.5q0 -1 0.5 -6t1 -11t1 -11.5t0.5 -6.5q3 -18 5 -32.5t-12 -31.5q-7 -7 -13.5 -9.5t-19.5 -4.5q-42 -4 -75.5 7.5t-48.5 36.5q-2 3 -4.5 10.5
t-7 15.5t-10.5 14t-14 6z" />
    <glyph glyph-name="Adieresis" unicode="&#xc4;" horiz-adv-x="494" 
d="M344 9q-5 2 -10 6.5t-6 9.5l-24 212q0 4 -3.5 7t-6.5 2l-116 -11l19 -175q2 -16 9 -29.5t9 -28.5q1 -6 -1 -7.5t-9 -2.5q-2 0 -5.5 -0.5t-4.5 -0.5h-12.5t-17.5 -0.5t-16.5 -1t-9.5 -0.5q-18 0 -29 4t-17 12t-8.5 19.5t-4.5 26.5q-5 55 -8 109.5t-5 110.5q0 1 -0.5 11
t-1.5 23t-2 25.5t-2 19.5q-2 38 3.5 70t12.5 70q-6 17 2.5 36t13.5 34q2 8 2.5 15t3.5 16q0 1 1 3.5t2 2.5q11 20 19 40.5t22 40.5q9 12 22 24.5t28 23.5t31.5 18t32.5 9q45 4 70 -12.5t39.5 -42.5t22.5 -57.5t18 -58.5q0 -3 1.5 -11t2.5 -17t2.5 -16.5t1.5 -10.5
q7 -66 8.5 -133t4.5 -133q0 -17 -2.5 -35t-1.5 -35q0 -2 1 -10.5t2 -18.5t2.5 -18.5t1.5 -10.5v-33q0 -2 0.5 -10.5t1 -18.5t1 -18.5t0.5 -11.5q0 -6 -2 -18t-13 -14h-2q-1 0 -6.5 1t-6.5 1q-3 0 -12 -0.5t-18.5 -0.5t-18 -0.5t-11.5 -0.5zM180 369q1 -12 14 -17t30 -6.5
t34 -1t26 1.5q2 0 8 0.5t8 0.5q2 3 3 5.5t2 5.5q0 6 -1 19.5t-1.5 29.5t-1 29.5t-0.5 19.5q1 2 1 9v10l-10 97q-1 7 -5 16t-10 16.5t-14.5 12t-17.5 3.5q-8 -1 -15 -5q-33 -34 -41 -71t-9 -81q0 -24 -1 -47t1 -47zM285 843q-4 24 10 43t36 22q6 1 15 -4.5t17 -13.5t14.5 -17
t7.5 -15q3 -21 -11.5 -37t-33.5 -19t-36 9t-19 32zM89 825q-3 21 4.5 43t29.5 26q9 1 18 -3t16.5 -11.5t12 -16.5t6.5 -17q2 -20 -5.5 -41t-28.5 -24q-18 -3 -34.5 10.5t-18.5 33.5z" />
    <glyph glyph-name="Egrave" unicode="&#xc8;" horiz-adv-x="442" 
d="M85 3q-4 3 -8 6.5t-4 8.5q-5 48 0.5 97t5.5 97q0 60 -3.5 120.5t-7.5 121t-6.5 120.5t-0.5 119q0 6 3.5 13t10.5 8q10 1 23.5 -1t22.5 -1q4 0 15 0.5t23.5 1t23.5 1t15 0.5q1 0 8 1t15 2t14.5 2t8.5 1q6 0 19.5 1t27 0t24.5 -4t12 -12l7 -84q1 -8 -7 -13.5t-15 -6.5
q-20 -2 -40 1.5t-41 1.5q-5 0 -13 -0.5t-16.5 -2.5t-14.5 -6t-6 -12q3 -40 0 -83t1 -84q0 -5 1 -13t6 -13q4 -3 12.5 -4.5t17.5 -1.5t17 0.5t12 0.5t15 1t23 2.5t23 2.5t15 1q3 0 5 -3.5t2 -5.5l7 -65q1 -9 -4.5 -18t-13.5 -10q-22 -3 -44 0.5t-45 1.5q-14 -2 -20 -7.5
t-8 -13.5t-2 -18v-21q0 -3 -1 -14.5t-2.5 -24.5t-2.5 -24t-2 -14q2 -1 1 -6t1 -8q0 -6 2 -14.5t11 -8.5h23.5h35h35h22.5q16 0 29 -3t18 -22q0 -2 1.5 -9.5t3 -17l3 -19t2.5 -14.5v-6q2 -14 -7 -16t-20 -4q-42 -5 -84 -2.5t-84 3.5q-3 1 -15 -0.5t-14 -1.5q-4 0 -14.5 -0.5
t-22 -1.5t-21.5 -1.5t-14 -0.5zM108 856q0 5 7.5 12t19 13.5t24.5 11t25 4.5q6 0 7.5 -0.5t6.5 -4.5q4 -2 4.5 -5.5t1.5 -5.5q3 -5 17 -17t28.5 -24.5t26 -22.5t10.5 -11l22 -24q-1 -2 3 -7t4 -7q0 -7 -14 -13.5t-21 -8.5q-1 0 -2 -0.5t-3 -0.5q-6 0 -15.5 5.5t-19.5 12
t-18.5 13t-11.5 8.5q-3 3 -9.5 8t-13 9.5t-12 8t-6.5 4.5q-2 1 -9 5t-15 9t-15.5 9t-9.5 5q-7 4 -9.5 6.5t-2.5 7.5z" />
    <glyph glyph-name="Eacute" unicode="&#xc9;" horiz-adv-x="442" 
d="M85 3q-4 3 -8 6.5t-4 8.5q-5 48 0.5 97t5.5 97q0 60 -3.5 120.5t-7.5 121t-6.5 120.5t-0.5 119q0 6 3.5 13t10.5 8q10 1 23.5 -1t22.5 -1q4 0 15 0.5t23.5 1t23.5 1t15 0.5q1 0 8 1t15 2t14.5 2t8.5 1q6 0 19.5 1t27 0t24.5 -4t12 -12l7 -84q1 -8 -7 -13.5t-15 -6.5
q-20 -2 -40 1.5t-41 1.5q-5 0 -13 -0.5t-16.5 -2.5t-14.5 -6t-6 -12q3 -40 0 -83t1 -84q0 -5 1 -13t6 -13q4 -3 12.5 -4.5t17.5 -1.5t17 0.5t12 0.5t15 1t23 2.5t23 2.5t15 1q3 0 5 -3.5t2 -5.5l7 -65q1 -9 -4.5 -18t-13.5 -10q-22 -3 -44 0.5t-45 1.5q-14 -2 -20 -7.5
t-8 -13.5t-2 -18v-21q0 -3 -1 -14.5t-2.5 -24.5t-2.5 -24t-2 -14q2 -1 1 -6t1 -8q0 -6 2 -14.5t11 -8.5h23.5h35h35h22.5q16 0 29 -3t18 -22q0 -2 1.5 -9.5t3 -17l3 -19t2.5 -14.5v-6q2 -14 -7 -16t-20 -4q-42 -5 -84 -2.5t-84 3.5q-3 1 -15 -0.5t-14 -1.5q-4 0 -14.5 -0.5
t-22 -1.5t-21.5 -1.5t-14 -0.5zM80 768q0 3 8.5 12t19 19.5t21 20t15.5 13.5q2 1 8.5 7t7.5 8q3 3 9 9.5t13 13.5l13.5 13.5l8.5 8.5q3 7 15.5 16.5t20.5 9.5q4 0 10 -4t12.5 -9.5t11.5 -10.5t6 -7v-10v-10t-5 -9q-3 -3 -11 -9.5t-11 -8.5q-33 -23 -66.5 -47.5t-67.5 -47.5
q-3 -1 -5 -1.5t-6 -0.5q-11 0 -19.5 8t-8.5 16z" />
    <glyph glyph-name="Ecircumflex" unicode="&#xca;" horiz-adv-x="442" 
d="M85 3q-4 3 -8 6.5t-4 8.5q-5 48 0.5 97t5.5 97q0 60 -3.5 120.5t-7.5 121t-6.5 120.5t-0.5 119q0 6 3.5 13t10.5 8q10 1 23.5 -1t22.5 -1q4 0 15 0.5t23.5 1t23.5 1t15 0.5q1 0 8 1t15 2t14.5 2t8.5 1q6 0 19.5 1t27 0t24.5 -4t12 -12l7 -84q1 -8 -7 -13.5t-15 -6.5
q-20 -2 -40 1.5t-41 1.5q-5 0 -13 -0.5t-16.5 -2.5t-14.5 -6t-6 -12q3 -40 0 -83t1 -84q0 -5 1 -13t6 -13q4 -3 12.5 -4.5t17.5 -1.5t17 0.5t12 0.5t15 1t23 2.5t23 2.5t15 1q3 0 5 -3.5t2 -5.5l7 -65q1 -9 -4.5 -18t-13.5 -10q-22 -3 -44 0.5t-45 1.5q-14 -2 -20 -7.5
t-8 -13.5t-2 -18v-21q0 -3 -1 -14.5t-2.5 -24.5t-2.5 -24t-2 -14q2 -1 1 -6t1 -8q0 -6 2 -14.5t11 -8.5h23.5h35h35h22.5q16 0 29 -3t18 -22q0 -2 1.5 -9.5t3 -17l3 -19t2.5 -14.5v-6q2 -14 -7 -16t-20 -4q-42 -5 -84 -2.5t-84 3.5q-3 1 -15 -0.5t-14 -1.5q-4 0 -14.5 -0.5
t-22 -1.5t-21.5 -1.5t-14 -0.5zM191 842q-1 0 -1.5 -0.5t-1.5 -0.5l-90 -92q-1 -3 -7 -3q-3 -1 -11 0t-15.5 3t-14 5t-6.5 6q-1 1 1 4.5t5 6.5t6 5.5t4 2.5q28 30 55.5 59.5t54.5 58.5q2 0 3.5 2t2.5 2l46 5q4 1 7 -1q2 -3 11 -10.5t12 -9.5l3 -2q1 -2 10.5 -10t11.5 -9
l2 -3q2 -1 10 -7t10 -8t10 -8.5t16 -14t14.5 -13.5t6.5 -7l14 -16l1 -1q0 -5 -6 -8q-4 -3 -7.5 -2.5t-8.5 -1.5q-11 -3 -19.5 -12.5t-19.5 -10.5h-4.5t-3.5 1q-3 3 -11.5 10.5t-10.5 9.5q-4 3 -14.5 14.5t-23 24t-24 22t-17.5 9.5z" />
    <glyph glyph-name="Edieresis" unicode="&#xcb;" horiz-adv-x="442" 
d="M85 3q-4 3 -8 6.5t-4 8.5q-5 48 0.5 97t5.5 97q0 60 -3.5 120.5t-7.5 121t-6.5 120.5t-0.5 119q0 6 3.5 13t10.5 8q10 1 23.5 -1t22.5 -1q4 0 15 0.5t23.5 1t23.5 1t15 0.5q1 0 8 1t15 2t14.5 2t8.5 1q6 0 19.5 1t27 0t24.5 -4t12 -12l7 -84q1 -8 -7 -13.5t-15 -6.5
q-20 -2 -40 1.5t-41 1.5q-5 0 -13 -0.5t-16.5 -2.5t-14.5 -6t-6 -12q3 -40 0 -83t1 -84q0 -5 1 -13t6 -13q4 -3 12.5 -4.5t17.5 -1.5t17 0.5t12 0.5t15 1t23 2.5t23 2.5t15 1q3 0 5 -3.5t2 -5.5l7 -65q1 -9 -4.5 -18t-13.5 -10q-22 -3 -44 0.5t-45 1.5q-14 -2 -20 -7.5
t-8 -13.5t-2 -18v-21q0 -3 -1 -14.5t-2.5 -24.5t-2.5 -24t-2 -14q2 -1 1 -6t1 -8q0 -6 2 -14.5t11 -8.5h23.5h35h35h22.5q16 0 29 -3t18 -22q0 -2 1.5 -9.5t3 -17l3 -19t2.5 -14.5v-6q2 -14 -7 -16t-20 -4q-42 -5 -84 -2.5t-84 3.5q-3 1 -15 -0.5t-14 -1.5q-4 0 -14.5 -0.5
t-22 -1.5t-21.5 -1.5t-14 -0.5zM249 815q-4 24 10 43t36 22q6 1 15 -4.5t17 -13.5t14.5 -17t7.5 -15q3 -21 -11.5 -37t-33.5 -19t-36 9t-19 32zM53 797q-3 21 4.5 43t29.5 26q9 1 18 -3t16.5 -11.5t12 -16.5t6.5 -17q2 -20 -5.5 -41t-28.5 -24q-18 -3 -34.5 10.5t-18.5 33.5
z" />
    <glyph glyph-name="aring" unicode="&#xe5;" horiz-adv-x="374" 
d="M249 12q-8 0 -14.5 -3t-13.5 -6t-16 -6t-23 -4q-22 -1 -43 4t-37.5 15.5t-27.5 27t-12 39.5q-2 38 7.5 66.5t28.5 48.5t46.5 34t62.5 24l12 12q0 1 -1 10.5t-1 14.5q-2 29 -4.5 61t-18.5 57q-10 12 -23 24.5t-30 16.5q-7 1 -17.5 1t-20 2.5t-17 8t-7.5 16.5l-3 67
q0 2 3 5t7 5l10 6q4 0 14.5 1.5t22 3t22 3t15.5 1.5h5q21 1 39 -8t32.5 -23t26 -31t20.5 -32v-3q6 -22 14.5 -46t10.5 -45q1 -3 1.5 -15t1 -26.5t1 -27t0.5 -16.5l3 -30t3.5 -41t2.5 -38t1 -20q1 -9 4.5 -21.5t7 -26t6.5 -26t3 -22.5q1 -24 -3 -38.5t-26 -25.5
q-3 -2 -7 -3.5t-8 -3.5l-10 -4q-1 0 -5 -0.5t-6 -0.5q-6 0 -11 2.5t-9 6t-8.5 6.5t-10.5 3zM162 107q1 -13 12.5 -15t22.5 -1h15q1 0 4.5 1.5t3.5 2.5l-3 42q0 5 -4.5 7t-9.5 2q-15 -1 -28 -13t-13 -26zM66 659q1 2 -5 10.5t-8 12.5q-5 10 -7 17.5t-2 18.5q0 45 28 76.5
t75 48.5q9 3 21.5 6t23.5 3q8 0 16 -2.5t16 -4.5t15.5 -4.5t12.5 -6.5t17.5 -15.5t17.5 -15.5q17 -16 21.5 -37.5t4.5 -41.5t-9 -37t-22 -33q-20 -26 -53 -37.5t-68 -11.5q-29 0 -55 17t-40 37zM110 713q10 -18 25.5 -31.5t41.5 -13.5q7 0 15 3t13 7q11 9 18 16t10.5 14.5
t4.5 16.5t1 22v21q0 1 -1.5 4t-2.5 3q-10 12 -19.5 19.5t-26.5 7.5q-24 0 -42 -12t-32 -27q-2 -2 -2 -5q-3 -7 -3 -12.5v-13.5v-19z" />
    <glyph glyph-name="questiondown" unicode="&#xbf;" horiz-adv-x="469" 
d="M305 709q1 -14 -0.5 -28t-8 -26t-19 -20t-32.5 -10q-14 -1 -27 3.5t-24 13t-18.5 19t-8.5 20.5q-1 12 3 24.5t13 22.5t21.5 17t27.5 8q26 2 48 -10t25 -34zM302 521q3 -24 3 -55t-4 -64t-12.5 -64t-21.5 -54q-16 -25 -39 -48.5t-45 -44.5q-15 -23 -12 -48q2 -21 15 -32.5
t39 -9.5q42 5 66.5 29.5t19.5 59.5q-2 18 -6 37t-6 39q-1 7 4.5 17.5t13.5 21t17.5 18t16.5 7.5h5q4 1 16.5 0.5t16.5 -0.5q28 -23 38 -56.5t15 -65.5q2 -17 0 -32.5t-7 -32.5q-18 -76 -70 -117.5t-150 -49.5q-38 -3 -68.5 7.5t-52 29.5t-35 45t-16.5 54q-3 20 -1.5 41t8 41
t20 37.5t35.5 30.5q14 9 32 19.5t28 24.5q13 20 19 47t7.5 55.5t0.5 56t-2 49.5q-2 19 -2.5 32t4.5 21t18.5 13t39.5 7q17 1 26.5 -5t15 -16t7.5 -22.5t3 -22.5z" />
    <glyph glyph-name="exclamdown" unicode="&#xa1;" horiz-adv-x="264" 
d="M62 717q4 23 28.5 35.5t51.5 9.5q30 -4 41.5 -25t7.5 -41q-6 -27 -28 -35.5t-52 -13.5h-1q-14 1 -24 9t-16 18.5t-8 22t0 20.5zM88 584q7 11 25.5 14.5t31.5 1.5q12 -2 17 -11.5t5 -17.5v-18.5t1 -17.5q2 -23 4 -47.5t4 -48.5q-1 -1 -2 -4.5t-1 -4.5q7 -41 8 -79.5
t3 -79.5q5 -53 10 -104.5t10 -104.5q-2 -9 -1 -18.5t-1 -19.5q-2 -11 -13 -15.5t-25 -5.5t-28 -0.5t-23 -0.5q-7 0 -16.5 -3t-15.5 -2q-11 2 -16.5 16.5t-3.5 21.5q1 7 3 25.5t4.5 39.5t5 39t3.5 26v4q0 2 0.5 2.5t0.5 1.5q0 99 -0.5 163.5t-0.5 106.5t1 68t5 48q1 3 3 12.5
t2 12.5z" />
    <glyph glyph-name="degree" unicode="&#xb0;" horiz-adv-x="389" 
d="M82 547q1 2 -5 10.5t-8 12.5q-5 10 -7 17.5t-2 18.5q0 45 28 76.5t75 48.5q9 3 21.5 6t23.5 3q8 0 16 -2.5t16 -4.5t15.5 -4.5t12.5 -6.5t17.5 -15.5t17.5 -15.5q17 -16 21.5 -37.5t4.5 -41.5t-9 -37t-22 -33q-20 -26 -53 -37.5t-68 -11.5q-29 0 -55 17t-40 37zM126 601
q10 -18 25.5 -31.5t41.5 -13.5q7 0 15 3t13 7q11 9 18 16t10.5 14.5t4.5 16.5t1 22v21q0 1 -1.5 4t-2.5 3q-10 12 -19.5 19.5t-26.5 7.5q-24 0 -42 -12t-32 -27q-2 -2 -2 -5q-3 -7 -3 -12.5v-13.5v-19z" />
    <glyph glyph-name="Zcaron" unicode="&#x17d;" horiz-adv-x="512" 
d="M63 21q-2 5 -4 18.5t-4.5 29t-4.5 29t-3 19.5q0 1 -0.5 4.5t-1.5 4.5q0 5 8.5 21t20 34.5t23 35.5t16.5 25q36 53 69 106t66 113q2 2 4.5 5t3.5 5q3 4 9 14.5t13.5 22.5t13.5 23t9 15t11.5 12t6.5 19q-2 6 -6 6l-54 9h-206q-2 0 -5.5 5.5t-3.5 7.5t-2 11.5t-3 12.5
q-1 6 -3 20t-3.5 29t-1 26t5.5 11h3q26 -1 62.5 -2t75.5 -2t78 -2.5t69.5 -2.5t49.5 -1.5l19 -0.5l39 -3l3 -3l1.5 -4.5t2.5 -11l2 -13t1 -9.5q1 -2 2.5 -11t2.5 -14q2 -10 3 -19t-3 -18q-20 -38 -42 -69.5t-44 -63.5q-1 0 -2 -2t-2 -2q-3 -4 -10 -13t-15 -19.5t-15.5 -20
t-10.5 -13.5q-1 -2 -4 -7.5t-6.5 -11.5t-6.5 -11.5t-4 -6.5q-1 -3 -7.5 -13t-14.5 -21.5t-15 -21.5t-9 -12q-2 -5 -7.5 -15t-12 -22t-12 -22.5t-8.5 -14.5q-1 -8 -5 -13.5l-8 -11t-7 -11.5t-1 -14q1 -8 7 -8h1q127 15 256 15q10 0 20.5 -1.5t15.5 -16.5q0 -2 1 -9.5t2 -9.5
q1 -4 1 -11v-8q1 -2 0.5 -14t-0.5 -14q0 -19 1 -32.5t-13 -19.5q-26 -1 -49 -4.5t-48 -4.5q-57 -4 -112.5 -2.5t-112.5 -2.5q-2 0 -10 -1t-18 -2t-18.5 -2t-10.5 -1h-12h-8.5t-8.5 4zM105 878q-1 5 3 6l36 19h3q8 1 13 -6t9 -12q14 -14 29 -27.5t28 -28.5q4 -5 8.5 -14
t11.5 -9h2q10 8 16 18.5t14 20.5q1 1 4.5 5.5t7 9.5t7 9.5t4.5 5.5q3 3 8 9.5t10.5 13t11 11.5t8.5 5t9 -2.5t12 -6.5t11 -8t5 -7q1 -5 -2.5 -11t-6.5 -11q-4 -3 -12 -12.5t-10 -12.5q-2 -8 -11.5 -16t-11.5 -13q-2 -2 -7 -8t-11 -12.5t-11 -13.5t-7 -10q-1 -1 -7 -9t-7 -9
q-5 -7 -14.5 -9.5t-19.5 -2.5q-1 -1 -3 -0.5t-4 0.5q-14 10 -25 22.5t-21.5 26l-21 27t-22.5 25.5q-1 1 -5 5.5l-8 9t-8 8.5t-5 4q-2 1 -5 4t-5 4v2z" />
    <glyph glyph-name="Scaron" unicode="&#x160;" 
d="M28 162q7 19 25.5 24.5t44 3t57 -9.5t65.5 -13q14 1 24.5 7t19.5 15.5t17 21.5t17 24q1 1 2 4.5t1 4.5l-4 59q-2 1 -12.5 10t-16.5 14q-2 2 -7.5 5.5t-7.5 3.5q-35 15 -65.5 24t-57 21.5t-48 34t-37.5 61.5q0 3 -0.5 9t-1.5 12.5t-1.5 12t-0.5 7.5q-1 14 -2.5 30t3.5 30
q1 4 4 14.5t7 21.5t7.5 21t4.5 14v5l3 4.5t8 9.5t9.5 10.5t7.5 8.5q33 37 65.5 56t79.5 24q13 1 38 -3t50 -12t44 -20.5t20 -27.5q1 -9 -1 -24t-6.5 -30t-12 -26.5t-17.5 -12.5q-26 -2 -52 0.5t-52 0.5q-5 0 -20.5 -2t-20.5 -2q-3 -2 -9.5 -4.5t-13 -6.5t-11 -8t-4.5 -8
l5 -60q0 -5 6.5 -9.5t14 -9t15.5 -8t11 -4.5q40 -19 73 -36t57 -40t38.5 -54.5t18.5 -78.5q4 -41 -5.5 -81t-31 -71.5t-54.5 -52.5t-75 -25q-35 -4 -72 -1t-67.5 15t-51.5 35.5t-24 61.5zM89 934q-1 5 3 6l36 19h3q8 1 13 -6t9 -12q14 -14 29 -27.5t28 -28.5q4 -5 8.5 -14
t11.5 -9h2q10 8 16 18.5t14 20.5q1 1 4.5 5.5t7 9.5t7 9.5t4.5 5.5q3 3 8 9.5t10.5 13t11 11.5t8.5 5t9 -2.5t12 -6.5t11 -8t5 -7q1 -5 -2.5 -11t-6.5 -11q-4 -3 -12 -12.5t-10 -12.5q-2 -8 -11.5 -16t-11.5 -13q-2 -2 -7 -8t-11 -12.5t-11 -13.5t-7 -10q-1 -1 -7 -9t-7 -9
q-5 -7 -14.5 -9.5t-19.5 -2.5q-1 -1 -3 -0.5t-4 0.5q-14 10 -25 22.5t-21.5 26l-21 27t-22.5 25.5q-1 1 -5 5.5l-8 9t-8 8.5t-5 4q-2 1 -5 4t-5 4v2z" />
    <glyph glyph-name="dotlessi" unicode="&#x131;" horiz-adv-x="299" 
d="M122 44q-1 5 -2.5 16t-3 23t-3 22.5t-2.5 14.5q-1 7 -3 19.5t-3.5 24.5t-3 21.5t-1.5 10.5q0 6 -2 24t-4.5 39.5t-4.5 41.5t-3 29q0 5 -1 14.5t-1.5 20t-1.5 19t-1 10.5q-1 7 2.5 16t9.5 14q2 1 12.5 2.5t13.5 1.5q15 2 29 2.5t26 -2.5t20 -11.5t11 -24.5
q11 -73 16.5 -148t16.5 -148v-16t-2.5 -22t-8.5 -20t-16 -10l-60 -7q-5 -1 -10 2t-8.5 6.5t-6.5 8t-4 6.5z" />
    <glyph glyph-name="colon" unicode=":" horiz-adv-x="286" 
d="M60 62q0 13 4.5 27t13.5 25.5t23 19t33 7.5q9 0 18 -1t17 -5q20 -19 38.5 -39t18.5 -45q0 -11 -6.5 -23.5t-17.5 -23t-25 -17t-29 -6.5q-20 0 -36.5 7t-28 18.5t-17.5 26t-6 29.5zM63 327q0 13 4.5 27t13.5 25.5t23 19t33 7.5q9 0 18 -1t17 -5q20 -19 38.5 -39t18.5 -45
q0 -11 -6.5 -23.5t-17.5 -23t-25 -17t-29 -6.5q-20 0 -36.5 7t-28 18.5t-17.5 26t-6 29.5z" />
    <glyph glyph-name="semicolon" unicode=";" horiz-adv-x="306" 
d="M87 -163q0 6 12 15.5t26 21.5t26 27t12 33q0 2 0.5 6.5t-3.5 5.5q-16 2 -33.5 5.5t-32.5 11.5t-24.5 21.5t-9.5 34.5q0 17 7.5 35t20 32.5t29.5 23.5t36 9q21 0 38.5 -11.5t29.5 -29t18.5 -38.5t6.5 -39q0 -21 -5.5 -40.5t-12.5 -37.5v-4q-3 -7 -7 -13q-7 -13 -11 -22
q-6 -10 -15.5 -24t-21.5 -27t-26 -22.5t-27 -9.5h-7q-9 8 -17.5 15.5t-8.5 20.5zM68 318q0 13 4.5 27t13.5 25.5t23 19t33 7.5q9 0 18 -1t17 -5q20 -19 38.5 -39t18.5 -45q0 -11 -6.5 -23.5t-17.5 -23t-25 -17t-29 -6.5q-20 0 -36.5 7t-28 18.5t-17.5 26t-6 29.5z" />
    <glyph glyph-name="quotedbl" unicode="&#x22;" horiz-adv-x="493" 
d="M126 421q0 4 5 12.5t12 18t14 18.5t9 14q9 27 10 55.5t-4 56.5q-1 2 -2 10t-2 11q-3 1 -6 0q-6 -1 -11 -3t-12 -3q-12 -2 -25 1.5t-24 11t-19 17.5t-10 21q-3 15 3 31t17 29t26.5 22.5t32.5 12.5q9 2 17.5 -1t16.5 -5q32 -11 44 -36t17 -54q13 -75 -12 -148v-3
q-1 -7 -6 -24t-12.5 -34.5t-16.5 -32t-18 -15.5q-11 -2 -26.5 2.5t-17.5 14.5zM319 436q0 4 5 12.5t12 18t14 18.5t9 14q9 27 10 55.5t-4 56.5q-1 2 -2 10t-2 11q-3 1 -6 0q-6 -1 -11 -3t-12 -3q-12 -2 -25 1.5t-24 11t-19 17.5t-10 21q-3 15 3 31t17 29t26.5 22.5
t32.5 12.5q9 2 17.5 -1t16.5 -5q32 -11 44 -36t17 -54q13 -75 -12 -148v-3q-1 -7 -6 -24t-12.5 -34.5t-16.5 -32t-18 -15.5q-11 -2 -26.5 2.5t-17.5 14.5z" />
    <glyph glyph-name="quotedblbase" unicode="&#x201e;" horiz-adv-x="493" 
d="M126 -187q0 4 5 12.5t12 18t14 18.5t9 14q9 27 10 55.5t-4 56.5q-1 2 -2 10t-2 11q-3 1 -6 0q-6 -1 -11 -3t-12 -3q-12 -2 -25 1.5t-24 11t-19 17.5t-10 21q-3 15 3 31t17 29t26.5 22.5t32.5 12.5q9 2 17.5 -1t16.5 -5q32 -11 44 -36t17 -54q13 -75 -12 -148v-3
q-1 -7 -6 -24t-12.5 -34.5t-16.5 -32t-18 -15.5q-11 -2 -26.5 2.5t-17.5 14.5zM319 -172q0 4 5 12.5t12 18t14 18.5t9 14q9 27 10 55.5t-4 56.5q-1 2 -2 10t-2 11q-3 1 -6 0q-6 -1 -11 -3t-12 -3q-12 -2 -25 1.5t-24 11t-19 17.5t-10 21q-3 15 3 31t17 29t26.5 22.5
t32.5 12.5q9 2 17.5 -1t16.5 -5q32 -11 44 -36t17 -54q13 -75 -12 -148v-3q-1 -7 -6 -24t-12.5 -34.5t-16.5 -32t-18 -15.5q-11 -2 -26.5 2.5t-17.5 14.5z" />
    <glyph glyph-name="quotesinglbase" unicode="&#x201a;" horiz-adv-x="300" 
d="M126 -189q0 4 5 12.5t12 18t14 18.5t9 14q9 27 10 55.5t-4 56.5q-1 2 -2 10t-2 11q-3 1 -6 0q-6 -1 -11 -3t-12 -3q-12 -2 -25 1.5t-24 11t-19 17.5t-10 21q-3 15 3 31t17 29t26.5 22.5t32.5 12.5q9 2 17.5 -1t16.5 -5q32 -11 44 -36t17 -54q13 -75 -12 -148v-3
q-1 -7 -6 -24t-12.5 -34.5t-16.5 -32t-18 -15.5q-11 -2 -26.5 2.5t-17.5 14.5z" />
    <glyph glyph-name="quotedblleft" unicode="&#x201c;" horiz-adv-x="493" 
d="M367 755q0 -4 -5 -12.5t-12 -18t-14 -18.5t-9 -14q-9 -27 -10 -55.5t4 -56.5q1 -2 2 -10t2 -11q3 -2 6 0q6 1 11 3t12 3q12 2 25 -1.5t24 -11t19 -17.5t10 -21q3 -15 -3 -31t-17 -29t-26.5 -22.5t-32.5 -12.5q-9 -2 -17.5 1t-16.5 5q-32 11 -44 36t-17 54q-13 75 12 148
v3q1 7 6 24t12.5 34.5t16.5 31.5t18 16q11 2 26.5 -2.5t17.5 -14.5zM174 740q0 -4 -5 -12.5t-12 -18t-14 -18.5t-9 -14q-9 -27 -10 -55.5t4 -56.5q1 -2 2 -10t2 -11q3 -2 6 0q6 1 11 3t12 3q12 2 25 -1.5t24 -11t19 -17.5t10 -21q3 -15 -3 -31t-17 -29t-26.5 -22.5
t-32.5 -12.5q-9 -2 -17.5 1t-16.5 5q-32 11 -44 36t-17 54q-13 75 12 148v3q1 7 6 24t12.5 34.5t16.5 31.5t18 16q11 2 26.5 -2.5t17.5 -14.5z" />
    <glyph glyph-name="quotedblright" unicode="&#x201d;" horiz-adv-x="493" 
d="M126 421q0 4 5 12.5t12 18t14 18.5t9 14q9 27 10 55.5t-4 56.5q-1 2 -2 10t-2 11q-3 1 -6 0q-6 -1 -11 -3t-12 -3q-12 -2 -25 1.5t-24 11t-19 17.5t-10 21q-3 15 3 31t17 29t26.5 22.5t32.5 12.5q9 2 17.5 -1t16.5 -5q32 -11 44 -36t17 -54q13 -75 -12 -148v-3
q-1 -7 -6 -24t-12.5 -34.5t-16.5 -32t-18 -15.5q-11 -2 -26.5 2.5t-17.5 14.5zM319 436q0 4 5 12.5t12 18t14 18.5t9 14q9 27 10 55.5t-4 56.5q-1 2 -2 10t-2 11q-3 1 -6 0q-6 -1 -11 -3t-12 -3q-12 -2 -25 1.5t-24 11t-19 17.5t-10 21q-3 15 3 31t17 29t26.5 22.5
t32.5 12.5q9 2 17.5 -1t16.5 -5q32 -11 44 -36t17 -54q13 -75 -12 -148v-3q-1 -7 -6 -24t-12.5 -34.5t-16.5 -32t-18 -15.5q-11 -2 -26.5 2.5t-17.5 14.5z" />
    <glyph glyph-name="quoteright" unicode="&#x2019;" horiz-adv-x="300" 
d="M126 421q0 4 5 12.5t12 18t14 18.5t9 14q9 27 10 55.5t-4 56.5q-1 2 -2 10t-2 11q-3 1 -6 0q-6 -1 -11 -3t-12 -3q-12 -2 -25 1.5t-24 11t-19 17.5t-10 21q-3 15 3 31t17 29t26.5 22.5t32.5 12.5q9 2 17.5 -1t16.5 -5q32 -11 44 -36t17 -54q13 -75 -12 -148v-3
q-1 -7 -6 -24t-12.5 -34.5t-16.5 -32t-18 -15.5q-11 -2 -26.5 2.5t-17.5 14.5z" />
    <glyph glyph-name="quoteleft" unicode="&#x2018;" horiz-adv-x="300" 
d="M174 740q0 -4 -5 -12.5t-12 -18t-14 -18.5t-9 -14q-9 -27 -10 -55.5t4 -56.5q1 -2 2 -10t2 -11q3 -2 6 0q6 1 11 3t12 3q12 2 25 -1.5t24 -11t19 -17.5t10 -21q3 -15 -3 -31t-17 -29t-26.5 -22.5t-32.5 -12.5q-9 -2 -17.5 1t-16.5 5q-32 11 -44 36t-17 54q-13 75 12 148
v3q1 7 6 24t12.5 34.5t16.5 31.5t18 16q11 2 26.5 -2.5t17.5 -14.5z" />
    <glyph glyph-name="bullet" unicode="&#x2022;" horiz-adv-x="318" 
d="M60 306q0 16 5 32.5t16 30.5t27.5 23t39.5 9q11 0 22 -1t20 -6q12 -11 24 -22.5t21.5 -24t16 -26t6.5 -28.5q0 -14 -8 -28.5t-21 -27t-29.5 -20.5t-34.5 -8q-24 0 -43.5 8.5t-33 22.5t-21 31t-7.5 35z" />
    <glyph glyph-name="ellipsis" unicode="&#x2026;" horiz-adv-x="586" 
d="M60 42q0 20 15.5 39.5t47.5 19.5q8 0 16 -1t14 -4q17 -14 33 -29t16 -34q0 -8 -6 -17.5t-15.5 -17t-21.5 -12.5t-24 -5q-35 0 -55 19t-20 42zM220 38q0 20 15.5 39.5t47.5 19.5q8 0 16 -1t14 -4q17 -14 33 -29t16 -34q0 -8 -6 -17.5t-15.5 -17t-21.5 -12.5t-24 -5
q-35 0 -55 19t-20 42zM384 42q0 20 15.5 39.5t47.5 19.5q8 0 16 -1t14 -4q17 -14 33 -29t16 -34q0 -8 -6 -17.5t-15.5 -17t-21.5 -12.5t-24 -5q-35 0 -55 19t-20 42z" />
    <glyph glyph-name="equal" unicode="=" horiz-adv-x="511" 
d="M412 373q23 0 30.5 -13.5t7.5 -24.5q0 -5 -0.5 -12.5t-3.5 -14t-9.5 -11t-19.5 -4.5q-23 0 -45 2.5t-45 2.5q-64 0 -127 -5.5t-128 -5.5v28q0 6 0.5 15.5t1.5 18.5q1 11 2 21l54 3h282zM408 261q23 0 30.5 -13t7.5 -23q0 -5 -0.5 -12t-3.5 -13t-9.5 -10.5t-19.5 -4.5
q-24 0 -46.5 2t-45.5 2q-66 0 -130.5 -5t-130.5 -5v26q0 6 0.5 15t1.5 17q1 10 2 21l56 3h288z" />
    <glyph glyph-name="zcaron" unicode="&#x17e;" horiz-adv-x="420" 
d="M41 86q0 21 1 46.5t17 41.5q54 55 102.5 108t95.5 115v8v5t-3 5q-45 2 -90.5 3t-90.5 1q-2 0 -8 7.5t-6 11.5v78q0 11 5 16t13 5q15 0 29 -4t30 -4h221q6 0 11 -7.5t7 -13.5q2 -22 3 -46t1 -47q0 -17 -7.5 -32t-16.5 -26l-143 -166q-5 -7 -5 -13t3.5 -7.5t8.5 -1.5
q26 0 52.5 9t52.5 9q8 0 19.5 -4t11.5 -17v-84q0 -8 -7 -13.5t-12 -7.5q-10 -1 -30.5 -2t-46.5 -3t-54.5 -3.5t-54.5 -3t-46.5 -3t-30.5 -1.5q-1 0 -5.5 -0.5t-6.5 -0.5q-16 0 -20 17v25zM85 702q-1 5 3 6l36 19h3q8 1 13 -6t9 -12q14 -14 29 -27.5t28 -28.5q4 -5 8.5 -14
t11.5 -9h2q10 8 16 18.5t14 20.5q1 1 4.5 5.5t7 9.5t7 9.5t4.5 5.5q3 3 8 9.5t10.5 13t11 11.5t8.5 5t9 -2.5t12 -6.5t11 -8t5 -7q1 -5 -2.5 -11t-6.5 -11q-4 -3 -12 -12.5t-10 -12.5q-2 -8 -11.5 -16t-11.5 -13q-2 -2 -7 -8t-11 -12.5t-11 -13.5t-7 -10q-1 -1 -7 -9t-7 -9
q-5 -7 -14.5 -9.5t-19.5 -2.5q-1 -1 -3 -0.5t-4 0.5q-14 10 -25 22.5t-21.5 26l-21 27t-22.5 25.5q-1 1 -5 5.5l-8 9t-8 8.5t-5 4q-2 1 -5 4t-5 4v2z" />
    <glyph glyph-name="minus" unicode="&#x2212;" horiz-adv-x="503" 
d="M408 317q23 0 30.5 -13t7.5 -23q0 -5 -0.5 -12t-3.5 -13t-9.5 -10.5t-19.5 -4.5q-24 0 -46.5 2t-45.5 2q-66 0 -130.5 -5t-130.5 -5v26q0 6 0.5 15t1.5 17q1 10 2 21l56 3h288z" />
    <glyph glyph-name="periodcentered" unicode="&#xb7;" horiz-adv-x="286" 
d="M60 326q0 13 4.5 27t13.5 25.5t23 19t33 7.5q9 0 18 -1t17 -5q20 -19 38.5 -39t18.5 -45q0 -11 -6.5 -23.5t-17.5 -23t-25 -17t-29 -6.5q-20 0 -36.5 7t-28 18.5t-17.5 26t-6 29.5z" />
    <glyph glyph-name="dotaccent" unicode="&#x2d9;" horiz-adv-x="286" 
d="M60 664q0 10 4 21t11.5 20t19.5 14.5t28 5.5q8 0 16 -1t14 -4q17 -14 33 -29.5t16 -35.5q0 -9 -6 -18.5t-15.5 -17.5t-21.5 -13t-24 -5q-35 0 -55 20t-20 43z" />
    <glyph glyph-name="numero" unicode="&#x2116;" horiz-adv-x="792" 
d="M191 264q2 6 -2.5 14t-12.5 8h-3q0 -8 -0.5 -27.5t-1 -41.5t-1 -42t-0.5 -27v-21q1 -20 4 -39.5t4 -39.5q0 -9 -2.5 -14.5t-13.5 -5.5q-21 -2 -40 -1t-41 -2q-4 2 -7 8l-4 8q0 2 -1.5 11.5t-1.5 12.5q-2 31 -0.5 62t3.5 62q0 51 -1.5 100t6.5 100l-14 281q0 5 0.5 13
t3 15.5t7 13t11.5 5.5h4q24 -2 39.5 -4t21.5 -23q8 -22 17.5 -44t18.5 -42q1 -1 1 -3.5v-3.5q5 -27 16 -55.5t21 -52.5q-2 -10 4 -23t14 -26t14.5 -25t4.5 -20q1 -3 5 -12.5t7.5 -20.5t7 -20.5t5.5 -13.5q1 -3 2.5 -8.5t3.5 -12t3.5 -12.5t1.5 -8q5 -12 7 -25t14 -21
q5 10 5 22q14 111 12.5 218t-3.5 219q1 2 5 8t6 6l80 6q9 0 9 -5t6 -7q-3 -45 0 -88.5t-1 -88.5q-7 -65 -12.5 -127t-0.5 -128l-8 -221q-1 -9 -10 -24.5t-20 -19.5q-2 0 -10.5 -0.5t-10.5 -0.5q-25 -2 -48 -1t-48 5q-13 1 -20 18.5t-10.5 39t-5 41t-2.5 25.5q-1 4 -4 17
t-5 18t-6 18t-8.5 27.5t-8.5 27.5t-6 18zM720 152q9 0 14.5 -5t8.5 -12t4 -15t1 -14t-0.5 -15t-2.5 -17.5t-7.5 -14t-14.5 -5.5q-17 0 -33.5 3t-33.5 3q-48 0 -95.5 -7t-96.5 -7v34q0 8 0.5 19.5t1.5 22.5q1 13 1 27l41 3h212zM481 336q-3 20 -6.5 48.5t-4 59.5t5 61.5
t20 56t41.5 42t70 19.5q22 2 40.5 -4.5t33.5 -17.5t26 -25.5t19 -27.5q0 -3 1.5 -14.5t2.5 -13.5q5 -36 9 -72.5t2.5 -73t-10.5 -72.5t-29 -69q-11 -15 -33.5 -20.5t-40.5 -7.5q-45 -3 -72 6t-42.5 27t-22 43.5t-10.5 54.5zM588 299q2 -1 8 -2t8 -1q8 -1 12.5 4.5t6.5 13
t2.5 14.5t0.5 10q0 7 0.5 19.5l1 25t0.5 21.5v11q0 4 -2 16t-4.5 25t-5 25t-3.5 18q-2 2 -5.5 1.5t-5.5 -0.5q-7 0 -11.5 -6t-7 -14t-4 -16t-1.5 -12v-12v-16.5v-16v-9.5q0 -5 0.5 -18t1 -28t1.5 -28t2 -19q5 -3 5 -6z" />
    <glyph glyph-name="percent" unicode="%" horiz-adv-x="612" 
d="M200 66q0 1 1 2q0 2 1 7.5t2.5 11.5t3 11t1.5 8q26 107 53 211t54 210q0 3 2.5 15.5t3.5 15.5q1 5 4.5 19t8 32.5t10 40t10 40t8 32.5l4.5 18q1 0 1 4t1 4l1 1l1 -1l3 -3l25 -57v-22q0 -1 -1.5 -8t-3.5 -17t-4.5 -21t-3.5 -18q-1 -6 -6 -24.5t-11.5 -43t-14 -52
t-13.5 -51t-9.5 -40.5t-2.5 -20q-9 -32 -15.5 -59t-14.5 -61q0 -3 -2.5 -14t-5.5 -24t-6 -25t-4 -15t-2.5 -10.5t-4 -15t-4 -14.5t-2.5 -10v-3q-2 -2 -5 -14l-4 -16q-1 -3 -3.5 -13.5t-2.5 -12.5q-1 0 -1 -1t1 -1q-1 -3 -2.5 -9.5t-3.5 -14t-3.5 -13.5t-1.5 -8q-1 -8 -3 -14
t-7 -6q-4 0 -9.5 8t-10.5 19.5t-8.5 22.5t-3.5 17v2zM48 695q13 17 33 32.5t52 19.5h2q1 0 2 1h31q20 0 34 -9t24.5 -21.5t18.5 -26t16 -22.5q1 -3 3.5 -12t3.5 -12q11 -38 16 -78t-5 -79q3 -4 0.5 -11.5t-3.5 -9.5q-2 -3 -5 -10.5t-5 -9.5q2 -2 0 -2q-5 -15 -20.5 -31
t-41.5 -19q-29 -3 -53 5.5t-42.5 23.5t-31 33t-16.5 32l-28 96q-5 17 -1.5 42.5t8.5 42.5q2 6 5 12t3 13zM133 514q1 -5 5.5 -13.5t11 -17t16 -14.5t21.5 -4q7 1 10.5 7.5t5 14t1.5 15v9.5t1.5 12.5t1.5 12.5v3v35q-1 2 -2 13.5t-3 16.5q-1 0 -1 1v2q-2 11 -8 23.5t-12 23.5
q-4 5 -9.5 14t-19.5 7q-11 -1 -16.5 -9t-7.5 -18.5t-2.5 -20.5t-0.5 -15v-52q1 -4 2.5 -16t1.5 -16q1 0 2 -6t2 -8zM340 299q13 17 33 32.5t52 19.5h2q1 0 2 1h31q20 0 34 -9t24.5 -21.5t18.5 -26t16 -22.5q1 -3 3.5 -12t3.5 -12q11 -38 16 -78t-5 -79q3 -4 0.5 -11.5
t-3.5 -9.5q-2 -3 -5 -10.5t-5 -9.5q2 -2 0 -2q-5 -15 -20.5 -31t-41.5 -19q-29 -3 -53 5.5t-42.5 23.5t-31 33t-16.5 32l-28 96q-5 17 -1.5 42.5t8.5 42.5q2 6 5 12t3 13zM425 118q1 -5 5.5 -13.5t11 -17t16 -14.5t21.5 -4q7 1 10.5 7.5t5 14t1.5 15v9.5t1.5 12.5t1.5 12.5
v3v35q-1 2 -2 13.5t-3 16.5q-1 0 -1 1v2q-2 11 -8 23.5t-12 23.5q-4 5 -9.5 14t-19.5 7q-11 -1 -16.5 -9t-7.5 -18.5t-2.5 -20.5t-0.5 -15v-52q1 -4 2.5 -16t1.5 -16q1 0 2 -6t2 -8z" />
    <glyph glyph-name="perthousand" unicode="&#x2030;" horiz-adv-x="888" 
d="M200 66q0 1 1 2q0 2 1 7.5t2.5 11.5t3 11t1.5 8q26 107 53 211t54 210q0 3 2.5 15.5t3.5 15.5q1 5 4.5 19t8 32.5t10 40t10 40t8 32.5l4.5 18q1 0 1 4t1 4l1 1l1 -1l3 -3l25 -57v-22q0 -1 -1.5 -8t-3.5 -17t-4.5 -21t-3.5 -18q-1 -6 -6 -24.5t-11.5 -43t-14 -52
t-13.5 -51t-9.5 -40.5t-2.5 -20q-9 -32 -15.5 -59t-14.5 -61q0 -3 -2.5 -14t-5.5 -24t-6 -25t-4 -15t-2.5 -10.5t-4 -15t-4 -14.5t-2.5 -10v-3q-2 -2 -5 -14l-4 -16q-1 -3 -3.5 -13.5t-2.5 -12.5q-1 0 -1 -1t1 -1q-1 -3 -2.5 -9.5t-3.5 -14t-3.5 -13.5t-1.5 -8q-1 -8 -3 -14
t-7 -6q-4 0 -9.5 8t-10.5 19.5t-8.5 22.5t-3.5 17v2zM48 695q13 17 33 32.5t52 19.5h2q1 0 2 1h31q20 0 34 -9t24.5 -21.5t18.5 -26t16 -22.5q1 -3 3.5 -12t3.5 -12q11 -38 16 -78t-5 -79q3 -4 0.5 -11.5t-3.5 -9.5q-2 -3 -5 -10.5t-5 -9.5q2 -2 0 -2q-5 -15 -20.5 -31
t-41.5 -19q-29 -3 -53 5.5t-42.5 23.5t-31 33t-16.5 32l-28 96q-5 17 -1.5 42.5t8.5 42.5q2 6 5 12t3 13zM133 514q1 -5 5.5 -13.5t11 -17t16 -14.5t21.5 -4q7 1 10.5 7.5t5 14t1.5 15v9.5t1.5 12.5t1.5 12.5v3v35q-1 2 -2 13.5t-3 16.5q-1 0 -1 1v2q-2 11 -8 23.5t-12 23.5
q-4 5 -9.5 14t-19.5 7q-11 -1 -16.5 -9t-7.5 -18.5t-2.5 -20.5t-0.5 -15v-52q1 -4 2.5 -16t1.5 -16q1 0 2 -6t2 -8zM340 299q13 17 33 32.5t52 19.5h2q1 0 2 1h31q20 0 34 -9t24.5 -21.5t18.5 -26t16 -22.5q1 -3 3.5 -12t3.5 -12q11 -38 16 -78t-5 -79q3 -4 0.5 -11.5
t-3.5 -9.5q-2 -3 -5 -10.5t-5 -9.5q2 -2 0 -2q-5 -15 -20.5 -31t-41.5 -19q-29 -3 -53 5.5t-42.5 23.5t-31 33t-16.5 32l-28 96q-5 17 -1.5 42.5t8.5 42.5q2 6 5 12t3 13zM425 118q1 -5 5.5 -13.5t11 -17t16 -14.5t21.5 -4q7 1 10.5 7.5t5 14t1.5 15v9.5t1.5 12.5t1.5 12.5
v3v35q-1 2 -2 13.5t-3 16.5q-1 0 -1 1v2q-2 11 -8 23.5t-12 23.5q-4 5 -9.5 14t-19.5 7q-11 -1 -16.5 -9t-7.5 -18.5t-2.5 -20.5t-0.5 -15v-52q1 -4 2.5 -16t1.5 -16q1 0 2 -6t2 -8zM611 306q13 17 33 32.5t52 19.5h2q1 0 2 1h31q20 0 34 -9t24.5 -21.5t18.5 -26t16 -22.5
q1 -3 3.5 -12t3.5 -12q11 -38 16 -78t-5 -79q3 -4 0.5 -11.5t-3.5 -9.5q-2 -3 -5 -10.5t-5 -9.5q2 -2 0 -2q-5 -15 -20.5 -31t-41.5 -19q-29 -3 -53 5.5t-42.5 23.5t-31 33t-16.5 32l-28 96q-5 17 -1.5 42.5t8.5 42.5q2 6 5 12t3 13zM696 125q1 -5 5.5 -13.5t11 -17
t16 -14.5t21.5 -4q7 1 10.5 7.5t5 14t1.5 15v9.5t1.5 12.5t1.5 12.5v3v35q-1 2 -2 13.5t-3 16.5q-1 0 -1 1v2q-2 11 -8 23.5t-12 23.5q-4 5 -9.5 14t-19.5 7q-11 -1 -16.5 -9t-7.5 -18.5t-2.5 -20.5t-0.5 -15v-52q1 -4 2.5 -16t1.5 -16q1 0 2 -6t2 -8z" />
    <glyph glyph-name="fraction" unicode="&#x2044;" horiz-adv-x="269" 
d="M30 67l4.5 18t4.5 19q28 105 56 207.5t56 207.5q1 3 3.5 15.5t3.5 14.5q2 7 9 33.5t15 56.5t15 56.5t9 32.5q0 1 0.5 4.5t1.5 3.5v1q1 0 1 -1q1 0 4 -3l26 -56v-22l-1.5 -7.5l-3.5 -17.5t-4.5 -20.5t-4.5 -17.5q-1 -6 -6 -24t-12 -42t-14.5 -51t-14 -50.5t-10.5 -40
t-3 -19.5q-9 -31 -16.5 -57.5t-15.5 -60.5q0 -3 -2 -14t-5.5 -24t-6.5 -24.5t-4 -14.5t-3 -10t-4 -14.5t-4 -14t-3 -9.5v-3q-1 -3 -4.5 -14.5t-4.5 -14.5q-1 -5 -3.5 -15t-3.5 -12v-3q0 -2 -1.5 -8.5t-3.5 -13.5t-3.5 -13.5t-2.5 -8.5q-2 -7 -4 -13t-6 -6t-10 8t-11 19
t-9 22t-4 17v4z" />
    <glyph glyph-name="florin" unicode="&#x192;" horiz-adv-x="340" 
d="M80 -61q-1 2 -1.5 8.5t-0.5 8.5q-2 14 -1.5 24t5.5 26q-8 51 -14.5 105.5t-7.5 105.5q0 2 1 10.5t3 10.5q2 54 1 105.5t1 105.5q2 26 5.5 57t18.5 59t45 49t86 27q15 2 32 3.5t32 0t25.5 -7t12.5 -17.5q0 -6 -1 -18.5t-5.5 -25t-12.5 -23t-20 -11.5q-14 -1 -28 -0.5
t-29 -1.5q-25 -2 -36.5 -13.5t-15.5 -25.5t-3 -28.5t1 -23.5q-1 -2 -2.5 -9.5t-1.5 -8.5q0 -2 1.5 -12.5t2.5 -15.5q0 -3 1 -14.5t1 -13.5q4 -8 16.5 -7.5t27 3t26 1.5t13.5 -12q1 -4 -0.5 -15t-4.5 -22.5t-6 -21t-6 -9.5l-43 -4q-2 0 -3.5 -15.5t-3 -39.5t-2.5 -52.5
t-1.5 -55t-0.5 -48t1 -29.5q0 -5 1 -18t1.5 -27t1.5 -26.5t1 -17.5q-1 -7 -7.5 -19.5t-23.5 -14.5q-9 -1 -21 -1t-24.5 1.5t-22.5 5t-14 8.5z" />
    <glyph glyph-name="onequarter" unicode="&#xbc;" horiz-adv-x="524" 
d="M118 67l4.5 18t4.5 19q28 105 56 207.5t56 207.5q1 3 3.5 15.5t3.5 14.5q2 7 9 33.5t15 56.5t15 56.5t9 32.5q0 1 0.5 4.5t1.5 3.5v1q1 0 1 -1q1 0 4 -3l26 -56v-22l-1.5 -7.5l-3.5 -17.5t-4.5 -20.5t-4.5 -17.5q-1 -6 -6 -24t-12 -42t-14.5 -51t-14 -50.5t-10.5 -40
t-3 -19.5q-9 -31 -16.5 -57.5t-15.5 -60.5q0 -3 -2 -14t-5.5 -24t-6.5 -24.5t-4 -14.5t-3 -10t-4 -14.5t-4 -14t-3 -9.5v-3q-1 -3 -4.5 -14.5t-4.5 -14.5q-1 -5 -3.5 -15t-3.5 -12v-3q0 -2 -1.5 -8.5t-3.5 -13.5t-3.5 -13.5t-2.5 -8.5q-2 -7 -4 -13t-6 -6t-10 8t-11 19
t-9 22t-4 17v4zM85 427q-3 14 -4 28t-3 28q-4 25 -8 49.5t-9 49.5q-1 2 -2 6t-1 5q-1 3 -4 13t-4 13q-5 7 -13.5 9.5t-9.5 10.5q-1 3 6 15t17.5 25.5t20.5 25.5t15 16q2 0 6 0.5t5 0.5t9 0.5t9 -1.5v-2l36 -293l-1 -6h-1h-3h-10t-14 -0.5t-13 -0.5h-7q-5 0 -10.5 2t-6.5 6z
M399 150q-1 3 -2.5 13t-2.5 13q-2 2 -12.5 2.5t-22.5 0.5t-23 -1t-15 -1q-8 0 -15 -1.5t-14 -1.5q-20 -2 -30.5 1.5t-12.5 15.5q0 1 -0.5 2t-0.5 2v2q2 26 6.5 54t9.5 52q-1 3 -2.5 10t-1.5 14.5t2 13.5t7 7q12 -3 25.5 -5.5t27.5 -3.5q6 -2 7 -4l3 -6q5 -22 0 -42
q-2 -13 -6 -26.5t-2 -25.5q2 -5 6 -5q13 1 27.5 -0.5t28.5 0.5q8 0 8 5q0 3 -1.5 9.5t-3 14t-3 14t-1.5 9.5q0 7 -2.5 20t9.5 17q2 0 9 0.5t9 0.5q9 1 23.5 1.5t19.5 -6.5q2 -3 3.5 -12t1.5 -12q4 -16 3.5 -30.5t1.5 -30.5q0 -4 2 -19t4 -32.5t4 -32.5t3 -19q2 -22 3 -42
t3 -41q2 -12 2.5 -18.5t-4 -10t-15.5 -5t-31 -3.5q-1 0 -6 -1t-7 -1q-7 37 -11.5 73t-10.5 72z" />
    <glyph glyph-name="onehalf" unicode="&#xbd;" horiz-adv-x="516" 
d="M110 67l4.5 18t4.5 19q28 105 56 207.5t56 207.5q1 3 3.5 15.5t3.5 14.5q2 7 9 33.5t15 56.5t15 56.5t9 32.5q0 1 0.5 4.5t1.5 3.5v1q1 0 1 -1q1 0 4 -3l26 -56v-22l-1.5 -7.5l-3.5 -17.5t-4.5 -20.5t-4.5 -17.5q-1 -6 -6 -24t-12 -42t-14.5 -51t-14 -50.5t-10.5 -40
t-3 -19.5q-9 -31 -16.5 -57.5t-15.5 -60.5q0 -3 -2 -14t-5.5 -24t-6.5 -24.5t-4 -14.5t-3 -10t-4 -14.5t-4 -14t-3 -9.5v-3q-1 -3 -4.5 -14.5t-4.5 -14.5q-1 -5 -3.5 -15t-3.5 -12v-3q0 -2 -1.5 -8.5t-3.5 -13.5t-3.5 -13.5t-2.5 -8.5q-2 -7 -4 -13t-6 -6t-10 8t-11 19
t-9 22t-4 17v4zM81 426q-4 13 -5 26.5t-3 26.5q-4 24 -9 48t-10 47q-1 1 -1.5 3t-1.5 4t-1 4q-1 3 -4 13t-5 13q-5 5 -14.5 8t-11.5 10q-1 3 7.5 14.5t19.5 24.5t22.5 24.5t17.5 15.5q2 0 6.5 0.5t6.5 0.5q1 0 9.5 1t10.5 -1v-2l41 -282l-2 -6h-2h-2h-50q-5 0 -11.5 1.5
t-7.5 5.5zM252 36q-1 0 -2 1l-2 2v50q0 9 9 18t22 17t27.5 15.5t26.5 13.5q12 7 26.5 17.5t26.5 22t20 23.5t8 22q0 7 -7.5 12t-22.5 5t-21.5 -3t-17.5 -9q-1 0 -2 -1t0 -2q-2 -1 -6.5 -6t-5.5 -7v-5q0 -7 4.5 -13.5t4.5 -13.5q0 -5 -9 -5h-3q-23 3 -38 4.5t-23.5 4.5
t-11.5 9.5t-3 19.5q0 12 1.5 21.5t7.5 18t18.5 16t35.5 13.5q15 5 30.5 6t32.5 1q57 0 83.5 -17t26.5 -42q0 -7 -0.5 -13.5t-4.5 -12.5q0 -1 -2 -5.5t-4 -6.5q-3 -5 -9 -10.5t-4 -10.5l-41 -41v-1l-20 -17q1 -1 -2 -4t-7 -6t-8 -5.5t-5 -3.5q-2 -2 -11.5 -8.5t-11.5 -8.5
q-2 -1 -6.5 -5t-6.5 -5v-2q0 -4 6 -4h101q7 0 10 -3.5t4 -5.5q0 -3 2 -7l2 -4q0 -1 0.5 -5t0.5 -6q0 -1 -0.5 -3.5t-0.5 -3.5l-1 -2h-24h-38h-30.5t-46.5 0.5t-47 0.5h-31z" />
    <glyph glyph-name="threequarters" unicode="&#xbe;" horiz-adv-x="560" 
d="M138 67l4.5 18t4.5 19q28 105 56 207.5t56 207.5q1 3 3.5 15.5t3.5 14.5q2 7 9 33.5t15 56.5t15 56.5t9 32.5q0 1 0.5 4.5t1.5 3.5v1q1 0 1 -1q1 0 4 -3l26 -56v-22l-1.5 -7.5l-3.5 -17.5t-4.5 -20.5t-4.5 -17.5q-1 -6 -6 -24t-12 -42t-14.5 -51t-14 -50.5t-10.5 -40
t-3 -19.5q-9 -31 -16.5 -57.5t-15.5 -60.5q0 -3 -2 -14t-5.5 -24t-6.5 -24.5t-4 -14.5t-3 -10t-4 -14.5t-4 -14t-3 -9.5v-3q-1 -3 -4.5 -14.5t-4.5 -14.5q-1 -5 -3.5 -15t-3.5 -12v-3q0 -2 -1.5 -8.5t-3.5 -13.5t-3.5 -13.5t-2.5 -8.5q-2 -7 -4 -13t-6 -6t-10 8t-11 19
t-9 22t-4 17v4zM443 132q-1 2 -2.5 12t-2.5 13q-2 2 -12.5 3t-22.5 1t-23 -1t-15 -1q-8 -1 -15 -2l-14 -2q-20 -2 -30.5 1.5t-12.5 15.5q0 1 -0.5 2t-0.5 2v2q2 26 6.5 53.5t9.5 50.5q-1 3 -2.5 10.5t-1.5 15t2 13.5t7 7q24 -7 53 -9q6 -2 7 -4.5t3 -5.5q5 -22 0 -42
q-2 -12 -6 -25.5t-2 -26.5l2.5 -2.5t3.5 -1.5q13 1 27.5 -0.5t28.5 -0.5q8 2 8 6q0 3 -1.5 9.5t-3 13.5t-3 13.5t-1.5 9.5q0 7 -2.5 20t9.5 17q2 0 9 0.5t9 0.5q9 1 23.5 1t19.5 -7q2 -2 3.5 -11t1.5 -12q4 -16 3.5 -30t1.5 -30q0 -4 2 -19t4 -32t4 -32.5t3 -19.5
q2 -21 3 -41t3 -41q2 -12 2.5 -18.5t-4 -9.5t-15.5 -4.5t-31 -3.5q-1 0 -6 -0.5t-7 -0.5q-7 35 -11.5 71t-10.5 72zM46 388q-8 1 -10 12q-1 0 -1 1v2v3q0 1 -0.5 6t-0.5 10t-0.5 10t-0.5 6q-1 4 6 6q5 0 9 -0.5t9 0.5q35 5 51 17t11 50q-1 6 -6.5 17.5t-11.5 14.5l-31 10
q-2 1 -5 4.5t-3 5.5l-3 21q-2 13 10.5 15t20.5 3q6 2 7.5 11.5t0.5 14.5q-2 14 -13 17.5t-24.5 3t-24.5 -1.5t-12 4l-5 38q-1 5 3.5 9.5t9.5 5.5h6q3 0 9.5 0.5t13.5 1t13.5 1t8.5 0.5q4 0 15 0.5t14 0.5q4 0 8 -2q21 -11 35 -25t17 -38q2 -11 -2 -23t-10 -21
q-1 -1 -4.5 -6.5t-4.5 -6.5q-2 -4 -1 -5v-1q16 -14 25.5 -27.5t12.5 -34.5q2 -17 -1 -33t-9 -31q-11 -29 -29.5 -43.5t-50.5 -18.5q-13 -2 -26 -2t-26 -2z" />
    <glyph glyph-name="onesuperior" unicode="&#xb9;" horiz-adv-x="224" 
d="M101 428q-4 15 -5 30.5t-4 29.5q-5 27 -10 54.5t-11 53.5q-2 2 -3 7t-1 6q-1 3 -4.5 14t-5.5 14q-5 7 -16 10t-13 11q-1 4 8 17t22 28t25.5 28t18.5 17q2 0 7 0.5t7 0.5t11.5 1t10.5 -1v-3l46 -319l-1 -7h-3h-2h-55q-7 0 -14 1.5t-8 6.5z" />
    <glyph glyph-name="twosuperior" unicode="&#xb2;" horiz-adv-x="324" 
d="M33 425q-5 2 -5 4v58q0 11 9.5 21t24 19.5t30.5 17.5t29 16t28.5 20t28.5 25.5t21.5 27t8.5 25.5q0 8 -7.5 13.5t-24.5 5.5t-24 -3t-19 -10q-3 0 -3 -3q-2 -2 -6.5 -7.5t-5.5 -7.5q-1 0 -1 -2.5v-3.5q0 -8 5 -16t5 -16q0 -5 -9 -5h-3q-26 4 -42 5.5t-25 4.5t-12 10.5
t-3 22.5q0 14 1.5 25.5t8 21t20 17.5t38.5 16q16 5 33 6.5t35 1.5q62 0 91 -19.5t29 -48.5q0 -8 -1 -15.5t-5 -14.5q0 -1 -2 -6.5t-4 -7.5q-3 -5 -10 -12t-5 -12l-44 -48v-1l-22 -19q2 -3 -9 -11.5t-15 -11.5q-2 -2 -12.5 -9.5t-12.5 -9.5t-7 -6t-7 -6v-2q0 -4 7 -4h110
q7 0 10.5 -4t3.5 -7q1 -2 3 -8q1 -3 2 -5q0 -1 0.5 -5.5t0.5 -6.5t-0.5 -5t-0.5 -4l-2 -2h-26h-40h-33t-51 0.5t-51 0.5h-33z" />
    <glyph glyph-name="threesuperior" unicode="&#xb3;" horiz-adv-x="276" 
d="M55 420q-7 1 -9 3.5t-3 6.5q-1 0 -1 1v2v3q0 2 -1.5 14t-2.5 14q0 2 3 3l6 2q5 0 11 -0.5t11 0.5q45 4 65.5 15t14.5 44q-2 5 -9 15.5t-15 12.5l-39 9q-2 1 -6 4t-5 5l-3 18q-2 6 2.5 9t11 4.5t13.5 2t12 0.5q8 2 10.5 10t0.5 12q-2 13 -17 16t-32 2.5t-31 -1.5t-15 4
l-7 33q-1 5 5.5 9t11.5 4h8q3 0 11.5 0.5t17.5 1t17.5 1t11.5 0.5q5 0 19 0.5t18 0.5t10 -2q27 -9 44.5 -21.5t22.5 -33.5q2 -10 -3 -20.5t-13 -18.5l-5.5 -5.5t-6.5 -5.5q-2 -3 -1 -4l1 -1q20 -13 32 -24.5t16 -30.5q3 -15 -1 -28.5t-12 -27.5q-14 -26 -37.5 -38.5
t-64.5 -16.5q-17 -2 -33.5 -1.5t-33.5 -1.5z" />
    <glyph glyph-name="guilsinglleft" unicode="&#x2039;" horiz-adv-x="220" 
d="M145 489q1 0 2 0.5t2 0.5q3 0 7.5 -9.5t9 -21.5t7.5 -24t3 -17q0 -8 -4.5 -15t-6.5 -12q-1 -2 -5.5 -10.5t-10 -18.5t-10 -18.5t-5.5 -10.5q-2 -5 -8 -16t-12 -23t-11.5 -23.5t-7.5 -15.5q-1 -1 -2 -4t-1 -5q-2 -2 -2 -6q1 -1 1 -2q0 -3 1 -3q0 -2 1 -5.5t2 -3.5
l5.5 -5.5t5.5 -6.5q3 -3 12.5 -15t12.5 -16q1 -2 6 -10t7 -11q1 -1 6.5 -11t7.5 -15q3 -5 8.5 -13t10.5 -17.5t9 -19t4 -16.5q0 -13 -6 -23q-1 -3 -4 -9l-6.5 -13l-6.5 -13t-4 -9q-2 -3 -6 -3q-3 0 -4 0.5t-3 5.5l-4.5 9t-8 14.5t-8 14.5l-4.5 9t-4.5 7.5t-7.5 12t-8 12
t-6 8.5q-1 2 -6 8.5t-11 15t-12 16.5l-9 12q-2 3 -7.5 8.5t-10.5 12t-9 13.5t-4 12v75q0 7 4 15.5t6 10.5q17 30 34.5 60t34.5 62q10 17 18.5 37t17.5 38z" />
    <glyph glyph-name="guilsinglright" unicode="&#x203a;" horiz-adv-x="220" 
d="M75 489q9 -18 17.5 -38t18.5 -37q17 -32 34.5 -62t34.5 -60q2 -2 6 -10.5t4 -15.5v-75q0 -5 -4 -12t-9.5 -13.5t-10.5 -12t-7 -8.5l-9 -12t-12 -16.5t-11 -15t-6 -8.5q-2 -3 -6 -8.5t-8 -12t-7.5 -12t-4.5 -7.5l-4.5 -9t-8 -14.5t-8 -14.5l-4.5 -9q-2 -5 -3 -5.5t-4 -0.5
q-4 0 -6 3q-1 3 -4 9l-6.5 13l-6.5 13t-4 9q-6 10 -6 23q0 7 4 16.5t9 19t10.5 17.5t8.5 13q2 5 7.5 15t6.5 11q2 3 7 11t6 10q3 4 12.5 16t12.5 15q1 2 5.5 6.5l5.5 5.5q1 0 2 3.5t1 5.5v1q0 1 0.5 1t0.5 1t1 2q0 4 -2 6q0 2 -1 5t-2 4q-2 4 -7.5 15.5t-11.5 23.5t-12 23
t-8 16q-1 2 -5.5 10.5t-10 18.5t-10 18.5t-5.5 10.5q-2 5 -6.5 12t-4.5 15q0 5 3 17t7.5 24t9 21.5t7.5 9.5q1 0 2 -0.5t2 -0.5z" />
    <glyph glyph-name="guillemotleft" unicode="&#xab;" horiz-adv-x="364" 
d="M145 489q1 0 2 0.5t2 0.5q3 0 7.5 -9.5t9 -21.5t7.5 -24t3 -17q0 -8 -4.5 -15t-6.5 -12q-1 -2 -5.5 -10.5t-10 -18.5t-10 -18.5t-5.5 -10.5q-2 -5 -8 -16t-12 -23t-11.5 -23.5t-7.5 -15.5q-1 -1 -2 -4t-1 -5q-2 -2 -2 -6q1 -1 1 -2q0 -3 1 -3q0 -2 1 -5.5t2 -3.5
l5.5 -5.5t5.5 -6.5q3 -3 12.5 -15t12.5 -16q1 -2 6 -10t7 -11q1 -1 6.5 -11t7.5 -15q3 -5 8.5 -13t10.5 -17.5t9 -19t4 -16.5q0 -13 -6 -23q-1 -3 -4 -9l-6.5 -13l-6.5 -13t-4 -9q-2 -3 -6 -3q-3 0 -4 0.5t-3 5.5l-4.5 9t-8 14.5t-8 14.5l-4.5 9t-4.5 7.5t-7.5 12t-8 12
t-6 8.5q-1 2 -6 8.5t-11 15t-12 16.5l-9 12q-2 3 -7.5 8.5t-10.5 12t-9 13.5t-4 12v75q0 7 4 15.5t6 10.5q17 30 34.5 60t34.5 62q10 17 18.5 37t17.5 38zM283 484q1 0 2 0.5t2 0.5q3 0 7.5 -9.5t9 -21.5t7.5 -24t3 -17q0 -8 -4.5 -15t-6.5 -12q-1 -2 -5.5 -10.5t-10 -18.5
t-10 -18.5t-5.5 -10.5q-2 -5 -8 -16t-12 -23t-11.5 -23.5t-7.5 -15.5q-1 -1 -2 -4t-1 -5q-2 -2 -2 -6q1 -1 1 -2q0 -3 1 -3q0 -2 1 -5.5t2 -3.5l5.5 -5.5t5.5 -6.5q3 -3 12.5 -15t12.5 -16q1 -2 6 -10t7 -11q1 -1 6.5 -11t7.5 -15q3 -5 8.5 -13t10.5 -17.5t9 -19t4 -16.5
q0 -13 -6 -23q-1 -3 -4 -9l-6.5 -13l-6.5 -13t-4 -9q-2 -3 -6 -3q-3 0 -4 0.5t-3 5.5l-4.5 9t-8 14.5t-8 14.5l-4.5 9t-4.5 7.5t-7.5 12t-8 12t-6 8.5q-1 2 -6 8.5t-11 15t-12 16.5l-9 12q-2 3 -7.5 8.5t-10.5 12t-9 13.5t-4 12v75q0 7 4 15.5t6 10.5q17 30 34.5 60t34.5 62
q10 17 18.5 37t17.5 38z" />
    <glyph glyph-name="guillemotright" unicode="&#xbb;" horiz-adv-x="372" 
d="M75 489q9 -18 17.5 -38t18.5 -37q17 -32 34.5 -62t34.5 -60q2 -2 6 -10.5t4 -15.5v-75q0 -5 -4 -12t-9.5 -13.5t-10.5 -12t-7 -8.5l-9 -12t-12 -16.5t-11 -15t-6 -8.5q-2 -3 -6 -8.5t-8 -12t-7.5 -12t-4.5 -7.5l-4.5 -9t-8 -14.5t-8 -14.5l-4.5 -9q-2 -5 -3 -5.5t-4 -0.5
q-4 0 -6 3q-1 3 -4 9l-6.5 13l-6.5 13t-4 9q-6 10 -6 23q0 7 4 16.5t9 19t10.5 17.5t8.5 13q2 5 7.5 15t6.5 11q2 3 7 11t6 10q3 4 12.5 16t12.5 15q1 2 5.5 6.5l5.5 5.5q1 0 2 3.5t1 5.5v1q0 1 0.5 1t0.5 1t1 2q0 4 -2 6q0 2 -1 5t-2 4q-2 4 -7.5 15.5t-11.5 23.5t-12 23
t-8 16q-1 2 -5.5 10.5t-10 18.5t-10 18.5t-5.5 10.5q-2 5 -6.5 12t-4.5 15q0 5 3 17t7.5 24t9 21.5t7.5 9.5q1 0 2 -0.5t2 -0.5zM227 497q9 -18 17.5 -38t18.5 -37q17 -32 34.5 -62t34.5 -60q2 -2 6 -10.5t4 -15.5v-75q0 -5 -4 -12t-9.5 -13.5t-10.5 -12t-7 -8.5l-9 -12
t-12 -16.5t-11 -15t-6 -8.5q-2 -3 -6 -8.5t-8 -12t-7.5 -12t-4.5 -7.5l-4.5 -9t-8 -14.5t-8 -14.5l-4.5 -9q-2 -5 -3 -5.5t-4 -0.5q-4 0 -6 3q-1 3 -4 9l-6.5 13l-6.5 13t-4 9q-6 10 -6 23q0 7 4 16.5t9 19t10.5 17.5t8.5 13q2 5 7.5 15t6.5 11q2 3 7 11t6 10q3 4 12.5 16
t12.5 15q1 2 5.5 6.5l5.5 5.5q1 0 2 3.5t1 5.5v1q0 1 0.5 1t0.5 1t1 2q0 4 -2 6q0 2 -1 5t-2 4q-2 4 -7.5 15.5t-11.5 23.5t-12 23t-8 16q-1 2 -5.5 10.5t-10 18.5t-10 18.5t-5.5 10.5q-2 5 -6.5 12t-4.5 15q0 5 3 17t7.5 24t9 21.5t7.5 9.5q1 0 2 -0.5t2 -0.5z" />
    <glyph glyph-name="brokenbar" unicode="&#xa6;" horiz-adv-x="180" 
d="M77 38q0 4 -1 13t-2 18.5t-2 17.5t-1 11q0 6 -1 15.5l-2 19t-1.5 16.5t-0.5 8q0 4 -1 18.5t-2.5 31t-2.5 32t-1 22.5q0 4 -0.5 12l-1 16t-1 14t-0.5 8q0 5 1.5 12.5t4.5 11.5q2 0 6.5 1.5t6.5 1.5q15 3 28 0t15 -28q5 -57 8.5 -115.5t8.5 -115.5v-12.5t-1.5 -17.5
t-4.5 -15.5t-8 -7.5l-30 -5q-5 -2 -8.5 6t-5.5 11zM54 405q0 4 -1 12t-2 17t-2 16.5t-1 10.5q0 5 -1 14l-2 18t-2 16t-1 8q0 4 -1 17t-2 28.5t-2 30t-2 21.5q0 4 -0.5 11t-0.5 14.5t-0.5 13.5t-0.5 8q-1 5 1 12t5 11q1 0 6 1t7 1q16 3 29.5 0t16.5 -26q5 -54 8.5 -108.5
t8.5 -108.5v-12t-1.5 -16t-4.5 -14.5t-8 -6.5l-32 -5q-5 -2 -9 5.5t-6 10.5z" />
    <glyph glyph-name="asciicircum" unicode="^" horiz-adv-x="492" 
d="M386 410q-9 0 -14 12t-9 17q-21 35 -47 64.5t-53 60.5q-5 5 -10 5q-4 0 -8 -2l-28 -29l-96 -127q-4 -5 -10.5 -9t-12.5 -4q-10 0 -14.5 11.5t-10.5 17.5q-2 3 -7.5 10t-10.5 13.5t-9.5 12t-4.5 6.5q-2 2 -3.5 6t-1.5 5q-1 5 2.5 10t9 9.5t10.5 8.5t7 6q13 12 36 37.5
t47.5 51t48.5 44.5t40 19q17 0 31.5 -2.5t27.5 -16.5q38 -48 75.5 -93.5t81.5 -89.5q4 -4 4.5 -6.5t0.5 -7.5q0 -3 -9.5 -9.5t-22 -13.5t-24.5 -12t-16 -5z" />
    <glyph glyph-name="asciitilde" unicode="~" horiz-adv-x="612" 
d="M207 257q-7 -1 -8.5 -1.5t-4.5 -2.5q1 -3 4.5 -9.5t6.5 -14t6 -14t3 -9.5q2 -3 0.5 -8.5t-21.5 -5.5l-80 -3q-14 -1 -25.5 1.5t-12.5 6.5q-3 3 -4 6t-4 6q-2 2 -3 3.5t-6 3.5l-27 33v6q1 9 8 18t23 17t43 14t69 8q39 1 66 0t46 -5t32.5 -10t26.5 -14q3 0 8 -3t7 -3
l32 -42q3 -3 16 -4.5t22 -1.5h4q13 0 13 3q-6 11 -7 20.5t-6 18.5q-2 1 -6.5 12.5t-9.5 17.5q0 3 9 3.5t16 2.5q32 0 57 1t43 -6q2 -2 6.5 -7t6.5 -7q2 -3 5.5 -8t3.5 -6q1 -1 1.5 -4.5t1.5 -8t1.5 -8.5t0.5 -5l6 -12t3.5 -11t-4 -11t-17.5 -12q-13 -5 -25 -7t-35 -3
q-75 -3 -136.5 5.5t-89.5 26.5q-3 2 -8 7.5t-12.5 11.5t-18.5 10t-26 4z" />
    <glyph glyph-name="endash" unicode="&#x2013;" horiz-adv-x="503" 
d="M404 281q23 0 30.5 -13.5t7.5 -23.5q0 -5 -0.5 -12t-3.5 -13t-9.5 -10.5t-19.5 -4.5q-23 0 -45.5 2t-45.5 2q-65 0 -128.5 -5t-129.5 -5v27q0 6 0.5 15t1.5 17q1 10 2 21l55 3h285z" />
    <glyph glyph-name="emdash" unicode="&#x2014;" horiz-adv-x="612" 
d="M530 281q17 0 27.5 -4t16.5 -9.5t8.5 -12t2.5 -11.5t-0.5 -12t-5 -13t-14 -10.5t-28.5 -4.5q-34 0 -66 2t-65 2q-94 0 -186.5 -5t-187.5 -5v27q0 6 1 15t2 17q1 10 3 21l79 3h413z" />
    <glyph glyph-name="Ydieresis" unicode="&#x178;" horiz-adv-x="497" 
d="M197 -22q0 4 -0.5 15t-1 23t-1 22.5t-0.5 14.5q-3 70 -3.5 139t-5.5 138q-1 18 -5 26.5t-14 26.5v3q-15 20 -28.5 40.5t-28.5 39.5q-5 7 -15.5 25t-22 38t-21.5 37.5t-14 25.5q0 1 -2.5 6.5t-6 12.5l-7 14l-5.5 11q-4 11 -6.5 16.5t-3.5 15.5q0 7 8.5 14.5t20.5 14
t24 11.5t18 8l2 1q6 0 12 -7.5t11.5 -17.5t10 -20t7.5 -15q35 -51 71.5 -99.5t65.5 -103.5q-1 -2 3 -6q2 -2 4 -3h1h1q1 0 3 1l4 2q2 2 8.5 12.5t8.5 13.5q19 34 35 67.5t34 66.5q1 0 2.5 2t1.5 3q1 2 3.5 9t5.5 14.5t5.5 14.5t3.5 9q1 4 4.5 11.5t8 15t10.5 13.5t12 6
q5 0 6.5 -0.5t5.5 -2.5q1 -1 7.5 -5t14 -8.5t14 -8.5t8.5 -5q11 -5 18.5 -9.5t7.5 -16.5q1 -13 -4.5 -20.5t-12.5 -19.5q-15 -30 -28.5 -61t-31.5 -60q-2 -2 -8.5 -11.5t-14 -20.5t-14 -20.5t-7.5 -12.5q-12 -20 -29.5 -43t-23.5 -46q-5 -20 -3 -39t1 -39q-1 -53 -7 -101.5
t-11 -101.5q-1 -9 0 -22t0.5 -26.5t-4 -25.5t-13.5 -19h-20q-8 0 -18.5 -1t-20.5 0t-18.5 5t-11.5 13zM297 799q-4 24 10 43t36 22q6 1 15 -4.5t17 -13.5t14.5 -17t7.5 -15q3 -21 -11.5 -37t-33.5 -19t-36 9t-19 32zM101 781q-3 21 4.5 43t29.5 26q9 1 18 -3t16.5 -11.5
t12 -16.5t6.5 -17q2 -20 -5.5 -41t-28.5 -24q-18 -3 -34.5 10.5t-18.5 33.5z" />
    <glyph glyph-name="Yacute" unicode="&#xdd;" horiz-adv-x="497" 
d="M197 -22q0 4 -0.5 15t-1 23t-1 22.5t-0.5 14.5q-3 70 -3.5 139t-5.5 138q-1 18 -5 26.5t-14 26.5v3q-15 20 -28.5 40.5t-28.5 39.5q-5 7 -15.5 25t-22 38t-21.5 37.5t-14 25.5q0 1 -2.5 6.5t-6 12.5l-7 14l-5.5 11q-4 11 -6.5 16.5t-3.5 15.5q0 7 8.5 14.5t20.5 14
t24 11.5t18 8l2 1q6 0 12 -7.5t11.5 -17.5t10 -20t7.5 -15q35 -51 71.5 -99.5t65.5 -103.5q-1 -2 3 -6q2 -2 4 -3h1h1q1 0 3 1l4 2q2 2 8.5 12.5t8.5 13.5q19 34 35 67.5t34 66.5q1 0 2.5 2t1.5 3q1 2 3.5 9t5.5 14.5t5.5 14.5t3.5 9q1 4 4.5 11.5t8 15t10.5 13.5t12 6
q5 0 6.5 -0.5t5.5 -2.5q1 -1 7.5 -5t14 -8.5t14 -8.5t8.5 -5q11 -5 18.5 -9.5t7.5 -16.5q1 -13 -4.5 -20.5t-12.5 -19.5q-15 -30 -28.5 -61t-31.5 -60q-2 -2 -8.5 -11.5t-14 -20.5t-14 -20.5t-7.5 -12.5q-12 -20 -29.5 -43t-23.5 -46q-5 -20 -3 -39t1 -39q-1 -53 -7 -101.5
t-11 -101.5q-1 -9 0 -22t0.5 -26.5t-4 -25.5t-13.5 -19h-20q-8 0 -18.5 -1t-20.5 0t-18.5 5t-11.5 13zM128 748q0 3 8.5 12t19 19.5t21 20t15.5 13.5q2 1 8.5 7t7.5 8q3 3 9 9.5t13 13.5l13.5 13.5l8.5 8.5q3 7 15.5 16.5t20.5 9.5q4 0 10 -4t12.5 -9.5t11.5 -10.5t6 -7v-10
v-10t-5 -9q-3 -3 -11 -9.5t-11 -8.5q-33 -23 -66.5 -47.5t-67.5 -47.5q-3 -1 -5 -1.5t-6 -0.5q-11 0 -19.5 8t-8.5 16z" />
    <glyph glyph-name="Igrave" unicode="&#xcc;" horiz-adv-x="355" 
d="M60 46q0 2 1 4.5t0 3.5q1 13 3 31.5t7 30.5q3 7 10 10.5t14.5 6t14.5 5t11 8.5q1 0 1.5 3t0.5 5t0.5 8t1 13.5t0.5 14.5v10q-3 81 -1.5 161t-3.5 160q0 2 -1 8t-1.5 13t-1 13t-0.5 9q-2 9 -9.5 11t-16.5 4t-16 6.5t-8 16.5q0 1 -0.5 2t-0.5 2v20.5t0.5 31t0.5 31v19.5
l5 20t11 14l2 -1h2q15 -3 42 -2.5t55 -1t52.5 -7t34.5 -19.5q5 -6 5 -19t1 -20q3 -43 -2.5 -60t-13 -23t-15.5 -8t-10 -16q-7 -42 -8 -84t0.5 -84t4.5 -83.5t5 -83.5v-10.5v-18.5t0.5 -18.5t0.5 -10.5v-8q1 -12 9 -16t18 -7.5t18.5 -9t10.5 -20.5q0 -7 0.5 -20.5t-1.5 -27
t-7.5 -24.5t-17.5 -12q-20 -4 -45.5 -2t-45.5 0q-3 0 -14.5 -1.5t-24 -3t-24 -2.5t-14.5 -1q-14 -1 -26 5.5t-14 23.5zM60 896q0 5 7.5 12t19 13.5t24.5 11t25 4.5q6 0 7.5 -0.5t6.5 -4.5q4 -2 4.5 -5.5t1.5 -5.5q3 -5 17 -17t28.5 -24.5t26 -22.5t10.5 -11l22 -24
q-1 -2 3 -7t4 -7q0 -7 -14 -13.5t-21 -8.5q-1 0 -2 -0.5t-3 -0.5q-6 0 -15.5 5.5t-19.5 12t-18.5 13t-11.5 8.5q-3 3 -9.5 8t-13 9.5t-12 8t-6.5 4.5q-2 1 -9 5t-15 9t-15.5 9t-9.5 5q-7 4 -9.5 6.5t-2.5 7.5z" />
    <glyph glyph-name="Iacute" unicode="&#xcd;" horiz-adv-x="355" 
d="M60 46q0 2 1 4.5t0 3.5q1 13 3 31.5t7 30.5q3 7 10 10.5t14.5 6t14.5 5t11 8.5q1 0 1.5 3t0.5 5t0.5 8t1 13.5t0.5 14.5v10q-3 81 -1.5 161t-3.5 160q0 2 -1 8t-1.5 13t-1 13t-0.5 9q-2 9 -9.5 11t-16.5 4t-16 6.5t-8 16.5q0 1 -0.5 2t-0.5 2v20.5t0.5 31t0.5 31v19.5
l5 20t11 14l2 -1h2q15 -3 42 -2.5t55 -1t52.5 -7t34.5 -19.5q5 -6 5 -19t1 -20q3 -43 -2.5 -60t-13 -23t-15.5 -8t-10 -16q-7 -42 -8 -84t0.5 -84t4.5 -83.5t5 -83.5v-10.5v-18.5t0.5 -18.5t0.5 -10.5v-8q1 -12 9 -16t18 -7.5t18.5 -9t10.5 -20.5q0 -7 0.5 -20.5t-1.5 -27
t-7.5 -24.5t-17.5 -12q-20 -4 -45.5 -2t-45.5 0q-3 0 -14.5 -1.5t-24 -3t-24 -2.5t-14.5 -1q-14 -1 -26 5.5t-14 23.5zM56 816q0 3 8.5 12t19 19.5t21 20t15.5 13.5q2 1 8.5 7t7.5 8q3 3 9 9.5t13 13.5l13.5 13.5l8.5 8.5q3 7 15.5 16.5t20.5 9.5q4 0 10 -4t12.5 -9.5
t11.5 -10.5t6 -7v-10v-10t-5 -9q-3 -3 -11 -9.5t-11 -8.5q-33 -23 -66.5 -47.5t-67.5 -47.5q-3 -1 -5 -1.5t-6 -0.5q-11 0 -19.5 8t-8.5 16z" />
    <glyph glyph-name="Icircumflex" unicode="&#xce;" horiz-adv-x="355" 
d="M60 46q0 2 1 4.5t0 3.5q1 13 3 31.5t7 30.5q3 7 10 10.5t14.5 6t14.5 5t11 8.5q1 0 1.5 3t0.5 5t0.5 8t1 13.5t0.5 14.5v10q-3 81 -1.5 161t-3.5 160q0 2 -1 8t-1.5 13t-1 13t-0.5 9q-2 9 -9.5 11t-16.5 4t-16 6.5t-8 16.5q0 1 -0.5 2t-0.5 2v20.5t0.5 31t0.5 31v19.5
l5 20t11 14l2 -1h2q15 -3 42 -2.5t55 -1t52.5 -7t34.5 -19.5q5 -6 5 -19t1 -20q3 -43 -2.5 -60t-13 -23t-15.5 -8t-10 -16q-7 -42 -8 -84t0.5 -84t4.5 -83.5t5 -83.5v-10.5v-18.5t0.5 -18.5t0.5 -10.5v-8q1 -12 9 -16t18 -7.5t18.5 -9t10.5 -20.5q0 -7 0.5 -20.5t-1.5 -27
t-7.5 -24.5t-17.5 -12q-20 -4 -45.5 -2t-45.5 0q-3 0 -14.5 -1.5t-24 -3t-24 -2.5t-14.5 -1q-14 -1 -26 5.5t-14 23.5zM155 874q-1 0 -1.5 -0.5t-1.5 -0.5l-90 -92q-1 -3 -7 -3q-3 -1 -11 0t-15.5 3t-14 5t-6.5 6q-1 1 1 4.5t5 6.5t6 5.5t4 2.5q28 30 55.5 59.5t54.5 58.5
q2 0 3.5 2t2.5 2l46 5q4 1 7 -1q2 -3 11 -10.5t12 -9.5l3 -2q1 -2 10.5 -10t11.5 -9l2 -3q2 -1 10 -7t10 -8t10 -8.5t16 -14t14.5 -13.5t6.5 -7l14 -16l1 -1q0 -5 -6 -8q-4 -3 -7.5 -2.5t-8.5 -1.5q-11 -3 -19.5 -12.5t-19.5 -10.5h-4.5t-3.5 1q-3 3 -11.5 10.5t-10.5 9.5
q-4 3 -14.5 14.5t-23 24t-24 22t-17.5 9.5z" />
    <glyph glyph-name="Idieresis" unicode="&#xcf;" horiz-adv-x="355" 
d="M60 46q0 2 1 4.5t0 3.5q1 13 3 31.5t7 30.5q3 7 10 10.5t14.5 6t14.5 5t11 8.5q1 0 1.5 3t0.5 5t0.5 8t1 13.5t0.5 14.5v10q-3 81 -1.5 161t-3.5 160q0 2 -1 8t-1.5 13t-1 13t-0.5 9q-2 9 -9.5 11t-16.5 4t-16 6.5t-8 16.5q0 1 -0.5 2t-0.5 2v20.5t0.5 31t0.5 31v19.5
l5 20t11 14l2 -1h2q15 -3 42 -2.5t55 -1t52.5 -7t34.5 -19.5q5 -6 5 -19t1 -20q3 -43 -2.5 -60t-13 -23t-15.5 -8t-10 -16q-7 -42 -8 -84t0.5 -84t4.5 -83.5t5 -83.5v-10.5v-18.5t0.5 -18.5t0.5 -10.5v-8q1 -12 9 -16t18 -7.5t18.5 -9t10.5 -20.5q0 -7 0.5 -20.5t-1.5 -27
t-7.5 -24.5t-17.5 -12q-20 -4 -45.5 -2t-45.5 0q-3 0 -14.5 -1.5t-24 -3t-24 -2.5t-14.5 -1q-14 -1 -26 5.5t-14 23.5zM205 851q-4 24 10 43t36 22q6 1 15 -4.5t17 -13.5t14.5 -17t7.5 -15q3 -21 -11.5 -37t-33.5 -19t-36 9t-19 32zM9 833q-3 21 4.5 43t29.5 26q9 1 18 -3
t16.5 -11.5t12 -16.5t6.5 -17q2 -20 -5.5 -41t-28.5 -24q-18 -3 -34.5 10.5t-18.5 33.5z" />
    <glyph glyph-name="Ograve" unicode="&#xd2;" horiz-adv-x="486" 
d="M71 172q-1 4 -1.5 11l-1 14t-1 12.5t-0.5 7.5q-1 19 -2 49.5t-2 60.5t-2 53t-1 26q0 30 1.5 65.5t6.5 72t16.5 71t30.5 61.5t48.5 44t71.5 20h20q28 -4 54 -12.5t47 -23t36.5 -34.5t23.5 -48q1 -4 2.5 -19.5t1.5 -20.5q0 -8 0.5 -23.5t0.5 -17.5q0 -10 0.5 -43.5t1.5 -73
t1.5 -77t0.5 -55.5q0 -25 0.5 -57.5t-2 -67.5t-9 -69t-21.5 -61t-39 -44.5t-61 -19.5q-32 -2 -60.5 4t-58.5 16q-30 9 -49 28t-30.5 44t-17 53t-6.5 54zM204 179q2 -21 12.5 -37.5t34.5 -14.5q16 1 24 9.5t11.5 21t4 26.5t1.5 26v8.5t0.5 14t0.5 14v7.5q3 51 3 93.5t-3 93.5
q0 6 -1 19.5t-2 29t-2 29t-1 19.5q-2 6 -7.5 16.5t-12 20t-15 16.5t-16.5 7q-10 -1 -17.5 -9.5t-12 -20.5t-7 -24.5t-3.5 -20.5q-1 -2 -2 -10t-2.5 -18t-3 -19t-1.5 -11v-14v-27t-0.5 -29.5t-0.5 -22.5v-8q0 -2 0.5 -3t0.5 -3v-4l3.5 -35t5.5 -52.5t5 -52.5t3 -35zM152 888
q0 5 7.5 12t19 13.5t24.5 11t25 4.5q6 0 7.5 -0.5t6.5 -4.5q4 -2 4.5 -5.5t1.5 -5.5q3 -5 17 -17t28.5 -24.5t26 -22.5t10.5 -11l22 -24q-1 -2 3 -7t4 -7q0 -7 -14 -13.5t-21 -8.5q-1 0 -2 -0.5t-3 -0.5q-6 0 -15.5 5.5t-19.5 12t-18.5 13t-11.5 8.5q-3 3 -9.5 8t-13 9.5
t-12 8t-6.5 4.5q-2 1 -9 5t-15 9t-15.5 9t-9.5 5q-7 4 -9.5 6.5t-2.5 7.5z" />
    <glyph glyph-name="Oacute" unicode="&#xd3;" horiz-adv-x="486" 
d="M71 172q-1 4 -1.5 11l-1 14t-1 12.5t-0.5 7.5q-1 19 -2 49.5t-2 60.5t-2 53t-1 26q0 30 1.5 65.5t6.5 72t16.5 71t30.5 61.5t48.5 44t71.5 20h20q28 -4 54 -12.5t47 -23t36.5 -34.5t23.5 -48q1 -4 2.5 -19.5t1.5 -20.5q0 -8 0.5 -23.5t0.5 -17.5q0 -10 0.5 -43.5t1.5 -73
t1.5 -77t0.5 -55.5q0 -25 0.5 -57.5t-2 -67.5t-9 -69t-21.5 -61t-39 -44.5t-61 -19.5q-32 -2 -60.5 4t-58.5 16q-30 9 -49 28t-30.5 44t-17 53t-6.5 54zM204 179q2 -21 12.5 -37.5t34.5 -14.5q16 1 24 9.5t11.5 21t4 26.5t1.5 26v8.5t0.5 14t0.5 14v7.5q3 51 3 93.5t-3 93.5
q0 6 -1 19.5t-2 29t-2 29t-1 19.5q-2 6 -7.5 16.5t-12 20t-15 16.5t-16.5 7q-10 -1 -17.5 -9.5t-12 -20.5t-7 -24.5t-3.5 -20.5q-1 -2 -2 -10t-2.5 -18t-3 -19t-1.5 -11v-14v-27t-0.5 -29.5t-0.5 -22.5v-8q0 -2 0.5 -3t0.5 -3v-4l3.5 -35t5.5 -52.5t5 -52.5t3 -35zM120 804
q0 3 8.5 12t19 19.5t21 20t15.5 13.5q2 1 8.5 7t7.5 8q3 3 9 9.5t13 13.5l13.5 13.5l8.5 8.5q3 7 15.5 16.5t20.5 9.5q4 0 10 -4t12.5 -9.5t11.5 -10.5t6 -7v-10v-10t-5 -9q-3 -3 -11 -9.5t-11 -8.5q-33 -23 -66.5 -47.5t-67.5 -47.5q-3 -1 -5 -1.5t-6 -0.5q-11 0 -19.5 8
t-8.5 16z" />
    <glyph glyph-name="Ocircumflex" unicode="&#xd4;" horiz-adv-x="486" 
d="M71 172q-1 4 -1.5 11l-1 14t-1 12.5t-0.5 7.5q-1 19 -2 49.5t-2 60.5t-2 53t-1 26q0 30 1.5 65.5t6.5 72t16.5 71t30.5 61.5t48.5 44t71.5 20h20q28 -4 54 -12.5t47 -23t36.5 -34.5t23.5 -48q1 -4 2.5 -19.5t1.5 -20.5q0 -8 0.5 -23.5t0.5 -17.5q0 -10 0.5 -43.5t1.5 -73
t1.5 -77t0.5 -55.5q0 -25 0.5 -57.5t-2 -67.5t-9 -69t-21.5 -61t-39 -44.5t-61 -19.5q-32 -2 -60.5 4t-58.5 16q-30 9 -49 28t-30.5 44t-17 53t-6.5 54zM204 179q2 -21 12.5 -37.5t34.5 -14.5q16 1 24 9.5t11.5 21t4 26.5t1.5 26v8.5t0.5 14t0.5 14v7.5q3 51 3 93.5t-3 93.5
q0 6 -1 19.5t-2 29t-2 29t-1 19.5q-2 6 -7.5 16.5t-12 20t-15 16.5t-16.5 7q-10 -1 -17.5 -9.5t-12 -20.5t-7 -24.5t-3.5 -20.5q-1 -2 -2 -10t-2.5 -18t-3 -19t-1.5 -11v-14v-27t-0.5 -29.5t-0.5 -22.5v-8q0 -2 0.5 -3t0.5 -3v-4l3.5 -35t5.5 -52.5t5 -52.5t3 -35zM231 862
q-1 0 -1.5 -0.5t-1.5 -0.5l-90 -92q-1 -3 -7 -3q-3 -1 -11 0t-15.5 3t-14 5t-6.5 6q-1 1 1 4.5t5 6.5t6 5.5t4 2.5q28 30 55.5 59.5t54.5 58.5q2 0 3.5 2t2.5 2l46 5q4 1 7 -1q2 -3 11 -10.5t12 -9.5l3 -2q1 -2 10.5 -10t11.5 -9l2 -3q2 -1 10 -7t10 -8t10 -8.5t16 -14
t14.5 -13.5t6.5 -7l14 -16l1 -1q0 -5 -6 -8q-4 -3 -7.5 -2.5t-8.5 -1.5q-11 -3 -19.5 -12.5t-19.5 -10.5h-4.5t-3.5 1q-3 3 -11.5 10.5t-10.5 9.5q-4 3 -14.5 14.5t-23 24t-24 22t-17.5 9.5z" />
    <glyph glyph-name="Otilde" unicode="&#xd5;" horiz-adv-x="486" 
d="M71 172q-1 4 -1.5 11l-1 14t-1 12.5t-0.5 7.5q-1 19 -2 49.5t-2 60.5t-2 53t-1 26q0 30 1.5 65.5t6.5 72t16.5 71t30.5 61.5t48.5 44t71.5 20h20q28 -4 54 -12.5t47 -23t36.5 -34.5t23.5 -48q1 -4 2.5 -19.5t1.5 -20.5q0 -8 0.5 -23.5t0.5 -17.5q0 -10 0.5 -43.5t1.5 -73
t1.5 -77t0.5 -55.5q0 -25 0.5 -57.5t-2 -67.5t-9 -69t-21.5 -61t-39 -44.5t-61 -19.5q-32 -2 -60.5 4t-58.5 16q-30 9 -49 28t-30.5 44t-17 53t-6.5 54zM204 179q2 -21 12.5 -37.5t34.5 -14.5q16 1 24 9.5t11.5 21t4 26.5t1.5 26v8.5t0.5 14t0.5 14v7.5q3 51 3 93.5t-3 93.5
q0 6 -1 19.5t-2 29t-2 29t-1 19.5q-2 6 -7.5 16.5t-12 20t-15 16.5t-16.5 7q-10 -1 -17.5 -9.5t-12 -20.5t-7 -24.5t-3.5 -20.5q-1 -2 -2 -10t-2.5 -18t-3 -19t-1.5 -11v-14v-27t-0.5 -29.5t-0.5 -22.5v-8q0 -2 0.5 -3t0.5 -3v-4l3.5 -35t5.5 -52.5t5 -52.5t3 -35zM188 871
q-4 -1 -4.5 -2t-2.5 -3q1 -4 2.5 -13t3.5 -19.5t3.5 -19.5t1.5 -13q1 -5 0 -12t-12 -8l-44 -4q-8 -1 -14 2.5t-7 8.5q-2 5 -2 8.5t-2 8.5q-2 6 -5 10l-15 45v8q1 12 4.5 25t12.5 24t24 19t38 10q21 2 36 0.5t25.5 -6.5t18 -13.5t14.5 -19.5q2 -1 4.5 -4.5t3.5 -4.5l18 -57
q2 -5 9 -7t12 -2h2q7 0 7 5q-3 14 -3.5 27t-3.5 26q0 1 -1 6t-2.5 11.5t-3 13.5t-2.5 11q0 4 5 4.5t9 2.5q17 1 31 2t24 -8l3.5 -10.5t3.5 -9.5q2 -4 3.5 -10.5t1.5 -8.5q0 -1 0.5 -6t1 -11t1 -11.5t0.5 -6.5q3 -18 5 -32.5t-12 -31.5q-7 -7 -13.5 -9.5t-19.5 -4.5
q-42 -4 -75.5 7.5t-48.5 36.5q-2 3 -4.5 10.5t-7 15.5t-10.5 14t-14 6z" />
    <glyph glyph-name="Odieresis" unicode="&#xd6;" horiz-adv-x="486" 
d="M71 172q-1 4 -1.5 11l-1 14t-1 12.5t-0.5 7.5q-1 19 -2 49.5t-2 60.5t-2 53t-1 26q0 30 1.5 65.5t6.5 72t16.5 71t30.5 61.5t48.5 44t71.5 20h20q28 -4 54 -12.5t47 -23t36.5 -34.5t23.5 -48q1 -4 2.5 -19.5t1.5 -20.5q0 -8 0.5 -23.5t0.5 -17.5q0 -10 0.5 -43.5t1.5 -73
t1.5 -77t0.5 -55.5q0 -25 0.5 -57.5t-2 -67.5t-9 -69t-21.5 -61t-39 -44.5t-61 -19.5q-32 -2 -60.5 4t-58.5 16q-30 9 -49 28t-30.5 44t-17 53t-6.5 54zM204 179q2 -21 12.5 -37.5t34.5 -14.5q16 1 24 9.5t11.5 21t4 26.5t1.5 26v8.5t0.5 14t0.5 14v7.5q3 51 3 93.5t-3 93.5
q0 6 -1 19.5t-2 29t-2 29t-1 19.5q-2 6 -7.5 16.5t-12 20t-15 16.5t-16.5 7q-10 -1 -17.5 -9.5t-12 -20.5t-7 -24.5t-3.5 -20.5q-1 -2 -2 -10t-2.5 -18t-3 -19t-1.5 -11v-14v-27t-0.5 -29.5t-0.5 -22.5v-8q0 -2 0.5 -3t0.5 -3v-4l3.5 -35t5.5 -52.5t5 -52.5t3 -35zM285 835
q-4 24 10 43t36 22q6 1 15 -4.5t17 -13.5t14.5 -17t7.5 -15q3 -21 -11.5 -37t-33.5 -19t-36 9t-19 32zM89 817q-3 21 4.5 43t29.5 26q9 1 18 -3t16.5 -11.5t12 -16.5t6.5 -17q2 -20 -5.5 -41t-28.5 -24q-18 -3 -34.5 10.5t-18.5 33.5z" />
    <glyph glyph-name="Ugrave" unicode="&#xd9;" horiz-adv-x="531" 
d="M377 -7q-9 2 -13.5 11t-7 19t-4 17.5t-5.5 7.5q-6 -1 -15.5 -9t-21.5 -18t-27 -19t-31 -10q-20 -2 -39.5 2t-35.5 14q-36 21 -56.5 52t-32 67.5t-16 76t-8.5 76.5q-7 70 -2.5 139t9.5 140v8.5t1 16t1 16v9.5q1 16 1 28t4 20.5t13.5 14.5t29.5 9q5 1 14.5 -0.5t20 -4.5
t20 -7t12.5 -8q0 -2 1 -7t1 -7q2 -22 1 -46t-4 -48.5t-5.5 -48.5t-3.5 -46q-3 -45 1 -88t9 -88q3 -31 8.5 -60.5t30.5 -51.5q2 -2 11 -9t11 -9q1 0 3.5 -1t3.5 -1h2h1l8 4t8 8q20 41 28.5 81t11 79.5t1.5 80.5t0 85v6.5t0.5 12t1 12.5t0.5 9q0 1 1 8t2 15.5t2 15t1 8.5
q1 26 -1.5 46t0.5 34t16 22.5t46 11.5q6 1 16 2t19.5 0.5t18 -4t12.5 -12.5q0 -5 2 -17.5t3 -16.5q5 -48 1.5 -94t-5.5 -94q-1 -14 1 -31t-1 -33q7 -46 9.5 -91.5t3.5 -91.5l2 -92t4 -92q-2 -8 -5 -16t-12 -9q-21 -2 -37.5 -1t-39.5 -3zM180 840q0 5 7.5 12t19 13.5t24.5 11
t25 4.5q6 0 7.5 -0.5t6.5 -4.5q4 -2 4.5 -5.5t1.5 -5.5q3 -5 17 -17t28.5 -24.5t26 -22.5t10.5 -11l22 -24q-1 -2 3 -7t4 -7q0 -7 -14 -13.5t-21 -8.5q-1 0 -2 -0.5t-3 -0.5q-6 0 -15.5 5.5t-19.5 12t-18.5 13t-11.5 8.5q-3 3 -9.5 8t-13 9.5t-12 8t-6.5 4.5q-2 1 -9 5
t-15 9t-15.5 9t-9.5 5q-7 4 -9.5 6.5t-2.5 7.5z" />
    <glyph glyph-name="Uacute" unicode="&#xda;" horiz-adv-x="531" 
d="M377 -7q-9 2 -13.5 11t-7 19t-4 17.5t-5.5 7.5q-6 -1 -15.5 -9t-21.5 -18t-27 -19t-31 -10q-20 -2 -39.5 2t-35.5 14q-36 21 -56.5 52t-32 67.5t-16 76t-8.5 76.5q-7 70 -2.5 139t9.5 140v8.5t1 16t1 16v9.5q1 16 1 28t4 20.5t13.5 14.5t29.5 9q5 1 14.5 -0.5t20 -4.5
t20 -7t12.5 -8q0 -2 1 -7t1 -7q2 -22 1 -46t-4 -48.5t-5.5 -48.5t-3.5 -46q-3 -45 1 -88t9 -88q3 -31 8.5 -60.5t30.5 -51.5q2 -2 11 -9t11 -9q1 0 3.5 -1t3.5 -1h2h1l8 4t8 8q20 41 28.5 81t11 79.5t1.5 80.5t0 85v6.5t0.5 12t1 12.5t0.5 9q0 1 1 8t2 15.5t2 15t1 8.5
q1 26 -1.5 46t0.5 34t16 22.5t46 11.5q6 1 16 2t19.5 0.5t18 -4t12.5 -12.5q0 -5 2 -17.5t3 -16.5q5 -48 1.5 -94t-5.5 -94q-1 -14 1 -31t-1 -33q7 -46 9.5 -91.5t3.5 -91.5l2 -92t4 -92q-2 -8 -5 -16t-12 -9q-21 -2 -37.5 -1t-39.5 -3zM128 760q0 3 8.5 12t19 19.5t21 20
t15.5 13.5q2 1 8.5 7t7.5 8q3 3 9 9.5t13 13.5l13.5 13.5l8.5 8.5q3 7 15.5 16.5t20.5 9.5q4 0 10 -4t12.5 -9.5t11.5 -10.5t6 -7v-10v-10t-5 -9q-3 -3 -11 -9.5t-11 -8.5q-33 -23 -66.5 -47.5t-67.5 -47.5q-3 -1 -5 -1.5t-6 -0.5q-11 0 -19.5 8t-8.5 16z" />
    <glyph glyph-name="Ucircumflex" unicode="&#xdb;" horiz-adv-x="531" 
d="M377 -7q-9 2 -13.5 11t-7 19t-4 17.5t-5.5 7.5q-6 -1 -15.5 -9t-21.5 -18t-27 -19t-31 -10q-20 -2 -39.5 2t-35.5 14q-36 21 -56.5 52t-32 67.5t-16 76t-8.5 76.5q-7 70 -2.5 139t9.5 140v8.5t1 16t1 16v9.5q1 16 1 28t4 20.5t13.5 14.5t29.5 9q5 1 14.5 -0.5t20 -4.5
t20 -7t12.5 -8q0 -2 1 -7t1 -7q2 -22 1 -46t-4 -48.5t-5.5 -48.5t-3.5 -46q-3 -45 1 -88t9 -88q3 -31 8.5 -60.5t30.5 -51.5q2 -2 11 -9t11 -9q1 0 3.5 -1t3.5 -1h2h1l8 4t8 8q20 41 28.5 81t11 79.5t1.5 80.5t0 85v6.5t0.5 12t1 12.5t0.5 9q0 1 1 8t2 15.5t2 15t1 8.5
q1 26 -1.5 46t0.5 34t16 22.5t46 11.5q6 1 16 2t19.5 0.5t18 -4t12.5 -12.5q0 -5 2 -17.5t3 -16.5q5 -48 1.5 -94t-5.5 -94q-1 -14 1 -31t-1 -33q7 -46 9.5 -91.5t3.5 -91.5l2 -92t4 -92q-2 -8 -5 -16t-12 -9q-21 -2 -37.5 -1t-39.5 -3zM235 826q-1 0 -1.5 -0.5t-1.5 -0.5
l-90 -92q-1 -3 -7 -3q-3 -1 -11 0t-15.5 3t-14 5t-6.5 6q-1 1 1 4.5t5 6.5t6 5.5t4 2.5q28 30 55.5 59.5t54.5 58.5q2 0 3.5 2t2.5 2l46 5q4 1 7 -1q2 -3 11 -10.5t12 -9.5l3 -2q1 -2 10.5 -10t11.5 -9l2 -3q2 -1 10 -7t10 -8t10 -8.5t16 -14t14.5 -13.5t6.5 -7l14 -16l1 -1
q0 -5 -6 -8q-4 -3 -7.5 -2.5t-8.5 -1.5q-11 -3 -19.5 -12.5t-19.5 -10.5h-4.5t-3.5 1q-3 3 -11.5 10.5t-10.5 9.5q-4 3 -14.5 14.5t-23 24t-24 22t-17.5 9.5z" />
    <glyph glyph-name="Udieresis" unicode="&#xdc;" horiz-adv-x="531" 
d="M377 -7q-9 2 -13.5 11t-7 19t-4 17.5t-5.5 7.5q-6 -1 -15.5 -9t-21.5 -18t-27 -19t-31 -10q-20 -2 -39.5 2t-35.5 14q-36 21 -56.5 52t-32 67.5t-16 76t-8.5 76.5q-7 70 -2.5 139t9.5 140v8.5t1 16t1 16v9.5q1 16 1 28t4 20.5t13.5 14.5t29.5 9q5 1 14.5 -0.5t20 -4.5
t20 -7t12.5 -8q0 -2 1 -7t1 -7q2 -22 1 -46t-4 -48.5t-5.5 -48.5t-3.5 -46q-3 -45 1 -88t9 -88q3 -31 8.5 -60.5t30.5 -51.5q2 -2 11 -9t11 -9q1 0 3.5 -1t3.5 -1h2h1l8 4t8 8q20 41 28.5 81t11 79.5t1.5 80.5t0 85v6.5t0.5 12t1 12.5t0.5 9q0 1 1 8t2 15.5t2 15t1 8.5
q1 26 -1.5 46t0.5 34t16 22.5t46 11.5q6 1 16 2t19.5 0.5t18 -4t12.5 -12.5q0 -5 2 -17.5t3 -16.5q5 -48 1.5 -94t-5.5 -94q-1 -14 1 -31t-1 -33q7 -46 9.5 -91.5t3.5 -91.5l2 -92t4 -92q-2 -8 -5 -16t-12 -9q-21 -2 -37.5 -1t-39.5 -3zM297 783q-4 24 10 43t36 22
q6 1 15 -4.5t17 -13.5t14.5 -17t7.5 -15q3 -21 -11.5 -37t-33.5 -19t-36 9t-19 32zM101 765q-3 21 4.5 43t29.5 26q9 1 18 -3t16.5 -11.5t12 -16.5t6.5 -17q2 -20 -5.5 -41t-28.5 -24q-18 -3 -34.5 10.5t-18.5 33.5z" />
    <glyph glyph-name="igrave" unicode="&#xec;" horiz-adv-x="299" 
d="M122 44q-1 5 -2.5 16t-3 23t-3 22.5t-2.5 14.5q-1 7 -3 19.5t-3.5 24.5t-3 21.5t-1.5 10.5q0 6 -2 24t-4.5 39.5t-4.5 41.5t-3 29q0 5 -1 14.5t-1.5 20t-1.5 19t-1 10.5q-1 7 2.5 16t9.5 14q2 1 12.5 2.5t13.5 1.5q15 2 29 2.5t26 -2.5t20 -11.5t11 -24.5
q11 -73 16.5 -148t16.5 -148v-16t-2.5 -22t-8.5 -20t-16 -10l-60 -7q-5 -1 -10 2t-8.5 6.5t-6.5 8t-4 6.5zM20 644q0 5 7.5 12t19 13.5t24.5 11t25 4.5q6 0 7.5 -0.5t6.5 -4.5q4 -2 4.5 -5.5t1.5 -5.5q3 -5 17 -17t28.5 -24.5t26 -22.5t10.5 -11l22 -24q-1 -2 3 -7t4 -7
q0 -7 -14 -13.5t-21 -8.5q-1 0 -2 -0.5t-3 -0.5q-6 0 -15.5 5.5t-19.5 12t-18.5 13t-11.5 8.5q-3 3 -9.5 8t-13 9.5t-12 8t-6.5 4.5q-2 1 -9 5t-15 9t-15.5 9t-9.5 5q-7 4 -9.5 6.5t-2.5 7.5z" />
    <glyph glyph-name="iacute" unicode="&#xed;" horiz-adv-x="299" 
d="M122 44q-1 5 -2.5 16t-3 23t-3 22.5t-2.5 14.5q-1 7 -3 19.5t-3.5 24.5t-3 21.5t-1.5 10.5q0 6 -2 24t-4.5 39.5t-4.5 41.5t-3 29q0 5 -1 14.5t-1.5 20t-1.5 19t-1 10.5q-1 7 2.5 16t9.5 14q2 1 12.5 2.5t13.5 1.5q15 2 29 2.5t26 -2.5t20 -11.5t11 -24.5
q11 -73 16.5 -148t16.5 -148v-16t-2.5 -22t-8.5 -20t-16 -10l-60 -7q-5 -1 -10 2t-8.5 6.5t-6.5 8t-4 6.5zM56 560q0 3 8.5 12t19 19.5t21 20t15.5 13.5q2 1 8.5 7t7.5 8q3 3 9 9.5t13 13.5l13.5 13.5l8.5 8.5q3 7 15.5 16.5t20.5 9.5q4 0 10 -4t12.5 -9.5t11.5 -10.5t6 -7
v-10v-10t-5 -9q-3 -3 -11 -9.5t-11 -8.5q-33 -23 -66.5 -47.5t-67.5 -47.5q-3 -1 -5 -1.5t-6 -0.5q-11 0 -19.5 8t-8.5 16z" />
    <glyph glyph-name="icircumflex" unicode="&#xee;" horiz-adv-x="299" 
d="M122 44q-1 5 -2.5 16t-3 23t-3 22.5t-2.5 14.5q-1 7 -3 19.5t-3.5 24.5t-3 21.5t-1.5 10.5q0 6 -2 24t-4.5 39.5t-4.5 41.5t-3 29q0 5 -1 14.5t-1.5 20t-1.5 19t-1 10.5q-1 7 2.5 16t9.5 14q2 1 12.5 2.5t13.5 1.5q15 2 29 2.5t26 -2.5t20 -11.5t11 -24.5
q11 -73 16.5 -148t16.5 -148v-16t-2.5 -22t-8.5 -20t-16 -10l-60 -7q-5 -1 -10 2t-8.5 6.5t-6.5 8t-4 6.5zM127 622q-1 0 -1.5 -0.5t-1.5 -0.5l-90 -92q-1 -3 -7 -3q-3 -1 -11 0t-15.5 3t-14 5t-6.5 6q-1 1 1 4.5t5 6.5t6 5.5t4 2.5q28 30 55.5 59.5t54.5 58.5q2 0 3.5 2
t2.5 2l46 5q4 1 7 -1q2 -3 11 -10.5t12 -9.5l3 -2q1 -2 10.5 -10t11.5 -9l2 -3q2 -1 10 -7t10 -8t10 -8.5t16 -14t14.5 -13.5t6.5 -7l14 -16l1 -1q0 -5 -6 -8q-4 -3 -7.5 -2.5t-8.5 -1.5q-11 -3 -19.5 -12.5t-19.5 -10.5h-4.5t-3.5 1q-3 3 -11.5 10.5t-10.5 9.5
q-4 3 -14.5 14.5t-23 24t-24 22t-17.5 9.5z" />
    <glyph glyph-name="idieresis" unicode="&#xef;" horiz-adv-x="299" 
d="M122 44q-1 5 -2.5 16t-3 23t-3 22.5t-2.5 14.5q-1 7 -3 19.5t-3.5 24.5t-3 21.5t-1.5 10.5q0 6 -2 24t-4.5 39.5t-4.5 41.5t-3 29q0 5 -1 14.5t-1.5 20t-1.5 19t-1 10.5q-1 7 2.5 16t9.5 14q2 1 12.5 2.5t13.5 1.5q15 2 29 2.5t26 -2.5t20 -11.5t11 -24.5
q11 -73 16.5 -148t16.5 -148v-16t-2.5 -22t-8.5 -20t-16 -10l-60 -7q-5 -1 -10 2t-8.5 6.5t-6.5 8t-4 6.5zM189 587q-4 24 10 43t36 22q6 1 15 -4.5t17 -13.5t14.5 -17t7.5 -15q3 -21 -11.5 -37t-33.5 -19t-36 9t-19 32zM-7 569q-3 21 4.5 43t29.5 26q9 1 18 -3t16.5 -11.5
t12 -16.5t6.5 -17q2 -20 -5.5 -41t-28.5 -24q-18 -3 -34.5 10.5t-18.5 33.5z" />
    <glyph glyph-name="smileface" unicode="&#x263a;" horiz-adv-x="1412" 
d="M415 32q-3 0 -6 1.5t-6 1.5h-3q-1 0 -2 1q-2 0 -6 1.5t-6 1.5q-1 2 -4 2h-5h-2v1h-2q-1 0 -2 1h-2v1h-2q-1 0 -1 1q-2 0 -3 1q-1 0 -3 1q-1 0 -3.5 1t-4.5 2h-5q-7 3 -14 6.5t-14 6.5q-4 2 -7 4.5t-7 4.5q-3 0 -3 2q-2 1 -4 2.5t-4 2.5q-1 0 -1.5 -0.5t-1.5 -0.5
q-3 0 -4 1t-3 2t-1.5 1.5t-1.5 1.5q-2 2 -8 7t-8 7q0 1 -1 3t-2 2q0 3 -3 3q-1 0 -1 1q-1 1 -1 2q-3 4 -5.5 7t-5.5 7l-2 2q-1 1 -1 2q-2 2 -3.5 4t-2.5 4q-1 0 -1 1v2q-1 0 -1.5 1t-1.5 1l-1 1q-3 1 -6 6q-3 3 -3 4q-8 9 -11 19q1 0 -2 3q-1 2 -2 3.5t-2 3.5q-2 6 -4.5 11
t-4.5 10q-2 4 -3 6.5t-2 5.5q-2 5 -3.5 10t-3.5 10q0 4 -3 6h-1q-1 0 -1 1l-1 2v2q0 2 -1 6t-2 6q-2 2 -2.5 5t-1.5 6v6q-2 14 -3 28t-1 28v1v1v10v5v8q2 2 1.5 4.5t0.5 4.5q0 2 1 10t1 9v1l2 18v1l1 1q1 5 1.5 8.5t1.5 7.5t2 7l2 6v4l2 8l2 8l4 12l4 12q2 5 3 8.5t3 7.5h-1
l-1 -1q-1 0 -1 -1q-3 -8 -8 -8q-4 0 -4 3q0 7 5 14.5t10 12.5l2 3q1 2 2.5 4t3.5 4q2 3 4 5.5t4 5.5q6 6 7 9l1 1q1 1 3 2.5t3 2.5q1 0 1 1l1 1l1 2q0 2 4 4q2 2 3 4l1 1l4 4t4 3q1 1 2.5 3t1.5 3q4 3 7 5.5t6 4.5l1 2q2 1 4.5 4t3.5 4q0 1 1 1t2 1l1 2l2 1l2 2l1 1l1 1
q1 0 2.5 1.5l2.5 2.5q3 4 7 7q0 1 1.5 1.5t2.5 1.5q3 2 6.5 4.5t6.5 5.5q1 1 2.5 1.5t3.5 1.5h1q3 3 5 3h1q1 0 2 1q3 2 5.5 3t5.5 3l2 2h1q3 3 11 7q1 0 1.5 1t2.5 2h2q1 0 1 0.5t1 0.5l1 1q1 0 1 0.5t1 0.5v1l3 1l1 1q6 2 8 4q1 0 2.5 1t2.5 1l2 1q1 0 1 1h1q2 1 3 1t3 1
l4 2l4 2q3 1 5 1t5 1q0 1 1 1q3 1 5 1.5l6 1.5h2l4 2h6l2 1h9q1 0 3 1t3 1t3.5 0.5t3.5 0.5h6h2q1 0 1.5 0.5t1.5 0.5h4h13h3l4 1q1 0 5 1t5 1t2 0.5t2 0.5h4q2 0 3 0.5t2 0.5h1q1 0 1 0.5t1 0.5h3l1 1h2q1 0 1 1q2 0 7 0.5t7 0.5h1h2h18q6 0 11.5 -1t11.5 -2q1 -1 7 -3
q4 -1 10 -3q3 0 7.5 -2t5.5 -2l3 -2q2 0 2 -1q2 0 4 -1q4 -2 5 -3t2.5 -1.5t3.5 -1.5t4.5 -2.5t4.5 -2.5l3 -3q3 -3 3 -2l2 -1l1 -1l1 -1q3 -3 6 -3l2 -3q2 -2 4 -3t4 -3v-1q2 -4 6 -5t7 -2q3 0 6 -3q1 -2 6 -3l2 -1q2 -2 5 -4t6 -5q2 -1 4 -3l3 -3q0 -1 1 -2q0 -1 1 -1
q1 -1 1.5 -1t1.5 -1q1 0 1 -1q3 -6 8 -11q0 -1 1 -3t1 -3q1 -1 5 -7q4 -4 7 -12l12 -21l1 -1q1 -1 1 -2q2 -5 5 -9.5t5 -9.5q2 -4 4 -10l2 -2q2 -3 2.5 -6.5t2.5 -5.5t2.5 -4.5t2.5 -4.5q2 -3 2 -6t2 -6q2 -5 3.5 -10t3.5 -10l1 -2q4 -8 4 -15v-3q-1 -1 -2 -1q-2 0 -4 3
t-3 5q-1 0 -1 1v2v2q-1 0 -1 1v2q-2 2 -3.5 9t-3.5 7v-2v-2v-14l1 -1q2 -6 4 -10q2 -2 2.5 -5.5t2.5 -6.5l1 -2q1 -2 1.5 -4.5t2.5 -4.5q2 -5 3.5 -8.5t2.5 -8.5q1 -2 1 -5t1 -5l1 -2q2 -4 2 -8v-7v-5q0 -1 -0.5 -1.5t-0.5 -1.5h-1q-3 0 -4 3v2v2l-1 1q-1 0 -1 1v1
q0 2 -0.5 3.5t-0.5 3.5h-1v1q-1 5 -2.5 9.5t-2.5 9.5q-1 0 -1 2l-1 2q0 1 -1.5 3.5t-1.5 3.5q-2 2 -2 3.5t-2 3.5q-2 6 -3 8l-1 1v2h-1l-2 6q-1 0 -1 2q0 1 -1 1q-1 1 -1 2v2l-1 1q-1 2 -1 5q-3 7 -6.5 13t-5.5 12q-3 3 -3 5l-1 3q-1 1 -3 5l-1 3q-1 2 -2 3t-1 3
q-3 5 -5.5 10t-5.5 9l-1 2q-1 1 -1 2l-3 5l-2 4t-3 4q-2 4 -4 7l-4 6q-1 0 -2 1q-1 0 -1 1h-1q-5 5 -6 9l-1 1v1v1q2 4 2 6q0 1 -2 3q-2 3 -6 7l-2 2l-2 2q0 1 -1 2l-14 13q-1 1 -3 4q-2 2 -4 2.5t-4 1.5q-1 0 -1 1q-1 1 -1 2q-1 1 -2.5 1.5t-3.5 1.5l-9 6q-1 0 -1 0.5
t-1 0.5t-1 1q-2 2 -5 3.5t-6 2.5q-4 3 -8 5q-7 2 -12.5 6t-11.5 7q-2 2 -1 4.5t-1 4.5q-3 3 -7 3q-3 1 -6.5 2t-6.5 2h-1h-2q-2 1 -6.5 1.5t-6.5 1.5q-2 -1 -5 0t-7 1l-2 -1h-1h-2h-2q-1 0 -1 1h-7h-7.5t-7.5 -1q-3 -1 -5 -1.5t-4 -3.5v-1h3h13q3 0 10.5 -0.5t9.5 -0.5h5
t6 -2q1 0 1 -1l-2 -2h-10q-8 0 -16 0.5t-16 0.5h-6h-2h-15q0 -1 -1 -1h-2h-7q-5 0 -10 -1.5t-10 -1.5q-1 -1 -4 -0.5t-4 0.5q-1 -1 -2 -1h-3q-1 -1 -6 -1.5t-6 -1.5q-7 -1 -13.5 -1t-12.5 -2q-1 0 -1.5 -0.5t-1.5 -0.5q-1 -1 -2 -1q-5 -2 -8.5 -2.5t-8.5 -2.5h-2
q-2 -2 -6 -3t-7 -3q-4 0 -4 -2q-1 0 -1 -0.5t-1 -0.5h-1h-1l-1 -1q-1 0 -1 -0.5t-1 -0.5q-1 -1 -2 -1q-1 -1 -2 -1t-1 -1q-3 -2 -11 -6l-4 -2q-1 0 -2 -1t-1 -2q-1 -1 -2 -1t-1 -1q-1 -1 -2 -1t-1 -1q-6 -4 -8 -7q-1 0 -2 -1q-2 0 -3.5 -2t-3.5 -4l-2 -2q-2 -1 -3.5 -2
t-4.5 -1l-4 4q-2 -2 -4 -8l-1 -3q-3 -3 -5 -3q-7 0 -7 7v2l1 2v3q-3 0 -8 -5q-1 -1 -2 -1.5t-2 -2.5t-1.5 -2.5t-1.5 -2.5q-8 -9 -19 -17v-1q-2 -2 -4 -4.5t-3 -2.5l-1 -1q-2 -5 -5 -9.5t-5 -9.5v-1q-2 -5 -3 -8.5t-2 -8.5q-2 -5 -3.5 -8.5t-2.5 -8.5v-5q0 -1 -0.5 -1.5
t-0.5 -1.5l-1 -1q0 -4 -2 -6l-1 -2h-1l-1 1q-1 0 -1 2q0 1 -1 2v2q0 3 1 6t2 5q0 4 1 4v1q0 1 0.5 1t0.5 1v1q0 2 1 4q0 2 0.5 2.5t0.5 1.5v1h-1l-6 -13q-1 -2 -2 -3l-2 -2q0 -4 -2 -4v-3h-1q0 -1 -0.5 -1.5t-0.5 -1.5q-1 -2 -1.5 -4.5t-1.5 -4.5q-2 -2 -2 -4q-1 -2 -1 -3
t-1 -2l-3 -6t-2 -6l-3 -11v-2l2 2q1 0 1 1h1l1 -3q-1 -1 -1 -2q-1 -1 -1 -5q0 -5 -1 -8q-1 -1 -3 -5v-1q-1 -1 -3 -5l-2 -4q-1 -1 -1 -3v-3q-7 -16 -8 -31v-8v-6v-4v-3v-2v-6q0 -5 0.5 -9.5t0.5 -9.5v-4q-1 -2 -2 -2.5t-1 -1.5h1v-3q0 -3 0.5 -5.5t1.5 -6.5v-3v-2
q0 -1 0.5 -1.5t0.5 -1.5v-1q0 -1 1 -2q1 -5 2 -10.5t2 -10.5q3 -3 2 -3l2 -1v-1q3 -3 3 -4v-1q0 -2 -0.5 -3t-0.5 -3v-1h1l-1 -1q0 -1 0.5 -3t0.5 -4l1 -1h-1v-1v-1l2 -3v-4v-2q0 -1 1 -2q1 -2 1 -6l1 -2l1 -1v-2q0 -2 2 -4v-1v-1h1v-3q1 -1 1 -2q0 -2 1 -2v-1h2v-3v-2
q0 -1 1 -2q0 -1 1 -2q0 -1 1 -2l1 -1v-1v-1v-1q3 -3 4.5 -7.5t3.5 -8.5q0 -1 1 -2t2 -1q2 -4 3 -7l2 -2q0 -1 1 -2v-2q2 -2 3.5 -4t3.5 -4q1 0 2 4q2 4 3 5q1 0 1 -0.5t1 -0.5q3 -1 6 -7l-1 -5v-1l1 -4q0 -1 0.5 -2t0.5 -2q2 -8 6 -14v-1h1q1 0 1 -1t1 -1q0 -2 2 -4h1v-2h2
q3 -2 5 -5t5 -5h1v-1q4 -4 8.5 -7.5t8.5 -6.5q2 3 2.5 5.5t5.5 2.5q3 0 6 -3v-1l1 -2t4 -5q-1 -1 1.5 -2.5t3.5 -2.5l2 -1l1 -1q0 -1 -0.5 -1t-0.5 -1h1l2 -1l1 -1q1 -1 4.5 -3t3.5 -3h1l1 -1h2l1 -1q0 -1 1 -1h1l1 -1l2 -1h1q2 -2 5 -2.5t5 -2.5v-1h3q1 0 2 -0.5t2 -0.5
l1 -1q0 -1 1 -1h2h2q2 -1 3.5 -2t3.5 -1v-1q1 1 1 2t1 2q2 5 6 5q1 1 5 1q1 -1 2 -1t1.5 -0.5t1.5 -0.5q2 0 2 -0.5t1 -0.5q8 -2 10 -2l1 -1q8 -2 10 -2q2 -1 4.5 -2t4.5 -2h5h5v-1h9v-1q1 0 3.5 -0.5t3.5 -0.5q0 -1 1 -1h2h3l1 -1q2 0 3 -0.5t3 -0.5h3q1 0 2.5 -0.5
t2.5 -0.5q1 -1 3 -1t3 -1h7h2h9q3 0 5.5 -0.5t4.5 -0.5q0 1 1 1h1q0 -1 1 -1h2h2l1 1h2v-1h2q1 0 1 1h5h2h10v1h3l3 1q1 0 4 0.5t4 0.5l2 1h2h2q2 0 6 2v-1l1 1h1h3q1 0 2 1h2q4 2 7 2t6 2q2 -1 3 -2t3 -1q1 0 2 1h1h3q2 2 5 2.5t6 2.5q0 2 2 2q4 2 7 3t7 3l3 1l1 1h1
q1 0 3.5 1.5t3.5 1.5l1 1q4 0 6 2h2h3q1 -1 1 -2v-1l-1 -1q-1 0 -1 -1q-1 0 -1 -1t-1 -2q-3 -3 -10 -5q-3 -2 -5.5 -3t-5.5 -3q-5 -2 -8.5 -3.5t-7.5 -3.5q-3 -2 -6.5 -3t-5.5 -3h-3l-1 -1q-2 -1 -3 -1t-3 -2q-2 -1 -3.5 -1.5t-3.5 -1.5h-1q-2 0 -3 -0.5t-3 -0.5h-2l-2 -1
q-1 -1 -2 -1t-2 -1q-4 -1 -6.5 -2t-5.5 -2q-2 0 -3.5 -0.5t-2.5 -0.5q-7 0 -9 -1h-2h-6l-2 -1h-5h-3q-1 0 -2 -1l-1 1h-14t-13 1l-2 1q-1 0 -1.5 -0.5t-2.5 0.5q-6 0 -11.5 0.5t-11.5 0.5q-1 1 -3 1q-3 0 -3 -2l1 -1q0 -1 0.5 -1.5t0.5 -1.5q0 -3 -3 -3q-2 0 -4 1t-3 1h-2
q-4 0 -7 1t-7 2q-2 1 -5 1h-6q-2 0 -4 1zM453 33v-1v1zM446 33h2q0 3 3 0l-1 1q-1 0 -1 1h-1q-2 0 -2 -1v-1zM431 36q1 0 1 0.5t-1 0.5v-1zM331 83q-1 0 -1 0.5t1 0.5v-1zM679 94q0 1 0.5 1t0.5 1t1 1t2 1v1h1q3 2 5 5q1 0 2 1h2q0 1 1 1t1 1l1 1q1 0 2 1t1 2t1 2l2 1
q1 0 2 1q3 2 5 5t4 5l1 1l2 1l2 2v1h1q1 1 2.5 2t2.5 2l1 2q0 1 2 3l3 3h1q1 1 2 2.5t2 2.5q0 4 3 4l4 4q0 1 2 1q3 0 3 -3l-1 -2q-2 -4 -4.5 -6t-4.5 -5q0 -1 -1 -2t-1 -2l-3 -3q-1 -1 -1 -2t-1 -1t-1 -1q-1 -1 -1 -2h-1l-1 -1q-1 0 -1 -1q-1 -1 -1 -2h-1l-1 -1q-1 0 -1 -1
q-1 0 -2.5 -2.5t-2.5 -2.5l-2 -1l-7 -7q-5 -4 -11 -8.5t-12 -6.5h-1q0 -1 -1 -1h-2l-1 1v1zM969 139v7l1 1v1v1v2q0 1 1 1.5t1 2.5q1 0 1 2t1 3v2q1 2 2.5 3t2.5 2v3h2v1q0 1 1 2q0 1 1 3v2h-2q-2 0 -4 -0.5t-4 -0.5h-5h-3q-1 0 -2 1h-1q-1 -1 -2 -1h-3h-10h-2h-25
q-4 1 -6.5 1.5t-6.5 1.5q0 1 -1 1q-2 0 -2 1l-1 1q-1 0 -3 1.5t-2 2.5l-1 1q-1 0 -2 1q0 1 -1 1.5t-1 1.5q-6 4 -10 5h-1q-3 2 -7 1.5t-7 0.5h-4h-1q-2 0 -5 -0.5t-6 -0.5h-3q-4 -1 -14 -3q-8 -4 -14 -4h-1q-2 0 -2 1v1h-6l-6 6v1q-3 -2 -3 -5t-1 -5l-1 -3v-3q-4 -4 -10 -8
q-1 -1 -2.5 -1t-2.5 -2l-6 -1q0 -1 -1 -1q-4 -1 -7 -2t-7 -2h-1q-5 -1 -9 -1.5t-9 -0.5h-6h-2q-1 0 -1.5 0.5t-1.5 0.5l-2 1h-3h-1q-2 2 -4.5 2t-4.5 1l-1 1q-1 0 -1 1l-3 1q-4 2 -6.5 4t-6.5 4l-2 1q-2 0 -4.5 -2.5l-4.5 -4.5h-2q-6 -4 -15 -8q-8 -4 -16.5 -5.5t-16.5 -3.5
h-1q-1 0 -2 0.5t-2 0.5t-1.5 -0.5t-2.5 -0.5h-4h-1h-1q0 1 -3.5 1.5t-4.5 0.5t-3.5 0.5t-4.5 0.5q-1 0 -2 1q-3 3 -3 2h-2q-1 0 -2 1l-1 1q-2 2 -5 3t-5 3q-3 3 -3 5q-1 0 -3.5 2.5t-3.5 2.5q0 1 -1 2l-5 5q-1 2 -1 5q0 2 0.5 2.5t0.5 2.5t-2.5 5.5t-3.5 5.5v3q-7 9 -7 18
q0 6 3 10v2q2 2 4 2q0 1 0.5 2t0.5 2q3 3 6.5 4.5t7.5 3.5l3 1.5l3 1.5q8 2 12 2q2 1 4.5 1t4.5 1h18q2 -1 3.5 -0.5t3.5 0.5l2 -1q2 0 3 1q0 1 0.5 2.5t0.5 2.5q0 2 1 5t1 4q3 0 3 4l1 2q2 6 8 11t12 9q0 1 1 1l1 1l3 1q2 1 7 2t5 2q5 -1 11 -0.5t11 0.5h5l4 -1h3
q1 -1 3.5 -1h3.5l5 -2q1 -1 2 -1h2q0 -1 1 -1t2 -1q2 -1 2.5 -1.5t2.5 -1.5l5 -3q2 -1 3 -2.5t3 -1.5l2 2v2l2 2q0 1 1 1v1q0 1 1 2q0 1 1 2v1q3 4 5 7.5t5 6.5q4 2 10 6q2 1 3 2t3 2q1 1 1 4q1 1 1.5 3.5t1.5 3.5q0 1 1 2q0 2 2 6q1 2 2 3.5t3 3.5v2q2 3 5 6q2 1 2 2.5
t2 2.5q3 3 4 6q1 1 5 3q0 1 1 2l1 1q2 1 4.5 2.5t5.5 3.5l2 1q1 0 2 1q4 2 6 2q5 3 10 5h1q2 0 2 1l2 1h2q1 0 2 0.5t2 0.5h1q1 0 1 0.5t1 0.5l1 1q2 1 4 1.5t4 1.5v1h3q6 1 11 2t10 1h5h5q0 -1 1 -1h2h3q1 0 1 -1q3 -2 5.5 -3.5t4.5 -3.5q17 -11 25 -30q0 -2 1 -5t2 -5v-2
v-2q0 -1 1 -2l1 -1q1 -1 1.5 -2.5t1.5 -2.5q6 -8 7 -13q1 -1 1 -2v-4v-3q0 -1 0.5 -2t0.5 -2v-6v-6q0 -2 -0.5 -3.5t-0.5 -3.5q0 -4 1 -4q2 0 2.5 0.5t2.5 0.5q4 2 7 2h7h5h2q8 0 15 -1t14 -4v-1q3 0 6 -3l1 -1q2 -2 6 -2q1 0 2 1l1 1h1l1 2l1 1q3 2 5 3.5t5 3.5l2 1
q4 2 5 3h2q1 0 1 1l2 1h3q1 0 1 1q3 1 6 1t5 1q3 0 5 1t4 1h12q2 1 3.5 0.5t3.5 -0.5q1 0 2 1v-1h1h3q1 -1 3 -1t2 -1h2h2q1 0 1 -0.5t1 -0.5q3 -1 5 -1t4 -1h2q3 -2 6 -3t6 -3q2 -1 4 -1.5t4 -1.5l2 -1l5 -5q0 1 3.5 -1.5t4.5 -2.5q0 -1 1 -2t2 -1h3l1 -1l1 1l2 1h2l1 2
q1 0 2.5 0.5t2.5 0.5l2 1v-1h-1q1 0 2.5 0.5t3.5 0.5v1h6l3 1h4h1h1h-1h2h6q7 0 11 -1h1l1 -1h2h1q1 -1 2 -1q1 -1 3 -1q1 0 2.5 -1t2.5 -1q0 -1 1 -1l1 -1h1q0 -1 1 -1t1 -0.5t1 -0.5q1 -1 2 -1v-1q0 -1 1 -1h2l2 -1l3 -2l1 -1q0 -1 1 -1q0 -1 1 -2l2 -2h1l1 -2
q1 -1 1 -1.5t1 -1.5l1 -2q1 -1 0.5 -1t0.5 -1h1l-1 -2q1 -2 2.5 -2.5t3.5 -1.5q0 -1 1.5 -1.5t1.5 -1.5q2 -1 6 -8l2 -2v-2v-4v-1q-1 -2 -1 -4.5t-1 -4.5q1 0 -2 -3l-1 -1v-4h-1v-1v-1v-1v-4v-1v-1v-3h-2q-1 0 -1 -1v-2l-2 -1h-1q0 -1 -2 -1q-1 0 -2 -1q0 -1 -0.5 -1
t-0.5 -1v-1l-1 -1h-1l-1 -1l-2 -2l-1 -1q0 -1 -1 -1h-2v-2q0 -1 -2 -1.5t-3 -0.5h-2q-1 -1 -2 -1t-1 -1q-2 -1 -4.5 -1t-4.5 -1l-1 -1h-2q-2 0 -2 -1h-3h-6h-7q-1 1 -2.5 0.5t-3.5 -0.5l-1 1q-1 0 -2 -1q0 1 -1 2h-2q-2 1 -5 2t-4 2q-6 3 -10 6v1l-2 2h-1h-1q0 3 -2 3l-1 1
q-1 0 0 1q-2 0 -3 -0.5t-3 -0.5q-5 -1 -8 -1t-8 -2q-2 0 -4 -1l-4 -2l-1 -1h-2l-3 -2q-1 0 -5 -1.5t-6 -2.5h-3h-2h-2h-20h-8l-1 -2l2 -4q1 -2 1 -3v-2v-2q0 -1 1 -1l1 -1v-4l1 -1v-1v-2q-1 -1 -1 -2v-2q0 -2 -0.5 -3t-0.5 -3l-2 -4l-2 -4q-1 -1 -1 -3q-2 -6 -11 -11h-1
q-1 0 -1 -0.5t-1 -0.5q-1 -1 -2 -1h-13q-4 -4 -12 -8v-1h-2l-2 -1l-1 -1q-2 0 -3.5 -1t-3.5 -1l-2 -1h-2l-1 -1q0 -1 -1 -1h-2h-2l-2 -1h-1h-1h-1q-3 -1 -8 -1q-2 0 -3 -0.5t-3 -0.5h-3h-1h1h-7h-2q-1 0 -1 1h-8l-2 1q-1 0 -2.5 0.5t-2.5 0.5h-2q-2 0 -3.5 1.5t-2.5 1.5
q-3 2 -7 8q0 1 -0.5 3.5t-1.5 3.5v5v1h1zM983 134q0 -1 0.5 -1.5t0.5 -1.5q2 -5 7.5 -6t10.5 -1h1q2 0 2 -1q0 1 1 1h1h3h5h1h5h2q1 0 1 1l1 -1l2 1h5q2 0 2 1q7 0 9 1l1 2v-1l1 1h2v1h2q2 1 2.5 1.5t2.5 1.5q0 1 1 1l1 1v1q-1 1 -1 2q-1 1 -1 3q-1 0 -1 1v2l-1.5 3l-1.5 3
v4v3q1 0 1 3l-1 1v1q0 2 2 4.5t4 2.5h4l2 -1l2 -2l5 -5q1 -2 2.5 -4.5t2.5 -4.5v-1q0 -3 3 -3q2 0 2 1t2 1v1h2v1q2 0 2 3l1 2q0 1 0.5 1t0.5 2v1l1 1v2q0 1 0.5 1.5t0.5 1.5q2 2 2 3q-1 2 -1 3.5t-1 3.5q0 1 -3 4q-1 2 -1 3.5t-1 3.5v3v2l-4 4q-1 0 -1 1t-1 2q0 1 -2 3v6
q1 1 1 1.5t1 1.5q0 1 3 2t4 1l2 -1q4 0 4 -3h3v-1l1 -2q4 -4 8 -5q1 -1 2 -1l1 -1h1q1 0 2 -0.5t2 -0.5h4h3l1 1h6l2 1h2h1q1 0 1 0.5t1 0.5l1 1l1 -1q3 0 6 3l2 1v2v2l-2 1q1 0 1 1v4l1 2h1q3 6 8 6q2 0 3.5 -0.5t3.5 -1.5h1l2 -1h1q2 -1 2.5 -2t2.5 -2q3 0 3.5 3t2.5 4
q0 1 1 1l2 1q1 1 3 1h1q0 -1 1 -1h2q1 -1 3 -1q0 -1 1 -1l2.5 -2.5t2.5 -3.5q1 -1 0.5 -2t0.5 -3l1 -2v-2q0 -1 1 -1l1 -1v-2q0 -1 1 -1q0 -1 1 -1l1 -1l2 -2q2 -2 3 -2q0 -1 1 -1q1 -1 2 -1h3h1l5 -2q2 2 3 2v-1h3v-1h3l1 1l1 -1q2 0 3 1t3 1q-1 1 -3.5 2t-3.5 2h-1h-1
l-1 1q-1 0 -1 1q-2 0 -4.5 1.5t-3.5 1.5h-1q-1 0 -2 1l-3 2q-1 0 -2 1q0 1 -2 2.5t-2 2.5h-2q-1 0 -1 1q-1 0 -1 1l-1 1v1q-1 0 -1 1v1v2l-1 1v1l-1 1q-1 0 -1 1v1v1v2v1v1v1q2 0 1.5 2t0.5 4l1 -1q0 4 1 4q1 1 5 3h2q1 0 1 1h1v2q1 0 2 0.5t2 0.5h2q0 3 3 3h1h1
q1 0 1.5 0.5t1.5 0.5h-1l3 1l1 1h2h1l2 1h1l1 -1q1 1 2 1t2 1h1h1q0 2 5 2l1 -1q2 0 3 1t2 1h1l2 -1l3 1q1 0 1 1h-2v2q-1 1 -2 1t-2 2l-1 2h-2q0 1 -3 2q-2 1 -4 1q0 1 1 1l-2 1h-1l-1 2l-1 -1v1h-2q0 1 1 1q-2 1 -5.5 1.5t-3.5 1.5h-5h-1q-2 1 -8 1q-1 1 -2 1h-2l-1 -1h-5
l-1 -1h-5.5t-6.5 -1l-1 -1h-2q-3 0 -3 -2q-1 0 -1 -1t-1 -1l-1 -1q0 -1 0.5 -3t1.5 -2q-3 -4 -4 -8v-1l-3 -3l-2 -2l-1 -1h-1l-1 -1q-4 -2 -10 -2h-2l-2 2l-1 1q-1 0 -1 1t-0.5 4t-0.5 4q1 2 1 4q0 3 1 4l1 1q1 1 1 1.5t2 1.5q0 1 1 1v1h1q0 2 -1.5 3.5l-2.5 2.5h-1h-1
q-8 6 -11 8q-1 -1 -2 0h-1l-1 1l-2 2h-2v2h-2q-1 0 -1 1h-2q-1 0 -1 1h-1l-1 1h-1h-1q-1 0 -1 0.5t-1 0.5h-1q-3 1 -9 1q0 1 -3 1t-4 1h-2h-2h-17q-3 -1 -5.5 -0.5t-4.5 -1.5l-2 -1h-8q-1 0 -2 -1l-2 -2q-3 0 -5 -1q0 -1 -1 -2t-2 -1h-2l-1 -1q-1 -1 -2 -1t-3 -2v-2
q-2 -2 -2.5 -2t-0.5 -3q0 -1 1.5 -3.5t2.5 -3.5l1 -1q0 -1 1 -2q2 -1 3.5 -5t1.5 -6q0 -6 -4 -7h-2h-1h-2q-4 0 -8 2q-5 3 -9 11q0 3 -1 3v2v6v1l-1 2q-2 4 -12 8v1h-2q-4 1 -7.5 1.5t-8.5 1.5h-1q-1 0 -1.5 -0.5t-1.5 -0.5h-3h-4q-5 0 -14.5 -3t-11.5 -8q-1 -2 -1 -3
q-1 -1 -1 -2v-1q-2 -3 -3 -3q-3 0 -4 -1h-1q-4 0 -4 2q-5 0 -7 -2q-2 -1 -2.5 -2t-1.5 -2q-4 -2 -7.5 -2.5t-7.5 -2.5l-1 -1q0 -1 -1 -1h-1q-2 -1 -4.5 -1.5t-4.5 -1.5v-1h-2q-1 0 -4 -0.5t-5 -0.5q-4 -1 -12 -1t-12.5 1.5t-9.5 4.5q-6 2 -8 3v2l-1 1q-1 0 -1 1t-0.5 1
t-0.5 1q-1 1 -1 3q-3 4 -3 12v2q0 2 1 5t1 4t1 2q0 1 0.5 1t0.5 1v1q2 4 3 7q1 2 3 4q3 6 7 9l3 3q1 1 1 1.5t2 1.5q1 0 2 1q1 0 1.5 0.5t1.5 0.5t2 1l2 2q4 2 8 2t7 1h1q4 0 12 -2.5t10 -4.5q1 -2 3 -4.5t3 -2.5q0 -1 0.5 -2.5t0.5 -2.5v-2q0 -1 1 -2h1l2 -6t1 -5
q0 -5 -4 -9q-1 -1 -3 -3.5t-3 -3.5l-2 -1q-2 -2 -3 -2h-1q-3 0 -3 3q0 4 1.5 7t2.5 7q0 2 -0.5 3.5t-0.5 3.5v3q0 1 -2 1v1q-6 8 -12 8q-4 0 -10 -3.5t-7 -7.5q0 -1 -0.5 -3t-0.5 -3v-1q-1 -1 -3.5 -1h-3.5q-2 0 -4 2t-1 5t-1 3q-4 -3 -6 -6t-4 -8q0 -1 -0.5 -1t-0.5 -1v-1
v-10q1 -2 0.5 -4t1.5 -4l1 -1l1 -1q0 -1 1 -2t2.5 -1.5t2.5 -1.5q1 0 1.5 -0.5t1.5 -0.5h1q2 0 6 -2l1 -1h6q5 0 10.5 0.5t10.5 2.5h3l1 1h3l2 2l3 1l1 1l5 2.5t4 1.5q0 1 1 1q2 1 5 4q1 0 1 1q5 3 10 8t7 11q0 1 1 3q0 2 0.5 2.5t0.5 1.5l1 1v1l1 3v2v5q0 9 -3 17.5
t-11 13.5q-2 2 -5.5 3.5t-5.5 3.5q-5 0 -5 4v3q0 5 6 5q2 0 3.5 -0.5t3.5 -0.5v-1v2q0 1 -1 3t-1 3q-2 5 -6 9l-7 7q0 2 -4 2l-1 1l-2 1q-2 2 -4.5 2.5t-4.5 2.5h-2h-1l-3 1h-5q-15 0 -26 -4q-1 0 -1 -1t-1 -1h-2h-1q-1 0 -2 -1l-2 -1q-2 -1 -3 -0.5t-2 -0.5h-1
q-2 -1 -4.5 -2.5t-4.5 -1.5q-2 -2 -7 -4t-6 -3q-3 -2 -5 -3.5t-4 -3.5t-5.5 -5t-5.5 -6v-1q-2 0 -2 -4l-2 -1q-3 -3 -5 -9q-1 -2 -1.5 -3.5t-0.5 -5.5h1h2q1 0 1 0.5t1 0.5h1l2 -1h2h3q16 -4 16 -17q0 -5 -3 -8.5t-6 -6.5l-1 -2q-2 -2 -5 -2.5t-5 -2.5q-1 0 -1.5 -0.5
t-1.5 -0.5l-3 -1l-3 -1h-2h-1h-2h-2q-5 3 -7 7q-3 3 -3 5v7l-1 1q-1 -1 -1.5 -0.5t-1.5 -1.5q-5 -5 -10.5 -14t-5.5 -16q0 -3 3.5 -7t3.5 -7v-4q0 -5 -1 -7q0 -3 -2 -5q-1 -2 -1 -3q-1 -1 -1 -2v-1q0 -1 -1 -2t-2 -1q0 -1 -0.5 -1t-0.5 -1q-1 -1 -1 -2q0 -2 -2 -4
q-1 -2 -2 -3q-4 0 -4 -4q-3 -3 -2 -3l-1 -1q0 -1 -2.5 -2.5t-2.5 -2.5q-4 0 -4 -3q-2 -2 -5 -3t-5 -3q-6 -2 -9 -2q-1 0 -2.5 -0.5t-2.5 -0.5l-2 1q-1 0 -4.5 0.5t-4.5 0.5l-2 1l-4 2l-2 -1l1 -1v-1v-1q0 -1 1 -2q0 -1 1 -1q1 -1 2 -1q0 -2 3 -2q1 0 2 -1q4 -6 7 -12
q0 -1 0.5 -1.5t0.5 -1.5h1q1 0 2 -1l1 -2q1 0 1 -1q2 0 2 -2l2 -1q2 -2 6 -2l1 -1q5 -2 8.5 -2h7.5h7l1 1h1h5h1q1 0 1 0.5t1 0.5h3h1l2 1q1 0 2 1q1 0 3 1t3 1t2 1t2 1q2 1 4 3q7 5 7 11q0 4 -1 7t-1 7v1v2q3 4 11 4l3 -1h1q5 -1 9 -5l2 -1h1l4 -4t7 -2h2l1 1h5h1h1h1h2
q1 0 2 1l2 1h1q6 0 10 1h3h2h8h3h5q1 0 2.5 -0.5t2.5 -0.5t3.5 -0.5t3.5 -1.5l2 -1h1l3 -1l1 -1q3 -2 5 -3t4 -3v-1h2l1 -1q0 -1 1 -1l1 -1q2 -3 7 -5h1q3 -1 12 -1h3l2 -1q2 0 3 0.5t3 0.5q1 0 2 -0.5t3 -0.5t4 0.5t4 0.5h13h2l1 1l1 -1l1 1q4 0 8 1h1l1 1l1 2l4 2h2
q1 0 1 1h1q1 0 1.5 0.5t1.5 0.5h1q4 0 5 2q3 0 3 4q1 -1 3 1q1 0 2 -1q1 0 2.5 -0.5t2.5 -0.5l1 -1q0 -1 1 -1q4 -3 5 -5l1 -2l1 -2v-1q0 -2 -0.5 -3l-1.5 -3v-1l-1 -1q-3 -3 -7 -4.5t-8 -3.5q-3 -3 -7 -4q-4 -3 -5.5 -6.5t-4.5 -6.5v-1q-1 -1 -1 -4q-2 0 -2 -3
q-1 0 -1 -2.5t-1 -3.5v-4v-1v-4zM1036 127q1 0 1 -0.5t-1 -0.5v1zM386 157q0 -1 -1 0l1 1q0 2 -3 5v3l-2 1q0 1 -1 1h-1l-2 -2q-4 -2 -6 -2q-5 0 -7 2.5t-5 4.5v1l-1 2v2v1l-1 1v1v2q0 1 0.5 1.5t0.5 1.5v2q0 1 2 3l3 3l3 3t4 1q2 0 3.5 -0.5t3.5 -0.5h1l2 -2l1 -1h1l3 -3h2
q2 0 2 2v-1h1q1 0 1.5 0.5t1.5 0.5t1.5 -0.5t1.5 -0.5t4 5q2 5 2.5 9t2.5 9q0 2 0.5 5.5t0.5 6.5v5v2v4q0 3 2 5v4v9q0 1 0.5 3.5t0.5 3.5v11q0 1 1 3.5t1 4.5q1 1 2 1.5t2 2.5q1 1 2 1v15q-2 2 -1.5 2.5t0.5 2.5t-2 8h-3h-3q-1 -1 -2 -1q-1 -1 -2 -1h-1h-3q-2 0 -3.5 -0.5
t-3.5 -0.5h-2q-1 -1 -3 -1h-3v-1h-1h-2h-4q-2 0 -3 1l-3 2q-1 0 -2.5 1t-2.5 1l-2 1v1l-3 3q-2 0 -2 1l-2 3l-2 2l-1 1v1l-1 1q-1 2 -2 5t-4 3q-2 0 -4 -1l-4 -2q-1 0 -1 -0.5t-1 -0.5h-2h-1q-2 -1 -3 -2t-3 -2h-1q-1 0 -1 -0.5t-1 -0.5q-1 -1 -2 0q0 -1 -3 -1l-3 -1
q-5 2 -5 6t1 6h1q3 3 5 4q4 0 4 1h1h2q1 0 2 1h1q1 0 1 0.5t1 0.5h2q6 2 10 2q3 0 3 3q0 1 -0.5 1t-0.5 1q-1 0 -1 1h-2h-8t-8 -1q-1 0 -1.5 -0.5t-1.5 -0.5q-4 -2 -7.5 -3t-8.5 -1h-3h-1h-1q-2 4 -2 7q0 5 8 7h3q2 1 5 1t5 2h16q5 0 7 1l1 2v13q-1 2 -1 4v1l1 2l1 4l2 2
q1 0 1 1q0 2 1 2v2l1 2v1q0 1 1 1q2 0 2 1l1 2l2 2l1 2q0 1 1 2q1 2 1.5 2t1.5 2v-1l1 1l1 1q2 2 3.5 3t3.5 3q0 1 1 1q2 0 2 1v2v3v1q-2 6 -3 11.5t-3 10.5v12q-1 1 -1 2v4v6v12v13v1q0 1 0.5 1t0.5 1q-1 1 -1 2v2l1 1v5q1 6 1 11.5t1 10.5v4q1 0 1 1t1 2v6q1 2 2 5t2 5
q2 5 4.5 10t4.5 10q1 0 1 0.5t1 0.5q0 1 2.5 4t3.5 5q1 1 1 2l1 4q1 0 1 1l1 1q0 1 1.5 3t2.5 3v1q0 1 0.5 1t0.5 1v1l1 1q2 5 4.5 8.5t4.5 8.5l1 1q1 4 5 8l2 1q2 2 2 3.5t2 3.5l1 1q3 0 3 2l2 1h2q1 0 1 0.5t1 0.5l1 1h2q5 -3 6 -5q0 -1 0.5 -1t0.5 -1v-1v-2q0 -1 1 -2
l-1 -3q-1 -1 -1.5 -2.5t-1.5 -3.5q-2 -2 -2 -4t-1 -4l-1 -1q-1 -2 -1 -4.5t-1 -4.5q0 -2 -1 -7.5t-1 -6.5q-2 -6 -2.5 -13t-1.5 -14v-4.5t-1 -4.5v-2v-1q0 -2 -0.5 -11t-0.5 -11v-15q-1 -2 -1.5 -3.5t-1.5 -2.5h-1h-2q-3 -2 -3 -5q0 -1 -0.5 -1.5t-0.5 -2.5v-3q0 -2 -0.5 -4
t-0.5 -3l1 -1q0 -1 1 -1v-3v-3l-1 -2q0 -6 -1 -8v-2v-3q0 -2 -1 -4t-1 -4q0 -1 -0.5 -2.5t-0.5 -2.5q-1 -3 -2 -6.5t-2 -5.5q0 -2 -1 -3.5t-1 -3.5q-1 -2 -2 -3.5t-1 -3.5t1 -2h2q1 0 2 1h15l1 1q1 1 1 2t1 2q1 2 1.5 3.5l1.5 4.5l1 3q1 3 2.5 6.5t2.5 5.5q0 4 2 6
q4 15 14 33q2 5 5 9.5t5 9.5q2 4 3 6.5t3 6.5v1q0 1 1 2q2 2 2 3q3 6 5 12t5 12q1 0 2 2.5t2 3.5q2 6 4.5 12.5t5.5 12.5q1 4 3.5 7.5t4.5 6.5v1q1 2 1.5 2.5l2.5 2.5q4 2 6 4v1q0 1 0.5 1t0.5 1q2 2 2 6l2 1q1 0 1 1q1 1 1 2t2 3q2 1 3.5 0.5t3.5 1.5q2 -2 5 -2v-1
q3 -5 3 -10q0 -3 -0.5 -5t-0.5 -4q-2 -5 -1.5 -9.5t0.5 -9.5q-1 0 -1 -1v-2v-15q0 -4 -2 -12q0 -1 -1 -5t-2 -6v-1l-2 -2l-1 -1l-1 -2v-3q0 -1 -1 -2.5t-2 -3.5l-1 -1v-4l-1 -1l-4 -10l-4 -10l-6 -18l-1 -2q-1 -2 -1.5 -3.5t-1.5 -3.5q-1 -1 -1 -2t-1 -2q-2 -2 -3.5 -6
t-4.5 -6l-3 -1q-2 -1 -4 -5v-2q-2 -2 -2 -3l-1 -1q0 -1 -1 -1t-1 -1q-3 -5 -5 -10l-1 -1l-2 -3q-2 0 -2 -3q-1 0 -3 -3.5t-2 -4.5q-1 0 -1 -2q0 -1 -1 -1t-1 -1t-1 -1l-2 -2q-1 -1 -1 -2l-2 -4t-1 -4q1 -2 2 -3l2 -4v-2v-1v-1v-1q0 -1 1 -2v-1q0 -1 1 -2q0 -1 -0.5 -3
t-0.5 -3q-1 -2 -2.5 -3.5t-1.5 -3.5v-3l-1 -1q0 -2 -1 -5.5t-1 -6.5v-2l1 -1q0 -1 1 -2h3h1l1 -1h3l2 -1q0 -1 1 -1h1q2 0 3 -0.5t3 -0.5h2q1 0 2.5 -0.5t3.5 -0.5h3l2 -1q2 0 4 -0.5t2 -2.5t-2.5 -3t-4.5 -1t-3.5 0.5t-3.5 0.5h-2h-1q-1 1 -3 1h-3h-4h-2q-1 0 -2 1
q-1 0 -2.5 0.5t-2.5 0.5q-7 0 -7 -4q0 -2 1 -2q4 -2 8 -2h2q0 -1 2 -1h1l2 -1l1 -1h1q1 0 1 -0.5t1 -0.5h2l1 -1h3h1q1 0 1 -0.5t1 -0.5l2 -2q2 -1 4.5 -0.5t2.5 -3.5q0 -2 -2 -2h-4h-4l-2 1h-1q-2 0 -6 0.5t-5 1.5h-2l-1 1h-5q-4 0 -7.5 1t-6.5 1h-2q-1 0 -1 -1t-1 -2
t-1 -2t-1 -1q0 -2 2 -4v-1q0 -1 1 -1v-2q0 -1 1 -1q0 -4 4 -4v-2q0 -1 1 -2q1 -2 2 -2.5t3 -2.5v-1l1 -2q2 -2 2 -2.5t2 -2.5l1 -1l1 -2q4 -4 6.5 -8t4.5 -7h1v-1q0 -1 1 -1q2 -3 3 -5t3 -5l1 -3q2 -2 2 -3q3 -5 5 -8t4 -8l1 -1q7 -13 10 -25q0 -2 -0.5 -2.5t-0.5 -2.5h1v1
q0 1 1 1l-1 1q3 2 4.5 8t3.5 7l3 2h2h1h2h2v-1q4 -3 7 -3h2l1 -2q2 -2 5 -4.5t3 -7.5v-6v-5q0 -2 -2 -5.5t-3 -5.5q-2 -5 -4.5 -12.5t-9.5 -7.5h-1l-2 1l-3 1q-2 0 -2.5 0.5t-1.5 0.5h-4v1h-1l-1 -1v1l-1 1q-2 0 -2 4q0 5 -1 6q-2 -1 -1.5 -1.5t-0.5 -1.5l-1 -1v-3v-10
q0 -2 2 -2l5 6q4 0 4 -4q-1 -3 -2.5 -7t-4.5 -6q0 -1 -2.5 -3.5t-3.5 -4.5l-5 -5q-1 0 -4 -1.5t-3 -2.5h-3q0 -1 -1 -1q-1 -1 -2 -1t-2 -1q-2 -1 -3 -1l-2 -2q-1 -1 -1 -2l-1 -1h-6h-2q-18 0 -31 4q-6 2 -10.5 2.5t-9.5 2.5q0 2 -3 2q-1 0 -2 1l-3 1l-2 3l-1 1q-1 0 -1 1
q-1 0 -3.5 2t-3.5 4zM447 151q0 -2 0.5 -1.5t1.5 -0.5t2 -1t1 -0.5t1 -0.5h3h4q5 0 8.5 1t7.5 3q1 1 1 4v1l-4 5l-2 -1l-1 -2q-2 -1 -2.5 -2t-1.5 -1q-1 -1 -2.5 -0.5t-1.5 -1.5q-2 1 -3 1t-3 1l-1 2zM409 155h2l2 -2q3 -2 11 -4l1 -1q1 0 1 1t-1 1l-2 1q-3 3 -2.5 7t-1.5 6
q-2 -2 -3.5 -2.5t-4.5 -2.5q-1 -1 -2 -0.5t-2 -1.5zM1050 149q-1 0 -1 -1t1 -1v2zM1100 155q1 0 1 -0.5t-1 -0.5v1zM405 160v-1v1zM240 162q1 0 1 -0.5t-1 -0.5t-1 0.5t1 0.5zM977 166q1 0 1 -1t-1 -1v2zM244 169q1 0 1 -0.5t-1 -0.5t-1 0.5t1 0.5zM626 169h2h3h2h8l2 1h2h1
h6h7v1l1 1q1 0 2 0.5t2 0.5t5 2h3l1 2q3 2 6.5 3t6.5 3l2 2l1 1v2q3 4 3 9v2q0 1 -0.5 2.5t-0.5 2.5q-2 2 -3.5 1t-3.5 0q-6 1 -6 8q-1 2 0 4l2 4q3 1 3 3t-2 5t-2 5v6l-1 2v2v3q0 1 1 2q0 6 3 12v1q1 1 2 3t4 5l1 1q1 2 4 4.5t4 4.5q1 0 3 0.5t3 0.5q2 0 2 1t2 1h3
q1 0 1.5 0.5t1.5 0.5h2h2q1 0 1 1q6 0 12 -4l1 -1h2q0 -1 1 -2t2 -1t1 -1q0 -2 1 -2l2 -3q2 -1 2 -4q0 -1 0.5 -2.5t0.5 -2.5q-1 -2 -1 -3q-1 -1 -1 -2v-1q-1 -5 -5.5 -9t-8.5 -9l-2 -1q-4 -2 -8.5 -2.5t-8.5 -0.5q-5 0 -6.5 0.5t-5.5 2.5h-2q-1 0 -1 1t-1.5 1.5t-1.5 1.5
q-1 -1 -1 -3q0 -4 2 -4q1 -3 3 -4.5t4 -3.5l1 -1l2 -1q1 0 3.5 -1t3.5 -1q6 -2 11 -2h3h2q1 0 1 1t1 1t2 1t2 1q0 1 3 1q0 1 1 1l1 1h1q1 0 1 0.5t1 0.5l2 2q1 1 1 1.5t1 1.5q2 1 1.5 1.5t1.5 1.5h1q3 3 5 9q0 1 1 1.5t1 2.5q2 4 3 5l1.5 3t0.5 3t-3 2h-5v1q-1 0 -1 1v2v2v3
q0 2 0.5 4.5t0.5 4.5v2q-2 2 -4 3.5t-4 3.5l-2 1q-1 0 -1 0.5t-2 0.5h-1q0 -1 0.5 -2t0.5 -3q0 -1 -2 -1h-1h-3l-2 2q0 1 -2.5 2t-3.5 1h-1l-2 1q-2 2 -4 3q-1 0 -1.5 0.5t-1.5 0.5l-3 2h-1q-1 0 -2 1q-4 1 -13 1q-5 0 -8 -1h-1h-2h-2h-4q-3 0 -5.5 -1t-4.5 -2
q-17 -10 -17 -29q0 -4 1 -5q2 -2 5.5 -3.5t3.5 -4.5q-1 -3 -6 -3l-1 -1q0 -1 1 -2t1 -2q4 -8 4 -12v-3h-2q-1 -1 -0.5 -1.5t-1.5 -0.5q-4 0 -5 3.5t-2 6.5q-1 2 -2.5 4t-2.5 3q0 2 -0.5 5t-2.5 4h-1q-6 2 -11 2h-6h-1h-3h-1q-2 -1 -4.5 -0.5t-4.5 -1.5h-2h-4q-18 -2 -28 -13
q-4 -4 -4 -8q0 -2 0.5 -4t0.5 -4l1 -2l1 -1l1 -3q0 -1 0.5 -1t0.5 -1t1 -1l1 -1q0 -1 1 -2q1 -2 1.5 -3.5t1.5 -2.5q1 0 1 -1t1 -1q4 -6 6.5 -11.5t7.5 -11.5l1 -1v-1q3 -2 6.5 -4t5.5 -4q2 -1 5.5 -2t5.5 -1q1 0 2 1zM947 177q1 0 1 -0.5t-1 -0.5t-1 0.5t1 0.5zM676 178
q-1 0 -1 0.5t1 0.5v-1zM687 186q1 0 1 -0.5t-1 -0.5v1zM397 190q-1 0 -1 -1t1 -1v2zM789 190v-1q1 0 1 0.5t-1 0.5zM496 191q-1 0 -1 -0.5t1 -0.5t1 0.5t-1 0.5zM1079 197q-1 0 -1 -1t1 -1t1 1t-1 1zM1223 196h1h-1zM1235 197h-1h1zM1160 197q-1 0 -1 1t1 1v-2zM1180 198
q-1 0 -1 0.5t1 0.5v-1zM217 200q-1 0 -1 0.5t1 0.5v-1zM805 201q-1 0 -1 -0.5t1 -0.5t1 0.5t-1 0.5zM1115 201q-1 0 -1 0.5t1 0.5v-1zM1273 205q-1 0 -1 -0.5t1 -0.5v1zM1244 208q1 0 1 1t-1 1v-2zM1246 210q1 0 1 2q1 -1 1 -2h1l1 2l2 -1q5 0 5 3l2 -1q2 4 2 6l-1 1
q0 2 -1 2v1h-2l-6 -4q-1 -1 -2 -1t-1 -1h-2l-1 -1h-2h-2v1h-2l-4 2t-4 3l-1 1q-1 0 -1 1v1q0 2 -3 5v3v1h1q0 1 -1 1v1v4l-2 -1v1q-1 0 -1 -0.5t-1 -0.5h-1h-1q-3 -2 -6 -4.5t-3 -5.5v-2v-1q0 -1 1 -2t1.5 -1t1.5 -1l1 -1q0 -1 1 -2q3 -3 4 -3q4 0 6 -2q4 -2 6 -2h4l1 -1
q1 0 1.5 -0.5t1.5 -0.5h2q1 0 1.5 0.5t1.5 0.5v-1zM854 211q1 0 1 -0.5t-1 -0.5t-1 0.5t1 0.5zM1253 210q1 0 1 0.5t-1 0.5v-1zM1256 212v-1h-1zM213 211q-1 0 -1 0.5t1 0.5v-1zM1252 212q1 0 1 -0.5t-1 -0.5v1zM1169 218q1 0 1 0.5t-1 0.5v-1zM1252 219q1 0 1 -0.5t-1 -0.5
v1zM1194 221q1 0 1 -0.5t-1 -0.5t-1 0.5t1 0.5zM1257 221v1v-1zM1280 224q1 0 1 -0.5t-1 -0.5t-1 0.5t1 0.5zM1172 227q1 0 1 -1t-1 -1t-1 1t1 1zM1227 227q1 0 1 -0.5t-1 -0.5t-1 0.5t1 0.5zM1184 227q-1 0 -1 0.5t1 0.5v-1zM1211 231v-1q1 0 1 0.5t-1 0.5zM1253 244
q1 0 2 -1l2 -2q1 0 1 -1h1h1l1 -1l3 -3t3 -2h-1q0 1 1 1l1 2l-1 1l1 1v2v2h-1l1 1h-1v1q0 2 -2 2q0 -1 -1 -1h-2v1h-2l-1 1q-1 0 -3.5 -1t-2.5 -3zM1197 242q1 0 1 0.5t-1 0.5v-1zM1282 243q-1 0 -1 -0.5t1 -0.5t1 0.5t-1 0.5zM700 245q2 -1 4 -1t4 -1q1 0 3.5 0.5t4.5 0.5
t3.5 1.5l3.5 3.5l2 1q1 0 1 1t1 2q1 0 1 1l1 1v2q0 1 1 2v3v3v1l-1 1l-2 2l-2 1q0 1 -1 1q-2 1 -5 1l-1 1h-4h-1q-5 -2 -10 -3.5t-8 -6.5v-1h4v-2q0 -2 -0.5 -3.5t-0.5 -3.5q0 -1 1.5 -3.5t0.5 -4.5zM1334 245h-2h-4l-1 1h-2l-2 1q-1 0 -2.5 1t-3.5 2q-3 1 -5 2l-4 2v2h-1
q0 2 -1.5 1.5t-2.5 1.5q0 1 1 1v1q-1 0 -3 2q-1 -1 -1 1v1l-1 2v1l-1 2q-1 1 -0.5 3.5t-0.5 4.5v1v1v2v1v4l1 1q-1 0 -1 1v1l1 1v1l2 3h-1q2 1 1.5 1.5t1.5 1.5h1v1h-1q0 1 1 1t1 1l1 1v1l2 3l1 1v1h1h1h2q1 0 1 1t1 1l1 1v-1q1 0 2 1q0 1 0.5 1t0.5 1h1q1 0 1 1q4 0 4 1
q1 0 2 1t1.5 0.5t1.5 0.5q-1 0 3 2v-1q4 0 5 1h1v1h5l2 1h3q1 0 3.5 0.5t3.5 0.5v-1q4 0 12 -2l1 -1v-1h2l4 -2q3 -3 3 -4l1 -3q0 -2 -3 -3t-5 -1l-1 1h-2l-1 1q-1 0 -1 -1v-1q0 -2 3 -2v1q1 0 1 -2q3 -1 4 -1.5l3 -1.5h1q1 0 3 -2h2q1 -1 2 -1t1 -0.5t1 -0.5q4 -3 7.5 -5.5
t6.5 -7.5q0 -1 1 -1q1 -1 1 -5l1 -1v-3l-1 -1l-1 -3l-1 -1q-1 0 -1 -1v-1q0 -1 -1 -1t-1 -1l-1 -1q-1 0 -1 -0.5t-1 -0.5h-1q-2 -1 -3 -2.5t-2 -2.5h-1q-1 0 -1 -1q-3 0 -7 -2q-1 0 -1.5 -0.5t-1.5 -0.5q-4 -1 -6 -2t-5 -1q0 -2 -2 -2t-3 -1h-6h-4l-2 -1l-1 1h-1q-3 0 -5 -1
l-1 1h-6zM1253 246q-1 0 -1 -0.5t1 -0.5v1zM468 252q-2 -1 -2 -4q4 0 4 2v1q-1 0 -2 1zM1205 249v-1q1 0 1 0.5t-1 0.5zM467 250q1 0 1 -0.5t-1 -0.5t-1 0.5t1 0.5zM467 251q-1 0 -1 -0.5t1 -0.5t1 0.5t-1 0.5zM1210 251q-1 0 -1 0.5t1 0.5v-1zM1213 253v-1q1 0 1 0.5
t-1 0.5zM880 254q-1 0 -1 -0.5t1 -0.5v1zM1307 258q-1 0 -1 -1t1 -1v2zM1314 279q0 -2 -0.5 -4.5t1.5 -4.5l2 -1q0 -1 0.5 -2t0.5 -2q2 -3 6.5 -4.5t9.5 -2.5h3q1 -1 2 -1h3h1h3h4v1h1h1h2q1 0 1 1h2h1l1 1l2 1q2 0 1 0.5t1 0.5h-4l1 1q-1 -1 -6 2h-3q-1 0 -2 1q-1 0 -1 0.5
t-1 0.5l-1 1l-1 -1l-3 3q-1 0 -2 1l-1 1q-3 3 -3 5q-1 0 -1 1t-1 2h-1q1 2 1.5 2.5t0.5 2.5h-1q2 3 2.5 5.5t2.5 4.5q1 0 3 0.5t1 2.5l2 1v1h1q1 0 1 0.5t1 0.5v1h1q1 1 2.5 0.5t2.5 1.5q0 -1 1 -1l1 1l1 -1l1 1h1h4l2 2l-1 1l-1 -1v1h-5h-1q-1 0 -2 1q-2 0 -4.5 -0.5
t-4.5 -0.5l-3 -1h-3q-1 0 -5 -2h-1q-1 0 -1 -1v-1h-1h-2l-4 -2t-3 -2l-1 -2h-1l-1 -1q0 -1 -1 -1q0 -1 -0.5 -1.5t-0.5 -1.5l-1 -1l-1 -1q-2 -2 -2 -5v-5zM199 259q1 0 1 -0.5t-1 -0.5v1zM1341 259q1 0 1 -0.5t-1 -0.5v1zM1356 259q-1 0 -1 -0.5t1 -0.5t1 0.5t-1 0.5z
M1240 260q-1 0 -1 -0.5t1 -0.5t1 0.5t-1 0.5zM1363 260q1 0 1 0.5t-1 0.5v-1zM1247 261q-1 0 -1 0.5t1 0.5v-1zM1246 263v-1q-1 0 -1 0.5t1 0.5zM911 267v-2q-1 0 -1 1t1 1zM1264 269q-1 0 -1 0.5t1 0.5v-1zM1298 270q1 0 1 0.5t-1 0.5v-1zM1025 278q-1 0 -1 -1t1 -1v2z
M1337 290q0 1 -0.5 1t-0.5 -1h1v0zM1198 292q1 0 1 -0.5t-1 -0.5t-1 0.5t1 0.5zM1336 292v-1v1zM1338 292v-1v1zM1197 293q-1 0 -1 1t1 1v-2zM753 295q-1 0 -1 0.5t1 0.5v-1zM1344 298q-1 0 -1 -0.5t1 -0.5t1 0.5t-1 0.5zM1341 302q1 0 1 -1t-1 -1v2zM1304 301q-1 0 -1 0.5
t1 0.5v-1zM1306 304q1 0 1 -1t-1 -1v2zM1372 304q1 0 1 -1t-1 -1v2zM1303 303q-1 0 -1 0.5t1 0.5v-1zM1358 305q0 -1 -0.5 -1t-0.5 1h1zM1358 306q1 0 1 -0.5t-1 -0.5v1zM794 317q0 -3 1.5 -6t5.5 -3t7 3l5 5l1 1q2 2 2 6q0 1 -1 2q-3 2 -8 2q-7 0 -10 -2q-2 -1 -2.5 -3.5
t-0.5 -4.5zM1067 310q1 0 1 -1t-1 -1v2v0zM1313 310q0 -1 -0.5 -1t-0.5 1h1zM1323 316q1 0 1 -0.5t-1 -0.5v1zM1326 316q-1 0 -1 0.5t1 0.5v-1zM1337 320v-1q-1 0 -1 0.5t1 0.5zM372 331q0 -1 1 -2q0 -1 1 -1q1 -2 6 -4q2 -2 3 -2h2l1 -1h1h1q-1 0 -1 1l1 1v1q-1 0 -1 1
t-1 2v1v1h-6l-2 1l-1 1q-2 1 -2 1.5t-2 0.5q-1 0 -1 -1v-1zM184 329q-1 0 -1 -0.5t1 -0.5t1 0.5t-1 0.5zM425 375v1v-2v1zM425 376l1 1v3l2 3l2 4l-3 -3l-2 -2q0 -1 -0.5 -2.5t-0.5 -2.5zM405 414l1 -1q0 -1 2 -1h2l2 -1h1h1q-1 2 -1 5t-4 3q-1 0 -3 -1t-2 -3zM408 413z
M456 481q-1 0 -1.5 -2t-1.5 -4l-2 -2q-1 -1 -1 -2v-1q-1 -2 -2 -5.5t-2 -5.5h1q2 0 2 2t2 3q0 1 1 1l1 1v1l1 1q2 2 2 5t1 6v1q0 1 -1 1zM770 485v1q1 0 1 -2l1 -1q0 -1 1 -1v-2q0 -1 1 -2q-2 0 -2.5 2t-0.5 3zM770 488h-1h1zM768 491q0 -1 1 -2v1q0 1 -1 2v-1zM766 492h1
q0 1 -1 2v-2zM761 501q0 -1 1 -2t1.5 -2.5t2.5 -1.5q0 6 -4 8l-1 -1v-1zM756 512q2 0 4 -3q0 -3 2 -5l-1 -1l-1 1v2q-1 1 -2.5 3t-1.5 3zM756 513v1v1v-2zM757 514q-1 0 -1 -1t1 -1t1 1t-1 1zM506 518q0 -2 1 -2q1 2 1 3.5t1 3.5q0 1 0.5 1t0.5 1v1q0 2 1 2.5t1 2.5t-1 2h-1
l-1 -3q0 -1 -0.5 -1t-0.5 -1l-1 -1v-4v-2q-1 -1 -1 -3zM753 517h1l-1 1v-1zM513 539v-1v-1q-1 0 -1 -1v-2v4q0 1 1 1v0zM513 540v1h1h-1v-1zM400 544l1 -1q2 0 2 2v3v1l-1 1q-1 -2 -1.5 -2t-0.5 -2v-2zM742 555v-1q-1 0 -1 0.5t1 0.5zM739 559v1v-1zM416 564q0 -2 2 -2h1
l1 2q0 1 0.5 3t0.5 3v7l1 3v3v2h-1v-1q0 -1 -1 -1q0 -7 -1 -9q-1 0 -1 -1t-1 -1v-2v-1q-1 -2 -1 -5zM738 562q-1 0 -1 -0.5t1 -0.5v1zM736 563h1v-1zM420 575q-1 0 -1 0.5t1 0.5v-1zM504 582q-1 0 -1 -0.5t1 -0.5v1zM507 585q-3 0 -3 -2zM281 585q1 0 1 0.5t-1 0.5v-1z
M721 588v1h-1zM420 597q0 -3 3 -3h1q0 1 0.5 4.5t0.5 4.5v1v2q1 2 1 6t-1 5q-2 0 -2 -2.5t-1 -3.5v-2v-6l-1 -1q0 -2 -0.5 -2.5t-0.5 -2.5zM718 593q1 0 1 0.5t-1 0.5v-1zM97 635q-1 0 -1 1l-4.5 -1.5t-3.5 -1.5q-1 0 -1.5 -0.5t-2.5 -0.5q-2 -1 -3 -1h-1q-2 -2 -5.5 -2.5
t-5.5 -0.5q-1 -1 -3 -1q-1 0 -2 -1h-1l-2 1h-16h-1q-1 0 -1 1h-1t-3.5 1t-3.5 1q-1 1 -2 1t-2 1q-4 4 -4 8v10l-1 1h-1q-2 1 -5.5 3.5t-5.5 3.5l-2.5 2.5t-1.5 2.5l-2 5q-3 6 -3 12q0 4 2 6t4 5v1q1 0 2 1v1q2 1 4 2.5t3 1.5q5 5 13 7t15 2h1h4l1 -1l4 -2q2 -1 3 -1l1 -2h1
q2 0 2 3v1l-1 2l1 1l-1 1v3v5v14q2 2 2 8q0 2 1 6.5t2 5.5v2q0 1 0.5 1t0.5 1v3h1v2q0 1 1 2q0 1 1 2v2h2l1 2q1 1 3 3.5t2 1.5q3 4 6 5.5t6 3.5q8 4 14.5 7t15.5 3h3h2h2q3 -1 7.5 -1.5t7.5 -2.5h3l2 -1h1q2 -2 5 -3t5 -3q4 -5 9 -12q2 -2 3 -5t3 -5v-2q1 -4 3 -8
q0 -3 0.5 -6.5t0.5 -6.5q-1 -1 -1 -3q0 -3 -2 -9v-1q-2 0 -2 -3v-2l-1 -1q-1 0 -1 -1t-1 -1q-1 -2 -5 -6l-5 -5t-7 -4h-1q-2 -1 -2.5 -2t-1.5 -2q-1 0 -1 -0.5t-1 -0.5h-2q-3 -2 -5.5 -3.5t-5.5 -1.5q-2 0 -6.5 -1t-6.5 -1h-1q-3 0 -5 1q-2 0 -4 1q-1 0 -2.5 1t-3.5 2
q-8 4 -11 8q-2 2 -2 3h-1l-1 1v4l-1 2q-1 0 -1 1v2h-1v2v2v2v6t1 6l1 1l1 2q0 1 2 5h1q1 1 2.5 2t2.5 2l2 2q2 2 3 2v1h2q1 0 2 1l1 1q3 1 8.5 2.5t9.5 1.5q10 0 15 -4l2 -3q4 -5 6 -9q0 -1 0.5 -3.5t0.5 -3.5q0 -2 -3 -5.5t-6 -3.5h-2l-1 -2l-1 -2l-4 -4q-1 -1 -3 -1
q-3 0 -4 1l-2.5 2.5t-1.5 2.5q-1 1 -1 4q0 7 6 10h4h2l3 -1h1l1 2q0 3 -4 5q-2 2 -3.5 1.5t-4.5 0.5h-3h-1q-1 0 -3 -0.5t-3 -0.5q-2 0 -5 -3l-1 -1q-13 -7 -13 -15q0 -9 6 -15q1 -1 3.5 -2.5t3.5 -1.5q1 -1 2 -1h2h2q2 0 3 -0.5t3 -0.5h3q2 1 3 1q2 0 3 1q1 0 4 0.5t3 1.5
h1h1q1 0 1 0.5t1 0.5l2 2l1 1q8 3 15 10l1 2v1l1 1q1 0 1 0.5t1 0.5q4 8 4 15v2q-1 0 -1 1v2v3q0 5 -2 9l-4 8l-3 3t-2 3q-2 2 -3 2.5t-3 2.5q-8 4 -14 4q-3 1 -7 1h-2q-1 0 -1 1h-1q-1 -1 -2 -1h-2l-1 -1l-1 1h-1q-2 -1 -6 -1q-1 0 -1 -0.5t-1 -0.5h-1h-3l-1 -1
q-5 -2 -7 -4l-2 -3h-3q-2 -1 -2.5 -2t-1.5 -2q-2 -2 -3.5 -3t-2.5 -3l-3 -4v-1v-1l-1 -3q0 -1 -1.5 -2.5t-1.5 -2.5v-2l-1 -3q-3 -12 -3 -22v-5v-1v-4l1 -4l1 -1q1 -2 1 -4q0 -4 1 -4l1 -1v-1q1 0 1 -2l2 -2v-2q1 -2 4.5 -6t3.5 -7q-7 0 -11 3l-1 2q0 3 -4 3q-2 0 -2 -2
q-1 0 -2 -0.5t-2 -0.5h-1q-1 0 -2 1l-3 1v2l-2 1q-4 3 -7.5 6t-8.5 3q-3 0 -11 -4q-4 -2 -8 -4.5t-5 -7.5q0 -1 -1 -1v-1q0 -1 0.5 -3t0.5 -3l1 -1l4 -4t6 -2l3 3v1v1q3 1 7 1q5 0 6.5 -2l4.5 -6q1 -2 4.5 -2.5t3.5 -2.5q0 -5 -6 -7l-4 -2v-1h-1q-2 -2 -2 -4t3 -2t4 -1h4
q3 0 5 0.5t4 0.5q3 0 5.5 0.5t5.5 1.5q3 0 3 1h2q1 0 1 1q2 2 6 2q2 2 10 4l1 1h1q1 1 5.5 3t5.5 3q3 1 5 3.5t5 2.5t4.5 -2t1.5 -4v-1v-1v-1q-2 -4 -7 -5t-5 -4q0 -4 3 -5.5t3 -5.5t-2 -5l-1 -1q-1 -1 -1 0q-2 -2 -2 -2.5t-2 -0.5h-3v-4q1 -2 1 -3q0 -3 1 -3l3 -3
q2 -1 4 -1t4 -1q4 -1 7 -1.5t8 -0.5h4q2 1 2.5 0.5t2.5 0.5q2 0 6 2q9 1 17.5 4t16.5 7q2 1 3.5 2.5t3.5 2.5h1l1 1h1q2 2 4.5 2.5t2.5 3.5v1q-1 0 -1 1v2v2q2 2 4 2t2.5 -1t2.5 -1h2q1 0 3.5 0.5t3.5 0.5q0 2 1.5 2t3.5 1q3 1 7 5q9 7 17.5 15.5t8.5 20.5q0 5 -2.5 8.5
t-5.5 6.5l-2 2q-1 1 -2 1h-3h-1q-1 0 -1 0.5t-1 0.5h-1h-4h-4h-3h-2q-5 0 -7 -1q-1 0 -4.5 -0.5t-4.5 -0.5q-2 0 -4 -1l-4 -2q-7 -3 -10.5 -5t-8.5 -8l-2 -1v-3l-2 -8t-7 -4q-3 0 -4.5 3.5t-1.5 5.5q0 3 2 7l1 3q1 1 1 1.5t1 1.5q4 4 6 6.5t6 5.5q2 1 3.5 1.5t3.5 1.5l1 2h1
l6 2t5 2l2 1h5h2q1 0 2 1h1h4q2 0 5 0.5t6 0.5q7 0 11 -1h2h1q2 -1 6 -1q1 0 1 -2q2 -1 3.5 -1t2.5 -1q3 0 3 -3q1 -1 2.5 -3t1.5 -3q3 -4 3.5 -7t0.5 -8q0 -3 0.5 -5t-0.5 -4q-1 -4 -3 -9.5t-4 -8.5l-1 -1q-1 0 -1 -1l-1 -1q0 -1 -1 -1q0 -1 -2 -2.5t-2 -2.5l-1 -1
q0 -2 1 -2.5t2 -2.5t1 -4v-4.5t-2 -3.5q-1 -1 -2 -1t-1 -1l-1 -1h-2l-2 1q-1 1 -2.5 1t-1.5 1q-2 2 -2 3t-2 2q-2 0 -4 -2l-3 -3q0 -1 -2 -1.5t-3 -1.5q-2 0 -5 -3l-6 -2l-3 -2q-1 0 -1 -0.5t-1 -0.5h-2q-2 0 -3.5 -1t-3.5 -2q-1 -1 -3 -1.5t-4 -1.5q-2 0 -2 -2
q-1 0 -1 -0.5t-1 -0.5h-2h-1l-4 -2l-4 -2q0 -2 -3 -2l-12 -4t-13 -4h-1q-2 -1 -4.5 -0.5t-4.5 -1.5q-1 0 -4 -0.5t-5 -0.5q-1 1 -2 1q-2 0 -2 1h-4h-4l-2 1h-1h-1l-1 1q-2 1 -3.5 1.5t-3.5 2.5l-3 1l-2.5 2.5t-1.5 2.5q-2 1 -2 2t-1 2l-1 2q-1 1 -1 2l-1 2q-2 8 0 16z
M296 598q-1 0 -1 -0.5t1 -0.5v1zM712 603q1 0 1 -0.5t-1 -0.5t-1 0.5t1 0.5zM709 603h1h-1zM708 608q-1 0 -1 -1t1 -1t1 1t-1 1zM705 610q1 0 1 -0.5t-1 -0.5v1zM408 613q1 0 1 0.5t-1 0.5v-1zM409 618v-1q1 0 1 0.5t-1 0.5zM517 618v1v-1zM672 626q0 1 -0.5 1t-0.5 -1h1z
M231 631q1 0 1 -1t-1 -1t-1 1t1 1zM632 649q1 1 4 -2l2 -1q2 -2 4 -2t2 1t-6.5 4t-8.5 3zM625 654l2 -2h1v1h-1q-1 0 -2 1zM449 661q0 -1 2 -1q1 -1 2 -1h3q0 1 2.5 1.5t3.5 0.5t2 -1l2 1h13l3 1h11l1 1h11h2v1v1v2q0 3 -1 5h-2q-2 0 -3.5 -0.5t-3.5 -0.5q-4 -1 -11 -1
l-2 -1h-10q-2 -1 -2.5 -0.5t-2.5 0.5q-4 -1 -10.5 -2.5t-9.5 -5.5zM550 683q1 -1 3 -1q1 0 2 -0.5t2 -0.5h4h3h4q2 -2 5 -2h3q3 -1 6.5 -1.5t6.5 -1.5h1q1 0 2 -1q0 -1 1 -1h2q1 -1 3 -1l2 -1h2q5 -1 14 -4q1 0 2 1q-2 2 -4.5 2.5t-4.5 2.5h-1q-3 2 -11 4h-3q-2 1 -2 1.5
t-2 0.5q-1 0 -3 0.5t-3 0.5q-1 1 -2 1t-2 1h-2q-1 0 -2 1t-3 1h-1q0 -1 -1 -1h-1q-1 0 -3.5 1t-3.5 1h-6h-5q-2 -1 -3.5 -0.5t-1.5 -0.5t3 -1v-1zM546 685q1 0 1 0.5t-1 0.5v-1zM139 734v-1q1 0 1 0.5t-1 0.5zM111 737q-1 0 -1 -0.5t1 -0.5v1zM84 761q1 0 1 0.5t-1 0.5v-1z
M73 765q1 0 1 -0.5t-1 -0.5v1z" />
    <glyph glyph-name="agrave" unicode="&#xe0;" horiz-adv-x="342" 
d="M217 12q-8 0 -14.5 -3t-13.5 -6t-16 -6t-23 -4q-22 -1 -43 4t-37.5 15.5t-27.5 27t-12 39.5q-2 38 7.5 66.5t28.5 48.5t46.5 34t62.5 24l12 12q0 1 -1 10.5t-1 14.5q-2 29 -4.5 61t-18.5 57q-10 12 -23 24.5t-30 16.5q-7 1 -17.5 1t-20 2.5t-17 8t-7.5 16.5l-3 67
q0 2 3 5t7 5l10 6q4 0 14.5 1.5t22 3t22 3t15.5 1.5h5q21 1 39 -8t32.5 -23t26 -31t20.5 -32v-3q6 -22 14.5 -46t10.5 -45q1 -3 1.5 -15t1 -26.5t1 -27t0.5 -16.5l3 -30t3.5 -41t2.5 -38t1 -20q1 -9 4.5 -21.5t7 -26t6.5 -26t3 -22.5q1 -24 -3 -38.5t-26 -25.5
q-3 -2 -7 -3.5t-8 -3.5l-10 -4q-1 0 -5 -0.5t-6 -0.5q-6 0 -11 2.5t-9 6t-8.5 6.5t-10.5 3zM130 107q1 -13 12.5 -15t22.5 -1h15q1 0 4.5 1.5t3.5 2.5l-3 42q0 5 -4.5 7t-9.5 2q-15 -1 -28 -13t-13 -26zM48 728q0 5 7.5 12t19 13.5t24.5 11t25 4.5q6 0 7.5 -0.5t6.5 -4.5
q4 -2 4.5 -5.5t1.5 -5.5q3 -5 17 -17t28.5 -24.5t26 -22.5t10.5 -11l22 -24q-1 -2 3 -7t4 -7q0 -7 -14 -13.5t-21 -8.5q-1 0 -2 -0.5t-3 -0.5q-6 0 -15.5 5.5t-19.5 12t-18.5 13t-11.5 8.5q-3 3 -9.5 8t-13 9.5t-12 8t-6.5 4.5q-2 1 -9 5t-15 9t-15.5 9t-9.5 5
q-7 4 -9.5 6.5t-2.5 7.5z" />
    <glyph glyph-name="aacute" unicode="&#xe1;" horiz-adv-x="342" 
d="M217 12q-8 0 -14.5 -3t-13.5 -6t-16 -6t-23 -4q-22 -1 -43 4t-37.5 15.5t-27.5 27t-12 39.5q-2 38 7.5 66.5t28.5 48.5t46.5 34t62.5 24l12 12q0 1 -1 10.5t-1 14.5q-2 29 -4.5 61t-18.5 57q-10 12 -23 24.5t-30 16.5q-7 1 -17.5 1t-20 2.5t-17 8t-7.5 16.5l-3 67
q0 2 3 5t7 5l10 6q4 0 14.5 1.5t22 3t22 3t15.5 1.5h5q21 1 39 -8t32.5 -23t26 -31t20.5 -32v-3q6 -22 14.5 -46t10.5 -45q1 -3 1.5 -15t1 -26.5t1 -27t0.5 -16.5l3 -30t3.5 -41t2.5 -38t1 -20q1 -9 4.5 -21.5t7 -26t6.5 -26t3 -22.5q1 -24 -3 -38.5t-26 -25.5
q-3 -2 -7 -3.5t-8 -3.5l-10 -4q-1 0 -5 -0.5t-6 -0.5q-6 0 -11 2.5t-9 6t-8.5 6.5t-10.5 3zM130 107q1 -13 12.5 -15t22.5 -1h15q1 0 4.5 1.5t3.5 2.5l-3 42q0 5 -4.5 7t-9.5 2q-15 -1 -28 -13t-13 -26zM56 620q0 3 8.5 12t19 19.5t21 20t15.5 13.5q2 1 8.5 7t7.5 8
q3 3 9 9.5t13 13.5l13.5 13.5l8.5 8.5q3 7 15.5 16.5t20.5 9.5q4 0 10 -4t12.5 -9.5t11.5 -10.5t6 -7v-10v-10t-5 -9q-3 -3 -11 -9.5t-11 -8.5q-33 -23 -66.5 -47.5t-67.5 -47.5q-3 -1 -5 -1.5t-6 -0.5q-11 0 -19.5 8t-8.5 16z" />
    </font>
</defs>
</svg>
