<?xml version="1.0" encoding="UTF-8" standalone="no"?>
<!-- Created with Inkscape (http://www.inkscape.org/) -->

<svg
   xmlns:dc="http://purl.org/dc/elements/1.1/"
   xmlns:cc="http://creativecommons.org/ns#"
   xmlns:rdf="http://www.w3.org/1999/02/22-rdf-syntax-ns#"
   xmlns:svg="http://www.w3.org/2000/svg"
   xmlns="http://www.w3.org/2000/svg"
   xmlns:sodipodi="http://sodipodi.sourceforge.net/DTD/sodipodi-0.dtd"
   xmlns:inkscape="http://www.inkscape.org/namespaces/inkscape"
   width="100"
   height="100"
   viewBox="0 0 26.458333 26.458334"
   version="1.1"
   id="svg2194"
   inkscape:version="0.92.4 (unknown)"
   sodipodi:docname="Brain.svg">
  <defs
     id="defs2188" />
  <sodipodi:namedview
     id="base"
     pagecolor="#ffffff"
     bordercolor="#666666"
     borderopacity="1.0"
     inkscape:pageopacity="0.0"
     inkscape:pageshadow="2"
     inkscape:zoom="3.959798"
     inkscape:cx="105.75432"
     inkscape:cy="16.756197"
     inkscape:document-units="mm"
     inkscape:current-layer="layer1"
     showgrid="false"
     units="px"
     inkscape:window-width="1853"
     inkscape:window-height="1016"
     inkscape:window-x="67"
     inkscape:window-y="27"
     inkscape:window-maximized="1" />
  <metadata
     id="metadata2191">
    <rdf:RDF>
      <cc:Work
         rdf:about="">
        <dc:format>image/svg+xml</dc:format>
        <dc:type
           rdf:resource="http://purl.org/dc/dcmitype/StillImage" />
        <dc:title></dc:title>
      </cc:Work>
    </rdf:RDF>
  </metadata>
  <g
     inkscape:label="Layer 1"
     inkscape:groupmode="layer"
     id="layer1"
     transform="translate(0,-270.54165)">
    <g
       id="g2803"
       transform="matrix(1.7023223,0,0,1.7023223,-12.290097,-208.45175)">
      <g
         transform="matrix(0.35277777,0,0,-0.35277777,10.010151,285.0738)"
         id="g996">
        <path
           inkscape:connector-curvature="0"
           id="path998"
           style="fill:#3398cb;fill-opacity:1;fill-rule:nonzero;stroke:none"
           d="m 0,0 c -1.805,-2.275 -6.092,-5.055 -6.542,-8.09 -0.677,-3.033 3.835,-7.33 5.64,-9.857 4.062,-5.307 10.601,-8.846 16.918,-9.1 2.484,0 4.062,1.772 6.317,2.022 2.934,0.254 5.415,-1.516 8.571,-0.25 3.386,1.767 4.514,5.306 3.386,9.351 -0.903,3.031 -2.255,8.088 -3.836,11.119 -4.286,7.584 -8.348,6.321 -14.438,7.332 -2.707,0.506 -5.865,-1.263 -8.571,-1.263 -2.932,0 -5.416,-2.022 -8.122,-2.022" />
      </g>
      <g
         transform="matrix(0.35277777,0,0,-0.35277777,9.1583703,291.1902)"
         id="g1000">
        <path
           inkscape:connector-curvature="0"
           id="path1002"
           style="fill:#1a171b;fill-opacity:1;fill-rule:nonzero;stroke:none"
           d="m 0,0 c -0.281,2.492 -1.887,3.914 -2.898,6.129 -2.457,5.382 5.354,9.401 9.126,11.074 10.121,4.487 21.211,-0.539 26.267,-9.738 2.371,-4.313 3.748,-9.625 0.674,-13.884 -2.266,-3.142 -12.347,-1.44 -15.602,-0.96 -1.9,0.281 -3.648,1.286 -5.52,1.563 C 9.693,-5.469 6.779,-5.6 4.787,-4.252 3.912,-3.66 3.705,-1.136 2.57,-0.428 1.194,0.43 -0.238,0.822 -1.761,1.344 -1.986,1.421 -2.687,1.086 -2.379,0.98 c 3.228,-1.105 4.605,-2.598 6.447,-5.529 0.851,-1.355 3.591,-1.306 4.925,-1.393 3.207,-0.21 6.265,-1.571 9.445,-2.04 3.194,-0.472 6.449,-0.466 9.656,-0.897 3.206,-0.431 4.977,1.325 6.741,3.77 C 37.592,-1.288 34.729,5.497 32.59,8.9 26.956,17.869 17.244,20.82 7.299,17.987 3.597,16.933 -0.12,14.643 -2.569,11.683 -6.305,7.167 -1.254,4.055 -0.772,-0.207 -0.745,-0.449 0.032,-0.28 0,0" />
      </g>
      <g
         transform="matrix(0.35277777,0,0,-0.35277777,10.676266,292.50865)"
         id="g1004">
        <path
           inkscape:connector-curvature="0"
           id="path1006"
           style="fill:#1a171b;fill-opacity:1;fill-rule:nonzero;stroke:none"
           d="m 0,0 c -7.308,6.339 12.625,14.032 17.69,12.253 0.27,-0.095 0.908,0.297 0.465,0.453 C 12.768,14.598 -8.561,6.492 -0.714,-0.314 -0.49,-0.509 0.235,-0.204 0,0" />
      </g>
      <g
         transform="matrix(0.35277777,0,0,-0.35277777,12.468414,291.81449)"
         id="g1008">
        <path
           inkscape:connector-curvature="0"
           id="path1010"
           style="fill:#1a171b;fill-opacity:1;fill-rule:nonzero;stroke:none"
           d="m 0,0 c -0.603,2.933 -0.314,5.059 3.434,5.166 1.72,0.049 3.436,-0.167 5.16,-0.112 3.285,0.103 6.607,1.298 9.118,3.403 0.322,0.269 -0.45,0.195 -0.603,0.066 C 13.649,5.624 9.496,5.283 5.219,5.494 4.068,5.551 2.807,5.641 1.683,5.328 -1.111,4.554 -1.314,2.427 -0.772,-0.207 -0.729,-0.416 0.047,-0.228 0,0" />
      </g>
      <g
         transform="matrix(0.35277777,0,0,-0.35277777,12.216387,290.62177)"
         id="g1012">
        <path
           inkscape:connector-curvature="0"
           id="path1014"
           style="fill:#1a171b;fill-opacity:1;fill-rule:nonzero;stroke:none"
           d="m 0,0 h -1.439 c -0.26,0 -0.833,-0.395 -0.313,-0.395 h 1.44 C -0.053,-0.395 0.52,0 0,0" />
      </g>
      <g
         transform="matrix(0.35277777,0,0,-0.35277777,12.978107,289.87419)"
         id="g1016">
        <path
           inkscape:connector-curvature="0"
           id="path1018"
           style="fill:#1a171b;fill-opacity:1;fill-rule:nonzero;stroke:none"
           d="M 0,0 V 0.506 C 0,0.854 -0.775,0.696 -0.775,0.42 V -0.086 C -0.775,-0.434 0,-0.276 0,0" />
      </g>
      <g
         transform="matrix(0.35277777,0,0,-0.35277777,14.928544,289.78154)"
         id="g1020">
        <path
           inkscape:connector-curvature="0"
           id="path1022"
           style="fill:#1a171b;fill-opacity:1;fill-rule:nonzero;stroke:none"
           d="M 0,0 C 0.288,0.81 0.922,1.424 1.605,1.916 1.739,2.013 1.686,2.144 1.538,2.17 1.347,2.203 1.145,2.134 0.991,2.023 0.238,1.48 -0.454,0.786 -0.771,-0.104 -0.856,-0.346 -0.087,-0.245 0,0" />
      </g>
      <g
         transform="matrix(0.35277777,0,0,-0.35277777,16.254741,289.89279)"
         id="g1024">
        <path
           inkscape:connector-curvature="0"
           id="path1026"
           style="fill:#1a171b;fill-opacity:1;fill-rule:nonzero;stroke:none"
           d="M 0,0 C 1.234,0.799 2.228,1.842 2.97,3.111 3.025,3.207 2.32,3.166 2.208,2.975 1.506,1.773 0.578,0.776 -0.592,0.02 -0.913,-0.188 -0.137,-0.088 0,0" />
      </g>
      <g
         transform="matrix(0.35277777,0,0,-0.35277777,11.514818,292.01602)"
         id="g1028">
        <path
           inkscape:connector-curvature="0"
           id="path1030"
           style="fill:#1a171b;fill-opacity:1;fill-rule:nonzero;stroke:none"
           d="M 0,0 C 1.865,-0.172 3.234,-2.021 4.895,-2.751 5.954,-3.216 7.676,-3.128 8.8,-3.13 c 0.693,-0.002 1.698,0.178 2.289,0.511 1.828,1.03 4.14,3.3 6.564,1.194 0.762,-0.66 1.396,-1.577 2.101,-2.301 0.188,-0.191 0.92,0.094 0.719,0.301 C 19,-1.914 17.058,1.048 14.43,-0.135 10.947,-1.702 7.635,-4.185 3.824,-1.413 2.521,-0.466 1.913,0.284 0.302,0.432 0.01,0.459 -0.521,0.048 0,0" />
      </g>
      <g
         transform="matrix(0.35277777,0,0,-0.35277777,17.650683,292.19205)"
         id="g1032">
        <path
           inkscape:connector-curvature="0"
           id="path1034"
           style="fill:#1a171b;fill-opacity:1;fill-rule:nonzero;stroke:none"
           d="M 0,0 C 1.963,0.845 3.859,0.382 5.252,-1.22 5.467,-1.468 6.204,-1.169 5.961,-0.89 4.295,1.028 1.965,1.408 -0.332,0.418 -0.821,0.208 -0.384,-0.166 0,0" />
      </g>
      <g
         transform="matrix(0.35277777,0,0,-0.35277777,12.452573,290.16047)"
         id="g1036">
        <path
           inkscape:connector-curvature="0"
           id="path1038"
           style="fill:#1a171b;fill-opacity:1;fill-rule:nonzero;stroke:none"
           d="M 0,0 C 1.309,-0.023 2.292,-0.694 2.878,-1.86 3.037,-2.177 3.796,-1.944 3.65,-1.653 2.968,-0.293 1.812,0.502 0.276,0.529 -0.074,0.535 -0.523,0.01 0,0" />
      </g>
      <g
         transform="matrix(0.35277777,0,0,-0.35277777,13.978406,290.06607)"
         id="g1040">
        <path
           inkscape:connector-curvature="0"
           id="path1042"
           style="fill:#1a171b;fill-opacity:1;fill-rule:nonzero;stroke:none"
           d="m 0,0 c 0.911,-0.025 1.58,-0.545 2.192,-1.175 0.215,-0.221 0.95,0.076 0.713,0.321 C 2.177,-0.105 1.361,0.468 0.284,0.498 0.104,0.503 -0.125,0.443 -0.222,0.274 -0.314,0.115 -0.145,0.004 0,0" />
      </g>
      <g
         transform="matrix(0.35277777,0,0,-0.35277777,15.464449,286.51626)"
         id="g1044">
        <path
           inkscape:connector-curvature="0"
           id="path1046"
           style="fill:#1a171b;fill-opacity:1;fill-rule:nonzero;stroke:none"
           d="M 0,0 C 1.426,0.654 2.911,1.484 4.465,0.675 4.66,0.572 5.272,0.892 5.193,0.933 3.268,1.938 1.351,0.91 -0.441,0.088 -0.904,-0.125 -0.174,-0.08 0,0" />
      </g>
      <g
         transform="matrix(0.35277777,0,0,-0.35277777,10.848703,289.57585)"
         id="g1048">
        <path
           inkscape:connector-curvature="0"
           id="path1050"
           style="fill:#1a171b;fill-opacity:1;fill-rule:nonzero;stroke:none"
           d="M 0,0 C -1.91,1.083 -2.663,3.243 -4.092,4.803 -4.224,4.947 -4.939,4.67 -4.82,4.541 -3.389,2.978 -2.645,0.823 -0.729,-0.262 -0.534,-0.372 0.097,-0.055 0,0" />
      </g>
      <g
         transform="matrix(0.35277777,0,0,-0.35277777,10.498149,289.48007)"
         id="g1052">
        <path
           inkscape:connector-curvature="0"
           id="path1054"
           style="fill:#1a171b;fill-opacity:1;fill-rule:nonzero;stroke:none"
           d="M 0,0 C 0.246,-0.451 0.63,-0.703 0.989,-1.05 1.165,-1.219 1.887,-0.933 1.711,-0.763 1.378,-0.441 1,-0.212 0.772,0.207 0.644,0.443 -0.097,0.178 0,0" />
      </g>
      <g
         transform="matrix(0.35277777,0,0,-0.35277777,12.043633,289.13902)"
         id="g1056">
        <path
           inkscape:connector-curvature="0"
           id="path1058"
           style="fill:#1a171b;fill-opacity:1;fill-rule:nonzero;stroke:none"
           d="m 0,0 c -0.699,1.669 -1.627,3.248 -1.924,5.055 -0.033,0.2 -0.81,0.023 -0.772,-0.207 0.297,-1.807 1.224,-3.386 1.924,-5.055 C -0.68,-0.427 0.076,-0.181 0,0" />
      </g>
      <g
         transform="matrix(0.35277777,0,0,-0.35277777,13.648701,288.29357)"
         id="g1060">
        <path
           inkscape:connector-curvature="0"
           id="path1062"
           style="fill:#1a171b;fill-opacity:1;fill-rule:nonzero;stroke:none"
           d="M 0,0 C 0.953,1.352 0.96,2.885 0.502,4.426 0.408,4.742 -0.363,4.531 -0.271,4.219 0.164,2.758 0.175,1.339 -0.729,0.055 -0.956,-0.267 -0.169,-0.239 0,0" />
      </g>
      <g
         transform="matrix(0.35277777,0,0,-0.35277777,13.485578,288.53061)"
         id="g1064">
        <path
           inkscape:connector-curvature="0"
           id="path1066"
           style="fill:#1a171b;fill-opacity:1;fill-rule:nonzero;stroke:none"
           d="M 0,0 C 0.232,0.963 0.542,1.882 0.962,2.781 1.047,2.963 0.298,2.886 0.194,2.664 -0.225,1.766 -0.535,0.847 -0.768,-0.117 -0.824,-0.35 -0.055,-0.227 0,0" />
      </g>
      <g
         transform="matrix(0.35277777,0,0,-0.35277777,10.12611,289.99992)"
         id="g1068">
        <path
           inkscape:connector-curvature="0"
           id="path1070"
           style="fill:#1a171b;fill-opacity:1;fill-rule:nonzero;stroke:none"
           d="m 0,0 c -3.361,0.206 -5.066,3.439 -4.002,6.451 0.484,1.371 2.189,1.117 3.246,1.457 0.683,0.22 1.166,0.703 1.592,1.257 C 1.028,9.415 0.26,9.33 0.124,9.153 -0.886,7.84 -2.204,8.209 -3.548,7.673 -4.52,7.285 -4.858,6.199 -5.091,5.283 -5.829,2.372 -3.215,-0.214 -0.483,-0.381 -0.274,-0.394 0.416,-0.025 0,0" />
      </g>
      <g
         transform="matrix(0.35277777,0,0,-0.35277777,9.4720603,287.32583)"
         id="g1072">
        <path
           inkscape:connector-curvature="0"
           id="path1074"
           style="fill:#1a171b;fill-opacity:1;fill-rule:nonzero;stroke:none"
           d="M 0,0 C 1.662,1.646 4.304,3.126 6.218,1.055 6.931,0.283 7.545,-0.2 8.591,-0.4 8.84,-0.448 9.504,-0.061 9.063,0.023 7.316,0.357 6.68,2.461 4.889,2.561 2.706,2.683 0.895,1.631 -0.621,0.131 -0.944,-0.188 -0.183,-0.181 0,0" />
      </g>
      <g
         transform="matrix(0.35277777,0,0,-0.35277777,12.144738,288.01108)"
         id="g1076">
        <path
           inkscape:connector-curvature="0"
           id="path1078"
           style="fill:#1a171b;fill-opacity:1;fill-rule:nonzero;stroke:none"
           d="M 0,0 C 2.076,0.065 3.087,1.005 2.823,3.093 2.687,4.174 2.248,5.397 2.771,6.436 3.86,8.6 7.127,4.582 7.601,3.674 7.751,3.387 8.504,3.631 8.374,3.881 7.544,5.47 4.376,9.013 2.38,6.889 0.523,4.912 4.05,0.598 0.094,0.473 -0.31,0.46 -0.531,-0.018 0,0" />
      </g>
      <g
         transform="matrix(0.35277777,0,0,-0.35277777,12.129075,286.99891)"
         id="g1080">
        <path
           inkscape:connector-curvature="0"
           id="path1082"
           style="fill:#1a171b;fill-opacity:1;fill-rule:nonzero;stroke:none"
           d="M 0,0 C -0.021,0.598 -0.22,1.172 -0.242,1.77 -0.251,2.033 -1.026,1.874 -1.015,1.562 -0.993,0.965 -0.794,0.391 -0.772,-0.207 -0.763,-0.471 0.011,-0.312 0,0" />
      </g>
      <g
         transform="matrix(0.35277777,0,0,-0.35277777,20.018844,293.88152)"
         id="g1084">
        <path
           inkscape:connector-curvature="0"
           id="path1086"
           style="fill:#1a171b;fill-opacity:1;fill-rule:nonzero;stroke:none"
           d="M 0,0 C 0.691,1.386 0.435,4.565 2.162,5.132 2.683,5.302 2.197,5.477 1.879,5.372 -0.369,4.636 0.108,1.635 -0.768,-0.117 -0.852,-0.287 -0.109,-0.217 0,0" />
      </g>
      <g
         transform="matrix(0.35277777,0,0,-0.35277777,21.450629,292.95241)"
         id="g1088">
        <path
           inkscape:connector-curvature="0"
           id="path1090"
           style="fill:#1a171b;fill-opacity:1;fill-rule:nonzero;stroke:none"
           d="M 0,0 C -0.779,0.776 -1.775,1.094 -2.86,1.11 -3.045,1.112 -3.271,1.06 -3.365,0.881 -3.451,0.72 -3.293,0.586 -3.138,0.583 -2.218,0.57 -1.375,0.334 -0.709,-0.33 -0.479,-0.561 0.255,-0.254 0,0" />
      </g>
      <g
         transform="matrix(0.35277777,0,0,-0.35277777,19.038722,290.41818)"
         id="g1092">
        <path
           inkscape:connector-curvature="0"
           id="path1094"
           style="fill:#1a171b;fill-opacity:1;fill-rule:nonzero;stroke:none"
           d="M 0,0 C 1.719,-0.316 1.758,-2.173 1.765,-3.594 1.767,-3.964 2.544,-3.82 2.542,-3.518 2.534,-1.868 2.416,0.114 0.459,0.475 0.169,0.527 -0.457,0.085 0,0" />
      </g>
      <g
         transform="matrix(0.35277777,0,0,-0.35277777,19.670229,290.82849)"
         id="g1096">
        <path
           inkscape:connector-curvature="0"
           id="path1098"
           style="fill:#1a171b;fill-opacity:1;fill-rule:nonzero;stroke:none"
           d="M 0,0 C 1.008,-0.513 2.074,-0.8 3.176,-1.034 3.368,-1.075 4.048,-0.768 3.805,-0.716 2.742,-0.49 1.699,-0.223 0.727,0.273 0.516,0.38 -0.121,0.062 0,0" />
      </g>
      <g
         transform="matrix(0.35277777,0,0,-0.35277777,15.859949,287.36753)"
         id="g1100">
        <path
           inkscape:connector-curvature="0"
           id="path1102"
           style="fill:#1a171b;fill-opacity:1;fill-rule:nonzero;stroke:none"
           d="M 0,0 C 1.213,1.83 3.465,1.463 5.314,1.051 5.488,1.012 6.157,1.294 5.951,1.34 3.656,1.853 0.719,2.09 -0.76,-0.141 -0.806,-0.21 -0.122,-0.185 0,0" />
      </g>
      <g
         transform="matrix(0.35277777,0,0,-0.35277777,13.229779,285.05036)"
         id="g1104">
        <path
           inkscape:connector-curvature="0"
           id="path1106"
           style="fill:#1a171b;fill-opacity:1;fill-rule:nonzero;stroke:none"
           d="M 0,0 C 0.51,0.803 1.264,1.554 2.299,1.26 3.063,1.042 3.521,0.257 3.803,-0.422 3.884,-0.617 4.639,-0.367 4.575,-0.215 4.086,0.962 3.218,1.775 1.889,1.656 0.749,1.555 -0.17,0.802 -0.763,-0.133 -0.826,-0.232 -0.123,-0.193 0,0" />
      </g>
      <g
         transform="matrix(0.35277777,0,0,-0.35277777,14.393522,284.77065)"
         id="g1108">
        <path
           inkscape:connector-curvature="0"
           id="path1110"
           style="fill:#1a171b;fill-opacity:1;fill-rule:nonzero;stroke:none"
           d="m 0,0 c 0.885,0.119 1.789,0.289 2.681,0.148 1.111,-0.176 1.554,-1.107 1.671,-2.123 0.017,-0.141 0.796,0.01 0.773,0.207 C 4.819,0.896 2.375,0.576 0.337,0.301 0.146,0.275 -0.503,-0.068 0,0" />
      </g>
      <g
         transform="matrix(0.35277777,0,0,-0.35277777,16.076976,285.02692)"
         id="g1112">
        <path
           inkscape:connector-curvature="0"
           id="path1114"
           style="fill:#1a171b;fill-opacity:1;fill-rule:nonzero;stroke:none"
           d="M 0,0 C 1.496,0.405 2.141,-0.391 2.836,-1.549 3.357,-2.415 3.938,-3.146 4.893,-3.55 5.104,-3.64 5.704,-3.321 5.621,-3.286 4.246,-2.704 3.869,-1.47 2.994,-0.397 2.183,0.597 1.088,0.556 -0.066,0.242 -0.516,0.12 -0.451,-0.122 0,0" />
      </g>
      <g
         transform="matrix(0.35277777,0,0,-0.35277777,13.063371,285.53235)"
         id="g1116">
        <path
           inkscape:connector-curvature="0"
           id="path1118"
           style="fill:#1a171b;fill-opacity:1;fill-rule:nonzero;stroke:none"
           d="M 0,0 C -2.42,0.001 -4.792,0.057 -7.129,0.751 -7.372,0.822 -8.037,0.463 -7.603,0.333 -5.207,-0.378 -2.783,-0.435 -0.302,-0.436 -0.015,-0.436 0.522,0 0,0" />
      </g>
      <g
         transform="matrix(0.35277777,0,0,-0.35277777,13.713649,292.55207)"
         id="g1120">
        <path
           inkscape:connector-curvature="0"
           id="path1122"
           style="fill:#1a171b;fill-opacity:1;fill-rule:nonzero;stroke:none"
           d="m 0,0 c 3.771,1.315 7.449,6.336 11.723,4.116 0.173,-0.09 0.631,0.027 0.695,0.229 1.092,3.444 2.521,6.04 6.812,6.063 0.147,0 0.565,0.084 0.543,0.298 -0.252,2.594 -2.531,5.44 -5.437,5.143 C 14,15.813 13.64,15.823 13.313,15.71 c -1.54,-0.536 -0.67,-0.385 -0.452,-0.064 1.098,1.621 0.868,3.28 -0.132,4.813 -0.124,0.187 -0.875,-0.054 -0.723,-0.287 1.289,-1.975 0.837,-3.513 -0.405,-5.347 -0.206,-0.305 0.561,-0.102 0.661,-0.037 3.023,1.993 5.865,-0.861 6.653,-3.402 0.224,-0.722 -2.186,-0.91 -2.544,-1.014 C 14.853,9.937 13.494,8.572 12.816,7.19 12.063,5.651 12.25,4.925 10.471,5.179 9.791,5.275 9.045,5.198 8.386,5.021 5.137,4.151 2.856,1.36 -0.291,0.264 -0.806,0.084 -0.328,-0.114 0,0" />
      </g>
      <g
         transform="matrix(0.35277777,0,0,-0.35277777,14.007688,291.92646)"
         id="g1124">
        <path
           inkscape:connector-curvature="0"
           id="path1126"
           style="fill:#1a171b;fill-opacity:1;fill-rule:nonzero;stroke:none"
           d="m 0,0 c 0.57,-0.403 1.097,-0.8 1.757,-1.044 0.151,0.165 0.303,0.331 0.453,0.496 -1.024,0.301 -1.882,0.979 -2.812,1.482 -0.277,0.15 -0.966,-0.23 -0.6,-0.428 0.978,-0.53 1.88,-1.233 2.959,-1.55 C 2.058,-1.132 2.675,-0.72 2.21,-0.548 1.604,-0.324 1.123,0.059 0.601,0.428 0.34,0.612 -0.35,0.247 0,0" />
      </g>
      <g
         transform="matrix(0.35277777,0,0,-0.35277777,14.682764,291.2791)"
         id="g1128">
        <path
           inkscape:connector-curvature="0"
           id="path1130"
           style="fill:#1a171b;fill-opacity:1;fill-rule:nonzero;stroke:none"
           d="M 0,0 C 1.144,0.219 2.037,-0.191 2.833,-0.996 2.978,-1.142 3.688,-0.858 3.562,-0.73 2.591,0.25 1.482,0.553 0.141,0.297 -0.169,0.237 -0.542,-0.104 0,0" />
      </g>
      <g
         transform="matrix(0.35277777,0,0,-0.35277777,15.249819,290.26075)"
         id="g1132">
        <path
           inkscape:connector-curvature="0"
           id="path1134"
           style="fill:#1a171b;fill-opacity:1;fill-rule:nonzero;stroke:none"
           d="M 0,0 C -0.248,-0.63 0.091,-1.167 0.51,-1.629 0.706,-1.846 1.444,-1.558 1.225,-1.316 0.854,-0.907 0.556,-0.474 0.775,0.086 0.885,0.365 0.107,0.273 0,0" />
      </g>
      <g
         transform="matrix(0.35277777,0,0,-0.35277777,17.84912,290.36441)"
         id="g1136">
        <path
           inkscape:connector-curvature="0"
           id="path1138"
           style="fill:#1a171b;fill-opacity:1;fill-rule:nonzero;stroke:none"
           d="M 0,0 C -0.49,0.027 -0.949,0.228 -1.441,0.254 -1.626,0.264 -1.836,0.212 -1.988,0.107 -2.11,0.024 -2.09,-0.076 -1.937,-0.084 c 0.492,-0.027 0.95,-0.228 1.443,-0.254 0.183,-0.01 0.392,0.042 0.546,0.147 C 0.174,-0.108 0.152,-0.008 0,0" />
      </g>
    </g>
  </g>
</svg>
