<?xml version="1.0" encoding="UTF-8" standalone="no"?>
<!-- Created with Inkscape (http://www.inkscape.org/) -->

<svg
   xmlns:dc="http://purl.org/dc/elements/1.1/"
   xmlns:cc="http://creativecommons.org/ns#"
   xmlns:rdf="http://www.w3.org/1999/02/22-rdf-syntax-ns#"
   xmlns:svg="http://www.w3.org/2000/svg"
   xmlns="http://www.w3.org/2000/svg"
   xmlns:sodipodi="http://sodipodi.sourceforge.net/DTD/sodipodi-0.dtd"
   xmlns:inkscape="http://www.inkscape.org/namespaces/inkscape"
   width="100"
   height="100"
   viewBox="0 0 26.458333 26.458334"
   version="1.1"
   id="svg2194"
   inkscape:version="0.92.4 (unknown)"
   sodipodi:docname="Cerebellum.svg">
  <defs
     id="defs2188" />
  <sodipodi:namedview
     id="base"
     pagecolor="#ffffff"
     bordercolor="#666666"
     borderopacity="1.0"
     inkscape:pageopacity="0.0"
     inkscape:pageshadow="2"
     inkscape:zoom="3.959798"
     inkscape:cx="105.75432"
     inkscape:cy="16.756197"
     inkscape:document-units="mm"
     inkscape:current-layer="layer1"
     showgrid="false"
     units="px"
     inkscape:window-width="1853"
     inkscape:window-height="1016"
     inkscape:window-x="67"
     inkscape:window-y="27"
     inkscape:window-maximized="1" />
  <metadata
     id="metadata2191">
    <rdf:RDF>
      <cc:Work
         rdf:about="">
        <dc:format>image/svg+xml</dc:format>
        <dc:type
           rdf:resource="http://purl.org/dc/dcmitype/StillImage" />
        <dc:title></dc:title>
      </cc:Work>
    </rdf:RDF>
  </metadata>
  <g
     inkscape:label="Layer 1"
     inkscape:groupmode="layer"
     id="layer1"
     transform="translate(0,-270.54165)">
    <g
       id="g3315"
       transform="matrix(1.6890727,0,0,1.6890727,-17.909943,-209.02719)">
      <g
         transform="matrix(0.35277777,0,0,-0.35277777,13.551473,286.81514)"
         id="g1780">
        <path
           inkscape:connector-curvature="0"
           id="path1782"
           style="fill:#d3d3d3;fill-opacity:1;fill-rule:nonzero;stroke:none"
           d="m 0,0 c -1.805,-2.275 -6.092,-5.055 -6.542,-8.09 -0.677,-3.033 3.835,-7.33 5.64,-9.857 4.062,-5.307 10.601,-8.846 16.918,-9.1 2.484,0 4.062,1.772 6.317,2.022 2.934,0.254 5.415,-1.516 8.571,-0.25 3.386,1.767 4.514,5.306 3.386,9.351 -0.903,3.031 -2.255,8.088 -3.836,11.119 -4.286,7.584 -8.348,6.321 -14.438,7.332 -2.707,0.506 -5.865,-1.263 -8.571,-1.263 -2.932,0 -5.416,-2.022 -8.122,-2.022" />
      </g>
      <g
         transform="matrix(0.35277777,0,0,-0.35277777,19.228656,295.63389)"
         id="g1784">
        <path
           inkscape:connector-curvature="0"
           id="path1786"
           style="fill:#33cbff;fill-opacity:1;fill-rule:nonzero;stroke:none"
           d="m 0,0 c -4.275,0.25 0,-4.875 1.425,-5.625 2.058,-1.125 2.85,-0.375 4.909,0.5 1.425,0.75 3.167,0.875 4.592,1.5 3.8,1.75 -0.634,4.375 -3.484,4.375 -2.216,0 -5.7,-0.25 -7.917,-0.875" />
      </g>
      <g
         transform="matrix(0.35277777,0,0,-0.35277777,12.699866,292.93157)"
         id="g1788">
        <path
           inkscape:connector-curvature="0"
           id="path1790"
           style="fill:#1a171b;fill-opacity:1;fill-rule:nonzero;stroke:none"
           d="m 0,0 c -0.282,2.492 -1.888,3.914 -2.898,6.129 -2.457,5.382 5.354,9.401 9.126,11.074 10.121,4.487 21.21,-0.539 26.266,-9.738 2.371,-4.313 3.749,-9.625 0.675,-13.884 -2.267,-3.142 -12.348,-1.44 -15.603,-0.96 -1.899,0.281 -3.647,1.286 -5.519,1.563 C 9.693,-5.469 6.778,-5.6 4.786,-4.252 3.912,-3.66 3.705,-1.136 2.569,-0.428 1.193,0.43 -0.238,0.822 -1.762,1.344 -1.986,1.421 -2.688,1.086 -2.379,0.98 c 3.228,-1.105 4.605,-2.598 6.446,-5.529 0.852,-1.355 3.591,-1.306 4.925,-1.393 3.207,-0.21 6.266,-1.571 9.445,-2.04 3.195,-0.472 6.45,-0.466 9.657,-0.897 3.206,-0.431 4.976,1.325 6.741,3.77 C 37.593,-1.288 34.729,5.497 32.59,8.9 26.955,17.869 17.243,20.82 7.299,17.987 3.597,16.933 -0.121,14.643 -2.569,11.683 -6.305,7.167 -1.254,4.055 -0.773,-0.207 -0.746,-0.449 0.031,-0.28 0,0" />
      </g>
      <g
         transform="matrix(0.35277777,0,0,-0.35277777,14.217765,294.25002)"
         id="g1792">
        <path
           inkscape:connector-curvature="0"
           id="path1794"
           style="fill:#1a171b;fill-opacity:1;fill-rule:nonzero;stroke:none"
           d="m 0,0 c -7.309,6.339 12.624,14.032 17.689,12.253 0.271,-0.095 0.909,0.297 0.465,0.453 C 12.768,14.598 -8.562,6.492 -0.715,-0.314 -0.49,-0.509 0.234,-0.204 0,0" />
      </g>
      <g
         transform="matrix(0.35277777,0,0,-0.35277777,16.009909,293.55583)"
         id="g1796">
        <path
           inkscape:connector-curvature="0"
           id="path1798"
           style="fill:#1a171b;fill-opacity:1;fill-rule:nonzero;stroke:none"
           d="m 0,0 c -0.604,2.933 -0.314,5.06 3.434,5.166 1.72,0.049 3.435,-0.167 5.16,-0.112 3.285,0.103 6.606,1.298 9.118,3.403 0.321,0.269 -0.45,0.195 -0.604,0.066 C 13.648,5.624 9.495,5.283 5.219,5.494 4.067,5.551 2.807,5.641 1.682,5.328 -1.111,4.554 -1.314,2.427 -0.773,-0.207 -0.73,-0.416 0.047,-0.228 0,0" />
      </g>
      <g
         transform="matrix(0.35277777,0,0,-0.35277777,15.757709,292.36311)"
         id="g1800">
        <path
           inkscape:connector-curvature="0"
           id="path1802"
           style="fill:#1a171b;fill-opacity:1;fill-rule:nonzero;stroke:none"
           d="m 0,0 h -1.439 c -0.26,0 -0.832,-0.395 -0.313,-0.395 h 1.44 C -0.053,-0.395 0.52,0 0,0" />
      </g>
      <g
         transform="matrix(0.35277777,0,0,-0.35277777,16.519428,291.61519)"
         id="g1804">
        <path
           inkscape:connector-curvature="0"
           id="path1806"
           style="fill:#1a171b;fill-opacity:1;fill-rule:nonzero;stroke:none"
           d="M 0,0 V 0.506 C 0,0.853 -0.775,0.695 -0.775,0.418 V -0.088 C -0.775,-0.435 0,-0.277 0,0" />
      </g>
      <g
         transform="matrix(0.35277777,0,0,-0.35277777,18.469688,291.52288)"
         id="g1808">
        <path
           inkscape:connector-curvature="0"
           id="path1810"
           style="fill:#1a171b;fill-opacity:1;fill-rule:nonzero;stroke:none"
           d="M 0,0 C 0.289,0.81 0.923,1.424 1.605,1.916 1.74,2.013 1.686,2.144 1.538,2.17 1.348,2.203 1.145,2.134 0.992,2.023 0.238,1.48 -0.453,0.786 -0.77,-0.104 -0.855,-0.346 -0.087,-0.245 0,0" />
      </g>
      <g
         transform="matrix(0.35277777,0,0,-0.35277777,19.796063,291.63413)"
         id="g1812">
        <path
           inkscape:connector-curvature="0"
           id="path1814"
           style="fill:#1a171b;fill-opacity:1;fill-rule:nonzero;stroke:none"
           d="M 0,0 C 1.234,0.799 2.228,1.842 2.97,3.111 3.025,3.207 2.32,3.166 2.208,2.975 1.506,1.773 0.578,0.776 -0.592,0.02 -0.913,-0.188 -0.137,-0.088 0,0" />
      </g>
      <g
         transform="matrix(0.35277777,0,0,-0.35277777,15.056317,293.75736)"
         id="g1816">
        <path
           inkscape:connector-curvature="0"
           id="path1818"
           style="fill:#1a171b;fill-opacity:1;fill-rule:nonzero;stroke:none"
           d="m 0,0 c 1.864,-0.172 3.233,-2.021 4.895,-2.751 1.058,-0.465 2.781,-0.377 3.904,-0.379 0.693,-0.002 1.699,0.178 2.289,0.511 1.828,1.03 4.141,3.3 6.564,1.194 0.762,-0.66 1.397,-1.577 2.102,-2.301 0.187,-0.191 0.92,0.095 0.719,0.301 C 19,-1.914 17.058,1.048 14.43,-0.135 10.946,-1.702 7.635,-4.185 3.824,-1.413 2.521,-0.466 1.912,0.284 0.301,0.432 0.01,0.459 -0.521,0.048 0,0" />
      </g>
      <g
         transform="matrix(0.35277777,0,0,-0.35277777,21.192004,293.93339)"
         id="g1820">
        <path
           inkscape:connector-curvature="0"
           id="path1822"
           style="fill:#1a171b;fill-opacity:1;fill-rule:nonzero;stroke:none"
           d="M 0,0 C 1.963,0.845 3.859,0.382 5.252,-1.22 5.467,-1.468 6.204,-1.169 5.961,-0.89 4.295,1.028 1.965,1.407 -0.332,0.418 -0.821,0.208 -0.384,-0.166 0,0" />
      </g>
      <g
         transform="matrix(0.35277777,0,0,-0.35277777,15.994071,291.90181)"
         id="g1824">
        <path
           inkscape:connector-curvature="0"
           id="path1826"
           style="fill:#1a171b;fill-opacity:1;fill-rule:nonzero;stroke:none"
           d="M 0,0 C 1.309,-0.023 2.292,-0.694 2.877,-1.86 3.036,-2.177 3.796,-1.944 3.65,-1.653 2.967,-0.293 1.811,0.502 0.275,0.529 -0.074,0.535 -0.523,0.01 0,0" />
      </g>
      <g
         transform="matrix(0.35277777,0,0,-0.35277777,17.519553,291.80741)"
         id="g1828">
        <path
           inkscape:connector-curvature="0"
           id="path1830"
           style="fill:#1a171b;fill-opacity:1;fill-rule:nonzero;stroke:none"
           d="M 0,0 C 0.912,-0.025 1.58,-0.545 2.192,-1.175 2.408,-1.396 3.143,-1.099 2.905,-0.854 2.178,-0.105 1.361,0.468 0.285,0.498 0.105,0.503 -0.125,0.443 -0.222,0.274 -0.313,0.115 -0.145,0.004 0,0" />
      </g>
      <g
         transform="matrix(0.35277777,0,0,-0.35277777,19.005771,288.2576)"
         id="g1832">
        <path
           inkscape:connector-curvature="0"
           id="path1834"
           style="fill:#1a171b;fill-opacity:1;fill-rule:nonzero;stroke:none"
           d="M 0,0 C 1.426,0.654 2.911,1.484 4.465,0.675 4.66,0.572 5.272,0.892 5.193,0.933 3.268,1.937 1.351,0.91 -0.441,0.088 -0.904,-0.125 -0.174,-0.08 0,0" />
      </g>
      <g
         transform="matrix(0.35277777,0,0,-0.35277777,14.390024,291.31685)"
         id="g1836">
        <path
           inkscape:connector-curvature="0"
           id="path1838"
           style="fill:#1a171b;fill-opacity:1;fill-rule:nonzero;stroke:none"
           d="M 0,0 C -1.91,1.082 -2.663,3.242 -4.092,4.803 -4.224,4.945 -4.939,4.669 -4.82,4.539 -3.389,2.977 -2.645,0.822 -0.729,-0.264 -0.534,-0.373 0.098,-0.056 0,0" />
      </g>
      <g
         transform="matrix(0.35277777,0,0,-0.35277777,14.03933,291.22141)"
         id="g1840">
        <path
           inkscape:connector-curvature="0"
           id="path1842"
           style="fill:#1a171b;fill-opacity:1;fill-rule:nonzero;stroke:none"
           d="m 0,0 c 0.246,-0.451 0.631,-0.703 0.99,-1.05 0.175,-0.169 0.898,0.117 0.721,0.287 -0.332,0.322 -0.71,0.551 -0.938,0.97 C 0.645,0.443 -0.096,0.178 0,0" />
      </g>
      <g
         transform="matrix(0.35277777,0,0,-0.35277777,15.584777,290.88036)"
         id="g1844">
        <path
           inkscape:connector-curvature="0"
           id="path1846"
           style="fill:#1a171b;fill-opacity:1;fill-rule:nonzero;stroke:none"
           d="m 0,0 c -0.699,1.669 -1.627,3.248 -1.924,5.055 -0.032,0.2 -0.81,0.023 -0.771,-0.207 0.297,-1.807 1.224,-3.386 1.924,-5.055 C -0.68,-0.427 0.076,-0.181 0,0" />
      </g>
      <g
         transform="matrix(0.35277777,0,0,-0.35277777,17.1902,290.03491)"
         id="g1848">
        <path
           inkscape:connector-curvature="0"
           id="path1850"
           style="fill:#1a171b;fill-opacity:1;fill-rule:nonzero;stroke:none"
           d="M 0,0 C 0.952,1.352 0.959,2.885 0.502,4.426 0.408,4.742 -0.363,4.531 -0.271,4.219 0.163,2.758 0.175,1.339 -0.73,0.055 -0.957,-0.267 -0.17,-0.239 0,0" />
      </g>
      <g
         transform="matrix(0.35277777,0,0,-0.35277777,17.026899,290.27195)"
         id="g1852">
        <path
           inkscape:connector-curvature="0"
           id="path1854"
           style="fill:#1a171b;fill-opacity:1;fill-rule:nonzero;stroke:none"
           d="M 0,0 C 0.232,0.963 0.543,1.882 0.962,2.781 1.047,2.963 0.298,2.886 0.194,2.664 -0.225,1.766 -0.535,0.847 -0.768,-0.117 -0.824,-0.35 -0.055,-0.227 0,0" />
      </g>
      <g
         transform="matrix(0.35277777,0,0,-0.35277777,13.667254,291.74126)"
         id="g1856">
        <path
           inkscape:connector-curvature="0"
           id="path1858"
           style="fill:#1a171b;fill-opacity:1;fill-rule:nonzero;stroke:none"
           d="m 0,0 c -3.361,0.205 -5.066,3.439 -4.002,6.451 0.484,1.371 2.19,1.117 3.246,1.457 0.684,0.22 1.166,0.703 1.592,1.257 C 1.029,9.415 0.26,9.33 0.125,9.153 -0.886,7.84 -2.203,8.209 -3.547,7.673 -4.52,7.285 -4.857,6.199 -5.09,5.283 -5.828,2.371 -3.215,-0.214 -0.482,-0.381 -0.273,-0.394 0.416,-0.025 0,0" />
      </g>
      <g
         transform="matrix(0.35277777,0,0,-0.35277777,13.013382,289.06723)"
         id="g1860">
        <path
           inkscape:connector-curvature="0"
           id="path1862"
           style="fill:#1a171b;fill-opacity:1;fill-rule:nonzero;stroke:none"
           d="M 0,0 C 1.662,1.646 4.305,3.126 6.218,1.055 6.931,0.283 7.545,-0.2 8.592,-0.4 8.84,-0.448 9.504,-0.061 9.063,0.023 7.316,0.357 6.68,2.461 4.889,2.561 2.705,2.683 0.895,1.631 -0.621,0.131 -0.943,-0.188 -0.184,-0.182 0,0" />
      </g>
      <g
         transform="matrix(0.35277777,0,0,-0.35277777,15.686059,289.75242)"
         id="g1864">
        <path
           inkscape:connector-curvature="0"
           id="path1866"
           style="fill:#1a171b;fill-opacity:1;fill-rule:nonzero;stroke:none"
           d="M 0,0 C 2.076,0.065 3.087,1.005 2.823,3.093 2.688,4.174 2.248,5.397 2.771,6.436 3.86,8.6 7.127,4.582 7.602,3.674 7.751,3.387 8.504,3.631 8.373,3.881 7.545,5.47 4.376,9.013 2.38,6.889 0.523,4.912 4.051,0.598 0.094,0.473 -0.311,0.46 -0.531,-0.017 0,0" />
      </g>
      <g
         transform="matrix(0.35277777,0,0,-0.35277777,15.670221,288.74025)"
         id="g1868">
        <path
           inkscape:connector-curvature="0"
           id="path1870"
           style="fill:#1a171b;fill-opacity:1;fill-rule:nonzero;stroke:none"
           d="M 0,0 C -0.021,0.598 -0.22,1.172 -0.242,1.77 -0.251,2.033 -1.025,1.874 -1.014,1.562 -0.992,0.965 -0.794,0.391 -0.771,-0.207 -0.763,-0.471 0.012,-0.312 0,0" />
      </g>
      <g
         transform="matrix(0.35277777,0,0,-0.35277777,23.560165,295.62254)"
         id="g1872">
        <path
           inkscape:connector-curvature="0"
           id="path1874"
           style="fill:#1a171b;fill-opacity:1;fill-rule:nonzero;stroke:none"
           d="M 0,0 C 0.691,1.385 0.435,4.564 2.162,5.131 2.683,5.301 2.197,5.476 1.879,5.371 -0.369,4.635 0.107,1.634 -0.768,-0.119 -0.852,-0.288 -0.109,-0.218 0,0" />
      </g>
      <g
         transform="matrix(0.35277777,0,0,-0.35277777,24.99195,294.69375)"
         id="g1876">
        <path
           inkscape:connector-curvature="0"
           id="path1878"
           style="fill:#1a171b;fill-opacity:1;fill-rule:nonzero;stroke:none"
           d="M 0,0 C -0.779,0.776 -1.775,1.094 -2.86,1.109 -3.045,1.112 -3.271,1.06 -3.365,0.881 -3.451,0.72 -3.293,0.586 -3.138,0.584 -2.218,0.57 -1.375,0.334 -0.709,-0.33 -0.479,-0.561 0.255,-0.254 0,0" />
      </g>
      <g
         transform="matrix(0.35277777,0,0,-0.35277777,22.580043,292.15952)"
         id="g1880">
        <path
           inkscape:connector-curvature="0"
           id="path1882"
           style="fill:#1a171b;fill-opacity:1;fill-rule:nonzero;stroke:none"
           d="M 0,0 C 1.719,-0.316 1.758,-2.173 1.765,-3.594 1.767,-3.964 2.544,-3.82 2.542,-3.518 2.534,-1.867 2.416,0.114 0.459,0.475 0.169,0.527 -0.457,0.084 0,0" />
      </g>
      <g
         transform="matrix(0.35277777,0,0,-0.35277777,23.21155,292.56983)"
         id="g1884">
        <path
           inkscape:connector-curvature="0"
           id="path1886"
           style="fill:#1a171b;fill-opacity:1;fill-rule:nonzero;stroke:none"
           d="M 0,0 C 1.008,-0.513 2.074,-0.8 3.176,-1.034 3.368,-1.075 4.048,-0.768 3.805,-0.716 2.742,-0.49 1.699,-0.223 0.727,0.273 0.516,0.38 -0.121,0.062 0,0" />
      </g>
      <g
         transform="matrix(0.35277777,0,0,-0.35277777,19.40127,289.10887)"
         id="g1888">
        <path
           inkscape:connector-curvature="0"
           id="path1890"
           style="fill:#1a171b;fill-opacity:1;fill-rule:nonzero;stroke:none"
           d="M 0,0 C 1.213,1.83 3.465,1.464 5.314,1.051 5.488,1.012 6.157,1.294 5.951,1.34 3.656,1.853 0.719,2.09 -0.76,-0.141 -0.807,-0.21 -0.122,-0.185 0,0" />
      </g>
      <g
         transform="matrix(0.35277777,0,0,-0.35277777,16.771274,286.79173)"
         id="g1892">
        <path
           inkscape:connector-curvature="0"
           id="path1894"
           style="fill:#1a171b;fill-opacity:1;fill-rule:nonzero;stroke:none"
           d="M 0,0 C 0.51,0.803 1.264,1.554 2.299,1.259 3.063,1.042 3.52,0.257 3.803,-0.422 3.883,-0.617 4.639,-0.367 4.574,-0.215 4.086,0.962 3.218,1.775 1.889,1.656 0.748,1.555 -0.17,0.802 -0.764,-0.133 -0.826,-0.232 -0.123,-0.193 0,0" />
      </g>
      <g
         transform="matrix(0.35277777,0,0,-0.35277777,17.935018,286.51233)"
         id="g1896">
        <path
           inkscape:connector-curvature="0"
           id="path1898"
           style="fill:#1a171b;fill-opacity:1;fill-rule:nonzero;stroke:none"
           d="m 0,0 c 0.885,0.12 1.789,0.29 2.681,0.148 1.11,-0.175 1.553,-1.106 1.671,-2.122 0.016,-0.141 0.795,0.01 0.773,0.207 C 4.818,0.896 2.375,0.577 0.336,0.303 0.146,0.276 -0.504,-0.067 0,0" />
      </g>
      <g
         transform="matrix(0.35277777,0,0,-0.35277777,19.618297,286.76831)"
         id="g1900">
        <path
           inkscape:connector-curvature="0"
           id="path1902"
           style="fill:#1a171b;fill-opacity:1;fill-rule:nonzero;stroke:none"
           d="M 0,0 C 1.496,0.405 2.141,-0.391 2.836,-1.549 3.357,-2.415 3.938,-3.146 4.893,-3.55 5.104,-3.64 5.704,-3.321 5.621,-3.286 4.246,-2.704 3.869,-1.47 2.994,-0.397 2.183,0.597 1.088,0.556 -0.066,0.242 -0.516,0.12 -0.451,-0.122 0,0" />
      </g>
      <g
         transform="matrix(0.35277777,0,0,-0.35277777,16.604518,287.27369)"
         id="g1904">
        <path
           inkscape:connector-curvature="0"
           id="path1906"
           style="fill:#1a171b;fill-opacity:1;fill-rule:nonzero;stroke:none"
           d="M 0,0 C -2.42,0.001 -4.791,0.057 -7.129,0.751 -7.371,0.822 -8.037,0.463 -7.602,0.333 -5.207,-0.378 -2.782,-0.435 -0.301,-0.436 -0.014,-0.436 0.522,0 0,0" />
      </g>
      <g
         transform="matrix(0.35277777,0,0,-0.35277777,16.530117,293.65812)"
         id="g1908">
        <path
           inkscape:connector-curvature="0"
           id="path1910"
           style="fill:#1a171b;fill-opacity:1;fill-rule:nonzero;stroke:none"
           d="m 0,0 c 3.746,0.565 8.75,4.691 12.447,1.812 0.196,-0.152 0.635,0 0.744,0.2 1.612,2.941 3.206,5.389 7.793,4.557 0.137,-0.025 0.612,0.046 0.625,0.245 0.231,3.131 -1.615,5.528 -4.689,6.138 -0.781,0.155 -1.689,-0.477 -1.012,0.218 1.295,1.329 1.256,2.949 0.654,4.561 -0.087,0.24 -0.851,0.007 -0.771,-0.207 0.746,-2.003 0.051,-3.704 -1.414,-5.209 -0.224,-0.229 0.432,-0.152 0.501,-0.126 2.165,0.433 3.802,-0.093 4.914,-1.578 1.074,-1.058 1.24,-2.208 0.499,-3.449 C 19.693,7.271 18.518,7.234 17.924,7.049 16.069,6.469 14.894,5.54 13.674,4.002 12.219,2.166 11.426,3.423 9.248,3.367 6.051,3.284 3.259,0.847 0.121,0.373 -0.227,0.32 -0.538,-0.081 0,0" />
      </g>
      <g
         transform="matrix(0.35277777,0,0,-0.35277777,17.549186,293.6678)"
         id="g1912">
        <path
           inkscape:connector-curvature="0"
           id="path1914"
           style="fill:#1a171b;fill-opacity:1;fill-rule:nonzero;stroke:none"
           d="m 0,0 c 0.57,-0.403 1.096,-0.8 1.757,-1.044 0.151,0.165 0.302,0.331 0.453,0.496 -1.024,0.301 -1.883,0.979 -2.812,1.482 -0.278,0.15 -0.966,-0.23 -0.601,-0.428 0.978,-0.53 1.881,-1.233 2.96,-1.55 0.3,-0.088 0.917,0.324 0.453,0.496 C 1.604,-0.324 1.123,0.059 0.6,0.428 0.34,0.612 -0.35,0.247 0,0" />
      </g>
      <g
         transform="matrix(0.35277777,0,0,-0.35277777,18.224086,293.02044)"
         id="g1916">
        <path
           inkscape:connector-curvature="0"
           id="path1918"
           style="fill:#1a171b;fill-opacity:1;fill-rule:nonzero;stroke:none"
           d="M 0,0 C 1.144,0.219 2.036,-0.191 2.833,-0.996 2.978,-1.142 3.688,-0.858 3.562,-0.73 2.591,0.25 1.481,0.553 0.141,0.297 -0.169,0.237 -0.542,-0.103 0,0" />
      </g>
      <g
         transform="matrix(0.35277777,0,0,-0.35277777,18.791141,292.00209)"
         id="g1920">
        <path
           inkscape:connector-curvature="0"
           id="path1922"
           style="fill:#1a171b;fill-opacity:1;fill-rule:nonzero;stroke:none"
           d="M 0,0 C -0.247,-0.63 0.091,-1.167 0.51,-1.629 0.706,-1.846 1.444,-1.558 1.225,-1.316 0.854,-0.907 0.556,-0.474 0.775,0.086 0.886,0.365 0.107,0.273 0,0" />
      </g>
      <g
         transform="matrix(0.35277777,0,0,-0.35277777,21.390441,292.10575)"
         id="g1924">
        <path
           inkscape:connector-curvature="0"
           id="path1926"
           style="fill:#1a171b;fill-opacity:1;fill-rule:nonzero;stroke:none"
           d="M 0,0 C -0.49,0.027 -0.949,0.228 -1.441,0.254 -1.626,0.264 -1.836,0.212 -1.988,0.107 -2.11,0.024 -2.09,-0.076 -1.937,-0.084 c 0.492,-0.027 0.95,-0.228 1.443,-0.254 0.183,-0.01 0.392,0.042 0.546,0.147 C 0.174,-0.108 0.152,-0.008 0,0" />
      </g>
      <g
         transform="matrix(0.35277777,0,0,-0.35277777,16.890125,295.19466)"
         id="g1928">
        <path
           inkscape:connector-curvature="0"
           id="path1930"
           style="fill:#1a171b;fill-opacity:1;fill-rule:nonzero;stroke:none"
           d="M 0,0 C 1.518,-1.64 3.133,-3.334 2.978,-5.724 2.972,-5.823 3.736,-5.738 3.751,-5.517 3.907,-3.106 2.254,-1.388 0.729,0.26 0.6,0.399 -0.111,0.12 0,0" />
      </g>
      <g
         transform="matrix(0.35277777,0,0,-0.35277777,18.963048,297.36128)"
         id="g1932">
        <path
           inkscape:connector-curvature="0"
           id="path1934"
           style="fill:#1a171b;fill-opacity:1;fill-rule:nonzero;stroke:none"
           d="M 0,0 C 0.001,1.604 0.09,3.101 0.744,4.59 0.8,4.716 0.068,4.65 -0.018,4.453 -0.685,2.937 -0.772,1.43 -0.773,-0.207 -0.773,-0.332 0,-0.222 0,0" />
      </g>
      <g
         transform="matrix(0.35277777,0,0,-0.35277777,18.980617,295.8468)"
         id="g1936">
        <path
           inkscape:connector-curvature="0"
           id="path1938"
           style="fill:#1a171b;fill-opacity:1;fill-rule:nonzero;stroke:none"
           d="m 0,0 c 0.585,-1.524 -0.189,-5.03 2.688,-4.599 0.404,0.062 0.724,0.162 1.097,0.34 0.879,0.421 1.664,0.451 2.614,0.379 1.015,-0.077 1.88,0.276 2.807,0.645 0.889,0.352 3.44,1.55 2.407,2.845 C 11.03,0.34 9.381,0.437 8.572,0.475 6.464,0.571 4.301,0.287 2.28,1.029 2.066,1.108 1.362,0.787 1.659,0.678 3.446,0.021 5.309,0.108 7.185,0.107 8.375,0.106 9.91,0.104 10.893,-0.681 11.962,-1.537 9.399,-2.742 8.912,-2.959 7.201,-3.722 5.443,-3.069 3.779,-3.834 0.577,-5.305 1.394,-1.409 0.773,0.207 0.679,0.454 -0.084,0.221 0,0" />
      </g>
      <g
         transform="matrix(0.35277777,0,0,-0.35277777,20.979808,296.10588)"
         id="g1940">
        <path
           inkscape:connector-curvature="0"
           id="path1942"
           style="fill:#1a171b;fill-opacity:1;fill-rule:nonzero;stroke:none"
           d="m 0,0 c -1.829,1.773 -4.004,-0.788 -3.995,-2.699 0.002,-0.374 0.78,-0.232 0.779,0.074 -0.006,1.164 1.146,3.617 2.505,2.301 C -0.484,-0.544 0.248,-0.239 0,0" />
      </g>
      <g
         transform="matrix(0.35277777,0,0,-0.35277777,20.639766,296.65505)"
         id="g1944">
        <path
           inkscape:connector-curvature="0"
           id="path1946"
           style="fill:#1a171b;fill-opacity:1;fill-rule:nonzero;stroke:none"
           d="m 0,0 c 0.487,-0.76 1.182,-0.902 2.007,-0.615 0.074,0.026 0.336,0.167 0.214,0.279 C 2.097,-0.222 1.848,-0.3 1.714,-0.346 1.274,-0.499 0.922,-0.024 0.721,0.289 0.599,0.479 -0.153,0.238 0,0" />
      </g>
      <g
         transform="matrix(0.35277777,0,0,-0.35277777,21.595089,296.41492)"
         id="g1948">
        <path
           inkscape:connector-curvature="0"
           id="path1950"
           style="fill:#1a171b;fill-opacity:1;fill-rule:nonzero;stroke:none"
           d="M 0,0 C 0.258,0.233 0.563,0.396 0.872,0.55 L 0.266,0.485 C 0.528,-0.08 1.059,-0.205 1.537,-0.539 1.708,-0.658 2.354,-0.344 2.268,-0.283 1.812,0.034 1.29,0.151 1.039,0.692 0.972,0.836 0.521,0.672 0.433,0.628 0.037,0.429 -0.364,0.228 -0.695,-0.072 -0.823,-0.188 -0.581,-0.186 -0.519,-0.18 -0.354,-0.162 -0.128,-0.116 0,0" />
      </g>
      <g
         transform="matrix(0.35277777,0,0,-0.35277777,19.684443,296.39322)"
         id="g1952">
        <path
           inkscape:connector-curvature="0"
           id="path1954"
           style="fill:#1a171b;fill-opacity:1;fill-rule:nonzero;stroke:none"
           d="m 0,0 c 0.712,-0.145 1.049,-0.641 1.18,-1.326 0.033,-0.17 0.81,0.012 0.773,0.207 C 1.809,-0.366 1.401,0.147 0.633,0.305 0.457,0.34 0.251,0.283 0.093,0.207 0.033,0.179 -0.178,0.036 0,0" />
      </g>
    </g>
  </g>
</svg>
