<?xml version="1.0" encoding="UTF-8" standalone="no"?>
<!-- Created with Inkscape (http://www.inkscape.org/) -->

<svg
   xmlns:dc="http://purl.org/dc/elements/1.1/"
   xmlns:cc="http://creativecommons.org/ns#"
   xmlns:rdf="http://www.w3.org/1999/02/22-rdf-syntax-ns#"
   xmlns:svg="http://www.w3.org/2000/svg"
   xmlns="http://www.w3.org/2000/svg"
   xmlns:sodipodi="http://sodipodi.sourceforge.net/DTD/sodipodi-0.dtd"
   xmlns:inkscape="http://www.inkscape.org/namespaces/inkscape"
   width="100"
   height="100"
   viewBox="0 0 26.458333 26.458334"
   version="1.1"
   id="svg6728"
   inkscape:version="0.92.4 (unknown)"
   sodipodi:docname="Chicken.svg">
  <defs
     id="defs6722" />
  <sodipodi:namedview
     id="base"
     pagecolor="#ffffff"
     bordercolor="#666666"
     borderopacity="1.0"
     inkscape:pageopacity="0.0"
     inkscape:pageshadow="2"
     inkscape:zoom="2.8"
     inkscape:cx="230.4112"
     inkscape:cy="15.409173"
     inkscape:document-units="mm"
     inkscape:current-layer="layer1"
     showgrid="false"
     units="px"
     inkscape:window-width="1853"
     inkscape:window-height="1016"
     inkscape:window-x="67"
     inkscape:window-y="27"
     inkscape:window-maximized="1" />
  <metadata
     id="metadata6725">
    <rdf:RDF>
      <cc:Work
         rdf:about="">
        <dc:format>image/svg+xml</dc:format>
        <dc:type
           rdf:resource="http://purl.org/dc/dcmitype/StillImage" />
        <dc:title></dc:title>
      </cc:Work>
    </rdf:RDF>
  </metadata>
  <g
     inkscape:label="Layer 1"
     inkscape:groupmode="layer"
     id="layer1"
     transform="translate(-104.47821,-123.48996)">
    <g
       transform="matrix(0.55604857,0,0,-0.48673625,-185.76106,327.14961)"
       id="g6934">
      <g
         transform="translate(543.1084,378.0635)"
         id="g4302">
        <path
           inkscape:connector-curvature="0"
           id="path4304"
           style="fill:#aaa;fill-opacity:1;fill-rule:nonzero;stroke:none"
           d="m 0,0 c -0.507,-1.902 -1.252,-5.057 -2.324,-5.418 -1.072,-0.361 -3.36,-0.963 -4.974,-1.061 -1.613,-0.095 -2.24,-0.841 -2.24,-0.841 0,0 4.335,0.142 4.19,0 -0.144,-0.145 -0.425,-0.762 -0.37,-0.983 1.142,0.332 3.594,1.416 4.956,1.416 1.364,0 3.049,-0.771 3.049,-0.771 -0.337,0.82 -2.818,1.951 -2.818,1.951 0.531,1.396 2.578,5.42 2.818,5.539 z" />
      </g>
      <g
         transform="translate(545.8145,377.9189)"
         id="g4306">
        <path
           inkscape:connector-curvature="0"
           id="path4308"
           style="fill:#aaa;fill-opacity:1;fill-rule:nonzero;stroke:none"
           d="m 0,0 c 0.015,-1.445 0.159,-4.623 -2.515,-5.443 -2.672,-0.817 -2.359,-1.059 -2.359,-1.059 0,0 2.793,0.65 4.455,0.602 C 1.243,-5.947 3.267,-6.357 3.267,-6.357 2.978,-5.467 0.593,-4.84 0.593,-4.84 0.906,-2.986 2.351,0 2.351,0 Z" />
      </g>
      <path
         inkscape:connector-curvature="0"
         id="path4312"
         style="fill:#aaa;fill-opacity:1;fill-rule:nonzero;stroke:none"
         d="m 0,0 c 0,1.987 1.445,2.927 1.445,2.927 0,0 1.945,1.867 4.697,2.131 2.751,0.265 6.935,-5.111 8.254,-7.406 0.361,-0.722 1.86,-2.943 8.562,-1.697 6.701,1.246 8.164,2.096 11,5.691 2.836,3.591 4.227,3.232 4.569,2.96 0.344,-0.271 0.415,-0.974 0.415,-0.974 0.688,0.035 1.229,-0.055 1.555,-0.578 0.324,-0.524 0.524,-1.535 0,-2.079 1.3,0.054 2.498,-2.336 -0.705,-3.901 2.096,0.168 2.914,-2.574 -0.338,-3.959 1.759,-1.484 1.181,-1.857 -0.385,-2.945 -0.602,-0.465 -1.107,-0.994 -0.626,-2.174 -0.77,-0.555 -0.915,-0.748 -0.915,-0.771 0,-0.602 0.283,-1.567 -2.074,-2.047 0.027,-1.926 -1.973,-2.891 -3.056,-2.698 0.603,-1.3 -0.024,-1.494 -0.553,-1.709 0.987,-0.626 0.312,-1.542 -0.338,-1.976 -0.361,-1.156 -3.473,-7.777 -11.08,-7.32 -7.609,0.457 -4.91,1.925 -8.356,5.49 -1.058,1.133 -5.779,0.578 -7.922,4.889 -2.144,4.31 -4.746,9.658 -2.505,13.919 0.975,1.952 1.336,2.53 1.228,3.036 C 2.041,-0.975 1.97,-1.299 1.788,-0.902 1.607,-0.504 2.005,1.012 0,0"
         transform="translate(525.6895,406.0361)" />
      <g
         transform="translate(531.7871,411.0645)"
         id="g4314">
        <path
           inkscape:connector-curvature="0"
           id="path4316"
           style="fill:#bbb;fill-opacity:1;fill-rule:nonzero;stroke:none"
           d="m 0,0 c 0,0 0.017,0.182 -0.019,0.379 0.668,0 0.416,0.85 -0.234,1.119 0.289,0.797 -0.65,1.068 -1.174,0.508 -0.162,0.74 -0.975,0.484 -1.138,-0.543 -0.886,1.769 -1.391,0.615 -0.939,-0.631 -0.921,1.498 -1.048,0.27 -1.03,-0.236 -0.578,0.199 -0.379,-0.524 -0.379,-0.524 0,0 -0.09,-0.107 -0.361,-0.705 0.705,-0.306 0.578,-1.498 0.578,-1.498 0,0 2.009,1.934 4.696,2.131" />
      </g>
    </g>
  </g>
</svg>
