<?xml version="1.0" encoding="UTF-8" standalone="no"?>
<!-- Created with Inkscape (http://www.inkscape.org/) -->

<svg
   xmlns:dc="http://purl.org/dc/elements/1.1/"
   xmlns:cc="http://creativecommons.org/ns#"
   xmlns:rdf="http://www.w3.org/1999/02/22-rdf-syntax-ns#"
   xmlns:svg="http://www.w3.org/2000/svg"
   xmlns="http://www.w3.org/2000/svg"
   xmlns:sodipodi="http://sodipodi.sourceforge.net/DTD/sodipodi-0.dtd"
   xmlns:inkscape="http://www.inkscape.org/namespaces/inkscape"
   width="100"
   height="100"
   viewBox="0 0 26.458333 26.458334"
   version="1.1"
   id="svg2194"
   inkscape:version="0.92.4 (unknown)"
   sodipodi:docname="Heart.svg">
  <defs
     id="defs2188" />
  <sodipodi:namedview
     id="base"
     pagecolor="#ffffff"
     bordercolor="#666666"
     borderopacity="1.0"
     inkscape:pageopacity="0.0"
     inkscape:pageshadow="2"
     inkscape:zoom="3.959798"
     inkscape:cx="105.75432"
     inkscape:cy="16.756197"
     inkscape:document-units="mm"
     inkscape:current-layer="layer1"
     showgrid="false"
     units="px"
     inkscape:window-width="1853"
     inkscape:window-height="1016"
     inkscape:window-x="67"
     inkscape:window-y="27"
     inkscape:window-maximized="1" />
  <metadata
     id="metadata2191">
    <rdf:RDF>
      <cc:Work
         rdf:about="">
        <dc:format>image/svg+xml</dc:format>
        <dc:type
           rdf:resource="http://purl.org/dc/dcmitype/StillImage" />
        <dc:title></dc:title>
      </cc:Work>
    </rdf:RDF>
  </metadata>
  <g
     inkscape:label="Layer 1"
     inkscape:groupmode="layer"
     id="layer1"
     transform="translate(0,-270.54165)">
    <g
       id="g2433"
       transform="matrix(1.6391632,0,0,1.6391632,-16.809445,-180.74238)">
      <g
         transform="matrix(0.35277777,0,0,-0.35277777,13.945446,280.60325)"
         id="g1956">
        <path
           inkscape:connector-curvature="0"
           id="path1958"
           style="fill:#cb0000;fill-opacity:1;fill-rule:nonzero;stroke:none"
           d="M 0,0 C -1.722,-0.558 -5.402,-3.093 -5.541,0.134 -5.668,1.391 -2.481,5.02 -1.506,4.802 -1.17,6.487 0.917,7.209 2.703,7.137 5.829,7.011 4.745,4.55 6.596,3.849 8.975,2.947 7.514,6.675 7.915,7.731 c 0.883,1.933 3.069,2.919 4.155,0.997 1.612,2.26 2.894,5.25 6.713,4.559 1.687,-0.336 5.562,-4.07 3.886,-5.702 -0.465,-0.429 -9.486,-2.302 -3.435,-3.082 2.58,-0.372 5.203,2.563 7.61,0.141 1.039,-0.847 0.156,-2.78 0.649,-3.873 0.657,-1.458 2.061,-2.14 2.517,-4.126 0.521,-2.616 -0.762,-5.605 -0.606,-8.384 0.214,-5.823 1.876,-13.405 -4.866,-16.443 -5.648,-2.546 -18.493,5.038 -20.974,10.058 -1.496,2.833 -2.146,6.706 -3.359,9.886 -1.542,3.908 0.844,5.423 0.806,8.913 -0.529,0.2 -0.711,0.118 -1.157,0.136" />
      </g>
      <g
         transform="matrix(0.35277777,0,0,-0.35277777,17.298915,284.84071)"
         id="g1960">
        <path
           inkscape:connector-curvature="0"
           id="path1962"
           style="fill:#cb0000;fill-opacity:1;fill-rule:nonzero;stroke:none"
           d="m 0,0 c 0.375,3.384 1.813,5.055 0.335,8.334 -0.985,2.187 -3.471,4.136 -5.762,5.003 -3.116,1.08 -4.136,-0.548 -6.73,-1.278 -1.446,-0.361 -1.865,-0.404 -1.277,0.885 0.134,0.353 1.161,0.669 1.482,1.252 0.267,0.705 0.127,1.665 0.097,2.383 0.461,-0.378 0.88,-0.335 1.275,-0.888 0.479,1.532 1.998,0.755 2.613,-0.284 0.267,0.705 -1.357,3.336 0.88,2.589 1.263,-0.478 1.463,-2.107 2.484,-2.841 0.922,-0.661 2.307,-0.645 3.353,-1.096 1.082,-0.468 0.92,-1.384 1.683,-1.993 1.11,-0.887 4.074,-0.72 5.283,-0.429 1.726,0.415 3.125,1.174 4.868,1.176 0.921,0 2.751,-0.029 2.979,-1.201 C 13.755,10.619 11.443,8.643 10.931,7.849 9.479,5.879 8.667,3.467 6.305,2.549 4.428,1.849 2.313,2.649 0.479,1.53" />
      </g>
      <g
         transform="matrix(0.35277777,0,0,-0.35277777,17.435864,284.82624)"
         id="g1964">
        <path
           inkscape:connector-curvature="0"
           id="path1966"
           style="fill:#1a171b;fill-opacity:1;fill-rule:nonzero;stroke:none"
           d="m 0,0 c 0.877,5.328 1.46,11.86 -5.583,13.525 -1.94,0.458 -3.108,0.366 -4.917,-0.426 -4.285,-1.876 -0.613,2.217 -0.825,2.393 0.207,-0.172 0.574,-0.073 0.721,0.137 0.63,-0.141 1.261,-0.281 1.892,-0.421 0.15,-0.176 0.743,-0.069 0.745,0.199 0.017,3.14 2.209,-0.622 3.791,-1 3.177,-0.759 3.88,-3.17 7.298,-3.284 0.652,-0.022 1.618,0.06 2.265,0.252 1.777,0.603 3.606,0.979 5.487,1.132 C 14.388,12.409 10.625,8.378 10.228,7.891 9.222,6.653 8.53,5.189 7.528,3.935 6.446,2.58 1.99,2.447 -0.069,1.675 -0.571,1.486 -0.118,1.166 0.25,1.304 3.206,2.413 5.714,1.593 8.158,3.77 c 2.001,1.781 3.748,4.831 5.229,7.083 0.634,0.963 -0.411,1.869 -1.298,2.001 -4.788,0.714 -8.189,-2.758 -12.676,0.775 -1.386,1.092 -3.451,1.006 -4.688,2.33 -0.665,0.711 -0.87,1.937 -1.969,2.226 -0.642,0.168 -1.362,0.275 -1.758,-0.39 -0.992,-1.67 1.73,-1.221 -0.566,-1.08 -1.212,0.074 -1.243,-0.62 -2.372,0.024 -0.216,0.123 -0.706,-0.01 -0.69,-0.304 0.133,-2.529 -1.318,-2.652 -1.832,-4.456 -0.018,-0.064 0.03,-0.131 0.085,-0.159 1.055,-0.548 2.116,0.057 3.174,0.436 4.32,1.546 7.261,0.312 10.036,-2.845 C 1.264,6.646 -0.269,3.005 -0.776,-0.082 -0.832,-0.42 -0.048,-0.295 0,0" />
      </g>
      <g
         transform="matrix(0.35277777,0,0,-0.35277777,17.767617,283.66077)"
         id="g1968">
        <path
           inkscape:connector-curvature="0"
           id="path1970"
           style="fill:#1a171b;fill-opacity:1;fill-rule:nonzero;stroke:none"
           d="m 0,0 c -1.394,3.521 -1.8,6.544 -1.362,10.335 0.092,0.799 -1.247,0.445 -1.587,0.244 -3.104,-1.84 -3.161,-5.603 -3.269,-8.875 -0.145,-4.388 -1.992,-9.245 0.716,-13.239 2.806,-4.138 7.955,-4.698 12.248,-6.686 3.24,-1.499 6.077,-1.527 9.057,0.45 2.878,1.909 3.217,7.244 2.961,10.257 C 18.369,-2.84 17.432,3.124 14.906,7.17 12.555,10.937 7.635,9.347 4.143,9.268 3.51,9.254 2.667,9.042 2.212,8.59 1.888,8.268 1.546,7.878 1.419,7.435 0.753,5.112 0.048,3.704 -2.562,2.857 -3.705,2.486 -3.429,1.372 -2.265,1.75 c 1.947,0.633 3.373,0.865 4.68,2.481 1.451,1.795 0.522,3.743 3.547,3.927 2.826,0.173 5.147,0.473 7.16,-1.781 1.249,-1.4 1.624,-3.743 2.011,-5.514 0.857,-3.916 1.934,-7.59 1.509,-11.65 -0.132,-1.262 -0.267,-2.47 -0.535,-3.711 -1.43,-6.644 -8.872,-2.18 -11.698,-0.957 -3.73,1.613 -6.645,1.833 -8.675,5.787 -1.678,3.268 -0.183,7.17 -0.037,10.6 0.12,2.811 -0.317,7.233 2.586,8.954 -0.529,0.081 -1.058,0.163 -1.587,0.244 C -3.757,6.204 -3.395,3.177 -1.932,-0.518 -1.633,-1.272 0.279,-0.705 0,0" />
      </g>
      <g
         transform="matrix(0.35277777,0,0,-0.35277777,20.550221,283.00757)"
         id="g1972">
        <path
           inkscape:connector-curvature="0"
           id="path1974"
           style="fill:#1a171b;fill-opacity:1;fill-rule:nonzero;stroke:none"
           d="M 0,0 C 1.354,-0.902 3.029,-1.37 4.608,-1.688 5.558,-1.88 7.481,-2.166 8.206,-1.237 9.061,-0.141 7.674,1.638 7.069,2.538 6.427,3.493 5.182,5.414 3.821,5.328 3.577,5.313 2.989,4.916 3.505,4.949 4.415,5.007 5.476,3.415 5.946,2.809 6.664,1.882 7.344,0.812 7.652,-0.33 8.304,-2.747 1.708,-0.372 0.723,0.285 0.517,0.422 -0.167,0.111 0,0" />
      </g>
      <g
         transform="matrix(0.35277777,0,0,-0.35277777,14.619498,285.764)"
         id="g1976">
        <path
           inkscape:connector-curvature="0"
           id="path1978"
           style="fill:#1a171b;fill-opacity:1;fill-rule:nonzero;stroke:none"
           d="m 0,0 c -0.732,3.009 -1.363,6.805 -0.531,9.836 0.273,0.992 0.603,1.968 0.951,2.935 0.25,0.694 0.552,1.363 0.863,2.03 0.214,0.381 0.427,0.762 0.641,1.143 0.603,1.191 1.516,0.88 2.739,-0.93 C 4.326,12.923 3.348,10.839 2.023,9.319 1.126,8.29 0.564,7.408 0.08,6.13 -0.634,4.246 -0.012,2.242 -0.869,0.381 -0.956,0.19 -0.204,0.27 -0.1,0.494 1.145,3.198 0.23,5.977 2.093,8.6 c 1.274,1.793 1.938,1.444 2.405,3.829 0.335,1.71 2.306,5.629 -1.359,5.106 C 1.022,17.233 -0.02,13.568 -0.591,11.983 -2.018,8.021 -1.761,3.855 -0.772,-0.207 -0.717,-0.435 0.057,-0.234 0,0" />
      </g>
      <g
         transform="matrix(0.35277777,0,0,-0.35277777,15.801831,283.34999)"
         id="g1980">
        <path
           inkscape:connector-curvature="0"
           id="path1982"
           style="fill:#cb0000;fill-opacity:1;fill-rule:nonzero;stroke:none"
           d="m 0,0 c 0.054,2.801 0.684,6.593 2.091,8.98 0.953,1.453 1.816,2.133 2.362,3.84 0.291,1.301 0.405,2.668 0.696,3.968 1.707,-0.546 1.6,-3.225 2.257,-4.682 0.357,1.476 0.539,3.019 1.303,4.241 0.577,0.991 1.687,3.39 2.593,3.653 0.054,-0.122 0.462,-0.377 0.571,-0.62 1.694,2.079 8.252,-2.419 5.767,-3.392 -1.579,-0.712 -2.753,1.242 -4.575,0.421 -0.971,-0.436 -3.37,-2.249 -3.121,-3.451 0.25,-1.202 2.93,-1.31 4.042,-1.833 1.519,-0.777 3.093,-1.676 4.8,-2.221 1.058,-0.4 3.572,-0.143 4.387,-0.653 1.738,-1.263 0.463,-3.299 -1.487,-2.862 3.153,-0.187 4.176,-4.403 0.475,-3 -2.121,0.91 -3.277,3.16 -5.052,4.526 -0.955,0.735 -1.49,0.568 -2.568,0.8 C 13.254,7.99 12.258,8.999 10.977,9.298 9.732,9.588 8.18,8.796 7.184,8.059 6.157,7.3 4.992,6.475 4.636,5.198 4.277,3.909 4.771,2.362 3.809,1.278" />
      </g>
      <g
         transform="matrix(0.35277777,0,0,-0.35277777,15.93878,283.33555)"
         id="g1984">
        <path
           inkscape:connector-curvature="0"
           id="path1986"
           style="fill:#1a171b;fill-opacity:1;fill-rule:nonzero;stroke:none"
           d="m 0,0 c 0.187,3.982 0.968,7.502 3.4,10.742 0.807,1.075 1.061,2.12 1.298,3.397 0.617,3.324 1.581,-1.139 1.933,-2.177 0.101,-0.297 0.719,-0.107 0.775,0.144 0.09,0.408 2.589,8.39 3.722,7.075 0.133,-0.155 0.464,-0.088 0.603,0.02 1.677,1.31 4.226,-0.69 5.294,-1.807 1.484,-1.551 -3.344,-0.59 -3.278,-0.583 C 11.818,16.604 10.389,15.247 9.328,13.717 8.11,11.961 11.738,11.33 12.542,11.132 14.451,10.66 16.294,9.331 18.167,8.635 18.454,8.554 18.744,8.491 19.038,8.448 19.365,8.421 19.693,8.393 20.02,8.365 21.569,8.608 22.043,7.684 21.442,5.59 21.237,5.588 20.603,5.207 21.066,5.119 25.877,4.204 20.948,3.087 19.474,4.598 18.713,5.378 17.992,6.526 17.025,7.074 16.083,7.608 15.476,7.73 14.384,7.902 13.812,7.993 11.659,9.519 10.732,9.499 9.019,9.462 8.049,9.086 6.549,8.155 3.489,6.256 4.434,4.226 3.057,1.259 2.888,0.894 3.664,0.958 3.784,1.216 c 1.746,3.762 2.97,9.983 8.854,6.723 2.25,-1.246 4.269,-1.594 6.122,-3.658 1.194,-1.329 3.492,-3.326 5.384,-2.077 1.502,0.992 -0.913,2.818 -1.663,3.177 -0.14,0.066 -0.387,-0.454 0.133,-0.162 1.106,0.62 1.389,1.001 1.257,2.27 -0.07,0.673 -1.049,1.121 -1.61,1.189 -3.114,0.369 -5.554,1.148 -8.36,2.606 -0.509,0.266 -1.366,0.421 -1.903,0.554 l 0.204,3.981 c 1.087,0.366 2.104,0.358 3.05,-0.023 0.709,-0.188 1.552,-0.454 2.246,0.014 1.725,1.162 -0.501,2.68 -1.623,3.398 -1.222,0.782 -3.95,0.256 -4.604,0.909 -0.151,0.151 -0.447,0.087 -0.604,-0.02 C 9.14,19.048 7.796,16.71 7.334,14.95 6.725,12.624 7.178,12.827 6.669,14.852 6.411,15.882 5.939,16.415 5.065,16.947 4.874,17.064 4.419,16.954 4.373,16.706 3.235,10.598 -0.473,6.388 -0.776,-0.082 -0.793,-0.435 -0.014,-0.29 0,0" />
      </g>
      <g
         transform="matrix(0.35277777,0,0,-0.35277777,16.96748,282.61863)"
         id="g1988">
        <path
           inkscape:connector-curvature="0"
           id="path1990"
           style="fill:#cb0000;fill-opacity:1;fill-rule:nonzero;stroke:none"
           d="m 0,0 c -3.518,0.023 -5.498,1.176 -6.802,-3.065 -0.625,-2.182 0.222,-6.331 1.814,-8.244 1.198,-1.359 1.343,-0.711 2.473,0.675 0.819,1.101 1.76,2.256 2.458,3.3 2.338,3.247 2.05,6.479 -1.717,7.703" />
      </g>
      <g
         transform="matrix(0.35277777,0,0,-0.35277777,17.016057,282.52489)"
         id="g1992">
        <path
           inkscape:connector-curvature="0"
           id="path1994"
           style="fill:#1a171b;fill-opacity:1;fill-rule:nonzero;stroke:none"
           d="m 0,0 c -1.998,0.047 -4.973,0.83 -6.328,-1.195 -2.022,-3.024 -1.288,-7.186 0.539,-10.134 2.163,-3.489 4.792,2.016 5.962,3.694 2.196,3.151 1.978,6.531 -1.858,7.987 -0.307,0.116 -0.906,-0.325 -0.453,-0.497 3.291,-1.249 3.599,-3.975 1.984,-6.811 -0.778,-1.365 -1.872,-2.589 -2.819,-3.842 -1.347,-1.782 -2.314,0.002 -2.867,1.255 -0.92,2.082 -1.246,4.666 -0.509,6.834 1.006,2.959 3.629,2.234 6.074,2.178 C 0.077,-0.54 0.523,-0.012 0,0" />
      </g>
      <g
         transform="matrix(0.35277777,0,0,-0.35277777,20.673377,283.06234)"
         id="g1996">
        <path
           inkscape:connector-curvature="0"
           id="path1998"
           style="fill:#cb0000;fill-opacity:1;fill-rule:nonzero;stroke:none"
           d="M 0,0 C 1.769,-1.979 3.81,-1.645 6.094,-1.2 7.473,-1.017 7.923,-1.691 8.578,-0.226 9.034,0.71 8.443,2.344 8.06,3.194 7.239,5.017 4.832,7.438 2.974,5.725 2.166,4.922 -0.383,0.85 -0.243,-0.109" />
      </g>
      <g
         transform="matrix(0.35277777,0,0,-0.35277777,20.544718,283.10816)"
         id="g2000">
        <path
           inkscape:connector-curvature="0"
           id="path2002"
           style="fill:#1a171b;fill-opacity:1;fill-rule:nonzero;stroke:none"
           d="m 0,0 c 1.045,-1.055 2.258,-1.632 3.764,-1.559 1.387,0.069 2.903,0.129 4.254,0.378 2.683,0.494 1.036,4.406 0.128,5.737 C 6.891,6.394 4.829,7.227 2.99,5.822 2.182,5.205 1.608,3.951 1.098,3.103 0.561,2.21 -0.28,1.009 -0.265,-0.083 -0.263,-0.201 0.511,-0.088 0.508,0.124 0.491,1.404 1.64,2.9 2.283,3.937 2.641,4.514 3.027,5.075 3.445,5.611 4.721,7.252 6.562,5.383 7.373,4.349 8.1,3.421 9.958,-1.041 7.505,-0.89 6.821,-0.847 6.165,-1.007 5.496,-1.123 3.589,-1.456 2.078,-1.101 0.729,0.26 0.593,0.397 -0.11,0.111 0,0" />
      </g>
      <g
         transform="matrix(0.35277777,0,0,-0.35277777,18.203084,280.66974)"
         id="g2004">
        <path
           inkscape:connector-curvature="0"
           id="path2006"
           style="fill:#cb0000;fill-opacity:1;fill-rule:nonzero;stroke:none"
           d="m 0,0 c 3.919,-1.887 7.291,0.362 9.792,3.243 0.564,0.694 3.089,4.17 3.794,3.903 1.355,-0.413 -0.017,-1.908 0.731,-2.594 0.681,-0.863 1.986,0.457 2.4,-1.111 C 14.573,2.037 12.946,0.136 10.791,-1.567 9.807,-2.303 8.646,-2.973 7.894,-3.896 6.832,-5.105 7.136,-6.43 6.438,-7.475 5.484,-8.927 2.205,-10.405 0.352,-10.51 c -3.287,-0.166 -2.006,3.48 -1.613,5.85" />
      </g>
      <g
         transform="matrix(0.35277777,0,0,-0.35277777,18.123145,280.75724)"
         id="g2008">
        <path
           inkscape:connector-curvature="0"
           id="path2010"
           style="fill:#1a171b;fill-opacity:1;fill-rule:nonzero;stroke:none"
           d="m 0,0 c 3.367,-1.322 6.113,-0.425 8.822,1.843 1.21,1.013 2.111,2.332 3.098,3.548 0.695,0.855 2.143,1.843 2,-0.131 C 13.905,5.054 14.052,4.706 14.243,4.586 15.4,3.858 16.628,3.909 14.681,2.306 12.608,0.6 10.595,-1.158 8.5,-2.838 6.763,-4.229 7.027,-6.712 5.32,-8.138 c -1.52,-1.27 -6.795,-3.023 -6.483,0.913 0.076,0.954 0.344,1.909 0.518,2.847 0.068,0.366 -0.72,0.256 -0.78,-0.068 -0.325,-1.751 -1.029,-3.701 -0.132,-5.369 0.794,-1.477 3.659,-0.428 4.69,-0.07 1.819,0.632 3.474,1.678 4.271,3.453 1.754,3.909 6.262,7.433 9.791,9.96 0.116,0.083 0.174,0.197 0.103,0.326 -0.61,1.128 -2.677,1.209 -2.468,2.68 0.112,0.787 -0.621,1.174 -1.276,1.084 C 12.639,7.493 11.804,6.203 11.281,5.593 8.436,2.274 5.652,-1.548 0.453,0.496 0.148,0.615 -0.451,0.178 0,0" />
      </g>
    </g>
  </g>
</svg>
