<?xml version="1.0" encoding="UTF-8" standalone="no"?>
<!-- Created with Inkscape (http://www.inkscape.org/) -->

<svg
   xmlns:dc="http://purl.org/dc/elements/1.1/"
   xmlns:cc="http://creativecommons.org/ns#"
   xmlns:rdf="http://www.w3.org/1999/02/22-rdf-syntax-ns#"
   xmlns:svg="http://www.w3.org/2000/svg"
   xmlns="http://www.w3.org/2000/svg"
   xmlns:sodipodi="http://sodipodi.sourceforge.net/DTD/sodipodi-0.dtd"
   xmlns:inkscape="http://www.inkscape.org/namespaces/inkscape"
   width="100"
   height="100"
   viewBox="0 0 26.458333 26.458334"
   version="1.1"
   id="svg6728"
   inkscape:version="0.92.4 (unknown)"
   sodipodi:docname="Human.svg">
  <defs
     id="defs6722" />
  <sodipodi:namedview
     id="base"
     pagecolor="#ffffff"
     bordercolor="#666666"
     borderopacity="1.0"
     inkscape:pageopacity="0.0"
     inkscape:pageshadow="2"
     inkscape:zoom="2.8"
     inkscape:cx="230.4112"
     inkscape:cy="15.409173"
     inkscape:document-units="mm"
     inkscape:current-layer="layer1"
     showgrid="false"
     units="px"
     inkscape:window-width="1853"
     inkscape:window-height="1016"
     inkscape:window-x="67"
     inkscape:window-y="27"
     inkscape:window-maximized="1" />
  <metadata
     id="metadata6725">
    <rdf:RDF>
      <cc:Work
         rdf:about="">
        <dc:format>image/svg+xml</dc:format>
        <dc:type
           rdf:resource="http://purl.org/dc/dcmitype/StillImage" />
        <dc:title></dc:title>
      </cc:Work>
    </rdf:RDF>
  </metadata>
  <g
     inkscape:label="Layer 1"
     inkscape:groupmode="layer"
     id="layer1"
     transform="translate(-104.47821,-123.48996)">
    <path
       d="m 115.82461,125.74313 c 0.45978,0.26375 0.89039,0.57832 1.2434,0.94215 0.36351,0.37653 0.37867,0.73454 0.57063,1.17515 0.13017,0.29975 0.33959,0.54495 0.45746,0.86217 0.24156,0.6514 0.69726,0.98821 1.34434,1.36739 1.15472,0.67577 2.67352,0.79598 3.78273,1.52098 1.07418,0.70224 1.78428,1.9399 2.29951,2.99855 0.23221,0.47715 0.28765,1.0004 0.5333,1.47385 0.21412,0.41307 0.48077,0.77902 0.66691,1.20216 0.33726,0.76949 1.23232,1.32557 1.63083,2.09505 0.63775,1.23341 0.65994,2.68395 -0.10735,3.87182 -0.36584,0.56454 -0.83262,0.97339 -1.32391,1.46115 -0.93708,0.92942 -2.19973,1.08936 -3.58375,0.9289 -1.47855,-0.17211 -2.8439,-0.71601 -4.3032,-0.47293 -0.67683,0.11334 -1.4412,0.1213 -2.02875,0.46974 -0.56774,0.33682 -0.82797,0.80181 -1.21657,1.2419 -0.70309,0.8002 -1.44995,1.19369 -2.58891,1.4087 -0.45688,0.0869 -0.91724,-0.0365 -1.36184,0.0822 -0.38394,0.10224 -0.74629,0.30346 -1.08353,-0.007 -0.20714,-0.19065 -0.40612,-0.32729 -0.50238,-0.57779 -0.042,-0.11064 -0.002,-0.16893 -0.063,-0.28014 -0.07,-0.1282 -0.20773,-0.21873 -0.26375,-0.36013 -0.0607,-0.15623 -0.06,-0.52535 -0.0981,-0.72395 -0.0326,-0.16312 -0.18554,-0.56401 -0.0148,-0.71812 0.24216,-0.21978 1.25624,0.012 1.64484,-0.0811 0.52046,-0.12445 0.95107,-0.42578 1.4838,-0.45862 -0.48137,0.0217 -2.49207,-0.45596 -1.34434,-0.81821 -0.0637,-0.13556 -0.40086,-0.36383 -0.42712,-0.45598 -0.0981,-0.33735 0.15116,-0.31247 0.28999,-0.57884 0.21239,-0.40937 -0.0524,-0.78168 0.26491,-1.14179 0.11677,-0.13286 0.41193,-0.22507 0.56539,-0.35642 0.22232,-0.1896 0.14473,-0.40036 0.49946,-0.47239 0.53447,-0.10644 1.13603,0.38236 1.6355,0.45968 0.87698,0.13766 1.78896,-0.63498 2.59709,-0.81874 0.45569,-0.10373 0.87988,-0.25896 0.71767,-0.73559 -0.11031,-0.33152 -0.54438,-0.78643 -0.94582,-0.76049 -0.25324,0.0163 -0.55955,0.39932 -0.79995,0.4597 -0.25557,0.0635 -0.4837,0.0281 -0.73519,0.0509 -0.51521,0.0455 -1.02869,5.1e-4 -1.55906,0.003 -0.57765,0.005 -1.16405,-0.0105 -0.87231,-0.62758 -0.0974,-0.0245 -0.18613,-0.027 -0.26841,-0.0291 -0.17212,-0.005 -0.30866,-0.006 -0.38976,-0.20972 -0.084,-0.21661 0.0443,-0.46604 0.11147,-0.66939 -0.0554,-0.0174 -0.0822,-0.0599 -0.13711,-0.0794 -0.066,-0.0249 0.58291,-1.21223 0.69375,-1.33086 0.30167,-0.32146 0.65876,-0.48193 1.15064,-0.4994 0.12024,-0.005 1.37118,0.1213 1.36652,0.13136 -0.0455,0.11649 -0.30691,0.30556 -0.0992,0.43532 0.18964,0.11859 0.4242,-0.12865 0.56541,-0.16734 0.24622,-0.0652 0.49246,-0.0153 0.73635,0.0329 0.15928,0.0329 0.31916,0.0652 0.47495,0.0645 0.0351,-5.3e-4 -0.27656,-0.5958 -0.29407,-0.63075 -0.0898,-0.18164 -0.0992,-0.36966 -0.11082,-0.56507 -0.0199,-0.31564 0.11445,-0.6943 -0.0187,-0.98556 -0.28297,-0.61909 -0.43993,0.13075 -0.53679,0.36541 -0.14886,0.36278 -0.60973,0.36806 -0.99016,0.34265 -0.77838,-0.0524 -1.63376,-0.0652 -2.41271,-0.0291 -0.26548,0.012 -0.43878,-0.0492 -0.67275,-0.13826 -0.19782,-0.0757 -0.48605,-0.0901 -0.66809,-0.17687 -0.38335,-0.18378 -0.64008,-0.67947 -0.92423,-0.94798 -0.32209,-0.30185 -0.89158,-0.33046 -1.29301,-0.56188 -0.37459,-0.21767 -0.8087,-0.38767 -1.12612,-0.65299 -0.32676,-0.27272 -0.58582,-0.64979 -0.84255,-0.97761 -0.27657,-0.35165 -0.20714,-1.56917 -0.28823,-1.95418 -0.10801,-0.51583 0.41251,-2.1925 0.79878,-2.91591 0.2684,-0.50047 0.63074,-0.79175 1.02751,-1.18734 1.0351,-1.03218 2.54574,-1.3833 4.05461,-1.25301 1.09055,0.0937 2.1799,0.43955 3.0884,0.96066"
       style="fill:#aaa;fill-opacity:1;fill-rule:nonzero;stroke:none;stroke-width:0.55588317"
       id="path4320"
       inkscape:connector-curvature="0" />
  </g>
</svg>
