<?xml version="1.0" encoding="UTF-8" standalone="no"?>
<!-- Created with Inkscape (http://www.inkscape.org/) -->

<svg
   xmlns:dc="http://purl.org/dc/elements/1.1/"
   xmlns:cc="http://creativecommons.org/ns#"
   xmlns:rdf="http://www.w3.org/1999/02/22-rdf-syntax-ns#"
   xmlns:svg="http://www.w3.org/2000/svg"
   xmlns="http://www.w3.org/2000/svg"
   xmlns:sodipodi="http://sodipodi.sourceforge.net/DTD/sodipodi-0.dtd"
   xmlns:inkscape="http://www.inkscape.org/namespaces/inkscape"
   width="100"
   height="100"
   viewBox="0 0 26.458333 26.458334"
   version="1.1"
   id="svg6728"
   inkscape:version="0.92.4 (unknown)"
   sodipodi:docname="Rat.svg">
  <defs
     id="defs6722" />
  <sodipodi:namedview
     id="base"
     pagecolor="#ffffff"
     bordercolor="#666666"
     borderopacity="1.0"
     inkscape:pageopacity="0.0"
     inkscape:pageshadow="2"
     inkscape:zoom="2.8"
     inkscape:cx="230.4112"
     inkscape:cy="15.409173"
     inkscape:document-units="mm"
     inkscape:current-layer="layer1"
     showgrid="false"
     units="px"
     inkscape:window-width="1853"
     inkscape:window-height="1016"
     inkscape:window-x="67"
     inkscape:window-y="27"
     inkscape:window-maximized="1" />
  <metadata
     id="metadata6725">
    <rdf:RDF>
      <cc:Work
         rdf:about="">
        <dc:format>image/svg+xml</dc:format>
        <dc:type
           rdf:resource="http://purl.org/dc/dcmitype/StillImage" />
        <dc:title></dc:title>
      </cc:Work>
    </rdf:RDF>
  </metadata>
  <g
     inkscape:label="Layer 1"
     inkscape:groupmode="layer"
     id="layer1"
     transform="translate(-104.47821,-123.48996)">
    <path
       d="m 120.51646,131.6796 c -1.51705,0.0259 -1.96079,-0.95426 -4.25052,-0.89525 -2.29011,0.0603 -4.29396,0.58485 -6.35444,3.38013 -2.06126,2.79407 -1.77538,3.15217 -2.06126,3.53979 -0.28588,0.3876 -2.83354,2.76537 -0.9162,5.1003 1.25987,1.4021 5.06664,0.50684 6.24041,0.53715 1.17337,0.0299 2.7195,0.0598 2.7195,0.0598 0,0 -1.8611,-0.47774 -3.23463,-0.3876 -1.37429,0.0894 -4.20784,0.68508 -5.06663,-0.38761 -0.85879,-1.07431 -1.3456,-2.62554 0.9162,-4.6836 1.00153,0.76955 2.20399,1.31276 2.20399,1.31276 0,0 0.1284,0.0246 0.019,0.213 -0.10974,0.18957 -0.0904,0.27889 0.2432,0.42802 0.33397,0.14915 1.97049,0.24616 2.55698,0.69317 0.19356,0.023 0.10006,-0.17824 0.10006,-0.17824 0.44374,0.0368 0.99494,0.059 0.89486,-0.0521 -0.60821,-0.29141 -1.43831,-0.13419 -1.54574,-0.27646 -0.10743,-0.14226 -0.34367,-0.31323 -0.0574,-0.31323 0.28665,0 1.53178,0.0526 1.56049,0.008 0.0282,-0.0449 -0.8522,-0.0894 -0.8235,-0.23927 0.0287,-0.14834 0.67299,-1.4312 3.49257,-1.31196 2.8196,0.11923 3.16287,0.58201 3.16287,0.58201 -0.0143,0.58161 -0.0143,0.95426 0.0858,1.01408 0.10049,0.0595 0.24359,0.34275 0.48641,0.31283 0.2436,-0.0291 0.87314,0.0449 1.03101,0.13419 0.20016,-0.0141 0.18542,-0.17824 -0.1005,-0.32859 -0.28626,-0.14833 -0.62993,-0.0889 -0.62993,-0.0889 -0.0858,-0.17865 -0.20015,-0.31365 -0.15748,-0.59617 0.0431,-0.28333 0.10556,-0.3387 0.10556,-0.3387 0,0 1.51937,0.78572 2.20633,1.55366 0.25756,0 0.5221,0.26837 0.62218,0.27645 0.1005,0.007 -0.0787,-0.22351 0.0357,-0.22351 0.11521,0 0.60163,0.17056 0.673,0.15642 0.0714,-0.0154 -0.43638,-0.38074 -0.67958,-0.38841 -0.2436,-0.007 -0.25097,0.0227 -0.55818,-0.37993 -0.30799,-0.40256 -0.61559,-1.45383 -0.14352,-2.36323 0.47244,-0.9102 1.20246,-2.40161 2.31882,-2.75204 1.11634,-0.35042 3.0624,0.14915 3.3347,-1.32691 0.15748,0 0.37199,-0.29868 0.14313,-0.5226 -0.22886,-0.22351 -2.1753,-1.53546 -3.49219,-1.61064 -0.70131,-0.0889 -1.102,-0.9389 -1.46042,-1.07309 -0.35685,-0.135 -0.44297,0.044 -0.34289,0.62647 -0.74436,0.3577 -1.05933,0.49188 -1.23077,0.62607 -0.17185,0.13419 -2.04691,0.16409 -2.04691,0.16409"
       style="fill:#aaa;fill-opacity:1;fill-rule:nonzero;stroke:none;stroke-width:0.39595056"
       id="path3808"
       inkscape:connector-curvature="0" />
  </g>
</svg>
