<?xml version="1.0" encoding="UTF-8" standalone="no"?>
<!-- Created with Inkscape (http://www.inkscape.org/) -->

<svg
   xmlns:dc="http://purl.org/dc/elements/1.1/"
   xmlns:cc="http://creativecommons.org/ns#"
   xmlns:rdf="http://www.w3.org/1999/02/22-rdf-syntax-ns#"
   xmlns:svg="http://www.w3.org/2000/svg"
   xmlns="http://www.w3.org/2000/svg"
   xmlns:sodipodi="http://sodipodi.sourceforge.net/DTD/sodipodi-0.dtd"
   xmlns:inkscape="http://www.inkscape.org/namespaces/inkscape"
   width="100"
   height="100"
   viewBox="0 0 26.458333 26.458334"
   version="1.1"
   id="svg2248"
   inkscape:version="0.92.4 (unknown)"
   sodipodi:docname="Testis.svg">
  <defs
     id="defs2242" />
  <sodipodi:namedview
     id="base"
     pagecolor="#ffffff"
     bordercolor="#666666"
     borderopacity="1.0"
     inkscape:pageopacity="0.0"
     inkscape:pageshadow="2"
     inkscape:zoom="2.8"
     inkscape:cx="217.90443"
     inkscape:cy="29.530071"
     inkscape:document-units="mm"
     inkscape:current-layer="layer1"
     showgrid="false"
     units="px"
     inkscape:window-width="1853"
     inkscape:window-height="1016"
     inkscape:window-x="67"
     inkscape:window-y="27"
     inkscape:window-maximized="1" />
  <metadata
     id="metadata2245">
    <rdf:RDF>
      <cc:Work
         rdf:about="">
        <dc:format>image/svg+xml</dc:format>
        <dc:type
           rdf:resource="http://purl.org/dc/dcmitype/StillImage" />
        <dc:title></dc:title>
      </cc:Work>
    </rdf:RDF>
  </metadata>
  <g
     inkscape:label="Layer 1"
     inkscape:groupmode="layer"
     id="layer1"
     transform="translate(0,-270.54165)">
    <g
       id="g2392"
       transform="matrix(1.1082135,0,0,1.1082135,0.16599779,-34.305309)">
      <g
         transform="matrix(0.35277777,0,0,-0.35277777,5.8365945,291.8955)"
         id="g1688">
        <path
           inkscape:connector-curvature="0"
           id="path1690"
           style="fill:#ff6600;fill-opacity:1;fill-rule:nonzero;stroke:none"
           d="M 0,0 C 3.75,6.25 11.25,-6.25 6.25,-10.25 1.5,-14 -3.75,-2.75 0.25,1" />
      </g>
      <g
         transform="matrix(0.35277777,0,0,-0.35277777,16.772705,291.54273)"
         id="g1692">
        <path
           inkscape:connector-curvature="0"
           id="path1694"
           style="fill:#ff6600;fill-opacity:1;fill-rule:nonzero;stroke:none"
           d="m 0,0 c -0.25,-2.5 -2.5,-4.75 -2.75,-7.25 0,-2.25 3,-7.5 6.25,-6.25 5,2.25 -0.75,17.5 -3.75,12.75" />
      </g>
      <g
         transform="matrix(0.35277777,0,0,-0.35277777,17.06417,285.69949)"
         id="g1696">
        <path
           inkscape:connector-curvature="0"
           id="path1698"
           style="fill:#d3d3d3;fill-opacity:1;fill-rule:nonzero;stroke:none"
           d="M 0,0 0.064,0.091 C 0.903,1.29 1.28,3.044 2.059,4.349 2.986,5.903 4.329,7.432 3.611,9.382 2.592,12.148 0.541,14.51 1.218,17.903 3.043,15.683 4.719,16.005 5.629,12.872 6.365,10.339 6.392,7.535 6.421,4.92 6.499,-2.07 5.025,-9.312 5.624,-16.232 c -2.007,2.601 -2.438,-1.476 -2.199,-2.83 0.367,-2.081 0.903,-3.215 0.2,-5.508 -0.649,-2.113 -1.981,-5.58 1.78,-5.576 2.032,0.003 3.7,2.493 4.451,4.101 1.668,3.57 0.254,5.774 -0.182,9.482 -0.443,3.755 -2.024,6.716 -1,10.505 0.74,2.742 1.931,6.039 2.077,8.861 0.138,2.694 -0.577,5.635 -0.577,8.384 0,3.75 -0.5,5.25 -3.75,7.5 -3.5,2.5 -4,2.25 -4.25,6.75 -4.25,0.25 -4.5,-4.5 -7.5,-6.5 -3.683,-2.456 -9.274,-2.888 -13.307,-0.805 -1.29,0.667 -2.129,1.819 -3.296,2.621 -0.824,0.568 -2.178,0.904 -2.843,1.593 -1.121,1.159 -0.989,5.071 -2.949,5.219 -1.97,0.151 -3.499,-4.413 -4.306,-5.677 -1.329,-2.082 -3.532,-3.521 -4.61,-5.897 -1.755,-3.866 -1.271,-8.147 -0.744,-12.223 0.509,-3.925 2.279,-8.042 2.226,-11.955 -0.072,-5.181 -1.289,-10.967 -0.171,-16.126 0.764,-3.53 3.047,-6.78 7.218,-5.262 -0.338,1.585 -2.086,2.466 -2.481,4.262 -0.311,1.417 0.069,3.572 0.263,5 0.115,0.854 1.379,3.772 1.198,4.2 -0.45,1.07 -2.702,1.276 -3.411,2.35 -0.837,1.272 -0.725,3.654 -0.728,5.1 -0.006,3.311 0.767,6.554 0.941,9.857 -0.003,3.24 -0.515,6.47 -0.548,9.714 -0.013,1.203 -0.297,3.279 0.35,4.376 0.901,1.532 2.676,1.789 3.753,3.383 1.203,-2.344 0.456,-3.252 -0.624,-4.968 -1.147,-1.824 -1.319,-3.538 -1.43,-5.762 -0.174,-3.48 0.855,-6.423 3.926,-8.109 2.147,-1.179 8.511,-2.338 8.823,-5.141 0.25,-1.25 -2.25,-2.5 -3,-3.75 -0.75,-1.5 -0.75,-4 -0.5,-5.5 0.5,-2.5 2,-4.75 2.5,-7.25 0.75,-2.75 0.5,-6 1,-8.75 0.5,-3 0,-3.75 3.75,-3.75 3.25,0 5.25,1.75 6,5 0.672,3.022 0.075,6.138 0.47,9.185 0.388,3.008 1.03,5.956 1.03,9.061 0,2.168 -1.283,3.369 -1.534,5.061 -0.346,2.33 2.715,2.778 4.819,3.971 2.082,1.181 3.806,2.432 4.773,4.718 1.872,4.419 1.474,9.658 0.442,14.254" />
      </g>
      <g
         transform="matrix(0.35277777,0,0,-0.35277777,7.0299713,281.03518)"
         id="g1700">
        <path
           inkscape:connector-curvature="0"
           id="path1702"
           style="fill:#1a171b;fill-opacity:1;fill-rule:nonzero;stroke:none"
           d="m 0,0 c -1.817,-4.162 -3.298,-6.803 -0.414,-10.859 2.487,-3.5 6.376,-5.058 10.504,-5.231 4.344,-0.181 9.446,-0.676 13.76,0.152 2.913,0.558 4.99,3.559 6.273,5.975 2.94,5.534 1.011,11.587 -5.279,12.925 C 19.899,4.014 14.277,2.941 9.32,2.574 6.189,2.343 2.275,2.843 -0.203,0.565 -0.552,0.244 0.204,0.15 0.437,0.364 c 1.979,1.818 6.246,1.535 8.805,1.681 3.974,0.227 7.896,0.688 11.885,0.665 6.461,-0.038 10.557,-3.333 9.248,-9.885 -0.443,-2.221 -1.725,-4.248 -3.162,-5.943 -3.059,-3.609 -7.947,-2.111 -11.974,-2.266 C 9.873,-15.59 5.369,-15.522 1.255,-11.631 -2.74,-7.852 -1.116,-4.307 0.734,-0.07 0.905,0.322 0.128,0.291 0,0" />
      </g>
      <g
         transform="matrix(0.35277777,0,0,-0.35277777,12.186595,284.75175)"
         id="g1704">
        <path
           inkscape:connector-curvature="0"
           id="path1706"
           style="fill:#d3d3d3;fill-opacity:1;fill-rule:nonzero;stroke:none"
           d="m 0,0 c -6,2.25 -3.25,15.75 -12,17.5 -9.5,2 -10.25,-7.5 -9.75,-14 0,-2.5 -0.25,-5 -0.25,-7.5 0.25,-3.75 1.75,-7.5 1.25,-11.5 -0.25,-3 -1.75,-5.75 -1.25,-9 0.25,-1.5 3.75,-7.75 5.75,-7 2,0.5 -1,5 -1.25,6.25 -0.5,2.25 0.25,4.25 1.75,5.5 -2,1.25 -3.25,-0.75 -3.75,-2 -0.75,5.25 0.75,10.5 -0.5,16.25 -0.75,4 -0.75,8.749 -0.5,12.998 0.248,4.213 2.039,9.894 7.571,8.454 2.798,-0.727 3.491,-4.122 4.53,-6.643 C -7.06,6.054 -5.736,2.856 -3,0.5" />
      </g>
      <g
         transform="matrix(0.35277777,0,0,-0.35277777,12.315111,284.70527)"
         id="g1708">
        <path
           inkscape:connector-curvature="0"
           id="path1710"
           style="fill:#000000;fill-opacity:1;fill-rule:nonzero;stroke:none"
           d="m 0,0 c -3.712,1.763 -4.258,6.777 -5.382,10.297 -1.321,4.134 -3.601,6.728 -7.964,7.431 -7.024,1.131 -9.17,-5.869 -9.27,-11.537 -0.051,-2.855 0.036,-5.687 -0.096,-8.551 -0.181,-3.947 1.109,-7.746 1.313,-11.676 0.318,-6.143 -3.217,-10.042 1.21,-15.516 1.257,-1.553 2.502,-2.941 4.363,-1.788 0.862,0.534 -0.156,2.566 -0.369,3.106 -1.221,3.102 -2.429,5.415 0.43,8.38 0.058,0.059 0.04,0.097 -0.032,0.123 -1.185,0.419 -2.623,0.594 -3.488,-0.615 -1.252,-1.748 -0.39,1.163 -0.414,2.074 -0.049,1.768 0.117,3.563 0.197,5.33 0.164,3.599 -0.497,6.984 -0.905,10.535 -0.462,4.012 -1.728,21.753 7.828,17.631 2.271,-0.981 3.158,-5.499 4.007,-7.539 1.188,-2.863 2.624,-5.292 4.843,-7.449 0.147,-0.142 0.851,0.146 0.729,0.264 -4.325,4.201 -4.462,11.275 -8.852,14.987 -1.451,1.228 -4.761,0.925 -6.158,-0.31 -3.591,-3.179 -3.346,-8.443 -3.39,-12.839 -0.04,-4.018 0.792,-7.862 1.13,-11.838 0.355,-4.157 -0.394,-8.313 0.019,-12.485 0.019,-0.183 0.706,0.044 0.768,0.171 0.494,1.022 2.941,2.28 1.58,0.037 -0.729,-1.202 -0.584,-2.995 -0.173,-4.236 0.472,-1.426 1.282,-2.695 1.696,-4.158 -0.499,-1.251 -1.08,-1.457 -1.745,-0.619 -1.099,0.82 -1.811,2.16 -2.52,3.306 -2.417,3.906 -0.698,7.698 -0.088,11.92 0.724,5.016 -1.354,10.186 -1.12,15.286 0.179,3.9 -0.26,7.79 0.507,11.647 1.189,5.974 8.355,7.856 12.65,3.591 4.093,-4.064 2.34,-12.552 7.967,-15.224 C -0.522,-0.362 0.091,-0.043 0,0" />
      </g>
      <g
         transform="matrix(0.35277777,0,0,-0.35277777,12.503528,284.92815)"
         id="g1712">
        <path
           inkscape:connector-curvature="0"
           id="path1714"
           style="fill:#d3d3d3;fill-opacity:1;fill-rule:nonzero;stroke:none"
           d="m 0,0 c 6,2.25 3.25,15.75 12,17.5 9.5,2 10.25,-7.5 9.75,-14 0,-2.5 0.25,-5 0.25,-7.5 -0.25,-3.75 -1.75,-7.5 -1.25,-11.5 0.25,-3 1.75,-5.75 1.25,-9 -0.25,-1.5 -3.75,-7.75 -5.75,-7 -2,0.5 1,5 1.25,6.25 0.5,2.25 -0.25,4.25 -1.75,5.5 2,1.25 3.25,-0.75 3.75,-2 0.75,5.25 -0.75,10.5 0.5,16.25 0.75,4 0.75,8.75 0.5,13.002 -0.293,3.658 -0.968,7.714 -5.168,8.441 C 9.612,16.933 7.923,12.504 6.602,7.75 5.503,3.799 5.04,1.453 1.352,-0.5" />
      </g>
      <g
         transform="matrix(0.35277777,0,0,-0.35277777,12.55934,284.99189)"
         id="g1716">
        <path
           inkscape:connector-curvature="0"
           id="path1718"
           style="fill:#000000;fill-opacity:1;fill-rule:nonzero;stroke:none"
           d="m 0,0 c 3.901,1.852 4.453,6.854 5.634,10.548 1.761,5.511 8.318,10.233 13.313,5.056 2.568,-2.662 2.457,-7.651 2.319,-11.018 -0.209,-5.095 0.047,-9.857 -0.859,-14.923 -0.882,-4.933 2.474,-10.677 0.642,-15.182 -0.52,-1.277 -1.324,-2.445 -2.11,-3.568 -2.622,-1.482 -3.57,-1.412 -2.843,0.211 0.309,1.096 0.966,2.207 1.434,3.26 0.468,1.054 0.339,2.101 0.23,3.198 -0.068,0.422 -0.201,0.814 -0.403,1.178 -1.356,2.234 1.012,0.782 1.598,-0.433 0.123,-0.254 0.747,-0.136 0.774,0.146 0.415,4.172 -0.066,8.303 0.02,12.485 0.081,3.955 1.071,7.845 1.13,11.839 0.066,4.536 0.385,10.66 -4.127,13.165 C 14.113,17.427 10.75,16.239 8.845,14.261 4.69,9.946 6.717,3.266 0.948,-0.185 c -0.449,-0.269 0.219,-0.431 0.49,-0.269 3.403,2.036 4.369,4.719 5.393,8.427 0.42,1.517 0.907,2.951 1.555,4.395 1.903,4.246 8.821,3.951 10.676,-0.003 1.293,-2.757 1.012,-6.758 1.042,-9.652 0.033,-3.374 -0.41,-6.657 -0.972,-9.974 -0.591,-3.487 -0.028,-7.343 0.044,-10.845 0.073,-3.553 0.693,-2.126 -1.239,-1.069 -0.94,0.514 -1.607,0.104 -2.503,-0.214 -0.107,-0.037 -0.324,-0.209 -0.2,-0.338 2.592,-2.688 1.81,-5.297 0.462,-8.279 -0.323,-0.716 -1.143,-2.377 -0.454,-3.166 1.151,-1.315 2.94,0.382 3.712,1.167 2.974,3.018 3.733,6.382 2.931,10.383 -0.889,4.427 -0.952,8.164 -0.1,12.625 0.752,3.934 -0.003,7.703 0.257,11.668 0.472,7.193 -1.646,14.615 -10.153,13.246 C 2.751,16.445 6.573,3.633 -0.316,0.361 -0.8,0.132 -0.36,-0.172 0,0" />
      </g>
      <g
         transform="matrix(0.35277777,0,0,-0.35277777,14.384221,284.338)"
         id="g1720">
        <path
           inkscape:connector-curvature="0"
           id="path1722"
           style="fill:#1a171b;fill-opacity:1;fill-rule:nonzero;stroke:none"
           d="M 0,0 C 2.625,1.415 4.29,3.948 6.572,5.795 6.344,5.785 6.115,5.776 5.888,5.767 5.158,4.457 4.397,3.169 3.547,1.935 2.757,0.787 1.154,-1.701 -0.484,-1.494 -0.68,-1.47 -1.385,-1.8 -0.975,-1.852 0.62,-2.054 1.907,-0.871 2.902,0.222 4.421,1.891 5.562,3.926 6.653,5.888 6.766,6.089 6.047,5.923 5.969,5.859 3.741,4.058 2.098,1.532 -0.459,0.154 -0.914,-0.092 -0.208,-0.112 0,0" />
      </g>
      <g
         transform="matrix(0.35277777,0,0,-0.35277777,7.9050357,282.73052)"
         id="g1724">
        <path
           inkscape:connector-curvature="0"
           id="path1726"
           style="fill:#1a171b;fill-opacity:1;fill-rule:nonzero;stroke:none"
           d="M 0,0 C 0.226,0.315 0.345,0.643 0.5,1 0.277,0.94 0.055,0.881 -0.167,0.821 1.562,0.134 2.24,-1.271 3.429,-2.565 4.735,-3.988 7.166,-4.53 8.833,-5.429 9.08,-5.562 9.783,-5.215 9.44,-5.03 7.462,-3.963 5.006,-3.367 3.553,-1.563 2.583,-0.36 1.929,0.63 0.44,1.22 0.251,1.296 -0.129,1.265 -0.227,1.041 -0.382,0.685 -0.501,0.357 -0.727,0.041 -0.947,-0.268 -0.162,-0.228 0,0" />
      </g>
      <g
         transform="matrix(0.35277777,0,0,-0.35277777,8.8352048,281.66497)"
         id="g1728">
        <path
           inkscape:connector-curvature="0"
           id="path1730"
           style="fill:#d3d3d3;fill-opacity:1;fill-rule:nonzero;stroke:none"
           d="m 0,0 c -3,1.75 -2.75,5 -3,8.25 0,1 0,8.25 -2.5,6 -2,-2 2.75,-13.5 3,-15.75" />
      </g>
      <g
         transform="matrix(0.35277777,0,0,-0.35277777,8.963369,281.61673)"
         id="g1732">
        <path
           inkscape:connector-curvature="0"
           id="path1734"
           style="fill:#000000;fill-opacity:1;fill-rule:nonzero;stroke:none"
           d="m 0,0 c -3.608,2.501 -2.772,7.225 -3.102,11.079 -0.131,1.543 -0.429,4.26 -2.525,3.418 C -9.5,12.941 -3.678,1.021 -3.25,-1.74 c 0.029,-0.184 0.807,-0.012 0.773,0.207 -0.754,4.863 -4.151,9.796 -3.413,14.844 0.119,0.814 1.203,0.788 1.51,0.105 0.202,-0.449 0.275,-0.974 0.364,-1.452 0.214,-1.129 0.243,-2.303 0.263,-3.449 0.062,-3.304 0.084,-6.747 3.026,-8.788 C -0.537,-0.404 0.136,-0.095 0,0" />
      </g>
      <g
         transform="matrix(0.35277777,0,0,-0.35277777,15.890758,281.66497)"
         id="g1736">
        <path
           inkscape:connector-curvature="0"
           id="path1738"
           style="fill:#d3d3d3;fill-opacity:1;fill-rule:nonzero;stroke:none"
           d="m 0,0 c 0,2.5 1.5,4.25 2.25,6.5 1,2.25 1.25,5 2,7.25 C 7,10 2.5,2.5 1.5,-1.25" />
      </g>
      <g
         transform="matrix(0.35277777,0,0,-0.35277777,16.026826,281.64774)"
         id="g1740">
        <path
           inkscape:connector-curvature="0"
           id="path1742"
           style="fill:#000000;fill-opacity:1;fill-rule:nonzero;stroke:none"
           d="m 0,0 c 0.175,2.389 1.419,4.309 2.25,6.5 0.896,2.362 1.274,4.838 2,7.25 C 4.002,13.684 3.754,13.617 3.505,13.551 6.266,9.099 2.003,2.985 0.729,-1.348 0.648,-1.62 1.424,-1.509 1.5,-1.25 2.813,3.213 7.073,9.256 4.224,13.852 4.092,14.064 3.536,13.846 3.479,13.652 2.753,11.243 2.407,8.75 1.479,6.402 0.614,4.22 -0.598,2.289 -0.771,-0.098 -0.795,-0.41 -0.019,-0.256 0,0" />
      </g>
      <g
         transform="matrix(0.35277777,0,0,-0.35277777,7.6518109,282.78257)"
         id="g1744">
        <path
           inkscape:connector-curvature="0"
           id="path1746"
           style="fill:#1a171b;fill-opacity:1;fill-rule:nonzero;stroke:none"
           d="m 0,0 c 2.766,-2.615 6.991,-3.6 9,-7 0.172,-0.291 0.911,-0.006 0.709,0.336 -2.024,3.426 -6.225,4.375 -9,7 C 0.461,0.57 -0.269,0.254 0,0" />
      </g>
      <g
         transform="matrix(0.35277777,0,0,-0.35277777,11.128261,285.10455)"
         id="g1748">
        <path
           inkscape:connector-curvature="0"
           id="path1750"
           style="fill:#d3d3d3;fill-opacity:1;fill-rule:nonzero;stroke:none"
           d="M 0,0 C -4.75,0.5 -2,-3.75 0.25,-5.25 2.25,-6.25 6,-7 8,-5.5 c 7,5 -4.75,7.75 -8.5,5.25" />
      </g>
      <g
         transform="matrix(0.35277777,0,0,-0.35277777,11.180612,285.02427)"
         id="g1752">
        <path
           inkscape:connector-curvature="0"
           id="path1754"
           style="fill:#000000;fill-opacity:1;fill-rule:nonzero;stroke:none"
           d="m 0,0 c -0.903,0.068 -2.61,0.135 -3.03,-0.956 -0.51,-1.325 0.77,-2.81 1.606,-3.692 2.525,-2.667 7.464,-2.891 10.256,-0.632 0.915,0.74 1.799,1.839 1.524,3.081 -0.268,1.22 -1.795,1.884 -2.828,2.251 -2.544,0.907 -6.047,1.063 -8.419,-0.406 -0.445,-0.276 0.227,-0.407 0.485,-0.247 1.869,1.158 4.465,0.963 6.517,0.497 1.507,-0.343 3.932,-1.305 3.451,-3.261 C 9.197,-4.85 7.242,-6.024 5.905,-6.276 4.1,-6.616 2.036,-6.051 0.407,-5.285 c -0.853,0.401 -1.607,1.433 -2.126,2.186 -0.306,0.447 -0.516,0.934 -0.631,1.459 -0.257,1.192 1.241,1.246 2.053,1.185 C 0.01,-0.479 0.522,-0.039 0,0" />
      </g>
      <g
         transform="matrix(0.35277777,0,0,-0.35277777,13.117785,289.59934)"
         id="g1756">
        <path
           inkscape:connector-curvature="0"
           id="path1758"
           style="fill:#1a171b;fill-opacity:1;fill-rule:nonzero;stroke:none"
           d="m 0,0 c -2.15,0.054 -6.751,-0.174 -6.788,3.239 -10e-4,0.074 -0.018,0.135 -0.088,0.174 -4.368,2.459 -0.889,-9.202 -0.868,-9.284 0.772,-3.068 1.199,-5.958 0.483,-9.099 -0.471,-2.071 -0.722,-3.443 0.155,-5.424 0.466,-1.052 1.955,-2.112 3.163,-1.557 1.491,0.684 2.742,-0.241 4.42,0.209 2.237,0.599 2.242,3.614 2.238,5.392 -0.01,4.665 -2.396,10.771 0.312,15.129 1.184,1.906 2.942,3.71 0.429,5.14 C 3.255,4.033 2.802,3.946 2.765,3.673 1.894,2.782 1.022,1.891 0.151,1 -0.259,0.95 -0.46,0.419 0.069,0.482 0.995,0.594 2.066,0.6 2.682,1.499 1.843,0.273 5.653,6.372 3.732,1.039 3.382,0.065 2.534,-0.773 1.991,-1.647 0.561,-3.95 1.18,-7.736 1.221,-10.296 c 0.031,-1.955 2.083,-14.971 -4.06,-10.473 -0.144,0.107 -0.422,0.048 -0.551,-0.055 -4.135,-3.287 -3.256,5.225 -3.091,5.927 0.377,1.61 0.482,2.905 0.399,4.532 -0.172,3.367 -1.306,7.123 -2.313,10.327 0.279,0.763 0.558,1.525 0.837,2.287 0.007,-0.29 0.112,-0.558 0.315,-0.804 0.222,-0.522 0.951,-0.861 1.39,-1.117 1.547,-0.899 3.865,-0.803 5.574,-0.846 C 0.064,-0.526 0.523,-0.013 0,0" />
      </g>
      <g
         transform="matrix(0.35277777,0,0,-0.35277777,10.702105,289.03988)"
         id="g1760">
        <path
           inkscape:connector-curvature="0"
           id="path1762"
           style="fill:#1a171b;fill-opacity:1;fill-rule:nonzero;stroke:none"
           d="M 0,0 C 2.678,0.868 5.172,1.121 7.964,0.723 8.166,0.693 8.866,1.029 8.452,1.088 5.463,1.515 2.783,1.24 -0.084,0.311 -0.528,0.166 -0.454,-0.146 0,0" />
      </g>
      <g
         transform="matrix(0.35277777,0,0,-0.35277777,12.534892,292.95384)"
         id="g1764">
        <path
           inkscape:connector-curvature="0"
           id="path1766"
           style="fill:#ffffff;fill-opacity:1;fill-rule:nonzero;stroke:none"
           d="m 0,0 c 0.062,4.329 -0.175,8.681 0.263,13 0.296,2.922 1.269,6.746 0.206,9.712 -0.431,0.114 -1.246,0.137 -1.674,0 0.147,-2.386 1.137,-3.496 0.468,-5.962 -0.522,-1.922 -0.784,-3.614 -1,-5.75 -0.604,-5.97 -0.303,-11.339 0,-17.25 0.078,-1.522 -1.181,-5.94 0.962,-5.655 C -0.755,-7.939 -0.061,-4.165 0,0" />
      </g>
      <g
         transform="matrix(0.35277777,0,0,-0.35277777,12.671311,292.91732)"
         id="g1768">
        <path
           inkscape:connector-curvature="0"
           id="path1770"
           style="fill:#1a171b;fill-opacity:1;fill-rule:nonzero;stroke:none"
           d="m 0,0 c 0.026,4.327 -0.088,8.635 0.26,12.955 0.274,3.416 1.035,6.345 0.209,9.757 -0.015,0.058 -0.097,0.075 -0.144,0.08 -0.97,0.109 -0.884,0.104 -1.854,-0.005 -0.118,-0.014 -0.475,-0.106 -0.45,-0.282 1.036,-7.177 -0.989,-14.692 -0.836,-22.056 0.073,-3.498 0.254,-6.876 0.014,-10.366 -0.091,-1.312 0.141,-2.086 1.396,-2.275 0.173,-0.027 0.623,0.055 0.63,0.287 C -0.667,-7.925 -0.138,-3.979 0,0 0.006,0.178 -0.764,0.058 -0.773,-0.207 -0.891,-3.609 -1.285,-6.982 -1.5,-10.377 c 0.002,-0.206 -0.165,-0.294 -0.501,-0.266 -0.258,1.01 0.122,2.588 0.236,3.656 0.63,5.859 -0.494,12 0.025,17.942 0.219,2.505 0.882,4.906 1.229,7.386 0.032,0.475 -0.02,0.949 -0.154,1.42 -0.294,2.558 0.734,1.216 0.846,-0.443 C 0.365,16.575 -0.536,13.69 -0.659,10.94 -0.826,7.225 -0.751,3.511 -0.773,-0.207 -0.774,-0.391 -0.002,-0.263 0,0" />
      </g>
      <g
         transform="matrix(0.35277777,0,0,-0.35277777,6.3268145,292.32376)"
         id="g1772">
        <path
           inkscape:connector-curvature="0"
           id="path1774"
           style="fill:#1a171b;fill-opacity:1;fill-rule:nonzero;stroke:none"
           d="m 0,0 c 0.026,0.678 0.013,2.136 1.075,2.136 0.798,0 1.62,-0.772 2.148,-1.281 1.084,-1.046 1.383,-2.644 1.571,-4.076 0.161,-1.238 0.178,-7.401 -2.362,-6.602 -1.688,0.53 -2.715,3.134 -3.267,4.592 -0.659,1.742 -1.293,4.136 -0.438,5.913 0.182,0.38 -0.598,0.343 -0.733,0.064 -1.299,-2.7 1.888,-13.885 5.979,-10.683 2.477,1.939 2.069,7.475 0.81,9.911 C 3.382,2.684 -0.618,4.041 -0.779,-0.072 -0.794,-0.449 -0.013,-0.317 0,0" />
      </g>
      <g
         transform="matrix(0.35277777,0,0,-0.35277777,17.879967,291.94583)"
         id="g1776">
        <path
           inkscape:connector-curvature="0"
           id="path1778"
           style="fill:#1a171b;fill-opacity:1;fill-rule:nonzero;stroke:none"
           d="m 0,0 c 1.967,-2.183 2.852,-13.606 -1.952,-11.396 -2.81,1.292 -3.369,4.405 -2.491,7.088 C -3.67,-1.943 -0.614,1.59 1.5,-1.5 1.627,-1.685 2.376,-1.439 2.223,-1.215 -1.339,3.989 -9.267,-6.754 -3.419,-11.229 2.825,-16.01 3.586,-2.892 0.723,0.285 0.564,0.461 -0.169,0.187 0,0" />
      </g>
    </g>
  </g>
</svg>
