<?xml version="1.0" encoding="UTF-8" standalone="no"?>
<!-- Created with Inkscape (http://www.inkscape.org/) -->

<svg
   xmlns:dc="http://purl.org/dc/elements/1.1/"
   xmlns:cc="http://creativecommons.org/ns#"
   xmlns:rdf="http://www.w3.org/1999/02/22-rdf-syntax-ns#"
   xmlns:svg="http://www.w3.org/2000/svg"
   xmlns="http://www.w3.org/2000/svg"
   xmlns:sodipodi="http://sodipodi.sourceforge.net/DTD/sodipodi-0.dtd"
   xmlns:inkscape="http://www.inkscape.org/namespaces/inkscape"
   width="100"
   height="100"
   viewBox="0 0 26.458333 26.458334"
   version="1.1"
   id="svg2194"
   inkscape:version="0.92.4 (unknown)"
   sodipodi:docname="Gonads.svg">
  <defs
     id="defs2188" />
  <sodipodi:namedview
     id="base"
     pagecolor="#ffffff"
     bordercolor="#666666"
     borderopacity="1.0"
     inkscape:pageopacity="0.0"
     inkscape:pageshadow="2"
     inkscape:zoom="3.959798"
     inkscape:cx="40.725355"
     inkscape:cy="16.756197"
     inkscape:document-units="mm"
     inkscape:current-layer="layer1"
     showgrid="false"
     units="px"
     inkscape:window-width="1853"
     inkscape:window-height="1016"
     inkscape:window-x="67"
     inkscape:window-y="27"
     inkscape:window-maximized="1"
     showguides="true"
     inkscape:guide-bbox="true" />
  <metadata
     id="metadata2191">
    <rdf:RDF>
      <cc:Work
         rdf:about="">
        <dc:format>image/svg+xml</dc:format>
        <dc:type
           rdf:resource="http://purl.org/dc/dcmitype/StillImage" />
        <dc:title></dc:title>
      </cc:Work>
    </rdf:RDF>
  </metadata>
  <g
     inkscape:label="Layer 1"
     inkscape:groupmode="layer"
     id="layer1"
     transform="translate(0,-270.54165)">
    <g
       id="g3745"
       transform="matrix(0.59808616,0,0,0.59808616,37.385807,109.40678)">
      <g
         transform="matrix(0.35277777,0,0,-0.35277777,-43.606038,296.20782)"
         id="g1652">
        <path
           inkscape:connector-curvature="0"
           id="path1654"
           style="fill:#d3d3d3;fill-opacity:1;fill-rule:nonzero;stroke:none"
           d="M 0,0 C 0.166,-1.5 -0.5,-3 -0.334,-4.333 0,-7 0.833,-9.167 1,-11.833 1.333,-19 5.5,-11.667 8.166,-9.5 c 1.334,1 2,-0.5 2.334,1.833 0.333,1.5 -0.834,2 -1.667,3.167 -1.167,1.667 -3.667,4 -1.167,5.833 4.334,3 11.667,-4.166 12.167,-7.833 0.667,-4.333 1,-8.667 1.833,-13.167 1.167,-4.666 3.834,-8.5 4.667,-13.166 C 27,-36.333 27,-44.834 32,-44.667 c 1.333,0.166 6.333,1.167 7.166,2 1.334,1.334 1.834,5.167 2.667,7 1.5,4 1.5,6.667 1.667,10.834 0.166,4.166 3.333,8 3.666,12.5 0.5,4.833 -0.166,7.5 3.667,11.333 2.166,2.166 3.832,2.833 6.665,1.668 2.777,-1.143 5.074,-3.205 1.941,-5.785 -0.977,-0.805 -3.151,-0.439 -3.349,-2.218 -0.16,-1.433 2.518,-2.898 3.408,-3.644 2.499,-2.092 4.907,-5.9 5.751,-0.688 0.509,3.141 2.218,5.822 2.25,9 C 67.595,6.629 59.12,6.256 52.5,4.667 48.166,3.833 43.357,0.187 39.166,1.833 c -4.666,1.833 -8,1 -12,0.167 C 24.666,1.333 23.333,0.667 21,1.833 18.333,3.167 16.666,4.667 13.833,5.5 9.666,6.833 6.333,6.833 2.666,3.833 1,2.667 -0.167,1 0.166,-1.333" />
      </g>
      <g
         id="g3716">
        <g
           id="g1636"
           transform="matrix(0.35277777,0,0,-0.35277777,-39.431617,298.97147)">
          <path
             d="m 0,0 c -2.5,1.5 -3.833,-0.666 -5.833,-1.666 -2.334,-1 -3.667,-0.334 -4.334,-3.167 -1.166,-4.667 0.667,-6 4.167,-8.667 2.167,-1.333 3,-3 5.667,-2.333 1.666,0.5 4.833,3 5.5,4.833 0.5,0.834 0.166,1.834 0.5,2.834 0.5,1 1.333,1.666 1.833,2.833 0.667,1.333 1.167,3.833 0,5 C 6.333,-1.5 4.5,-3 3.833,-4.666 c -2.166,0.5 -3.666,3.166 -4,5.333"
             style="fill:#cb3398;fill-opacity:1;fill-rule:nonzero;stroke:none"
             id="path1638"
             inkscape:connector-curvature="0" />
        </g>
        <g
           id="g1640"
           transform="matrix(0.35277777,0,0,-0.35277777,-24.026872,299.14787)">
          <path
             d="M 0,0 C -1.667,-0.833 -2.334,-2.5 -3.834,-3.5 -6.167,-5 -6,-3.833 -8.167,-2.833 -9,-8.666 -3.167,-17.333 3.5,-14 c 3.166,1.5 5.833,4.667 4.666,7.667 -0.666,1.667 -2,3.833 -3.5,5 C 2.333,0.667 1.5,-1 -1,-0.833"
             style="fill:#cb3398;fill-opacity:1;fill-rule:nonzero;stroke:none"
             id="path1642"
             inkscape:connector-curvature="0" />
        </g>
        <g
           id="g1644"
           transform="matrix(0.35277777,0,0,-0.35277777,-42.250065,300.04946)">
          <path
             d="m 0,0 c -2.095,-2.015 -1.478,-5.85 0.135,-8.113 0.839,-1.176 3.194,-4.295 5.028,-3.696 3.414,1.118 5.458,-0.107 7.152,3.659 1.06,2.354 1.771,4.259 3.235,6.461 1.039,1.56 1.853,2.953 1.659,4.848 C 17.176,3.476 16.619,3.305 16.5,3.166 15.252,1.729 14.202,0.189 13.163,-1.402 12.618,-2.237 10.88,-3.723 11.26,-4.707 c -0.264,0.683 -0.023,1.864 -0.017,2.593 0.011,1.21 -0.423,2.412 -1.842,2.032 C 9.06,-0.174 7.056,3.366 5.339,3.313 2.69,3.23 0.755,1.473 -0.833,-0.5 c -0.308,-0.381 0.428,-0.49 0.645,-0.221 0.75,0.932 1.463,1.674 2.422,2.422 2.769,2.164 5.252,0.265 6.202,-2.415 0.081,-0.226 0.381,-0.192 0.556,-0.12 2.154,0.892 1.217,-3.36 1.611,-4.38 0.105,-0.272 0.56,-0.203 0.709,-0.007 0.92,1.211 1.758,2.46 2.588,3.735 0.597,0.932 1.219,1.848 1.866,2.748 1.58,2.22 0.331,-0.672 0.033,-1.297 C 14.42,-2.927 12.574,-4.94 11.578,-8.066 10.476,-11.526 4.361,-11.567 2.304,-9.458 0.217,-7.32 -1.958,-2.726 0.645,-0.221 0.992,0.113 0.242,0.233 0,0"
             style="fill:#1a171b;fill-opacity:1;fill-rule:nonzero;stroke:none"
             id="path1646"
             inkscape:connector-curvature="0" />
        </g>
        <g
           id="g1648"
           transform="matrix(0.35277777,0,0,-0.35277777,-27.632508,298.94908)">
          <path
             d="m 0,0 c 0.228,-4.388 3.441,-6.997 4.689,-11.043 1.099,-3.563 4.917,-1.06 6.838,-3.336 0.153,-0.18 0.609,-0.011 0.718,0.146 2.144,3.054 6.035,5.242 6.904,9.103 0.463,2.058 -1.63,1.461 -2.383,2.185 -0.714,0.686 -1.515,0.849 -1.747,1.959 -0.033,0.156 -0.338,0.298 -0.483,0.32 -1.086,0.167 -2.186,0.359 -3.2,-0.218 C 9.929,-1.686 7.516,-2.354 6.528,-3.726 6.025,-4.424 6.08,-5.407 5.986,-6.218 5.657,-9.056 3.302,-5.757 3.122,-5.491 1.99,-3.816 1.396,-1.8 0.08,-0.247 c -0.167,0.196 -0.907,-0.076 -0.719,-0.299 1.285,-1.515 3.046,-7.884 5.874,-7.126 1.54,0.412 1.564,1.911 1.72,3.264 0.097,0.834 3.282,2.334 4.03,2.839 2.475,1.673 3.508,-0.595 5.062,-1.674 0.561,-0.391 0.285,-0.388 1.144,-0.433 3.351,-0.177 -0.478,-4.527 -0.946,-4.996 -1.586,-1.592 -2.766,-5.317 -5.287,-4.182 -0.414,0.187 -0.889,0.211 -1.329,0.132 -3.271,-0.591 -3.9,1.263 -4.689,3.429 -1.26,3.458 -3.963,5.572 -4.167,9.5 C 0.761,0.444 -0.015,0.289 0,0"
             style="fill:#1a171b;fill-opacity:1;fill-rule:nonzero;stroke:none"
             id="path1650"
             inkscape:connector-curvature="0" />
        </g>
        <g
           id="g1656"
           transform="matrix(0.35277777,0,0,-0.35277777,-42.214224,301.71239)">
          <path
             d="M 0,0 C 1.921,-0.598 3.238,0.328 4.092,2.053 3.84,2.035 3.587,2.018 3.334,2 3.684,-1.049 6.882,-1.547 7.926,1.386 7.671,1.394 7.417,1.402 7.162,1.41 6.854,-0.141 7.39,-1.073 9.023,-1.026 9.473,-1.013 9.61,-0.42 9.086,-0.435 7.509,-0.48 7.802,0.731 7.947,1.463 8.023,1.846 7.285,1.772 7.184,1.487 6.808,0.432 5.793,-0.637 4.729,0.446 4.278,0.906 4.177,1.6 4.107,2.207 4.065,2.569 3.453,2.364 3.35,2.154 2.809,1.062 2.15,0.008 0.441,0.539 0.094,0.647 -0.47,0.146 0,0"
             style="fill:#1a171b;fill-opacity:1;fill-rule:nonzero;stroke:none"
             id="path1658"
             inkscape:connector-curvature="0" />
        </g>
        <g
           id="g1660"
           transform="matrix(0.35277777,0,0,-0.35277777,-41.966537,302.67804)">
          <path
             d="M 0,0 C 0.696,-1.178 1.634,-1.535 2.86,-0.9 2.671,-0.828 2.482,-0.757 2.293,-0.685 1.74,-3.509 5.557,-4.23 5.745,-1.301 5.496,-1.367 5.248,-1.434 5,-1.5 5.9,-2.45 7.16,-4.473 8.693,-3.567 9.143,-3.302 8.732,-2.855 8.344,-3.085 7.451,-3.613 6.197,-1.672 5.705,-1.152 5.511,-0.946 4.981,-1.014 4.96,-1.352 4.901,-2.267 4.192,-3.157 3.32,-2.236 2.911,-1.804 2.975,-1.159 3.078,-0.634 3.136,-0.337 2.672,-0.335 2.511,-0.418 1.588,-0.6 0.986,-0.345 0.705,0.348 0.519,0.663 -0.214,0.361 0,0"
             style="fill:#1a171b;fill-opacity:1;fill-rule:nonzero;stroke:none"
             id="path1662"
             inkscape:connector-curvature="0" />
        </g>
        <g
           id="g1664"
           transform="matrix(0.35277777,0,0,-0.35277777,-25.104149,301.00683)">
          <path
             d="m 0,0 c 0.213,-0.637 0.27,-0.845 -0.144,-1.327 -0.145,-0.168 -0.346,-0.509 -0.34,-0.743 0.016,-0.711 0.373,-0.953 0.982,-1.259 0.917,-0.461 2.633,1.196 3.395,1.53 l -0.56,0.132 C 3.976,-3.111 5.802,-2.905 6.7,-4.235 6.837,-4.437 7.149,-4.35 7.312,-4.246 8.088,-3.756 8.4,-3.073 8.611,-2.203 8.705,-1.819 7.913,-1.908 7.828,-2.258 7.652,-2.98 7.437,-3.475 6.796,-3.881 6.999,-3.884 7.203,-3.888 7.407,-3.892 7.062,-3.381 6.685,-2.902 6.104,-2.644 5.371,-2.316 4.477,-2.293 4.106,-1.46 4.008,-1.238 3.742,-1.242 3.547,-1.328 3.204,-1.479 2.891,-1.686 2.573,-1.881 2.196,-2.112 1.822,-2.338 1.436,-2.551 1.343,-2.597 1.249,-2.643 1.156,-2.688 c -0.984,0.53 -1.044,1.066 -0.178,1.609 0.077,0.069 0.167,0.171 0.128,0.286 -0.111,0.333 -0.221,0.667 -0.333,1 C 0.652,0.569 -0.118,0.356 0,0"
             style="fill:#1a171b;fill-opacity:1;fill-rule:nonzero;stroke:none"
             id="path1666"
             inkscape:connector-curvature="0" />
        </g>
        <g
           id="g1668"
           transform="matrix(0.35277777,0,0,-0.35277777,-25.574401,302.35938)">
          <path
             d="M 0,0 C -0.06,-2.515 2.388,-2.488 3.435,-0.665 3.187,-0.731 2.938,-0.798 2.689,-0.864 3.619,-1.888 4.586,-1.716 5.571,-0.874 5.333,-0.927 5.095,-0.979 4.856,-1.031 5.596,-1.83 6.24,-1.58 7.112,-1.124 7.568,-0.886 6.854,-0.9 6.661,-1.001 6.198,-1.242 5.921,-1.127 5.583,-0.762 5.44,-0.607 4.987,-0.817 4.868,-0.919 4.156,-1.527 3.815,-1.034 3.416,-0.595 3.276,-0.441 2.756,-0.646 2.671,-0.794 1.664,-2.547 0.744,-1.003 0.773,0.207 0.776,0.348 0.006,0.238 0,0"
             style="fill:#1a171b;fill-opacity:1;fill-rule:nonzero;stroke:none"
             id="path1670"
             inkscape:connector-curvature="0" />
        </g>
        <g
           id="g1672"
           transform="matrix(0.35277777,0,0,-0.35277777,-33.717924,306.15586)">
          <path
             d="m 0,0 c -6.118,3.559 -6.791,11.558 -7.471,17.889 -0.674,6.284 -2.115,10.223 -8.417,12.021 -1.834,0.524 -6.093,1.06 -7.357,-1.11 -1.401,-2.406 -1.089,-4.717 1.018,-6.57 0.237,-0.207 5.642,-1.767 4.47,-1.113 0.236,-0.133 -0.332,-0.831 -0.857,-0.753 -0.123,0.019 -0.664,-0.071 -0.636,-0.268 0.537,-1.19 0.287,-1.499 -0.75,-0.929 -0.132,0.159 -0.602,-0.065 -0.715,-0.158 -0.729,-0.601 -2.584,-4.298 -3.785,-3.175 -0.141,0.131 -0.734,-0.037 -0.75,-0.238 -0.18,-2.374 -1.021,-1.689 -0.979,0.13 0.053,2.213 -0.044,4.364 -0.248,6.577 -0.187,2.033 -0.181,3.99 0.225,6.003 1.238,6.132 9.534,5.356 13.766,2.758 2.824,-1.733 4.124,-3.577 7.59,-3.264 5.144,0.465 7.992,4.085 14.167,2.081 5.594,-1.816 8.859,-3 13.857,0.464 7.392,5.121 13.887,1.509 13.521,-6.586 -0.123,-2.733 -0.379,-5.331 -0.286,-8.079 0.119,-3.492 -2.719,0.135 -3.173,1.456 -0.035,0.101 -0.248,0.059 -0.317,0.05 -0.477,-0.066 -1.97,1.279 -2.863,1.28 -3.554,10e-4 -1.115,3.045 0.516,3.845 0.981,0.479 2.007,0.846 2.974,1.357 0.064,0.035 0.159,0.079 0.161,0.164 0.136,7.328 -8.312,7.637 -12.67,3.771 C 17.258,24.292 17.245,17.715 16.55,13.203 15.884,8.878 13.344,0.86 9,-0.87 8.49,-1.073 8.973,-1.186 9.273,-1.065 c 8.663,3.45 7.628,18.288 10.371,25.357 2.204,5.682 12.169,7.862 13.27,0.725 0.314,-2.033 -3.194,-2.715 -4.593,-3.522 -4.232,-2.443 2.302,-3.266 2.763,-4.731 0.023,-0.074 0.167,-0.068 0.222,-0.062 1.624,0.183 3.158,-2.664 3.986,-3.849 0.064,-0.093 0.222,-0.065 0.317,-0.049 0.18,0.029 0.36,0.057 0.54,0.087 0.121,0.019 0.401,0.079 0.451,0.217 1.186,3.276 0.478,7.376 0.822,10.858 0.392,3.97 -0.757,6.49 -3.994,8.671 -3.365,2.265 -7.006,0.476 -9.907,-1.54 C 18.092,27.32 14.046,28.847 8.65,30.598 6.884,31.171 4.682,31.3 2.884,30.795 1.486,30.403 0.196,29.923 -1.145,29.355 -5.22,27.631 -8.592,29.071 -11.76,31.333 c -1.82,1.3 -4.404,2.482 -6.702,2.339 -4.353,-0.272 -7.853,-2.029 -8.777,-6.605 -0.656,-3.24 0.231,-6.879 0.323,-10.138 0.037,-1.312 -0.814,-3.473 0.841,-3.86 0.205,-0.048 0.514,0.032 0.667,0.179 1.226,1.177 0.088,1.888 1.46,1.526 0.329,-0.087 0.886,0.217 1.105,0.363 0.388,0.258 0.72,0.911 0.945,1.281 0.379,0.76 0.82,1.483 1.32,2.173 -0.466,-0.632 1.967,-0.928 1.732,-0.881 0.134,-0.026 0.735,0.035 0.703,0.259 -0.215,0.639 -0.227,1.275 -0.037,1.908 0.177,-0.033 0.619,0.019 0.699,0.221 0.184,0.346 0.369,0.694 0.553,1.042 0.038,0.039 0.047,0.069 0.012,0.11 -0.48,0.567 -1.472,0.812 -2.168,0.824 -2.596,0.249 -4.019,1.402 -4.268,3.457 -1.072,4.002 4.108,4.636 6.832,4.069 5.196,-1.081 7.012,-4.4 7.916,-9.276 1.316,-7.09 0.7,-16.418 7.877,-20.594 C -0.528,-0.385 0.117,-0.068 0,0"
             style="fill:#1a171b;fill-opacity:1;fill-rule:nonzero;stroke:none"
             id="path1674"
             inkscape:connector-curvature="0" />
        </g>
        <g
           id="g1676"
           transform="matrix(0.35277777,0,0,-0.35277777,-35.275791,305.41656)">
          <path
             d="m 0,0 c 2.809,-4.315 1.536,-9.548 2.705,-14.318 0.897,-3.661 4.637,-3.611 7.699,-3.785 2.505,-0.142 4.384,-0.507 5.127,2.333 0.637,2.439 0.808,4.984 1.481,7.454 0.721,2.652 1.185,5.277 1.261,8.023 0.004,0.152 -0.766,0.04 -0.773,-0.207 -0.115,-4.197 -1.424,-7.941 -2.316,-11.988 -0.305,-1.382 -0.259,-2.799 -0.621,-4.18 -0.467,-1.791 -5.583,-1.011 -6.909,-0.864 -3.908,0.43 -4.481,3.82 -4.712,7.102 C 2.683,-6.732 2.875,-3.023 0.773,0.207 0.637,0.416 -0.08,0.123 0,0"
             style="fill:#1a171b;fill-opacity:1;fill-rule:nonzero;stroke:none"
             id="path1678"
             inkscape:connector-curvature="0" />
        </g>
        <g
           id="g1680"
           transform="matrix(0.35277777,0,0,-0.35277777,-41.078032,299.03005)">
          <path
             d="M 0,0 C -4.333,2.833 -6.333,10 0.334,10.5 4.667,10.833 8.834,9.166 12,6.333 13.803,4.72 17.479,3.22 18.495,0.991 c 0.844,-1.847 0.47,-4.119 1.112,-6.076 0.795,-2.418 2.11,-4.569 3.344,-6.779 1.109,-1.985 0.13,-3.411 -0.178,-5.412 -0.23,-1.501 1.172,-4.092 0.324,-5.313 -1.088,-1.567 -2.089,0.228 -3.307,0.036 0.056,-0.227 1.115,-2.395 1.239,-2.42 0.093,-0.018 0.185,-0.036 0.277,-0.055 0.243,-1.423 1.237,-2.374 1.361,-3.806 0.123,-1.419 -0.44,-2.414 -0.334,-3.833 0.11,-1.467 0.011,-2.562 1.667,-3.009 5.617,-1.514 4.433,5.168 5.001,8.342 0.3,1.677 2.236,3.559 2.956,5.173 -0.472,-0.267 -4.3,-3.226 -4.429,-2.811 -0.282,0.91 -0.581,2.123 -0.323,3.138 0.232,0.913 1.078,1.554 1.17,2.496 0.114,1.179 -0.845,1.77 -1.04,2.838 -0.385,2.104 1.019,5.2 2,6.999 0.545,1 1.544,1.773 2.008,2.838 0.422,0.97 0.325,2.38 0.324,3.496 -0.009,7.43 9.029,11.498 15,13.333 3.167,1 4,-0.166 6.167,-2.166 1.666,-1.334 4,-2.167 3,-4.834 -0.667,-1.5 -3,-3.333 -4.5,-3.666 2,0 2.166,-2.334 4.333,-2.667 C 57.167,1 57.834,7.666 53.5,10.5 48.834,13.666 44.334,10.5 40.167,8 38.667,7.166 35.5,4.833 33.5,5 32.5,5 31.834,6 30.834,6.333 29.5,7 28.5,6.833 27,7 21.667,7.5 17.667,4.5 12.5,6.666 8.167,8.5 1.834,14.666 -2.5,11 -5,8.833 -5.666,6.333 -5.166,3.166 c 0.333,-1.5 1.166,-2.5 1,-4.166 -0.167,-1.334 -1.167,-2.167 -1,-3.667 C -4,-4.834 -3.5,-4 -3.5,-3 c 0.167,-0.167 0.834,-0.5 1,-0.834 1,1.334 0.667,3 2,4"
             style="fill:#ffffff;fill-opacity:1;fill-rule:nonzero;stroke:none"
             id="path1682"
             inkscape:connector-curvature="0" />
        </g>
        <g
           id="g1684"
           transform="matrix(0.35277777,0,0,-0.35277777,-40.971598,298.95596)">
          <path
             d="M 0,0 C -1.746,1.301 -2.799,2.643 -3.59,4.67 -5.894,10.568 2.781,10.18 6.075,9.152 9.769,8 17.121,2.946 18.246,-0.776 c 0.605,-1.998 0.449,-4.028 1.208,-6.044 0.983,-2.618 3.341,-5.041 3.248,-7.991 -0.057,-1.828 -0.73,-3.092 -0.358,-4.946 0.411,-2.048 -0.92,-3.045 -2.716,-2.748 -0.15,0.026 -0.627,-0.124 -0.526,-0.361 1.284,-3.027 3.242,-5.093 2.606,-8.738 -0.411,-2.363 0.268,-4.809 3.052,-4.742 1.534,0.036 2.953,0.524 3.475,2.145 0.542,1.684 0.598,3.398 0.693,5.152 0.142,2.638 1.865,4.442 3.093,6.647 0.199,0.357 -0.466,0.284 -0.616,0.184 -1.048,-0.701 -2.053,-1.464 -3.095,-2.174 -0.544,-0.372 0.161,4.885 -0.026,5.97 -0.308,0.595 -0.597,1.2 -0.864,1.816 -0.687,1.705 0.779,4.366 1.464,5.868 0.846,1.856 2.319,2.991 2.818,4.991 0.62,2.483 -0.003,4.312 1.231,6.807 1.558,3.153 5.171,5.146 8.171,6.624 2.877,1.418 7.063,3.468 10.084,0.867 1.492,-1.285 0.501,-0.574 1.913,-1.607 3.236,-2.365 1.017,-6.241 -2.233,-7.452 -0.193,-0.072 -0.349,-0.374 -0.064,-0.443 1.5,-0.364 2.812,-2.103 4.333,-2.667 0.223,-0.083 0.545,0.052 0.618,0.277 C 57.87,3.15 57.153,11.502 48.733,11.862 45.517,12 42.203,9.511 39.615,7.943 36.882,6.288 33.933,5.271 30.761,6.364 28.992,6.975 27.057,7.231 25.177,7.101 22.749,6.932 20.444,6.414 18.04,6.039 14.378,5.468 11.356,7.152 8.389,8.968 5.543,10.709 2.646,12.485 -0.792,12.058 -2.974,11.786 -4.505,9.587 -5.424,7.825 -5.954,6.808 -6.115,5.292 -5.995,4.17 -5.842,2.736 -5.43,1.535 -4.966,0.174 c -0.224,0.66 -0.793,-4.212 -0.891,-5.087 -0.021,-0.183 0.207,-0.241 0.348,-0.221 0.512,0.073 2.264,1.011 2.352,0.927 0.188,-0.181 0.6,-0.099 0.721,0.133 0.373,0.713 2.123,4.134 1.953,3.935 0.311,0.365 -0.432,0.43 -0.637,0.19 C -1.896,-0.857 -2.522,-3.693 -3.5,-3 c -0.199,0.141 -0.644,0.005 -0.691,-0.246 0.535,2.828 -1.047,5.837 -1.015,8.798 0.056,5.106 5.539,6.759 9.603,4.924 1.563,-0.705 3.019,-1.701 4.478,-2.593 2.483,-1.52 4.648,-2.392 7.586,-2.473 4.976,-0.139 9.808,2.645 14.684,0.01 7.419,-4.01 12.55,9.594 21.751,4.66 4.247,-2.275 3.422,-8.62 2.435,-12.403 -0.306,-1.171 -2.562,1.488 -3.06,1.609 -0.291,0.07 2.027,1.612 2.139,1.733 3.806,4.057 -0.623,6.883 -4.285,9.189 C 46.923,12.224 39.974,7.801 37.4,6.24 35.273,4.951 33.541,3.199 32.201,1.121 30.166,-2.032 31.57,-5.528 29.327,-8.736 c -1.26,-1.802 -2.844,-4.638 -2.733,-6.953 0.074,-1.565 1.249,-3.507 0.581,-5.087 -0.747,-1.767 -0.789,-2.6 -0.335,-4.509 0.024,-0.103 0.154,-0.151 0.247,-0.154 0.914,-0.041 1.777,0.778 2.475,1.253 0.493,0.347 0.983,0.698 1.47,1.051 0.836,0.597 0.737,0.529 -0.298,-0.202 -0.605,-1.089 -1.66,-2.021 -2.071,-3.217 -0.769,-2.236 -0.494,-4.644 -0.961,-6.956 -4.224,-1.974 -5.964,-1.315 -5.215,1.979 0.2,0.829 0.288,1.671 0.268,2.523 0.051,1.197 -0.992,2.757 -1.364,3.873 -0.024,0.07 -0.087,0.124 -0.159,0.138 -0.72,0.145 -2.37,2.086 -0.27,1.459 0.337,-0.101 0.833,-0.257 1.192,-0.092 2.418,1.109 0.756,4.306 0.707,6.18 -0.034,1.295 1.116,2.751 0.658,4.078 -0.822,2.385 -2.238,4.463 -3.292,6.759 C 18.449,-2.742 19.719,0.683 16.079,3.521 11.369,7.193 4.09,12.914 -2.352,9.963 -7.214,7.734 -3.441,1.695 -0.604,-0.42 -0.356,-0.604 0.338,-0.252 0,0"
             style="fill:#1a171b;fill-opacity:1;fill-rule:nonzero;stroke:none"
             id="path1686"
             inkscape:connector-curvature="0" />
        </g>
      </g>
    </g>
    <g
       id="g3690"
       transform="matrix(0.66025798,0,0,0.66025798,7.5609781,79.546528)">
      <g
         transform="matrix(0.35277777,0,0,-0.35277777,-5.7709742,305.43894)"
         id="g1688">
        <path
           inkscape:connector-curvature="0"
           id="path1690"
           style="fill:#ff6600;fill-opacity:1;fill-rule:nonzero;stroke:none"
           d="M 0,0 C 3.75,6.25 11.25,-6.25 6.25,-10.25 1.5,-14 -3.75,-2.75 0.25,1" />
      </g>
      <g
         transform="matrix(0.35277777,0,0,-0.35277777,5.1651358,305.08617)"
         id="g1692">
        <path
           inkscape:connector-curvature="0"
           id="path1694"
           style="fill:#ff6600;fill-opacity:1;fill-rule:nonzero;stroke:none"
           d="m 0,0 c -0.25,-2.5 -2.5,-4.75 -2.75,-7.25 0,-2.25 3,-7.5 6.25,-6.25 5,2.25 -0.75,17.5 -3.75,12.75" />
      </g>
      <g
         transform="matrix(0.35277777,0,0,-0.35277777,5.4566008,299.24293)"
         id="g1696">
        <path
           inkscape:connector-curvature="0"
           id="path1698"
           style="fill:#d3d3d3;fill-opacity:1;fill-rule:nonzero;stroke:none"
           d="M 0,0 0.064,0.091 C 0.903,1.29 1.28,3.044 2.059,4.349 2.986,5.903 4.329,7.432 3.611,9.382 2.592,12.148 0.541,14.51 1.218,17.903 3.043,15.683 4.719,16.005 5.629,12.872 6.365,10.339 6.392,7.535 6.421,4.92 6.499,-2.07 5.025,-9.312 5.624,-16.232 c -2.007,2.601 -2.438,-1.476 -2.199,-2.83 0.367,-2.081 0.903,-3.215 0.2,-5.508 -0.649,-2.113 -1.981,-5.58 1.78,-5.576 2.032,0.003 3.7,2.493 4.451,4.101 1.668,3.57 0.254,5.774 -0.182,9.482 -0.443,3.755 -2.024,6.716 -1,10.505 0.74,2.742 1.931,6.039 2.077,8.861 0.138,2.694 -0.577,5.635 -0.577,8.384 0,3.75 -0.5,5.25 -3.75,7.5 -3.5,2.5 -4,2.25 -4.25,6.75 -4.25,0.25 -4.5,-4.5 -7.5,-6.5 -3.683,-2.456 -9.274,-2.888 -13.307,-0.805 -1.29,0.667 -2.129,1.819 -3.296,2.621 -0.824,0.568 -2.178,0.904 -2.843,1.593 -1.121,1.159 -0.989,5.071 -2.949,5.219 -1.97,0.151 -3.499,-4.413 -4.306,-5.677 -1.329,-2.082 -3.532,-3.521 -4.61,-5.897 -1.755,-3.866 -1.271,-8.147 -0.744,-12.223 0.509,-3.925 2.279,-8.042 2.226,-11.955 -0.072,-5.181 -1.289,-10.967 -0.171,-16.126 0.764,-3.53 3.047,-6.78 7.218,-5.262 -0.338,1.585 -2.086,2.466 -2.481,4.262 -0.311,1.417 0.069,3.572 0.263,5 0.115,0.854 1.379,3.772 1.198,4.2 -0.45,1.07 -2.702,1.276 -3.411,2.35 -0.837,1.272 -0.725,3.654 -0.728,5.1 -0.006,3.311 0.767,6.554 0.941,9.857 -0.003,3.24 -0.515,6.47 -0.548,9.714 -0.013,1.203 -0.297,3.279 0.35,4.376 0.901,1.532 2.676,1.789 3.753,3.383 1.203,-2.344 0.456,-3.252 -0.624,-4.968 -1.147,-1.824 -1.319,-3.538 -1.43,-5.762 -0.174,-3.48 0.855,-6.423 3.926,-8.109 2.147,-1.179 8.511,-2.338 8.823,-5.141 0.25,-1.25 -2.25,-2.5 -3,-3.75 -0.75,-1.5 -0.75,-4 -0.5,-5.5 0.5,-2.5 2,-4.75 2.5,-7.25 0.75,-2.75 0.5,-6 1,-8.75 0.5,-3 0,-3.75 3.75,-3.75 3.25,0 5.25,1.75 6,5 0.672,3.022 0.075,6.138 0.47,9.185 0.388,3.008 1.03,5.956 1.03,9.061 0,2.168 -1.283,3.369 -1.534,5.061 -0.346,2.33 2.715,2.778 4.819,3.971 2.082,1.181 3.806,2.432 4.773,4.718 1.872,4.419 1.474,9.658 0.442,14.254" />
      </g>
      <g
         transform="matrix(0.35277777,0,0,-0.35277777,-4.5775972,294.57862)"
         id="g1700">
        <path
           inkscape:connector-curvature="0"
           id="path1702"
           style="fill:#1a171b;fill-opacity:1;fill-rule:nonzero;stroke:none"
           d="m 0,0 c -1.817,-4.162 -3.298,-6.803 -0.414,-10.859 2.487,-3.5 6.376,-5.058 10.504,-5.231 4.344,-0.181 9.446,-0.676 13.76,0.152 2.913,0.558 4.99,3.559 6.273,5.975 2.94,5.534 1.011,11.587 -5.279,12.925 C 19.899,4.014 14.277,2.941 9.32,2.574 6.189,2.343 2.275,2.843 -0.203,0.565 -0.552,0.244 0.204,0.15 0.437,0.364 c 1.979,1.818 6.246,1.535 8.805,1.681 3.974,0.227 7.896,0.688 11.885,0.665 6.461,-0.038 10.557,-3.333 9.248,-9.885 -0.443,-2.221 -1.725,-4.248 -3.162,-5.943 -3.059,-3.609 -7.947,-2.111 -11.974,-2.266 C 9.873,-15.59 5.369,-15.522 1.255,-11.631 -2.74,-7.852 -1.116,-4.307 0.734,-0.07 0.905,0.322 0.128,0.291 0,0" />
      </g>
      <g
         transform="matrix(0.35277777,0,0,-0.35277777,0.57902585,298.29519)"
         id="g1704">
        <path
           inkscape:connector-curvature="0"
           id="path1706"
           style="fill:#d3d3d3;fill-opacity:1;fill-rule:nonzero;stroke:none"
           d="m 0,0 c -6,2.25 -3.25,15.75 -12,17.5 -9.5,2 -10.25,-7.5 -9.75,-14 0,-2.5 -0.25,-5 -0.25,-7.5 0.25,-3.75 1.75,-7.5 1.25,-11.5 -0.25,-3 -1.75,-5.75 -1.25,-9 0.25,-1.5 3.75,-7.75 5.75,-7 2,0.5 -1,5 -1.25,6.25 -0.5,2.25 0.25,4.25 1.75,5.5 -2,1.25 -3.25,-0.75 -3.75,-2 -0.75,5.25 0.75,10.5 -0.5,16.25 -0.75,4 -0.75,8.749 -0.5,12.998 0.248,4.213 2.039,9.894 7.571,8.454 2.798,-0.727 3.491,-4.122 4.53,-6.643 C -7.06,6.054 -5.736,2.856 -3,0.5" />
      </g>
      <g
         transform="matrix(0.35277777,0,0,-0.35277777,0.70754185,298.24871)"
         id="g1708">
        <path
           inkscape:connector-curvature="0"
           id="path1710"
           style="fill:#000000;fill-opacity:1;fill-rule:nonzero;stroke:none"
           d="m 0,0 c -3.712,1.763 -4.258,6.777 -5.382,10.297 -1.321,4.134 -3.601,6.728 -7.964,7.431 -7.024,1.131 -9.17,-5.869 -9.27,-11.537 -0.051,-2.855 0.036,-5.687 -0.096,-8.551 -0.181,-3.947 1.109,-7.746 1.313,-11.676 0.318,-6.143 -3.217,-10.042 1.21,-15.516 1.257,-1.553 2.502,-2.941 4.363,-1.788 0.862,0.534 -0.156,2.566 -0.369,3.106 -1.221,3.102 -2.429,5.415 0.43,8.38 0.058,0.059 0.04,0.097 -0.032,0.123 -1.185,0.419 -2.623,0.594 -3.488,-0.615 -1.252,-1.748 -0.39,1.163 -0.414,2.074 -0.049,1.768 0.117,3.563 0.197,5.33 0.164,3.599 -0.497,6.984 -0.905,10.535 -0.462,4.012 -1.728,21.753 7.828,17.631 2.271,-0.981 3.158,-5.499 4.007,-7.539 1.188,-2.863 2.624,-5.292 4.843,-7.449 0.147,-0.142 0.851,0.146 0.729,0.264 -4.325,4.201 -4.462,11.275 -8.852,14.987 -1.451,1.228 -4.761,0.925 -6.158,-0.31 -3.591,-3.179 -3.346,-8.443 -3.39,-12.839 -0.04,-4.018 0.792,-7.862 1.13,-11.838 0.355,-4.157 -0.394,-8.313 0.019,-12.485 0.019,-0.183 0.706,0.044 0.768,0.171 0.494,1.022 2.941,2.28 1.58,0.037 -0.729,-1.202 -0.584,-2.995 -0.173,-4.236 0.472,-1.426 1.282,-2.695 1.696,-4.158 -0.499,-1.251 -1.08,-1.457 -1.745,-0.619 -1.099,0.82 -1.811,2.16 -2.52,3.306 -2.417,3.906 -0.698,7.698 -0.088,11.92 0.724,5.016 -1.354,10.186 -1.12,15.286 0.179,3.9 -0.26,7.79 0.507,11.647 1.189,5.974 8.355,7.856 12.65,3.591 4.093,-4.064 2.34,-12.552 7.967,-15.224 C -0.522,-0.362 0.091,-0.043 0,0" />
      </g>
      <g
         transform="matrix(0.35277777,0,0,-0.35277777,0.89595985,298.47159)"
         id="g1712">
        <path
           inkscape:connector-curvature="0"
           id="path1714"
           style="fill:#d3d3d3;fill-opacity:1;fill-rule:nonzero;stroke:none"
           d="m 0,0 c 6,2.25 3.25,15.75 12,17.5 9.5,2 10.25,-7.5 9.75,-14 0,-2.5 0.25,-5 0.25,-7.5 -0.25,-3.75 -1.75,-7.5 -1.25,-11.5 0.25,-3 1.75,-5.75 1.25,-9 -0.25,-1.5 -3.75,-7.75 -5.75,-7 -2,0.5 1,5 1.25,6.25 0.5,2.25 -0.25,4.25 -1.75,5.5 2,1.25 3.25,-0.75 3.75,-2 0.75,5.25 -0.75,10.5 0.5,16.25 0.75,4 0.75,8.75 0.5,13.002 -0.293,3.658 -0.968,7.714 -5.168,8.441 C 9.612,16.933 7.923,12.504 6.602,7.75 5.503,3.799 5.04,1.453 1.352,-0.5" />
      </g>
      <g
         transform="matrix(0.35277777,0,0,-0.35277777,0.95177085,298.53533)"
         id="g1716">
        <path
           inkscape:connector-curvature="0"
           id="path1718"
           style="fill:#000000;fill-opacity:1;fill-rule:nonzero;stroke:none"
           d="m 0,0 c 3.901,1.852 4.453,6.854 5.634,10.548 1.761,5.511 8.318,10.233 13.313,5.056 2.568,-2.662 2.457,-7.651 2.319,-11.018 -0.209,-5.095 0.047,-9.857 -0.859,-14.923 -0.882,-4.933 2.474,-10.677 0.642,-15.182 -0.52,-1.277 -1.324,-2.445 -2.11,-3.568 -2.622,-1.482 -3.57,-1.412 -2.843,0.211 0.309,1.096 0.966,2.207 1.434,3.26 0.468,1.054 0.339,2.101 0.23,3.198 -0.068,0.422 -0.201,0.814 -0.403,1.178 -1.356,2.234 1.012,0.782 1.598,-0.433 0.123,-0.254 0.747,-0.136 0.774,0.146 0.415,4.172 -0.066,8.303 0.02,12.485 0.081,3.955 1.071,7.845 1.13,11.839 0.066,4.536 0.385,10.66 -4.127,13.165 C 14.113,17.427 10.75,16.239 8.845,14.261 4.69,9.946 6.717,3.266 0.948,-0.185 c -0.449,-0.269 0.219,-0.431 0.49,-0.269 3.403,2.036 4.369,4.719 5.393,8.427 0.42,1.517 0.907,2.951 1.555,4.395 1.903,4.246 8.821,3.951 10.676,-0.003 1.293,-2.757 1.012,-6.758 1.042,-9.652 0.033,-3.374 -0.41,-6.657 -0.972,-9.974 -0.591,-3.487 -0.028,-7.343 0.044,-10.845 0.073,-3.553 0.693,-2.126 -1.239,-1.069 -0.94,0.514 -1.607,0.104 -2.503,-0.214 -0.107,-0.037 -0.324,-0.209 -0.2,-0.338 2.592,-2.688 1.81,-5.297 0.462,-8.279 -0.323,-0.716 -1.143,-2.377 -0.454,-3.166 1.151,-1.315 2.94,0.382 3.712,1.167 2.974,3.018 3.733,6.382 2.931,10.383 -0.889,4.427 -0.952,8.164 -0.1,12.625 0.752,3.934 -0.003,7.703 0.257,11.668 0.472,7.193 -1.646,14.615 -10.153,13.246 C 2.751,16.445 6.573,3.633 -0.316,0.361 -0.8,0.132 -0.36,-0.172 0,0" />
      </g>
      <g
         transform="matrix(0.35277777,0,0,-0.35277777,2.7766518,297.88144)"
         id="g1720">
        <path
           inkscape:connector-curvature="0"
           id="path1722"
           style="fill:#1a171b;fill-opacity:1;fill-rule:nonzero;stroke:none"
           d="M 0,0 C 2.625,1.415 4.29,3.948 6.572,5.795 6.344,5.785 6.115,5.776 5.888,5.767 5.158,4.457 4.397,3.169 3.547,1.935 2.757,0.787 1.154,-1.701 -0.484,-1.494 -0.68,-1.47 -1.385,-1.8 -0.975,-1.852 0.62,-2.054 1.907,-0.871 2.902,0.222 4.421,1.891 5.562,3.926 6.653,5.888 6.766,6.089 6.047,5.923 5.969,5.859 3.741,4.058 2.098,1.532 -0.459,0.154 -0.914,-0.092 -0.208,-0.112 0,0" />
      </g>
      <g
         transform="matrix(0.35277777,0,0,-0.35277777,-3.7025332,296.27396)"
         id="g1724">
        <path
           inkscape:connector-curvature="0"
           id="path1726"
           style="fill:#1a171b;fill-opacity:1;fill-rule:nonzero;stroke:none"
           d="M 0,0 C 0.226,0.315 0.345,0.643 0.5,1 0.277,0.94 0.055,0.881 -0.167,0.821 1.562,0.134 2.24,-1.271 3.429,-2.565 4.735,-3.988 7.166,-4.53 8.833,-5.429 9.08,-5.562 9.783,-5.215 9.44,-5.03 7.462,-3.963 5.006,-3.367 3.553,-1.563 2.583,-0.36 1.929,0.63 0.44,1.22 0.251,1.296 -0.129,1.265 -0.227,1.041 -0.382,0.685 -0.501,0.357 -0.727,0.041 -0.947,-0.268 -0.162,-0.228 0,0" />
      </g>
      <g
         transform="matrix(0.35277777,0,0,-0.35277777,-2.7723642,295.20841)"
         id="g1728">
        <path
           inkscape:connector-curvature="0"
           id="path1730"
           style="fill:#d3d3d3;fill-opacity:1;fill-rule:nonzero;stroke:none"
           d="m 0,0 c -3,1.75 -2.75,5 -3,8.25 0,1 0,8.25 -2.5,6 -2,-2 2.75,-13.5 3,-15.75" />
      </g>
      <g
         transform="matrix(0.35277777,0,0,-0.35277777,-2.6442002,295.16017)"
         id="g1732">
        <path
           inkscape:connector-curvature="0"
           id="path1734"
           style="fill:#000000;fill-opacity:1;fill-rule:nonzero;stroke:none"
           d="m 0,0 c -3.608,2.501 -2.772,7.225 -3.102,11.079 -0.131,1.543 -0.429,4.26 -2.525,3.418 C -9.5,12.941 -3.678,1.021 -3.25,-1.74 c 0.029,-0.184 0.807,-0.012 0.773,0.207 -0.754,4.863 -4.151,9.796 -3.413,14.844 0.119,0.814 1.203,0.788 1.51,0.105 0.202,-0.449 0.275,-0.974 0.364,-1.452 0.214,-1.129 0.243,-2.303 0.263,-3.449 0.062,-3.304 0.084,-6.747 3.026,-8.788 C -0.537,-0.404 0.136,-0.095 0,0" />
      </g>
      <g
         transform="matrix(0.35277777,0,0,-0.35277777,4.2831898,295.20841)"
         id="g1736">
        <path
           inkscape:connector-curvature="0"
           id="path1738"
           style="fill:#d3d3d3;fill-opacity:1;fill-rule:nonzero;stroke:none"
           d="m 0,0 c 0,2.5 1.5,4.25 2.25,6.5 1,2.25 1.25,5 2,7.25 C 7,10 2.5,2.5 1.5,-1.25" />
      </g>
      <g
         transform="matrix(0.35277777,0,0,-0.35277777,4.4192568,295.19118)"
         id="g1740">
        <path
           inkscape:connector-curvature="0"
           id="path1742"
           style="fill:#000000;fill-opacity:1;fill-rule:nonzero;stroke:none"
           d="m 0,0 c 0.175,2.389 1.419,4.309 2.25,6.5 0.896,2.362 1.274,4.838 2,7.25 C 4.002,13.684 3.754,13.617 3.505,13.551 6.266,9.099 2.003,2.985 0.729,-1.348 0.648,-1.62 1.424,-1.509 1.5,-1.25 2.813,3.213 7.073,9.256 4.224,13.852 4.092,14.064 3.536,13.846 3.479,13.652 2.753,11.243 2.407,8.75 1.479,6.402 0.614,4.22 -0.598,2.289 -0.771,-0.098 -0.795,-0.41 -0.019,-0.256 0,0" />
      </g>
      <g
         transform="matrix(0.35277777,0,0,-0.35277777,-3.9557582,296.32601)"
         id="g1744">
        <path
           inkscape:connector-curvature="0"
           id="path1746"
           style="fill:#1a171b;fill-opacity:1;fill-rule:nonzero;stroke:none"
           d="m 0,0 c 2.766,-2.615 6.991,-3.6 9,-7 0.172,-0.291 0.911,-0.006 0.709,0.336 -2.024,3.426 -6.225,4.375 -9,7 C 0.461,0.57 -0.269,0.254 0,0" />
      </g>
      <g
         transform="matrix(0.35277777,0,0,-0.35277777,-0.47930715,298.64799)"
         id="g1748">
        <path
           inkscape:connector-curvature="0"
           id="path1750"
           style="fill:#d3d3d3;fill-opacity:1;fill-rule:nonzero;stroke:none"
           d="M 0,0 C -4.75,0.5 -2,-3.75 0.25,-5.25 2.25,-6.25 6,-7 8,-5.5 c 7,5 -4.75,7.75 -8.5,5.25" />
      </g>
      <g
         transform="matrix(0.35277777,0,0,-0.35277777,-0.42695715,298.56771)"
         id="g1752">
        <path
           inkscape:connector-curvature="0"
           id="path1754"
           style="fill:#000000;fill-opacity:1;fill-rule:nonzero;stroke:none"
           d="m 0,0 c -0.903,0.068 -2.61,0.135 -3.03,-0.956 -0.51,-1.325 0.77,-2.81 1.606,-3.692 2.525,-2.667 7.464,-2.891 10.256,-0.632 0.915,0.74 1.799,1.839 1.524,3.081 -0.268,1.22 -1.795,1.884 -2.828,2.251 -2.544,0.907 -6.047,1.063 -8.419,-0.406 -0.445,-0.276 0.227,-0.407 0.485,-0.247 1.869,1.158 4.465,0.963 6.517,0.497 1.507,-0.343 3.932,-1.305 3.451,-3.261 C 9.197,-4.85 7.242,-6.024 5.905,-6.276 4.1,-6.616 2.036,-6.051 0.407,-5.285 c -0.853,0.401 -1.607,1.433 -2.126,2.186 -0.306,0.447 -0.516,0.934 -0.631,1.459 -0.257,1.192 1.241,1.246 2.053,1.185 C 0.01,-0.479 0.522,-0.039 0,0" />
      </g>
      <g
         transform="matrix(0.35277777,0,0,-0.35277777,1.5102158,303.14278)"
         id="g1756">
        <path
           inkscape:connector-curvature="0"
           id="path1758"
           style="fill:#1a171b;fill-opacity:1;fill-rule:nonzero;stroke:none"
           d="m 0,0 c -2.15,0.054 -6.751,-0.174 -6.788,3.239 -10e-4,0.074 -0.018,0.135 -0.088,0.174 -4.368,2.459 -0.889,-9.202 -0.868,-9.284 0.772,-3.068 1.199,-5.958 0.483,-9.099 -0.471,-2.071 -0.722,-3.443 0.155,-5.424 0.466,-1.052 1.955,-2.112 3.163,-1.557 1.491,0.684 2.742,-0.241 4.42,0.209 2.237,0.599 2.242,3.614 2.238,5.392 -0.01,4.665 -2.396,10.771 0.312,15.129 1.184,1.906 2.942,3.71 0.429,5.14 C 3.255,4.033 2.802,3.946 2.765,3.673 1.894,2.782 1.022,1.891 0.151,1 -0.259,0.95 -0.46,0.419 0.069,0.482 0.995,0.594 2.066,0.6 2.682,1.499 1.843,0.273 5.653,6.372 3.732,1.039 3.382,0.065 2.534,-0.773 1.991,-1.647 0.561,-3.95 1.18,-7.736 1.221,-10.296 c 0.031,-1.955 2.083,-14.971 -4.06,-10.473 -0.144,0.107 -0.422,0.048 -0.551,-0.055 -4.135,-3.287 -3.256,5.225 -3.091,5.927 0.377,1.61 0.482,2.905 0.399,4.532 -0.172,3.367 -1.306,7.123 -2.313,10.327 0.279,0.763 0.558,1.525 0.837,2.287 0.007,-0.29 0.112,-0.558 0.315,-0.804 0.222,-0.522 0.951,-0.861 1.39,-1.117 1.547,-0.899 3.865,-0.803 5.574,-0.846 C 0.064,-0.526 0.523,-0.013 0,0" />
      </g>
      <g
         transform="matrix(0.35277777,0,0,-0.35277777,-0.90546415,302.58332)"
         id="g1760">
        <path
           inkscape:connector-curvature="0"
           id="path1762"
           style="fill:#1a171b;fill-opacity:1;fill-rule:nonzero;stroke:none"
           d="M 0,0 C 2.678,0.868 5.172,1.121 7.964,0.723 8.166,0.693 8.866,1.029 8.452,1.088 5.463,1.515 2.783,1.24 -0.084,0.311 -0.528,0.166 -0.454,-0.146 0,0" />
      </g>
      <g
         transform="matrix(0.35277777,0,0,-0.35277777,0.92732285,306.49728)"
         id="g1764">
        <path
           inkscape:connector-curvature="0"
           id="path1766"
           style="fill:#ffffff;fill-opacity:1;fill-rule:nonzero;stroke:none"
           d="m 0,0 c 0.062,4.329 -0.175,8.681 0.263,13 0.296,2.922 1.269,6.746 0.206,9.712 -0.431,0.114 -1.246,0.137 -1.674,0 0.147,-2.386 1.137,-3.496 0.468,-5.962 -0.522,-1.922 -0.784,-3.614 -1,-5.75 -0.604,-5.97 -0.303,-11.339 0,-17.25 0.078,-1.522 -1.181,-5.94 0.962,-5.655 C -0.755,-7.939 -0.061,-4.165 0,0" />
      </g>
      <g
         transform="matrix(0.35277777,0,0,-0.35277777,1.0637428,306.46076)"
         id="g1768">
        <path
           inkscape:connector-curvature="0"
           id="path1770"
           style="fill:#1a171b;fill-opacity:1;fill-rule:nonzero;stroke:none"
           d="m 0,0 c 0.026,4.327 -0.088,8.635 0.26,12.955 0.274,3.416 1.035,6.345 0.209,9.757 -0.015,0.058 -0.097,0.075 -0.144,0.08 -0.97,0.109 -0.884,0.104 -1.854,-0.005 -0.118,-0.014 -0.475,-0.106 -0.45,-0.282 1.036,-7.177 -0.989,-14.692 -0.836,-22.056 0.073,-3.498 0.254,-6.876 0.014,-10.366 -0.091,-1.312 0.141,-2.086 1.396,-2.275 0.173,-0.027 0.623,0.055 0.63,0.287 C -0.667,-7.925 -0.138,-3.979 0,0 0.006,0.178 -0.764,0.058 -0.773,-0.207 -0.891,-3.609 -1.285,-6.982 -1.5,-10.377 c 0.002,-0.206 -0.165,-0.294 -0.501,-0.266 -0.258,1.01 0.122,2.588 0.236,3.656 0.63,5.859 -0.494,12 0.025,17.942 0.219,2.505 0.882,4.906 1.229,7.386 0.032,0.475 -0.02,0.949 -0.154,1.42 -0.294,2.558 0.734,1.216 0.846,-0.443 C 0.365,16.575 -0.536,13.69 -0.659,10.94 -0.826,7.225 -0.751,3.511 -0.773,-0.207 -0.774,-0.391 -0.002,-0.263 0,0" />
      </g>
      <g
         transform="matrix(0.35277777,0,0,-0.35277777,-5.2807542,305.8672)"
         id="g1772">
        <path
           inkscape:connector-curvature="0"
           id="path1774"
           style="fill:#1a171b;fill-opacity:1;fill-rule:nonzero;stroke:none"
           d="m 0,0 c 0.026,0.678 0.013,2.136 1.075,2.136 0.798,0 1.62,-0.772 2.148,-1.281 1.084,-1.046 1.383,-2.644 1.571,-4.076 0.161,-1.238 0.178,-7.401 -2.362,-6.602 -1.688,0.53 -2.715,3.134 -3.267,4.592 -0.659,1.742 -1.293,4.136 -0.438,5.913 0.182,0.38 -0.598,0.343 -0.733,0.064 -1.299,-2.7 1.888,-13.885 5.979,-10.683 2.477,1.939 2.069,7.475 0.81,9.911 C 3.382,2.684 -0.618,4.041 -0.779,-0.072 -0.794,-0.449 -0.013,-0.317 0,0" />
      </g>
      <g
         transform="matrix(0.35277777,0,0,-0.35277777,6.2723988,305.48927)"
         id="g1776">
        <path
           inkscape:connector-curvature="0"
           id="path1778"
           style="fill:#1a171b;fill-opacity:1;fill-rule:nonzero;stroke:none"
           d="m 0,0 c 1.967,-2.183 2.852,-13.606 -1.952,-11.396 -2.81,1.292 -3.369,4.405 -2.491,7.088 C -3.67,-1.943 -0.614,1.59 1.5,-1.5 1.627,-1.685 2.376,-1.439 2.223,-1.215 -1.339,3.989 -9.267,-6.754 -3.419,-11.229 2.825,-16.01 3.586,-2.892 0.723,0.285 0.564,0.461 -0.169,0.187 0,0" />
      </g>
    </g>
    <path
       style="fill:none;stroke:#000000;stroke-width:0.26458332px;stroke-linecap:butt;stroke-linejoin:miter;stroke-opacity:1"
       d="M 4.0090428,289.65007 C 5.0781209,289.24917 20.579753,279.62746 20.579753,279.62746"
       id="path3749"
       inkscape:connector-curvature="0" />
  </g>
</svg>
