<?xml version="1.0" encoding="UTF-8" standalone="no"?>
<!-- Created with Inkscape (http://www.inkscape.org/) -->

<svg
   xmlns:dc="http://purl.org/dc/elements/1.1/"
   xmlns:cc="http://creativecommons.org/ns#"
   xmlns:rdf="http://www.w3.org/1999/02/22-rdf-syntax-ns#"
   xmlns:svg="http://www.w3.org/2000/svg"
   xmlns="http://www.w3.org/2000/svg"
   xmlns:sodipodi="http://sodipodi.sourceforge.net/DTD/sodipodi-0.dtd"
   xmlns:inkscape="http://www.inkscape.org/namespaces/inkscape"
   width="100"
   height="100"
   viewBox="0 0 26.458333 26.458334"
   version="1.1"
   id="svg2194"
   inkscape:version="0.92.4 (unknown)"
   sodipodi:docname="Kidney.svg">
  <defs
     id="defs2188" />
  <sodipodi:namedview
     id="base"
     pagecolor="#ffffff"
     bordercolor="#666666"
     borderopacity="1.0"
     inkscape:pageopacity="0.0"
     inkscape:pageshadow="2"
     inkscape:zoom="3.959798"
     inkscape:cx="105.75432"
     inkscape:cy="16.756197"
     inkscape:document-units="mm"
     inkscape:current-layer="layer1"
     showgrid="false"
     units="px"
     inkscape:window-width="1853"
     inkscape:window-height="1016"
     inkscape:window-x="67"
     inkscape:window-y="27"
     inkscape:window-maximized="1" />
  <metadata
     id="metadata2191">
    <rdf:RDF>
      <cc:Work
         rdf:about="">
        <dc:format>image/svg+xml</dc:format>
        <dc:type
           rdf:resource="http://purl.org/dc/dcmitype/StillImage" />
        <dc:title></dc:title>
      </cc:Work>
    </rdf:RDF>
  </metadata>
  <g
     inkscape:label="Layer 1"
     inkscape:groupmode="layer"
     id="layer1"
     transform="translate(0,-270.54165)">
    <g
       id="g2288"
       transform="matrix(1.1429353,0,0,1.1429353,0.02731588,-47.948816)">
      <g
         transform="matrix(0.35277777,0,0,-0.35277777,8.5925304,289.75552)"
         id="g1140">
        <path
           inkscape:connector-curvature="0"
           id="path1142"
           style="fill:#ddb39b;fill-opacity:1;fill-rule:nonzero;stroke:none"
           d="m 0,0 c -1.937,1.244 -0.199,0.42 -1.262,0.587 -1.632,-0.05 -1.805,-1.104 -2.562,-2.229 -1.259,-1.922 -2.9,-3.153 -1.403,-4.449 0.182,-0.274 1.158,0.286 1.65,-0.097 0.494,-0.384 1.862,-1.843 2.372,-2.374 1.385,-1.604 1.682,-4.079 2.368,-6.063 0.486,-1.564 3.012,-1.936 3.096,-0.153 0.184,3.419 0.148,2.906 -1.099,5.857 -1.069,2.677 -1.019,4.749 -2.502,8.409" />
      </g>
      <g
         transform="matrix(0.35277777,0,0,-0.35277777,6.6298515,288.02195)"
         id="g1144">
        <path
           inkscape:connector-curvature="0"
           id="path1146"
           style="fill:#cb9800;fill-opacity:1;fill-rule:nonzero;stroke:none"
           d="m 0,0 c 2.782,-1.432 7.176,-3.768 4.326,-8.257 -1.946,-3.063 -7.901,-2.972 -10.141,-3.698 2.715,1.125 5.083,2.628 7.345,0.372 2.449,-2.442 0.297,-5.991 -1.47,-7.91 -1.727,-2.073 -9.923,-2.497 -11.923,-0.049 -3.518,4.362 -2.798,7.002 -2.451,12.498 0.083,3.793 2.876,10.442 5.667,13.23 C -2.29,12.54 5.112,9.923 7.453,5.429 8.524,3.24 9.031,-0.432 6.989,-2.342 4.256,-4.898 2.34,-1.05 0,0" />
      </g>
      <g
         transform="matrix(0.35277777,0,0,-0.35277777,6.2586233,288.21176)"
         id="g1148">
        <path
           inkscape:connector-curvature="0"
           id="path1150"
           style="fill:#1a171b;fill-opacity:1;fill-rule:nonzero;stroke:none"
           d="m 0,0 c 2.526,-1.4 5.034,-2.898 4.482,-6.258 -0.616,-3.75 -6.352,-3.669 -9.189,-4.392 -0.341,-0.087 -0.476,-0.368 -0.023,-0.322 3.734,0.379 8.651,0.508 6.722,-4.23 -1.59,-3.907 -5.957,-4.423 -9.646,-3.524 -5.169,1.261 -4.409,8.791 -4.188,12.628 0.431,7.482 6.71,19.252 16.427,14.047 C 6.364,6.997 7.334,5.251 7.765,3.361 9.005,-2.086 4.306,-1.649 0.724,0.279 0.51,0.395 -0.144,0.077 0,0 1.67,-0.899 5.879,-4.252 7.639,-1.415 10.379,3.001 7.305,8.762 2.221,9.417 -9.697,10.953 -15.087,-5.049 -12.26,-14.506 c 2.635,-8.811 18.823,-4.775 15.254,3.385 -0.75,1.716 -3.526,1.18 -4.826,0.93 -3.182,-0.613 -0.128,-0.263 0.611,-0.143 1.15,0.186 2.232,0.505 3.325,0.897 2.047,0.734 2.998,2.406 3.336,4.464 0.414,2.52 -3.009,4.306 -4.716,5.252 C 0.512,0.396 -0.146,0.08 0,0" />
      </g>
      <g
         transform="matrix(0.35277777,0,0,-0.35277777,7.8766385,289.71901)"
         id="g1152">
        <path
           inkscape:connector-curvature="0"
           id="path1154"
           style="fill:#1a171b;fill-opacity:1;fill-rule:nonzero;stroke:none"
           d="m 0,0 c 2.113,-2.01 2.996,-5.719 3.898,-8.405 0.894,-2.66 1.439,-5.007 1.755,-7.795 0.021,-0.193 0.8,-0.031 0.772,0.207 C 6.091,-13.04 5.45,-10.52 4.506,-7.707 3.639,-5.124 2.761,-1.659 0.724,0.277 0.559,0.435 -0.156,0.147 0,0" />
      </g>
      <g
         transform="matrix(0.35277777,0,0,-0.35277777,6.60745,291.74337)"
         id="g1156">
        <path
           inkscape:connector-curvature="0"
           id="path1158"
           style="fill:#1a171b;fill-opacity:1;fill-rule:nonzero;stroke:none"
           d="m 0,0 c 5.478,0.446 6.946,-6.43 7.771,-10.554 0.077,-0.384 0.851,-0.181 0.773,0.207 C 7.641,-5.835 5.951,1.084 0.059,0.604 -0.39,0.567 -0.525,-0.043 0,0" />
      </g>
      <g
         transform="matrix(0.35277777,0,0,-0.35277777,14.659673,289.95362)"
         id="g1160">
        <path
           inkscape:connector-curvature="0"
           id="path1162"
           style="fill:#ddb39b;fill-opacity:1;fill-rule:nonzero;stroke:none"
           d="M 0,0 C 1.937,1.243 0.199,0.419 1.262,0.585 2.894,0.537 3.067,-0.517 3.825,-1.643 5.083,-3.564 6.724,-4.795 5.227,-6.091 5.045,-6.365 4.069,-5.805 3.577,-6.188 3.083,-6.573 1.715,-8.032 1.205,-8.563 c -1.384,-1.604 -1.682,-4.078 -2.368,-6.063 -0.486,-1.564 -3.011,-1.935 -3.096,-0.152 -0.184,3.419 -0.148,2.905 1.099,5.856 1.069,2.677 1.019,4.75 2.502,8.41" />
      </g>
      <g
         transform="matrix(0.35277777,0,0,-0.35277777,16.622352,288.22007)"
         id="g1164">
        <path
           inkscape:connector-curvature="0"
           id="path1166"
           style="fill:#cb9800;fill-opacity:1;fill-rule:nonzero;stroke:none"
           d="m 0,0 c -2.782,-1.432 -7.176,-3.769 -4.325,-8.257 1.945,-3.063 7.9,-2.972 10.14,-3.699 -2.714,1.126 -5.083,2.628 -7.345,0.373 -2.449,-2.442 -0.296,-5.991 1.47,-7.911 1.727,-2.073 9.923,-2.497 11.923,-0.048 3.518,4.361 2.799,7.002 2.452,12.497 C 14.231,-3.252 11.438,3.397 8.647,6.186 2.29,12.539 -5.112,9.923 -7.453,5.429 -8.524,3.239 -9.031,-0.432 -6.989,-2.342 -4.256,-4.899 -2.34,-1.051 0,0" />
      </g>
      <g
         transform="matrix(0.35277777,0,0,-0.35277777,16.784947,288.33373)"
         id="g1168">
        <path
           inkscape:connector-curvature="0"
           id="path1170"
           style="fill:#1a171b;fill-opacity:1;fill-rule:nonzero;stroke:none"
           d="m 0,0 c -3.021,-1.673 -7.927,-6.495 -2.599,-9.232 0.986,-0.506 1.945,-0.902 3.04,-1.117 0.447,-0.088 4.535,-0.484 2.291,-0.052 -1.352,0.26 -3.029,0.595 -4.267,-0.31 -3.645,-2.668 0.802,-7.932 3.907,-8.726 3.47,-0.886 7.241,-0.26 9.351,2.685 3.368,4.701 1.64,12.588 -0.314,17.467 C 9.237,6.135 4.674,9.967 -1.321,9.193 -5.596,8.643 -8.108,5.115 -8.038,1.009 -7.93,-5.253 -2.287,-1.633 0.459,-0.154 0.915,0.091 0.209,0.112 0,0 -2.673,-1.438 -6.646,-2.749 -7.265,1.216 -8.102,6.572 -2.43,9.922 2.937,8.559 c 5.55,-1.411 8.121,-7.991 9.255,-12.957 1.269,-5.563 1.192,-14.49 -6.363,-14.948 -2.361,-0.143 -4.59,0.385 -6.083,2.23 -0.986,1.219 -1.472,2.463 -1.794,3.94 -0.66,3.023 5.256,2.163 7.061,1.981 0.139,-0.015 0.849,0.269 0.558,0.343 -1.857,0.474 -3.764,0.638 -5.625,1.121 -1.967,0.51 -2.987,1.587 -3.834,3.42 -1.354,2.932 2.418,5.088 4.347,6.157 C 0.912,0.097 0.208,0.115 0,0" />
      </g>
      <g
         transform="matrix(0.35277777,0,0,-0.35277777,15.123223,289.87334)"
         id="g1172">
        <path
           inkscape:connector-curvature="0"
           id="path1174"
           style="fill:#1a171b;fill-opacity:1;fill-rule:nonzero;stroke:none"
           d="m 0,0 c -2.051,-1.95 -2.898,-5.406 -3.787,-7.996 -0.963,-2.805 -1.587,-5.338 -1.92,-8.286 -0.027,-0.242 0.743,-0.088 0.767,0.121 0.315,2.792 0.877,5.129 1.754,7.795 0.881,2.678 1.798,6.403 3.893,8.395 C 0.9,0.213 0.148,0.141 0,0" />
      </g>
      <g
         transform="matrix(0.35277777,0,0,-0.35277777,16.67989,291.72993)"
         id="g1176">
        <path
           inkscape:connector-curvature="0"
           id="path1178"
           style="fill:#1a171b;fill-opacity:1;fill-rule:nonzero;stroke:none"
           d="m 0,0 c -6.002,0.489 -7.726,-6.457 -8.65,-11.074 -0.081,-0.405 0.712,-0.32 0.786,0.049 0.803,4.013 2.246,10.866 7.606,10.429 C 0.141,-0.629 0.522,-0.042 0,0" />
      </g>
    </g>
  </g>
</svg>
