<svg xmlns='http://www.w3.org/2000/svg'><g><text class="title plainText" text-anchor="middle" font-size="15" x="500" y="17" fill="black">LAMB4</text><svg class="plotArea" x="50" y="35" width="940" height="915"><rect class="clickPanel" fill="transparent" width="940" height="915"></rect><g class="chart_g active" id="layer0"><path class="data_element" id="player0_0" d="M9.397616998242013,0A9.397616998242013,9.397616998242013,0,1,1,-9.397616998242013,0A9.397616998242013,9.397616998242013,0,1,1,9.397616998242013,0" fill="#1f77b4" stroke="rgb(23, 89, 135)" stroke-width="1" opacity="1" transform="translate(15.161290322580726, 388.9626144747201)"></path><path class="data_element" id="player0_2" d="M9.397616998242013,0A9.397616998242013,9.397616998242013,0,1,1,-9.397616998242013,0A9.397616998242013,9.397616998242013,0,1,1,9.397616998242013,0" fill="#ff7f0e" stroke="rgb(192, 95, 11)" stroke-width="1" opacity="1" transform="translate(15.161290322580726, 256.5720724101178)"></path><path class="data_element" id="player0_3" d="M9.397616998242013,0A9.397616998242013,9.397616998242013,0,1,1,-9.397616998242013,0A9.397616998242013,9.397616998242013,0,1,1,9.397616998242013,0" fill="#1f77b4" stroke="rgb(23, 89, 135)" stroke-width="1" opacity="1" transform="translate(65.69892473118287, 134.36031464411235)"></path><path class="data_element" id="player0_5" d="M9.397616998242013,0A9.397616998242013,9.397616998242013,0,1,1,-9.397616998242013,0A9.397616998242013,9.397616998242013,0,1,1,9.397616998242013,0" fill="#ff7f0e" stroke="rgb(192, 95, 11)" stroke-width="1" opacity="1" transform="translate(65.69892473118287, 550.0085157741596)"></path><path class="data_element" id="player0_6" d="M9.397616998242013,0A9.397616998242013,9.397616998242013,0,1,1,-9.397616998242013,0A9.397616998242013,9.397616998242013,0,1,1,9.397616998242013,0" fill="#1f77b4" stroke="rgb(23, 89, 135)" stroke-width="1" opacity="1" transform="translate(116.23655913978502, 245.97055571004216)"></path><path class="data_element" id="player0_8" d="M9.397616998242013,0A9.397616998242013,9.397616998242013,0,1,1,-9.397616998242013,0A9.397616998242013,9.397616998242013,0,1,1,9.397616998242013,0" fill="#ff7f0e" stroke="rgb(192, 95, 11)" stroke-width="1" opacity="1" transform="translate(116.23655913978502, 533.4035290510215)"></path><path class="data_element" id="player0_9" d="M9.397616998242013,0A9.397616998242013,9.397616998242013,0,1,1,-9.397616998242013,0A9.397616998242013,9.397616998242013,0,1,1,9.397616998242013,0" fill="#1f77b4" stroke="rgb(23, 89, 135)" stroke-width="1" opacity="1" transform="translate(166.77419354838716, 150.99410301736543)"></path><path class="data_element" id="player0_11" d="M9.397616998242013,0A9.397616998242013,9.397616998242013,0,1,1,-9.397616998242013,0A9.397616998242013,9.397616998242013,0,1,1,9.397616998242013,0" fill="#ff7f0e" stroke="rgb(192, 95, 11)" stroke-width="1" opacity="1" transform="translate(166.77419354838716, 357.8692031530968)"></path><path class="data_element" id="player0_12" d="M9.397616998242013,0A9.397616998242013,9.397616998242013,0,1,1,-9.397616998242013,0A9.397616998242013,9.397616998242013,0,1,1,9.397616998242013,0" fill="#1f77b4" stroke="rgb(23, 89, 135)" stroke-width="1" opacity="1" transform="translate(217.3118279569893, 312.0022157850067)"></path><path class="data_element" id="player0_14" d="M9.397616998242013,0A9.397616998242013,9.397616998242013,0,1,1,-9.397616998242013,0A9.397616998242013,9.397616998242013,0,1,1,9.397616998242013,0" fill="#ff7f0e" stroke="rgb(192, 95, 11)" stroke-width="1" opacity="1" transform="translate(217.3118279569893, 502.73996705982665)"></path><path class="data_element" id="player0_15" d="M9.397616998242013,0A9.397616998242013,9.397616998242013,0,1,1,-9.397616998242013,0A9.397616998242013,9.397616998242013,0,1,1,9.397616998242013,0" fill="#1f77b4" stroke="rgb(23, 89, 135)" stroke-width="1" opacity="1" transform="translate(267.8494623655914, 231.48008056474123)"></path><path class="data_element" id="player0_17" d="M9.397616998242013,0A9.397616998242013,9.397616998242013,0,1,1,-9.397616998242013,0A9.397616998242013,9.397616998242013,0,1,1,9.397616998242013,0" fill="#ff7f0e" stroke="rgb(192, 95, 11)" stroke-width="1" opacity="1" transform="translate(267.8494623655914, 494.1631487179877)"></path><path class="data_element" id="player0_18" d="M9.397616998242013,0A9.397616998242013,9.397616998242013,0,1,1,-9.397616998242013,0A9.397616998242013,9.397616998242013,0,1,1,9.397616998242013,0" fill="#1f77b4" stroke="rgb(23, 89, 135)" stroke-width="1" opacity="1" transform="translate(318.3870967741936, 80.78861301895336)"></path><path class="data_element" id="player0_20" d="M9.397616998242013,0A9.397616998242013,9.397616998242013,0,1,1,-9.397616998242013,0A9.397616998242013,9.397616998242013,0,1,1,9.397616998242013,0" fill="#ff7f0e" stroke="rgb(192, 95, 11)" stroke-width="1" opacity="1" transform="translate(318.3870967741936, 450.9041944180443)"></path><path class="data_element" id="player0_21" d="M9.397616998242013,0A9.397616998242013,9.397616998242013,0,1,1,-9.397616998242013,0A9.397616998242013,9.397616998242013,0,1,1,9.397616998242013,0" fill="#1f77b4" stroke="rgb(23, 89, 135)" stroke-width="1" opacity="1" transform="translate(368.92473118279577, 184.06099916592927)"></path><path class="data_element" id="player0_23" d="M9.397616998242013,0A9.397616998242013,9.397616998242013,0,1,1,-9.397616998242013,0A9.397616998242013,9.397616998242013,0,1,1,9.397616998242013,0" fill="#ff7f0e" stroke="rgb(192, 95, 11)" stroke-width="1" opacity="1" transform="translate(368.92473118279577, 363.3832371560321)"></path><path class="data_element" id="player0_24" d="M9.397616998242013,0A9.397616998242013,9.397616998242013,0,1,1,-9.397616998242013,0A9.397616998242013,9.397616998242013,0,1,1,9.397616998242013,0" fill="#1f77b4" stroke="rgb(23, 89, 135)" stroke-width="1" opacity="1" transform="translate(419.4623655913979, 142.25129347794223)"></path><path class="data_element" id="player0_26" d="M9.397616998242013,0A9.397616998242013,9.397616998242013,0,1,1,-9.397616998242013,0A9.397616998242013,9.397616998242013,0,1,1,9.397616998242013,0" fill="#ff7f0e" stroke="rgb(192, 95, 11)" stroke-width="1" opacity="1" transform="translate(419.4623655913979, 281.8750151763255)"></path><path class="data_element" id="player0_27" d="M9.397616998242013,0A9.397616998242013,9.397616998242013,0,1,1,-9.397616998242013,0A9.397616998242013,9.397616998242013,0,1,1,9.397616998242013,0" fill="#1f77b4" stroke="rgb(23, 89, 135)" stroke-width="1" opacity="1" transform="translate(470, 452.3559775390673)"></path><path class="data_element" id="player0_29" d="M9.397616998242013,0A9.397616998242013,9.397616998242013,0,1,1,-9.397616998242013,0A9.397616998242013,9.397616998242013,0,1,1,9.397616998242013,0" fill="#ff7f0e" stroke="rgb(192, 95, 11)" stroke-width="1" opacity="1" transform="translate(470, 571.8205331047051)"></path><path class="data_element" id="player0_30" d="M9.397616998242013,0A9.397616998242013,9.397616998242013,0,1,1,-9.397616998242013,0A9.397616998242013,9.397616998242013,0,1,1,9.397616998242013,0" fill="#1f77b4" stroke="rgb(23, 89, 135)" stroke-width="1" opacity="1" transform="translate(520.5376344086021, 229.3948232949043)"></path><path class="data_element" id="player0_32" d="M9.397616998242013,0A9.397616998242013,9.397616998242013,0,1,1,-9.397616998242013,0A9.397616998242013,9.397616998242013,0,1,1,9.397616998242013,0" fill="#ff7f0e" stroke="rgb(192, 95, 11)" stroke-width="1" opacity="1" transform="translate(520.5376344086021, 502.1624011752554)"></path><path class="data_element" id="player0_33" d="M9.397616998242013,0A9.397616998242013,9.397616998242013,0,1,1,-9.397616998242013,0A9.397616998242013,9.397616998242013,0,1,1,9.397616998242013,0" fill="#1f77b4" stroke="rgb(23, 89, 135)" stroke-width="1" opacity="1" transform="translate(571.0752688172043, 121.50787649531685)"></path><path class="data_element" id="player0_35" d="M9.397616998242013,0A9.397616998242013,9.397616998242013,0,1,1,-9.397616998242013,0A9.397616998242013,9.397616998242013,0,1,1,9.397616998242013,0" fill="#ff7f0e" stroke="rgb(192, 95, 11)" stroke-width="1" opacity="1" transform="translate(571.0752688172043, 613.9403664275915)"></path><path class="data_element" id="player0_36" d="M9.397616998242013,0A9.397616998242013,9.397616998242013,0,1,1,-9.397616998242013,0A9.397616998242013,9.397616998242013,0,1,1,9.397616998242013,0" fill="#1f77b4" stroke="rgb(23, 89, 135)" stroke-width="1" opacity="1" transform="translate(621.6129032258065, 94.23842043359457)"></path><path class="data_element" id="player0_38" d="M9.397616998242013,0A9.397616998242013,9.397616998242013,0,1,1,-9.397616998242013,0A9.397616998242013,9.397616998242013,0,1,1,9.397616998242013,0" fill="#ff7f0e" stroke="rgb(192, 95, 11)" stroke-width="1" opacity="1" transform="translate(621.6129032258065, 541.8152664976158)"></path><path class="data_element" id="player0_39" d="M9.397616998242013,0A9.397616998242013,9.397616998242013,0,1,1,-9.397616998242013,0A9.397616998242013,9.397616998242013,0,1,1,9.397616998242013,0" fill="#1f77b4" stroke="rgb(23, 89, 135)" stroke-width="1" opacity="1" transform="translate(672.1505376344086, 81.10871666686273)"></path><path class="data_element" id="player0_41" d="M9.397616998242013,0A9.397616998242013,9.397616998242013,0,1,1,-9.397616998242013,0A9.397616998242013,9.397616998242013,0,1,1,9.397616998242013,0" fill="#ff7f0e" stroke="rgb(192, 95, 11)" stroke-width="1" opacity="1" transform="translate(672.1505376344086, 327.4668443477475)"></path><path class="data_element" id="player0_42" d="M9.397616998242013,0A9.397616998242013,9.397616998242013,0,1,1,-9.397616998242013,0A9.397616998242013,9.397616998242013,0,1,1,9.397616998242013,0" fill="#1f77b4" stroke="rgb(23, 89, 135)" stroke-width="1" opacity="1" transform="translate(722.6881720430108, 283.51805069424336)"></path><path class="data_element" id="player0_44" d="M9.397616998242013,0A9.397616998242013,9.397616998242013,0,1,1,-9.397616998242013,0A9.397616998242013,9.397616998242013,0,1,1,9.397616998242013,0" fill="#ff7f0e" stroke="rgb(192, 95, 11)" stroke-width="1" opacity="1" transform="translate(722.6881720430108, 376.96804169986774)"></path><path class="data_element" id="player0_45" d="M9.397616998242013,0A9.397616998242013,9.397616998242013,0,1,1,-9.397616998242013,0A9.397616998242013,9.397616998242013,0,1,1,9.397616998242013,0" fill="#1f77b4" stroke="rgb(23, 89, 135)" stroke-width="1" opacity="1" transform="translate(773.2258064516129, 133.23055379604432)"></path><path class="data_element" id="player0_47" d="M9.397616998242013,0A9.397616998242013,9.397616998242013,0,1,1,-9.397616998242013,0A9.397616998242013,9.397616998242013,0,1,1,9.397616998242013,0" fill="#ff7f0e" stroke="rgb(192, 95, 11)" stroke-width="1" opacity="1" transform="translate(773.2258064516129, 421.87009021901144)"></path><path class="data_element" id="player0_48" d="M9.397616998242013,0A9.397616998242013,9.397616998242013,0,1,1,-9.397616998242013,0A9.397616998242013,9.397616998242013,0,1,1,9.397616998242013,0" fill="#1f77b4" stroke="rgb(23, 89, 135)" stroke-width="1" opacity="1" transform="translate(823.763440860215, 325.15000452189395)"></path><path class="data_element" id="player0_50" d="M9.397616998242013,0A9.397616998242013,9.397616998242013,0,1,1,-9.397616998242013,0A9.397616998242013,9.397616998242013,0,1,1,9.397616998242013,0" fill="#ff7f0e" stroke="rgb(192, 95, 11)" stroke-width="1" opacity="1" transform="translate(823.763440860215, 420.2364244187978)"></path><path class="data_element" id="player0_51" d="M9.397616998242013,0A9.397616998242013,9.397616998242013,0,1,1,-9.397616998242013,0A9.397616998242013,9.397616998242013,0,1,1,9.397616998242013,0" fill="#1f77b4" stroke="rgb(23, 89, 135)" stroke-width="1" opacity="1" transform="translate(874.3010752688172, 185.58899726340223)"></path><path class="data_element" id="player0_53" d="M9.397616998242013,0A9.397616998242013,9.397616998242013,0,1,1,-9.397616998242013,0A9.397616998242013,9.397616998242013,0,1,1,9.397616998242013,0" fill="#ff7f0e" stroke="rgb(192, 95, 11)" stroke-width="1" opacity="1" transform="translate(874.3010752688172, 284.8144899166251)"></path><path class="data_element" id="player0_54" d="M9.397616998242013,0A9.397616998242013,9.397616998242013,0,1,1,-9.397616998242013,0A9.397616998242013,9.397616998242013,0,1,1,9.397616998242013,0" fill="#1f77b4" stroke="rgb(23, 89, 135)" stroke-width="1" opacity="1" transform="translate(924.8387096774193, 177.34326422546678)"></path><path class="data_element" id="player0_56" d="M9.397616998242013,0A9.397616998242013,9.397616998242013,0,1,1,-9.397616998242013,0A9.397616998242013,9.397616998242013,0,1,1,9.397616998242013,0" fill="#ff7f0e" stroke="rgb(192, 95, 11)" stroke-width="1" opacity="1" transform="translate(924.8387096774193, 834.2113869810466)"></path></g></svg><g class="axes_g" transform="translate(50, 35)"><g class="x axis" transform="translate(0,915)" fill="none" font-size="10" font-family="sans-serif" text-anchor="middle"><text class="label" y="-6" x="940" fill="black" style="text-anchor: end; fill: rgb(68, 68, 68); font-size: 18px;">Patients</text><path class="domain" stroke="#000" d="M0.5,6V0.5H940.5V6"></path><g class="tick" opacity="1" transform="translate(15.661290322580726,0)"><line stroke="#000" y2="6"></line><text fill="black" y="9" dy="0.30000000000000004em" transform="rotate(-45)" dx="-.8em" style="text-anchor: end;">PG004</text></g><g class="tick" opacity="1" transform="translate(66.19892473118287,0)"><line stroke="#000" y2="6"></line><text fill="black" y="9" dy="0.30000000000000004em" transform="rotate(-45)" dx="-.8em" style="text-anchor: end;">PG038</text></g><g class="tick" opacity="1" transform="translate(116.73655913978502,0)"><line stroke="#000" y2="6"></line><text fill="black" y="9" dy="0.30000000000000004em" transform="rotate(-45)" dx="-.8em" style="text-anchor: end;">PG049</text></g><g class="tick" opacity="1" transform="translate(167.27419354838716,0)"><line stroke="#000" y2="6"></line><text fill="black" y="9" dy="0.30000000000000004em" transform="rotate(-45)" dx="-.8em" style="text-anchor: end;">PG063</text></g><g class="tick" opacity="1" transform="translate(217.8118279569893,0)"><line stroke="#000" y2="6"></line><text fill="black" y="9" dy="0.30000000000000004em" transform="rotate(-45)" dx="-.8em" style="text-anchor: end;">PG079</text></g><g class="tick" opacity="1" transform="translate(268.3494623655914,0)"><line stroke="#000" y2="6"></line><text fill="black" y="9" dy="0.30000000000000004em" transform="rotate(-45)" dx="-.8em" style="text-anchor: end;">PG086</text></g><g class="tick" opacity="1" transform="translate(318.8870967741936,0)"><line stroke="#000" y2="6"></line><text fill="black" y="9" dy="0.30000000000000004em" transform="rotate(-45)" dx="-.8em" style="text-anchor: end;">PG105</text></g><g class="tick" opacity="1" transform="translate(369.42473118279577,0)"><line stroke="#000" y2="6"></line><text fill="black" y="9" dy="0.30000000000000004em" transform="rotate(-45)" dx="-.8em" style="text-anchor: end;">PG108</text></g><g class="tick" opacity="1" transform="translate(419.9623655913979,0)"><line stroke="#000" y2="6"></line><text fill="black" y="9" dy="0.30000000000000004em" transform="rotate(-45)" dx="-.8em" style="text-anchor: end;">PG114</text></g><g class="tick" opacity="1" transform="translate(470.5,0)"><line stroke="#000" y2="6"></line><text fill="black" y="9" dy="0.30000000000000004em" transform="rotate(-45)" dx="-.8em" style="text-anchor: end;">PG122</text></g><g class="tick" opacity="1" transform="translate(521.0376344086021,0)"><line stroke="#000" y2="6"></line><text fill="black" y="9" dy="0.30000000000000004em" transform="rotate(-45)" dx="-.8em" style="text-anchor: end;">PG123</text></g><g class="tick" opacity="1" transform="translate(571.5752688172043,0)"><line stroke="#000" y2="6"></line><text fill="black" y="9" dy="0.30000000000000004em" transform="rotate(-45)" dx="-.8em" style="text-anchor: end;">PG129</text></g><g class="tick" opacity="1" transform="translate(622.1129032258065,0)"><line stroke="#000" y2="6"></line><text fill="black" y="9" dy="0.30000000000000004em" transform="rotate(-45)" dx="-.8em" style="text-anchor: end;">PG136</text></g><g class="tick" opacity="1" transform="translate(672.6505376344086,0)"><line stroke="#000" y2="6"></line><text fill="black" y="9" dy="0.30000000000000004em" transform="rotate(-45)" dx="-.8em" style="text-anchor: end;">PG137</text></g><g class="tick" opacity="1" transform="translate(723.1881720430108,0)"><line stroke="#000" y2="6"></line><text fill="black" y="9" dy="0.30000000000000004em" transform="rotate(-45)" dx="-.8em" style="text-anchor: end;">PG144</text></g><g class="tick" opacity="1" transform="translate(773.7258064516129,0)"><line stroke="#000" y2="6"></line><text fill="black" y="9" dy="0.30000000000000004em" transform="rotate(-45)" dx="-.8em" style="text-anchor: end;">PG146</text></g><g class="tick" opacity="1" transform="translate(824.263440860215,0)"><line stroke="#000" y2="6"></line><text fill="black" y="9" dy="0.30000000000000004em" transform="rotate(-45)" dx="-.8em" style="text-anchor: end;">PG174</text></g><g class="tick" opacity="1" transform="translate(874.8010752688172,0)"><line stroke="#000" y2="6"></line><text fill="black" y="9" dy="0.30000000000000004em" transform="rotate(-45)" dx="-.8em" style="text-anchor: end;">PG187</text></g><g class="tick" opacity="1" transform="translate(925.3387096774193,0)"><line stroke="#000" y2="6"></line><text fill="black" y="9" dy="0.30000000000000004em" transform="rotate(-45)" dx="-.8em" style="text-anchor: end;">PG192</text></g></g><g class="y axis" fill="none" font-size="10" font-family="sans-serif" text-anchor="end"><text class="label" transform="rotate(-90)" y="6" dy=".71em" style="text-anchor: end; fill: rgb(68, 68, 68); font-size: 18px;" fill="black">CPM</text><path class="domain" stroke="#000" d="M-6,915.5H0.5V0.5H-6"></path><g class="tick" opacity="1" transform="translate(0,915.5)"><line stroke="#000" x2="-6"></line><text fill="black" x="-9" dy="0.32em" transform="rotate(-0, -9, 0)" style="text-anchor: end;"></text></g><g class="tick" opacity="1" transform="translate(0,894.2498151764233)"><line stroke="#000" x2="-6"></line><text fill="black" x="-9" dy="0.32em" transform="rotate(-0, -9, 0)" style="text-anchor: end;"></text></g><g class="tick" opacity="1" transform="translate(0,876.2830399107249)"><line stroke="#000" x2="-6"></line><text fill="black" x="-9" dy="0.32em" transform="rotate(-0, -9, 0)" style="text-anchor: end;"></text></g><g class="tick" opacity="1" transform="translate(0,860.7195112588306)"><line stroke="#000" x2="-6"></line><text fill="black" x="-9" dy="0.32em" transform="rotate(-0, -9, 0)" style="text-anchor: end;"></text></g><g class="tick" opacity="1" transform="translate(0,846.9915060750626)"><line stroke="#000" x2="-6"></line><text fill="black" x="-9" dy="0.32em" transform="rotate(-0, -9, 0)" style="text-anchor: end;"></text></g><g class="tick" opacity="1" transform="translate(0,834.7113869810466)"><line stroke="#000" x2="-6"></line><text fill="black" x="-9" dy="0.32em" transform="rotate(-0, -9, 0)" style="text-anchor: end;">1e-1</text></g><g class="tick" opacity="1" transform="translate(0,753.9227739620933)"><line stroke="#000" x2="-6"></line><text fill="black" x="-9" dy="0.32em" transform="rotate(-0, -9, 0)" style="text-anchor: end;">2e-1</text></g><g class="tick" opacity="1" transform="translate(0,706.6644648607326)"><line stroke="#000" x2="-6"></line><text fill="black" x="-9" dy="0.32em" transform="rotate(-0, -9, 0)" style="text-anchor: end;">3e-1</text></g><g class="tick" opacity="1" transform="translate(0,673.1341609431399)"><line stroke="#000" x2="-6"></line><text fill="black" x="-9" dy="0.32em" transform="rotate(-0, -9, 0)" style="text-anchor: end;"></text></g><g class="tick" opacity="1" transform="translate(0,647.1260366653559)"><line stroke="#000" x2="-6"></line><text fill="black" x="-9" dy="0.32em" transform="rotate(-0, -9, 0)" style="text-anchor: end;"></text></g><g class="tick" opacity="1" transform="translate(0,625.8758518417792)"><line stroke="#000" x2="-6"></line><text fill="black" x="-9" dy="0.32em" transform="rotate(-0, -9, 0)" style="text-anchor: end;"></text></g><g class="tick" opacity="1" transform="translate(0,607.9090765760809)"><line stroke="#000" x2="-6"></line><text fill="black" x="-9" dy="0.32em" transform="rotate(-0, -9, 0)" style="text-anchor: end;"></text></g><g class="tick" opacity="1" transform="translate(0,592.3455479241866)"><line stroke="#000" x2="-6"></line><text fill="black" x="-9" dy="0.32em" transform="rotate(-0, -9, 0)" style="text-anchor: end;"></text></g><g class="tick" opacity="1" transform="translate(0,578.6175427404185)"><line stroke="#000" x2="-6"></line><text fill="black" x="-9" dy="0.32em" transform="rotate(-0, -9, 0)" style="text-anchor: end;"></text></g><g class="tick" opacity="1" transform="translate(0,566.3374236464025)"><line stroke="#000" x2="-6"></line><text fill="black" x="-9" dy="0.32em" transform="rotate(-0, -9, 0)" style="text-anchor: end;">1e+0</text></g><g class="tick" opacity="1" transform="translate(0,485.54881062744914)"><line stroke="#000" x2="-6"></line><text fill="black" x="-9" dy="0.32em" transform="rotate(-0, -9, 0)" style="text-anchor: end;">2e+0</text></g><g class="tick" opacity="1" transform="translate(0,438.29050152608846)"><line stroke="#000" x2="-6"></line><text fill="black" x="-9" dy="0.32em" transform="rotate(-0, -9, 0)" style="text-anchor: end;">3e+0</text></g><g class="tick" opacity="1" transform="translate(0,404.76019760849584)"><line stroke="#000" x2="-6"></line><text fill="black" x="-9" dy="0.32em" transform="rotate(-0, -9, 0)" style="text-anchor: end;"></text></g><g class="tick" opacity="1" transform="translate(0,378.7520733307117)"><line stroke="#000" x2="-6"></line><text fill="black" x="-9" dy="0.32em" transform="rotate(-0, -9, 0)" style="text-anchor: end;"></text></g><g class="tick" opacity="1" transform="translate(0,357.50188850713516)"><line stroke="#000" x2="-6"></line><text fill="black" x="-9" dy="0.32em" transform="rotate(-0, -9, 0)" style="text-anchor: end;"></text></g><g class="tick" opacity="1" transform="translate(0,339.53511324143676)"><line stroke="#000" x2="-6"></line><text fill="black" x="-9" dy="0.32em" transform="rotate(-0, -9, 0)" style="text-anchor: end;"></text></g><g class="tick" opacity="1" transform="translate(0,323.97158458954243)"><line stroke="#000" x2="-6"></line><text fill="black" x="-9" dy="0.32em" transform="rotate(-0, -9, 0)" style="text-anchor: end;"></text></g><g class="tick" opacity="1" transform="translate(0,310.2435794057744)"><line stroke="#000" x2="-6"></line><text fill="black" x="-9" dy="0.32em" transform="rotate(-0, -9, 0)" style="text-anchor: end;"></text></g><g class="tick" opacity="1" transform="translate(0,297.96346031175847)"><line stroke="#000" x2="-6"></line><text fill="black" x="-9" dy="0.32em" transform="rotate(-0, -9, 0)" style="text-anchor: end;">1e+1</text></g><g class="tick" opacity="1" transform="translate(0,217.174847292805)"><line stroke="#000" x2="-6"></line><text fill="black" x="-9" dy="0.32em" transform="rotate(-0, -9, 0)" style="text-anchor: end;">2e+1</text></g><g class="tick" opacity="1" transform="translate(0,169.91653819144437)"><line stroke="#000" x2="-6"></line><text fill="black" x="-9" dy="0.32em" transform="rotate(-0, -9, 0)" style="text-anchor: end;">3e+1</text></g><g class="tick" opacity="1" transform="translate(0,136.38623427385164)"><line stroke="#000" x2="-6"></line><text fill="black" x="-9" dy="0.32em" transform="rotate(-0, -9, 0)" style="text-anchor: end;"></text></g><g class="tick" opacity="1" transform="translate(0,110.37810999606768)"><line stroke="#000" x2="-6"></line><text fill="black" x="-9" dy="0.32em" transform="rotate(-0, -9, 0)" style="text-anchor: end;"></text></g><g class="tick" opacity="1" transform="translate(0,89.1279251724909)"><line stroke="#000" x2="-6"></line><text fill="black" x="-9" dy="0.32em" transform="rotate(-0, -9, 0)" style="text-anchor: end;"></text></g><g class="tick" opacity="1" transform="translate(0,71.16114990679262)"><line stroke="#000" x2="-6"></line><text fill="black" x="-9" dy="0.32em" transform="rotate(-0, -9, 0)" style="text-anchor: end;"></text></g><g class="tick" opacity="1" transform="translate(0,55.597621254898286)"><line stroke="#000" x2="-6"></line><text fill="black" x="-9" dy="0.32em" transform="rotate(-0, -9, 0)" style="text-anchor: end;"></text></g><g class="tick" opacity="1" transform="translate(0,41.86961607113017)"><line stroke="#000" x2="-6"></line><text fill="black" x="-9" dy="0.32em" transform="rotate(-0, -9, 0)" style="text-anchor: end;"></text></g><g class="tick" opacity="1" transform="translate(0,29.58949697711421)"><line stroke="#000" x2="-6"></line><text fill="black" x="-9" dy="0.32em" transform="rotate(-0, -9, 0)" style="text-anchor: end;">1e+2</text></g></g></g></g><g transform='translate(1000, 0)'><g class="title" transform="rotate(-90)translate(-40, 0)"><text class="plainText" text-anchor="left" font-size="9.047619047619047" y="9.047619047619047">colour_</text><text class="plainText" text-anchor="left" font-size="9.047619047619047" y="18.095238095238095">layer0</text></g><g class="sample" transform="translate(21, 0)"><rect width="20" height="20" fill="#1f77b4"></rect><g transform="translate(25, 0)"><text class="plainText" text-anchor="left" font-size="13" y="13">normal</text></g></g><g class="sample" transform="translate(21, 20)"><rect width="20" height="20" fill="#ff7f0e"></rect><g transform="translate(25, 0)"><text class="plainText" text-anchor="left" font-size="13" y="13">tumour</text></g></g></g></svg>